<?xml version="1.0" standalone="no"?>
<!DOCTYPE svg PUBLIC "-//W3C//DTD SVG 1.1//EN" "http://www.w3.org/Graphics/SVG/1.1/DTD/svg11.dtd" >
<svg>
<metadata>
Created by FontForge 20090622 at Thu Jun 16 12:00:36 2016
 By deploy user
Copyright (c) 2011 by Kimberly Geswein. All rights reserved.
</metadata>
<defs>
<font id="JandaCurlygirlChunky" horiz-adv-x="618" >
  <font-face 
    font-family="Janda Curlygirl Chunky"
    font-weight="400"
    font-stretch="normal"
    units-per-em="1024"
    panose-1="2 0 5 6 0 0 0 2 0 4"
    ascent="819"
    descent="-205"
    x-height="637"
    cap-height="825"
    bbox="-262.167 -599 1241 1101"
    underline-thickness="0"
    underline-position="0"
    unicode-range="U+0020-U+2212"
  />
<missing-glyph horiz-adv-x="400" 
 />
    <glyph glyph-name=".notdef" horiz-adv-x="400" 
 />
    <glyph glyph-name=".null" horiz-adv-x="0" 
 />
    <glyph glyph-name="nonmarkingreturn" horiz-adv-x="400" 
 />
    <glyph glyph-name="space" unicode=" " horiz-adv-x="400" 
 />
    <glyph glyph-name="space" unicode="&#xa0;" horiz-adv-x="400" 
 />
    <glyph glyph-name="H" unicode="H" horiz-adv-x="663" 
d="M456 51h40l-6 370l-292 -14v-353h39v-47l-215 -1v47h52l4 725h-55v47l215 1v-47h-41l-1 -336l289 14l-1 319h-27v47h191v-47h-55l14 -725h40v-47h-191v47z" />
    <glyph glyph-name="w" unicode="w" horiz-adv-x="866" 
d="M645 635l212 2v-52l-49 -1l-141 -577l-42 -3l-190 402l-114 -398h-34l-239 565h-41v52l238 2v-52l-47 -1l159 -299l54 232l44 2l128 -304l95 378h-33v52z" />
    <glyph glyph-name="k" unicode="k" horiz-adv-x="688" 
d="M499 63h59l-201 400l-90 -114l2 -303h65v-41h-303v41q4 0 8 0.5t10.5 0.5t17 -0.5t28.5 -0.5l-12 732h-80l4 41v2h325l3 -43h-88l8 -361l141 162h-21v52l164 -3v-52h-66.5h-22t1.5 0h5q-7 -5 -18.5 -19t-23 -29.5t-19.5 -28t-7 -13.5l216 -423h70v-52h-176v52z" />
    <glyph glyph-name="a" unicode="a" horiz-adv-x="720" 
d="M422 34h49l1 109q-22 -19 -54.5 -42t-70 -45t-78 -39.5t-79 -24.5t-74 -1.5t-61.5 29.5q-35 32 -43 67t4.5 70.5t42 70t69 65.5t86 57t93 45t89.5 29.5t76 9.5q7 48 -3.5 89.5t-37 64t-68 20t-96.5 -40.5q-3 -2 6 -14.5t18.5 -31.5t15 -42t-3 -45t-36 -41t-84.5 -30
q-40 0 -63.5 19.5t-27.5 48.5t13.5 64t59.5 66.5t109.5 55.5t163.5 31q75 6 116.5 -14t62 -60t24.5 -97.5t3.5 -127.5t1 -150t15.5 -165l48 1l-2 -37l-287 -1zM222 132q19 -14 33 -23t27.5 -12.5t28 -0.5t36 14.5t51.5 31.5l74 50v197q-36 -1 -77 -8.5t-79 -22t-69.5 -36
t-47 -49.5t-12 -63.5t34.5 -77.5z" />
    <glyph glyph-name="quotedbl" unicode="&#x22;" horiz-adv-x="349" 
d="M62 567q1 1 9 0t18.5 3t21.5 16t19 38q-61 -11 -86 0.5t-26 32.5t16.5 45t41 37t48 8t37.5 -40q4 -14 2.5 -36t-7.5 -44.5t-15.5 -43.5t-22 -31.5t-27 -8.5t-29.5 24zM230 592q1 1 9 0t18.5 3t21.5 16t19 38q-61 -11 -86 0.5t-26 32.5t16.5 45t41 37t48 8t37.5 -40
q4 -14 2.5 -36t-7.5 -44.5t-15.5 -43.5t-22 -31.5t-27 -8.5t-29.5 24z" />
    <glyph glyph-name="period" unicode="." horiz-adv-x="250" 
d="M34 22q-21 41 -10.5 71.5t36.5 48.5t59.5 23t58 -5t32.5 -36t-16 -69q-13 -18 -33.5 -33t-43.5 -22t-45 -3t-38 25z" />
    <glyph glyph-name="equal" unicode="=" horiz-adv-x="540" 
d="M53 612l39 -2l-4 -25h359l3 21l40 2l4 -117l-40 -2l-6 14l-359 4l-1 -22l-39 2zM55 459l39 -2l-4 -25h359l3 21l40 2l4 -117l-40 -2l-6 14l-359 4l-1 -22l-39 2z" />
    <glyph glyph-name="l" unicode="l" horiz-adv-x="298" 
d="M16 57h66l-1 729l-42 2v52l196 -1l-7 -782h45v-52h-257v52z" />
    <glyph glyph-name="S" unicode="S" horiz-adv-x="748" 
d="M532 692q-3 9 -21 19t-42 18.5t-50.5 15t-45.5 9.5q-39 5 -68.5 -9.5t-49.5 -41t-29.5 -59.5t-9 -66.5t11.5 -62t33 -44.5q29 -21 69.5 -23.5t85.5 1t92 6.5t89 -8t75.5 -42.5t51.5 -96.5q10 -79 -18.5 -137t-81.5 -95t-123 -54t-143.5 -14t-142.5 26.5t-120 67.5h-3v-50
h-46v158h46v-51q67 -45 124.5 -69t105.5 -31t84.5 0t61.5 24q28 19 43 48t19.5 61.5t0.5 66.5t-14.5 62.5t-26.5 49t-35 27.5l-332 12q-62 24 -90 59t-29 74.5t21.5 80.5t61.5 76t91.5 61.5t111 38t120 4t119.5 -39.5v58l44 1l3 -161l-44 -1v31z" />
    <glyph glyph-name="x" unicode="x" horiz-adv-x="708" 
d="M11 51l68 3l189 251l-204 296l-52 -1l-2 2l2 50l229 4v-52h-26l149 -188l163 187h-80v52l244 2v-52l-106 -1l-196 -219l251 -330l53 2v-52l-327 -3v52h72l-148 215l-168 -215l109 1v-52l-220 -4v52z" />
    <glyph glyph-name="b" unicode="b" horiz-adv-x="792" 
d="M-8 836l235 -3l24 -294q58 57 122 77.5t126 13.5t116.5 -38t93 -77t57 -104t8 -119.5t-55 -121.5t-131.5 -112q-36 -21 -88.5 -31.5t-111.5 -14t-120 -2.5t-113.5 2.5t-92 1.5t-55.5 -6l16 39q3 -2 12.5 -3t20.5 -1.5t20.5 0t12.5 1.5l-14 754l-82 -3v41zM248 66
q35 -11 71.5 -7.5t71.5 18.5t66.5 41.5t57.5 62.5q36 51 49.5 104t7.5 99.5t-28 83t-56 56t-78.5 17.5t-94.5 -32q-29 -18 -48 -66.5t-27 -111.5t-6 -133.5t14 -131.5z" />
    <glyph glyph-name="I" unicode="I" horiz-adv-x="604" 
d="M221 51l-1 732h-182v40l548 2l-4 -43l-226 2v-729l230 6v-51l-545 -3v40z" />
    <glyph glyph-name="zero" unicode="0" horiz-adv-x="573" 
d="M136 22q-59 32 -87.5 86t-33.5 120t9 138.5t41 141.5t63 130t74 104.5t75 63.5t66 7q79 -26 125.5 -81t65.5 -125t13.5 -148.5t-29.5 -153.5t-64.5 -140t-91 -106.5t-108.5 -54t-118 17.5zM204 68q10 -14 24 -19.5t28.5 -3.5t27.5 10.5t22 23.5q32 60 50.5 131t28.5 148
t12.5 159t1.5 165q-8 28 -21 48.5t-29.5 27t-35.5 -4t-38 -42.5l-40.5 -104t-39.5 -112t-30.5 -114.5t-14 -112.5t10.5 -106t43 -94z" />
    <glyph glyph-name="greater" unicode="&#x3e;" horiz-adv-x="485" 
d="M118 155h-41l-4 115h41v-33l216 105l-207 163v-18l-41 -2v135l41 1v-24l339 -232l-344 -173v-37z" />
    <glyph glyph-name="c" unicode="c" horiz-adv-x="557" 
d="M508 129q-38 -41 -83 -69.5t-93.5 -42t-98.5 -10t-99 27.5q-53 29 -80.5 79.5t-33.5 111t7.5 125t42.5 122.5t72 103t96.5 66.5t115.5 13t128 -57.5v54h37v-187h-37v46q-11 19 -29 37.5t-42 30t-53.5 14t-63.5 -8.5q-14 -22 -28.5 -64.5t-24.5 -95t-14 -108.5t1 -105.5
t21.5 -86.5t47.5 -51q4 -2 25.5 2t52 16t66 33.5t67.5 56.5v53l38 1v-144h-38v38z" />
    <glyph glyph-name="T" unicode="T" horiz-adv-x="658" 
d="M692 712h-240l-2 -664h52v-52h-299v52h70l1 664h-204v-44h-60v148h60v-52h622v54h60v-148h-60v42z" />
    <glyph glyph-name="m" unicode="m" horiz-adv-x="1118" 
d="M847 58h49q4 28 3.5 82t-6.5 116t-18 124t-31 108t-45 66.5t-59 -0.5q-20 -13 -41.5 -31t-38.5 -40t-28.5 -47.5t-11.5 -52.5q-1 -31 -1.5 -70t0 -78.5t1.5 -76t4 -61.5l50 1v-52l-256 -2v52h36q3 21 7 55.5t7.5 76t6 88t0.5 91t-9.5 84.5t-21.5 69q-56 -26 -91.5 -59.5
t-57.5 -73t-32 -84.5t-15 -92t-6.5 -96.5t-6.5 -97.5l49 -2q1 -23 1 -30.5t-1 -21.5l-257 2v52h55l3 494h-77v52q93 1 143 1h73.5t28 -0.5t6.5 -0.5v-52l-27 -2v-137q20 55 55 98.5t76.5 72.5t84.5 40.5t79 3t60.5 -40t29.5 -89.5q83 82 147.5 119.5t112.5 40.5t81 -24
t53.5 -74.5t30 -109.5t10.5 -129.5t-5 -135t-16 -125.5l72 1v-52l-256 -2v52z" />
    <glyph glyph-name="J" unicode="J" horiz-adv-x="653" 
d="M198 11q-53 12 -96 48t-64.5 83t-15 99.5t51.5 99.5q24 22 50.5 35t53 12t49.5 -17t39 -53q15 -53 7.5 -85.5t-27 -46.5t-45 -10.5t-47 22.5t-33 52.5t-2.5 78.5q-45 -37 -52.5 -81.5t10.5 -86t55.5 -73.5t83 -42.5t92 6.5t83.5 73q16 32 25 78.5t12.5 102t2.5 117
t-3.5 123.5t-5.5 122.5t-4 113.5l-133 1l3 47q103 2 176.5 3t124 1h81.5h48.5t25 -0.5t12.5 -0.5l-3 -43l-145 -4q1 -65 5 -137.5t6 -146t-1.5 -145t-17.5 -133.5t-41.5 -111.5t-75 -79.5t-117.5 -37t-168 15z" />
    <glyph glyph-name="y" unicode="y" horiz-adv-x="699" 
d="M430 663h254v-52l-53 4q-3 -89 -5 -184.5t-7.5 -191t-18 -186t-36 -168.5t-62 -139t-96 -97t-137.5 -43.5t-188 22.5q-51 19 -77 61t-29.5 91.5t13.5 99t53 83.5q40 38 73 48t56.5 1.5t37.5 -30t16.5 -45.5t-6.5 -46t-31 -30.5t-58.5 0.5t-87.5 46q-27 -91 -12.5 -146.5
t54 -76.5t95 -8.5t109 56.5t96 119t57.5 180l-354 572l-70 1v52l256 2v-52l-123 -1l308 -499l26 505h-53v52z" />
    <glyph glyph-name="numbersign" unicode="#" horiz-adv-x="854" 
d="M604 694h231l-4 -51h-89l-32 -113l93 3q3 0 4 -6t0.5 -13.5t-2 -15t-2.5 -9.5l-108 -5q-7 -21 -15.5 -42t-17 -44.5t-17 -51t-15.5 -60.5h103l-8 -43l-117 -2q-5 -5 -12 -23t-14.5 -41t-14.5 -47.5l-12 -41.5h31l2 -47h-219l-2 47h53l52 164h-132l-68 -154h31l2 -47h-219
l-2 47h53l67 162l-55 4q-1 0 0 5t3 12t3.5 13t2.5 8l64 -4l80 193h-80l9 44l86 -5l11.5 25l15 33l14.5 32t10 23h-71l4 51h241l-4 -51h-32l-53 -118l109 -1l42 119h-4zM358 298h125l79 193h-120z" />
    <glyph glyph-name="one" unicode="1" horiz-adv-x="352" 
d="M98 60l19 659l-100 -27l19 46l235 71l-15 -752l65 4l1 -48h-31h-54t-65.5 -1t-65.5 -1.5t-54 -1.5t-30 -1l3 47z" />
    <glyph glyph-name="question" unicode="?" horiz-adv-x="535" 
d="M177 237h30l-2 137q2 16 19 26t40.5 17.5t50.5 14.5t50 18.5t39 28.5t18 45q3 46 -4.5 82.5t-22.5 64t-36.5 47.5t-45.5 34q-44 26 -83 26t-71.5 -15.5t-56 -41t-35.5 -50.5t-11 -44.5t18 -22.5q32 37 59.5 48t47 5.5t29.5 -23t8.5 -37.5t-16 -37.5t-44.5 -23.5
q-35 -7 -62.5 1t-45 26t-23 44t3.5 55q21 64 56 101t77.5 52.5t88.5 11.5t89.5 -22t81 -48.5t61.5 -68t31.5 -79t-8.5 -83t-59 -80.5t-119 -70l-10 -139h35v-37h-178v37zM173 27q-24 40 -16.5 68.5t31 44t56.5 18.5t59.5 -6.5t40 -32.5t-0.5 -59q-14 -18 -35.5 -33t-46 -22
t-48 -3t-40.5 25z" />
    <glyph glyph-name="U" unicode="U" horiz-adv-x="832" 
d="M548 811h300v-46l-124 6q13 -132 14 -246.5t-14.5 -206.5t-50.5 -159.5t-95.5 -106t-149.5 -45.5t-212 22q-29 22 -52.5 48.5t-41.5 65t-29 91t-15.5 127t-1 174t15.5 230.5h-70v46h300v-46h-65q-8 -54 -12 -120t-2.5 -134.5t10 -135.5t24.5 -123.5t41 -99t59.5 -61.5
t80 -11t102.5 52q39 44 61 101t33 118.5t13.5 124t1 118.5t-4.5 101t-2 72l-114 -2v46z" />
    <glyph glyph-name="z" unicode="z" horiz-adv-x="643" 
d="M197 379l106 6l184 225q-29 -14 -65 -23t-74 -14t-74 -7t-64 -1.5t-45.5 2t-17.5 4.5v-42h-34v126h34v-34q41 -12 87.5 -11.5t94 6.5t94.5 16t89 16t78 6.5t61 -11.5l-174 -256l90 -3l-0.5 -6t-1.5 -13.5t-1.5 -13.5t-0.5 -7l-113 2l-19.5 -27l-34 -46l-42 -55.5l-42 -56
l-34 -46.5t-18.5 -27q18 -11 61.5 -20.5t93.5 -12.5t95 3.5t66 27.5l-3 51h42l3 -129h-42l-3 33q-55 -26 -104 -29t-93.5 4.5t-86 19.5t-81.5 16t-79 -6t-79 -46l-25 41l240 303h-68v35z" />
    <glyph glyph-name="K" unicode="K" horiz-adv-x="712" 
d="M460 58l84 -2l-202 423l-137 -123l-11 -298l108 2v-54l-290 -5v54h29l28 717l-60 -1v54l284 6h1q4 0 4 -1v-53l-81 -2l-12 -369l363 367h-106v54h237v-54h-69l-242 -261l217 -457l96 -2v-54l-241 5v54z" />
    <glyph glyph-name="dollar" unicode="$" 
d="M213 -106h39l6 105q0 3 -18 5.5t-45 9t-58.5 19t-57.5 35t-42.5 58t-14.5 87.5h-40v45h108v-45h-24q6 -30 20.5 -58.5t37.5 -49.5t53.5 -32t68.5 -5l7 336q-22 10 -48.5 37t-47.5 63t-32 75.5t-2.5 74t41.5 59.5t99 31l5 83h-49v49h160v-49h-45q-1 -23 -2.5 -47.5
t-1.5 -32.5q81 -46 114.5 -81t38.5 -58h29v-45h-103v45h19q-10 14 -22.5 28.5t-25 26.5t-25.5 19.5t-25 7.5v-136q28 -8 61.5 -19t66.5 -27t62.5 -36.5t50.5 -47t30 -59t1 -72.5q-19 -67 -58.5 -116.5t-85 -84.5t-89.5 -58l-71 -38l1 -102h22v-35h-108v35zM303 79
q10 -3 24.5 1.5t29.5 12t27.5 16.5t20.5 16q51 43 65.5 80.5t5.5 67.5t-34.5 53.5t-54.5 39.5t-54.5 25t-33.5 11zM285 701q-37 3 -59 -9.5t-24.5 -32t17 -42t66.5 -41.5v125z" />
    <glyph glyph-name="n" unicode="n" horiz-adv-x="700" 
d="M11 656l240 2v-52h-33v-119q20 34 50.5 68t67 60t75.5 39t75.5 3.5t68.5 -45t53.5 -106.5t30 -182.5t-0.5 -272.5l50 1v-52l-242 -4v52h27q5 45 7 100t0.5 112.5t-6.5 113.5t-13 102.5t-19.5 80.5t-25.5 47q-72 -29 -113 -79.5t-61 -120t-24 -159t-1 -196.5l39 1v-52
l-247 -3v52h39l23 557h-60v52z" />
    <glyph glyph-name="two" unicode="2" horiz-adv-x="639" 
d="M603 0l-41 3l5 43q-27 -27 -63.5 -33.5t-79.5 -2t-91 14.5t-97.5 16t-98.5 3.5t-94 -23.5l3 55l26.5 32l39.5 46.5l45.5 53.5l44.5 53.5l38 46.5t26 33q8 16 29 53l45 83t45.5 95.5t30.5 90.5t-0.5 68t-46.5 29q-29 1 -64 -7.5t-67 -27.5t-56.5 -50t-31.5 -74h-57v204h57
v-88q93 68 174 89.5t138.5 6t85 -62t14.5 -114.5q-26 -97 -57.5 -170.5t-66 -136t-70 -119t-68.5 -120.5q16 -3 40 -10t51 -13.5t54.5 -9.5t52.5 1t44 18t29 43l-3 58h41z" />
    <glyph glyph-name="d" unicode="d" horiz-adv-x="657" 
d="M380 41l49 2v60q-91 -61 -160.5 -76t-118.5 4t-78.5 64.5t-41 105.5t-6.5 127t24.5 128t53.5 110.5t80.5 73.5t104 16t124.5 -61l4 199l-68 -6l3 38l288 1l-3 -34l-65 1l17 -754l47 6l3 -36l-254 -5zM306 84q11 -5 30.5 0t38.5 16.5t33 27.5t14 33l-6 369
q-31 50 -61 61.5t-56.5 -4t-47 -53.5t-33 -87.5t-15.5 -105t6.5 -106.5t33 -91.5t63.5 -59.5z" />
    <glyph glyph-name="at" unicode="@" horiz-adv-x="862" 
d="M118 57q-57 45 -80 111t-10 138q12 67 47.5 131.5t87 116.5t116 86t135.5 41q42 4 95 -5t106 -28.5t100.5 -50t77.5 -69.5t37.5 -86.5t-19.5 -100.5q-15 -30 -38.5 -49t-49 -35l-50.5 -33t-43 -42h-125q-9 0 -18.5 13.5t-17.5 31t-13.5 34t-7.5 23.5q-46 -58 -90.5 -80.5
t-79.5 -19.5t-57.5 26.5t-24.5 59t19.5 78t73.5 83.5q17 13 40.5 21t46.5 7t42.5 -13t29.5 -37q1 4 5 17t6 16t6 7.5t5 4.5h92q6 0 9.5 -9t1.5 -14q-1 -2 -4 -7t-7 -10t-7.5 -10t-4.5 -7v-147q0 -11 8 -13t18 0t19 6.5t11 6.5q61 51 77.5 107.5t1.5 108.5t-56 94t-95 65
t-115 21t-116.5 -38t-98.5 -112t-62 -201q-5 -26 -3.5 -58t9 -63.5t23 -59.5t39.5 -46l43 -13t57.5 -14t61 -9t53.5 2q33 6 57.5 14t45.5 18.5l42 22l48 25.5q4 2 9.5 0t9.5 -5.5t5.5 -9t-1.5 -9.5q-9 -14 -26 -24.5t-35.5 -19t-36 -14.5t-27.5 -10q-101 -35 -201 -24
t-197 59zM312 272q13 -19 29 -21.5t31 6t27.5 25t19.5 36.5t6.5 41t-11.5 38q-15 23 -31.5 26.5t-31.5 -5.5t-27 -27.5t-18.5 -40t-5.5 -43t12 -35.5z" />
    <glyph glyph-name="percent" unicode="%" horiz-adv-x="546" 
d="M13 49l399 833l93 -33l-398 -838zM55 607q-32 24 -40.5 55t0.5 60t32 52t52.5 31.5t62.5 -2t63 -48.5q19 -25 20 -50.5t-10.5 -47.5t-33 -39t-46.5 -25t-51.5 -5.5t-48.5 19.5zM99 641q15 -10 33 -11t34.5 5.5t29 19.5t17.5 31q6 23 -7.5 33.5t-34.5 11t-44.5 -7t-38 -20
t-14.5 -29t25 -33.5zM319 81q-32 24 -40.5 55t0.5 60t32 52t52.5 31.5t62.5 -2t63 -48.5q19 -25 20 -50.5t-10.5 -47.5t-33 -39t-46.5 -25t-51.5 -5.5t-48.5 19.5zM363 115q15 -10 33 -11t34.5 5.5t29 19.5t17.5 31q6 23 -7.5 33.5t-34.5 11t-44.5 -7t-38 -20t-14.5 -29
t25 -33.5z" />
    <glyph glyph-name="V" unicode="V" horiz-adv-x="811" 
d="M-5 828h256l1 -46h-39l330 -532l14 49.5l24 84l30 104.5l32 111l31 103.5l26 81.5h-68v46h199v-46h-81l-225 -770l-42 2l-443 766h-44z" />
    <glyph glyph-name="L" unicode="L" horiz-adv-x="639" 
d="M575 24h-508l11 756h-62v54h264v-54h-52l-1 -702h348v51h47v-125h-47v20z" />
    <glyph glyph-name="three" unicode="3" horiz-adv-x="633" 
d="M109 817l47 2l2 -40l298 2l3 -47l-165 -136q68 12 124.5 -12t97 -70t62.5 -108t20.5 -126t-28 -123.5t-82.5 -101.5q-57 -34 -125.5 -48.5t-133 -10.5t-117 27t-78.5 65q-16 22 -14.5 40.5t14 31.5t32 20.5t40 7.5t37.5 -7.5t24.5 -23.5t1 -41t-32.5 -61
q70 -31 136.5 -19.5t115.5 58.5t74.5 126t13.5 183q-7 63 -30 94.5t-53.5 42.5t-65 6t-66 -15.5t-55.5 -21t-34 -11.5l-2 42l207 195l-219 -3v-11.5t-2 -45.5l-44 3z" />
    <glyph glyph-name="o" unicode="o" horiz-adv-x="676" 
d="M153 11q-50 19 -80.5 55t-45 82t-14.5 99.5t12 107t34.5 104.5t52.5 92t66 70t76 38q119 16 200.5 -9.5t129 -76.5t62.5 -120.5t1.5 -141t-54 -137.5t-104 -111.5t-148.5 -62.5t-188 11zM270 604q-24 -27 -40 -72t-24 -98.5t-7.5 -111.5t9.5 -111.5t26.5 -98.5t43.5 -73
q52 1 90 28t62 69t34.5 95.5t8.5 108t-16.5 105.5t-40.5 89t-62.5 58t-83.5 12z" />
    <glyph glyph-name="braceleft" unicode="{" horiz-adv-x="502" 
d="M481 -24q-9 -19 -29.5 -41.5t-46.5 -42t-54.5 -31.5t-54.5 -9.5t-46.5 23t-29.5 66.5q-8 38 -5 82t7 86.5t4.5 80.5t-14 64.5t-49.5 38.5t-100 3l7 56q4 2 18.5 3t35 5t44 12t45 23t38 38t23.5 57q-6 28 -22 46t-35.5 33l-39.5 30t-33.5 36t-18.5 52t6 79q9 37 35.5 60.5
t61 35.5t73 14.5t71.5 -2.5l11 -31q-36 8 -66.5 -1t-52.5 -29.5t-34 -49.5t-10.5 -62t17.5 -67t50 -63q31 -42 34 -77t-14.5 -64t-51 -53t-73.5 -45q47 -7 73 -32.5t38 -61.5t14.5 -77.5t3.5 -80.5t4.5 -70t18.5 -46t44 -10t82 40z" />
    <glyph glyph-name="e" unicode="e" 
d="M542 50l-2 36q-51 -29 -105.5 -48.5t-108.5 -26.5t-105 1t-95 36q-53 37 -80 89t-32 110t9.5 117.5t44.5 113t73 96t94 66.5q96 23 160.5 14.5t105 -42t60.5 -88.5t25 -126l-360 -41q-6 -19 -6 -48t4 -61t10.5 -64.5t14 -58t14.5 -41.5t13 -15q30 -3 66.5 3t73 18.5
t70 30.5t56.5 38l-2 46l52 -1l2 -155zM251 575q-2 -1 -4.5 -13.5t-5.5 -30.5t-5.5 -39.5t-5 -40t-3.5 -32t-1 -15.5l194 22l-32 156q-4 19 -25.5 22.5t-46 -1t-44.5 -13.5t-21 -15z" />
    <glyph glyph-name="four" unicode="4" horiz-adv-x="633" 
d="M344 56h45l-2 376q-57 -30 -117.5 -30t-114 16.5t-94.5 41.5t-59 44q20 28 52.5 56.5l66.5 59t62.5 64.5t40.5 73h-49v52l141 1v-52l-47 -1q-8 -39 -29 -71t-48.5 -60.5t-58 -55t-57.5 -54.5q33 -24 70 -39.5t76.5 -20.5t80.5 1t82 26l4 276h-27v52l209 2v-52l-46 -1
l1 -231q22 8 36.5 19t33.5 36l21 -49q-3 -4 -11.5 -12t-20.5 -17.5t-26.5 -18.5t-29.5 -14q-1 -109 -2 -182t-1 -119v-69.5t0.5 -33.5t0.5 -11v-1l46 1v-50v-2l-229 -2v52z" />
    <glyph glyph-name="ampersand" unicode="&#x26;" horiz-adv-x="824" 
d="M463 92h26l-47 44q-24 -33 -59 -61.5t-75.5 -46.5t-84.5 -23.5t-87 6.5q-8 3 -18 10t-19.5 16l-18 17.5t-12.5 13.5q-32 39 -41.5 77.5t-2.5 75.5t27 72t47.5 66t58 58t58.5 49q-12 18 -27 46t-27 59.5t-17 63t3 57.5q14 42 52.5 82.5t86.5 71.5t99 48.5t89 15t56.5 -30
t2.5 -85.5q-11 -40 -33.5 -82.5t-50 -84t-56.5 -80l-53 -70.5l113 -174q12 14 28 36.5t29.5 48t21.5 50.5t3 45l-79 -57l-2 40l26.5 20.5l46.5 35.5l46.5 35.5t27.5 20.5q43 31 78.5 39t61.5 1.5t42.5 -23.5t22.5 -36.5t0 -36.5t-24 -23q-9 -3 -21.5 4l-28 15.5t-34 13.5
t-39.5 -1.5t-44 -29t-48 -70.5q-9 -17 -22.5 -45.5l-26 -57.5t-21.5 -54.5t-9 -35.5l147 -146h30v-45h-202v45zM182 114q34 -21 67 -25.5t62.5 5.5t54.5 32.5t42 55.5l-158 238q-30 -5 -55.5 -25.5t-43.5 -48.5t-27 -62t-6.5 -66t18 -60t46.5 -44zM233 725q1 -3 7 -18.5
l14.5 -37l18.5 -46l18.5 -45.5l14.5 -36t7 -17q72 67 101 123.5t28 97t-24.5 63.5t-56.5 22.5t-68.5 -26t-59.5 -80.5z" />
    <glyph glyph-name="M" unicode="M" horiz-adv-x="776" 
d="M463 60h46q4 49 4 121t-1 159t-2 184.5t2 197.5l-102 -276h-44l-130 269l-2 -654l59 1v-54l-272 -2v54h42q5 128 7 307.5t4 411.5l-45 -1q-1 19 -1 22.5v4.5l1 1v26l272 2v-54l-44 -1l121 -265l105 268h-12v55h289v-55l-78 -3l14 -719l54 2v-54l-287 -2v54z" />
    <glyph glyph-name="A" unicode="A" horiz-adv-x="849" 
d="M508 33l62 3l-46 315l-261 -11l-148 -290h65v-41l-166 -6l3 44h57l341 723l-81 -6l-3 41l263 6l162 -770l69 -2h1v-38l-318 -6v38zM516 404l-49 356l-182 -364z" />
    <glyph glyph-name="p" unicode="p" horiz-adv-x="708" 
d="M19 656l217 2v-52h-30l-8 -136q91 79 166.5 112t134.5 30.5t100.5 -34t64.5 -81t27.5 -110t-11.5 -120.5t-53 -114t-95.5 -90t-140 -48t-186.5 12l-14 -572h47v-52l-217 -2v52l35 1l-2 1150h-35v52zM205 70q0 -9 19.5 -13.5t44.5 -7t48 -2.5t29 1q46 14 78 53t50.5 89.5
t23.5 107t-4 105.5t-31.5 83.5t-58.5 42.5t-86 -17.5t-114 -97.5z" />
    <glyph glyph-name="f" unicode="f" horiz-adv-x="516" 
d="M16 514l86 2q7 98 35.5 169t77 111t115 47t149.5 -23q47 -18 69 -52.5t25 -73t-10 -74.5t-37 -57.5t-55.5 -22t-65.5 32.5q-17 37 -7.5 62.5t31.5 38.5t50.5 14t51.5 -9q4 24 -8.5 42.5t-34 31.5t-48.5 20.5t-53 10t-46.5 0t-29.5 -9.5q-6 -5 -11.5 -23.5t-10 -44.5
t-8 -56.5t-5.5 -58t-2 -49.5t3 -31h87v-53q-31 3 -48.5 3.5t-26 0.5t-11 -0.5l-2.5 -0.5q-2 -52 -3.5 -106t-1.5 -105.5t1.5 -98.5t7.5 -84h52l-3 -50l-275 -3l-5 52l59 1q0 4 2 18t2.5 54.5t-3 115.5t-13.5 203l-77 3z" />
    <glyph glyph-name="bar" unicode="|" horiz-adv-x="291" 
d="M17 -8h66l-2 794l-42 2v52l242 -1v-53h-47l-5 -794h45v-52h-257v52z" />
    <glyph glyph-name="W" unicode="W" horiz-adv-x="1253" 
d="M1241 832v-46h-78l-59 -343l-39.5 -221.5l-23.5 -126.5t-11.5 -59t-4.5 -17t-2 -2l-167 -4l-180 449l-129 -451l-55 -1l-362 769l-2 0.5t-8.5 1t-20.5 1t-38 1.5v46h367v-46l-99 -6l239 -503q2 7 8.5 27.5l15.5 47.5l19 57l19 57l15.5 47t8.5 28l34 2l168 -435l132 681
h-53v46h306z" />
    <glyph glyph-name="five" unicode="5" horiz-adv-x="588" 
d="M14 158h56l2 -61q10 -15 36 -23.5t60.5 -9t74 7t75.5 24t65 41.5t42.5 59.5t8.5 78.5t-37 99q-30 27 -65.5 35.5t-72 5.5t-72 -15t-64 -25t-48.5 -24.5t-26 -14.5v491l444 2l-2 -121h-41v80l-252 -4l-2 -307q20 5 51 11t67.5 7.5t75.5 -2t73.5 -17.5t62.5 -39.5t43 -67.5
q17 -87 -1.5 -149t-60 -103t-99 -64t-118.5 -31.5t-118.5 -4.5t-99.5 16v-35h-56z" />
    <glyph glyph-name="quotesingle" unicode="'" horiz-adv-x="210" 
d="M70 496q20 22 38.5 48t29.5 55q-35 -22 -54.5 -20.5t-26.5 15.5t-2.5 35.5t17 39t33 25t45.5 -4.5q21 -11 25 -33t-2.5 -47t-20.5 -50.5t-29.5 -43t-30.5 -24.5t-22 5z" />
    <glyph glyph-name="g" unicode="g" 
d="M224 -470q-53 29 -76.5 65t-25.5 73t14 72.5t43.5 64.5t63 49t72 24.5t70.5 -8t59 -48.5q9 -24 2.5 -40t-21 -24.5t-33 -10.5t-33.5 1.5t-23 11t-1 17.5q30 -5 45.5 1t19.5 17t-4 22.5t-26 17.5t-44.5 1.5t-60.5 -25.5q-21 -35 -16 -67.5t25.5 -59t52 -44t65.5 -21.5
t64.5 8.5t49.5 45t20.5 88.5t-22.5 140q-13 40 -37 61t-53.5 29t-62 4t-63 -13t-56.5 -22t-42 -24l-14 27q4 5 16 11.5l25.5 13.5l25.5 13.5t17 10.5v28q-75 -1 -125 23.5t-78 66t-34.5 95.5t5.5 110.5t41 111t73 98t101 71.5t125 31q12 50 31.5 101t53.5 91q17 21 41 31.5
t47.5 9t42.5 -17t26 -46.5q5 -30 -6.5 -50.5t-30 -30.5t-37.5 -9.5t-29 13t-5 37t35 63.5q-11 7 -26.5 -1.5t-31.5 -27t-31 -43t-24.5 -48.5t-12 -43.5t5.5 -28.5q49 -19 81 -55.5t47.5 -83t17 -99.5t-9.5 -104.5t-33.5 -99t-54 -83t-70.5 -56t-84 -17.5q-1 0 0 -4t2 -8.5
t2 -8.5t1 -5q85 24 146.5 9.5t100.5 -54.5t55 -97t9.5 -117t-35 -115.5t-79.5 -92t-123 -47t-166 20.5zM295 167l-3 -66q31 3 54 34.5t37.5 77.5t21.5 101t6.5 107t-8.5 94.5t-22 63.5q-14 19 -30.5 14.5t-34 -26.5t-33.5 -57t-29 -77.5t-21 -88t-8 -88.5t8.5 -79t29.5 -59
l9 68z" />
    <glyph glyph-name="braceright" unicode="}" horiz-adv-x="504" 
d="M55 -15q58 -35 90.5 -40.5t48.5 10t20 47t5 71t4 81.5t16 78.5t41.5 62.5t80.5 33q-44 21 -80.5 45.5t-56 54t-16.5 65t38 78.5q37 30 55 64t19.5 67.5t-11.5 63.5t-37.5 50.5t-58.5 29.5t-74 1l13 32q37 5 79 2.5t80 -14.5t67 -36t39 -62q12 -48 7 -80t-20 -53.5
t-37 -36.5l-43.5 -30t-39 -33.5t-24.5 -46.5q7 -35 25.5 -58t42 -38t49.5 -23.5t48.5 -12.5t39 -5.5t20.5 -3.5l8 -56q-72 9 -110 -3.5t-54.5 -39.5t-16.5 -65.5t5 -81.5t8 -87.5t-6 -83.5q-10 -47 -32.5 -67.5t-51 -23t-60.5 9.5t-60.5 31.5t-51 42.5t-32.5 42z" />
    <glyph glyph-name="q" unicode="q" horiz-adv-x="625" 
d="M395 -541l37 1l6 688q-12 -26 -34.5 -53.5t-51.5 -50t-61.5 -36.5t-65.5 -14q-83 1 -130.5 37.5t-65 94t-9.5 127.5t35.5 136.5t71 121.5t96.5 83t112 20.5t117 -65.5v66h-27l-2 42l197 -1l2 -38h-43l10 -1155h31v-52l-225 -4v52zM264 48q26 -7 52 12.5t49 55.5
t41.5 84.5t28.5 99.5t10.5 100t-12.5 86.5t-41 59t-74 16.5q-28 -11 -52.5 -51t-41 -94t-25 -114.5t-5 -114t20 -92.5t49.5 -48z" />
    <glyph glyph-name="B" unicode="B" horiz-adv-x="665" 
d="M14 796h37v-24q41 28 100 43t122.5 17t124.5 -10t105.5 -37.5t66.5 -65.5t8 -95q-11 -24 -27 -42t-30.5 -31t-24.5 -20t-8 -9q83 -42 122.5 -92t45 -102.5t-18.5 -103t-68.5 -93.5t-104.5 -74.5t-126 -45t-134.5 -5.5t-129.5 43l2 -26h-37v104h37v-44l117 -37
q1 31 -1 86.5t-6.5 123.5t-10 142.5l-11 143.5l-10.5 127.5t-7 94.5q-38 -12 -59 -20.5t-37 -20.5v-31h-37v104zM334 59q25 -1 65.5 16t81 46.5t74 69t45 84.5t-6 93t-79.5 93q-18 15 -44 22.5t-54 9t-54 -3.5t-44 -16zM306 530q16 -3 42 1t53 11.5t51 17t36 18.5
q39 28 46.5 55.5t-6 51.5t-43.5 43.5t-65.5 32.5t-72 18t-63.5 0z" />
    <glyph glyph-name="parenleft" unicode="(" horiz-adv-x="407" 
d="M352 11q-107 36 -179.5 103.5t-108.5 150.5t-36 173t37 170t111.5 142t186.5 90l19 -24q-70 -39 -117.5 -98t-72 -129t-25.5 -146.5t23.5 -150t75 -140.5t127.5 -118z" />
    <glyph glyph-name="N" unicode="N" horiz-adv-x="823" 
d="M551 45h18l-347 665l6 -646q1 -2 1.5 -3.5t1.5 -3.5l71 1v-54l-279 -2v54h39l2 710h-41v54l279 2v-54l-64 -1l366 -693l7 692h-62v54l249 2v-54l-57 -1l-6 -720l63 1v-54l-247 -3v54z" />
    <glyph glyph-name="six" unicode="6" horiz-adv-x="624" 
d="M360 747q-41 -25 -81.5 -68.5t-72.5 -98.5t-52 -118.5t-19.5 -128.5t24 -127.5t79.5 -115.5q-8 46 9 95.5t49 92.5t74.5 73.5t85.5 37.5t81 -14t62 -82q12 -62 -0.5 -111.5t-42.5 -85.5t-73.5 -59t-92.5 -33.5t-100 -8.5t-97 16q-79 41 -124 106t-58 141.5t4.5 158
t63 156t116.5 136t165 97.5v31h39l4 -135h-43v45zM306 68q31 -20 61 -14t55 28.5t43 57t24 70.5t-1.5 68t-33.5 51q-20 5 -44 -9t-47 -38.5t-42 -56t-29 -62t-8 -56.5t22 -39z" />
    <glyph glyph-name="h" unicode="h" horiz-adv-x="652" 
d="M415 49h24q1 18 2 58.5t-0.5 92t-5 108.5t-12 108.5t-22 93t-34 61t-48.5 12t-65 -52.5l-4 -481l50 3l6 -52l-284 -3l-1 54l36 -2l12 740h-61l-5 46h303l5 -46h-66l11 -202q58 46 104.5 60t82 2.5t61.5 -44t44.5 -80.5t29.5 -106.5t16.5 -121.5t6.5 -127t-1 -121l39 3
l2 -44l-229 -3z" />
    <glyph glyph-name="asciitilde" unicode="~" horiz-adv-x="481" 
d="M17 355q-1 4 7.5 23.5t23.5 43.5t35.5 48t44.5 36.5t49.5 8t51.5 -36.5q37 -51 68.5 -64.5t58.5 -2t50 39.5t42 60l19 -24q-18 -58 -56.5 -99.5t-83.5 -52t-90 17.5t-77 109q-23 8 -38.5 -5.5t-26 -35t-19 -42.5t-17.5 -28z" />
    <glyph glyph-name="r" unicode="r" horiz-adv-x="622" 
d="M27 41h53l-15 558h-43v43l281 4v-43h-67l4 -217q11 18 25.5 47t33 61.5t42 64.5t54.5 55t70 33t88 0q27 -6 40.5 -29t15.5 -53t-6.5 -61.5t-26 -54t-42.5 -30t-55 10.5t-33 48.5t10.5 60.5t38.5 51.5t52 20.5q-53 12 -98 -12.5t-81.5 -72t-63.5 -111t-42.5 -130
t-19.5 -130t6 -109.5l57 -1l1 -39l-278 -4z" />
    <glyph glyph-name="C" unicode="C" horiz-adv-x="611" 
d="M551 114q-33 -30 -75 -57t-88 -43.5t-93.5 -18.5t-90.5 16q-66 28 -104.5 84t-53.5 126t-9 148.5t29.5 153.5t61.5 139.5t86.5 107t105 56.5t117.5 -13q21 -10 48 -21.5t45 -26.5v65l43 1v-192l-43 -1v80q-15 16 -41 30t-54.5 24t-54.5 13.5t-42 -2.5q-38 -38 -63 -98
t-37 -129.5t-10.5 -142t15 -135.5t40 -110.5t65 -66t89.5 -2.5t114 79v55h35v-143h-35v24z" />
    <glyph glyph-name="X" unicode="X" horiz-adv-x="890" 
d="M14 836h386v-56h-80l186 -264l252 258h-91v56h213v-56h-58l-286 -292l300 -422h42v-54h-354v54h18l-19 30.5l-29 46l-34 54l-34 53l-28 43t-16 25.5l-234 -250h66v-56h-197v56h63l270 298l-267 420h-69v56z" />
    <glyph glyph-name="parenright" unicode=")" horiz-adv-x="412" 
d="M49 25q69 50 114 115.5t66.5 137.5t21 147t-22 143.5t-64.5 126t-105 96.5l17 23q100 -27 166.5 -88t99.5 -139.5t33 -166.5t-32 -169t-96.5 -147.5t-160.5 -101.5z" />
    <glyph glyph-name="seven" unicode="7" horiz-adv-x="596" 
d="M55 41h59l147 381h-101v43h128l1 1l31 75l31.5 79l29.5 78.5t25 72.5l-346 -3v-22h-37v73q109 2 185.5 3t129 1.5t87 1t59 0.5t44.5 0.5t45 0.5l-131 -359h111v-43h-133q-5 -10 -16 -39l-25.5 -68.5l-31 -83l-31 -83l-25.5 -68.5l-15 -39q-1 -1 -1 -2h67v-43h-287v43z
" />
    <glyph glyph-name="i" unicode="i" horiz-adv-x="305" 
d="M42 633h192l1 -591l56 5l1 -44l-251 -2l3 43l61 -2l1 544h-67zM107 677q-12 7 -21 22t-12.5 33t0 37t15.5 34t33.5 24t55.5 7q44 -18 55 -50t-2.5 -61t-46.5 -45t-77 -1z" />
    <glyph glyph-name="s" unicode="s" horiz-adv-x="574" 
d="M11 164h40v-47q20 -24 52.5 -43.5t69 -29.5t74 -8t68 21.5t50 58t21.5 102.5q-3 49 -25 74.5t-54.5 36.5t-71 12t-74 1t-64 3t-40.5 19q-42 39 -53 85t3.5 89t51 76t90.5 45.5t122 -1.5t145 -66l4 30l37 1l4 -104l-45 3l-2 29q-6 7 -23.5 16.5t-41.5 18.5t-52 16.5
t-53 11.5t-45.5 3t-30.5 -9q-16 -24 -23.5 -61t-5 -71t14.5 -58t35 -23q118 19 196 2t120 -55t51.5 -90t-9.5 -102.5t-63.5 -93t-109 -61t-146.5 -6.5t-177 70l2 -35h-40z" />
    <glyph glyph-name="D" unicode="D" horiz-adv-x="651" 
d="M38 823l32 -1l-2 -26q102 27 194.5 26t166.5 -29.5t125 -83t71 -133.5t4.5 -181t-75.5 -226q-55 -65 -119.5 -100.5t-131.5 -51t-134 -16t-127 3.5l-1 -35l-31 1l5 109l31 -1l-2 -38l74 -2l12 733l-63 -15l-2 -35l-32 1zM327 75q55 6 101.5 39t81 84t55 114t25 127
t-9 125t-47 107.5t-89.5 73.5t-137 24z" />
    <glyph glyph-name="asterisk" unicode="*" horiz-adv-x="216" 
d="M60 257q-2 4 1 12t7.5 17t8.5 16t4 9l-41 36l27 41l36 -39l49 60l27 -19q3 -8 -5.5 -16t-18.5 -16.5t-17 -16.5t-2 -16q1 -1 6.5 -6l12.5 -11l12.5 -11t6.5 -6q0 -8 -2.5 -18t-9.5 -16q-2 0 -7.5 3t-12.5 7.5t-12.5 8.5t-6.5 4q-9 2 -17.5 -6.5l-16.5 -16.5t-15 -11
t-14 11z" />
    <glyph glyph-name="eight" unicode="8" horiz-adv-x="647" 
d="M147 11q-58 37 -88.5 82.5t-38 94.5t5.5 98t41 92t69 77.5t90 54.5q-63 44 -73.5 107t51.5 143q42 36 83.5 42.5t77.5 -8t63.5 -46t40 -71.5t7 -84.5t-33.5 -84.5q66 -13 108 -47t62 -80t18.5 -98t-23 -102t-62 -92.5t-99 -68t-133.5 -30.5t-166 21zM219 350
q-10 -51 -10.5 -100t8.5 -90t27.5 -70.5t45 -42t61.5 -5t78 41.5q35 64 38.5 130.5t-13 122.5t-48 95t-66.5 47t-68 -21t-53 -108zM274 678q-1 -7 -3 -22.5t-2.5 -34t2 -37.5t10 -32.5t22 -19.5t37.5 2q29 25 37 59t2 66.5t-21 57.5t-32 33t-32 -7.5t-20 -64.5z" />
    <glyph glyph-name="j" unicode="j" horiz-adv-x="319" 
d="M40 610l246 3v-39h-41l10.5 -143.5t8 -159.5t0.5 -165t-12.5 -159.5t-31.5 -143.5t-55 -117t-83 -79t-117 -31q-86 15 -135.5 47t-71.5 71.5t-20 82.5t19 80.5t45 64.5t58.5 34.5t59 -8t46.5 -64.5q2 -33 -11.5 -57.5t-34 -39t-44.5 -19.5t-44.5 1t-33 22.5t-9.5 45.5
q-16 -50 -1 -91t47 -69.5t74 -43t80.5 -11.5t67.5 24t35 64l4 860v1h-56v39zM103 669q-12 7 -21 22t-12.5 33t0 37t15.5 34t33.5 24t55.5 7q44 -18 55 -50t-2.5 -61t-46.5 -45t-77 -1z" />
    <glyph glyph-name="Y" unicode="Y" horiz-adv-x="838" 
d="M24 827h227v-43h-73l321 -309l118 309h-20v43h227v-43h-53l-249 -723h32v-55h-263v55h49l140 373l-359 350h-97v43z" />
    <glyph glyph-name="t" unicode="t" horiz-adv-x="530" 
d="M481 103q-106 -87 -177 -98.5t-113.5 42.5t-59.5 168t-16 277h-118v52h118l10 249l-44 1l2 36h248l-2 -36h-36l-8 -250h104v-52h-103q1 -62 1 -123t4.5 -112t15 -88.5t32 -53t56 -6t86.5 52.5l-2 49h38l2 -136h-38v28z" />
    <glyph glyph-name="O" unicode="O" horiz-adv-x="835" 
d="M284 21q-93 40 -150.5 104t-84 138.5t-24.5 154t28 152t74 132t113 93.5t145 36.5t171 -38.5q88 -46 146 -109.5t88.5 -135t34 -145.5t-17.5 -141.5t-65.5 -123.5t-111 -91t-153.5 -44t-193 18zM343 754q-41 -57 -62.5 -127.5t-25 -144.5t11 -145.5t45 -129.5t75.5 -97.5
t103 -48.5q54 7 88 45t51 94t18.5 123t-8 133t-29 123.5t-44.5 94.5q-13 24 -42 48.5t-62.5 39.5t-66 15.5t-52.5 -23.5z" />
    <glyph glyph-name="E" unicode="E" horiz-adv-x="570" 
d="M277 389q-12 0 -26.5 -1t-28 -1.5t-24.5 -1t-15 -0.5l-8 -316h319l-2 65l45 -2l2 -131l-45 2v20l-464 -4l6 788l430 2l-2 29h45l4 -145h-45l-2 70h-277l-5 -333l93 2v36h36v-118h-36v39z" />
    <glyph glyph-name="nine" unicode="9" horiz-adv-x="556" 
d="M57 109h52v-46q57 36 108.5 96.5t89.5 132t57 147t11 140.5q-28 -26 -53 -41.5t-51 -22.5t-56 -7.5t-68 2.5q-75 7 -107 36.5t-31 68t29.5 80.5t74 75t102 50.5t114.5 7.5q65 -15 108 -47.5t68 -76t33.5 -93.5t3 -100.5t-22.5 -97.5t-43 -84q-32 -53 -75 -96t-91.5 -79.5
t-100 -70l-100.5 -67.5v-32h-52v125zM178 741q-5 -15 -5 -41.5t4.5 -54.5t14 -52.5t23.5 -33.5q52 1 84 15.5t48.5 36t19.5 47.5t-3 51t-18 46t-25 33q-4 3 -23.5 4.5t-43 -2.5t-45.5 -15.5t-31 -33.5z" />
    <glyph glyph-name="plus" unicode="+" horiz-adv-x="508" 
d="M164 684h201v-44h-46l2 -192q8 1 32.5 1t52.5 -0.5t52 -1t32 -1.5l-4 -38l-167 -5l-3 -167l54 -2l-2 -42h-227l2 42h42l3 171h-156l3 41l156 -3l5 197h-32v44z" />
    <glyph glyph-name="sterling" unicode="&#xa3;" horiz-adv-x="641" 
d="M24 461h88q-2 65 15 125.5t46.5 107t67.5 74.5t78.5 27t80.5 -36t73 -113q6 -39 -8 -57t-35.5 -21t-43 7t-31 26.5t0 37t51.5 39.5q-4 23 -19 40.5t-33.5 22t-39.5 -6t-37.5 -42.5t-26.5 -89t-7 -144h77l-2 -52h-80q-2 -44 -9 -90.5t-18 -89t-25.5 -78.5t-31.5 -58
q30 2 53 -4t44.5 -15l44 -18t50.5 -13t64.5 -0.5t85.5 20.5l19.5 6.5t15.5 8.5q-18 53 -9.5 79.5t28 33t42 -3.5t33 -30.5t1 -47.5t-54.5 -54q-39 -24 -78.5 -38.5t-82.5 -18.5t-89.5 5t-98.5 33q-44 15 -72 13t-47.5 -12t-34 -23t-31.5 -18q0 1 -2.5 7t-4.5 13.5l-3.5 13.5
l-1.5 6l39 29t40.5 41.5t29.5 62.5t8 93q0 8 -4 29l-8.5 45.5l-9 47t-5.5 34.5h-89z" />
    <glyph glyph-name="u" unicode="u" horiz-adv-x="670" 
d="M420 658l232 2v-52l-34 -1v-555h36v-44q-50 -4 -81 -2t-48.5 13t-24.5 32.5t-9 56t-2.5 82.5t-5.5 112q-4 -38 -16 -81t-28.5 -81.5t-37 -68t-41.5 -40.5q-72 -32 -122.5 -27.5t-83 38t-50 91.5t-24 132.5t-4.5 161t8 177.5h-52v52l260 2v-52l-35 -1q0 -47 -3 -102.5
t-5 -111.5t0.5 -108.5t14 -93.5t35.5 -65.5t65 -25.5q11 5 25 38.5t28 83.5t27 108.5t22.5 113.5t14.5 99t3 65h-64v52z" />
    <glyph glyph-name="F" unicode="F" horiz-adv-x="514" 
d="M352 448l-113 -4l-5 -386h40v-50h-256v50h71q1 76 2 166t0.5 181.5t-3 180t-6.5 162.5l-68 3l2 41l496 14v29h43v-127h-43v52l-277 -6l2 -268l115 3v38h45v-105h-45v26z" />
    <glyph glyph-name="Z" unicode="Z" horiz-adv-x="811" 
d="M48 807h38v-22q28 14 68 16.5t89.5 0t106.5 -7t119 -4.5t127 7t131 29l-248 -376h112v-54h-134l-183 -334l475 -3v52h32v-128h-32v28l-720 2l246 385h-112v54h139l205 292q-32 -10 -66 -10t-69 4t-71 10t-72 8t-72 -1.5t-71 -18.5v-38h-38v109z" />
    <glyph glyph-name="P" unicode="P" horiz-adv-x="690" 
d="M110 39l3 737l-92 -2l-3 49q49 2 108.5 6.5t122.5 7t125.5 0.5t117.5 -13t98.5 -33t67.5 -59.5t25 -92.5t-28 -133q-18 -35 -47 -58.5t-63.5 -38t-72 -20.5t-73 -6.5t-66.5 4t-51 12.5v-354l101 -2l-3 -42q-16 2 -44.5 2.5t-62 0t-69 -1.5t-67 -1.5t-55.5 -1t-34 0.5
l1 37zM285 448q57 -11 100.5 -0.5t74 35t46.5 59t17 71t-13 71t-44 59t-76.5 35.5t-109.5 0z" />
    <glyph glyph-name="comma" unicode="," horiz-adv-x="216" 
d="M39 -91q8 15 30 30t43 32t32 38t-2 48q-35 -36 -59 -41.5t-37 7t-15 36.5t8.5 46t33 36t57.5 6q45 -19 59 -51.5t2.5 -68.5t-45.5 -71t-84 -58l-23 11v0z" />
    <glyph glyph-name="colon" unicode=":" horiz-adv-x="244" 
d="M62 482q-11 27 0.5 47t33 31.5t47.5 15t44 -2.5q20 -14 21 -31t-10.5 -34t-31 -30.5t-40 -19t-38.5 -1t-26 24.5zM54 278q-11 27 0.5 47t33 31.5t47.5 15t44 -2.5q20 -13 21 -30.5t-10.5 -34.5t-31 -30.5t-40 -19t-38.5 -1t-26 24.5z" />
    <glyph glyph-name="G" unicode="G" horiz-adv-x="741" 
d="M550 58h28l-5 104q-8 -11 -23.5 -24.5t-33 -26.5l-33 -23.5t-22.5 -13.5q-95 -52 -168.5 -63.5t-127 8.5t-87.5 65t-49 106t-11.5 132t24.5 142t59 137t93 116q24 21 58.5 41.5t74.5 36.5t82.5 25t82.5 6t74.5 -19.5t57.5 -51.5q25 -40 21.5 -70.5t-22 -50t-47 -26
t-52.5 1.5q-23 7 -37 28t-12.5 44t23 43.5t69.5 27.5q-8 13 -25.5 19.5t-41 8t-49 -1t-48 -7.5t-40 -11t-23.5 -12q-33 -44 -58 -104t-40 -126.5t-19 -134.5t6.5 -127.5t36 -106t68.5 -70.5q11 -1 34.5 6t52 20.5t57 33.5t51 45.5t34.5 57t6 68.5q-5 1 -11.5 1.5t-30.5 1.5
l2 39l194 -1l-2 -39l-36 1l2 -256h39v-43h-176v43z" />
    <glyph glyph-name="grave" unicode="`" horiz-adv-x="202" 
d="M162 666l-149 107l33 95l145 -98z" />
    <glyph glyph-name="v" unicode="v" horiz-adv-x="624" 
d="M248 56h42l-239 542h-41v52l256 2v-52l-46 -1l170 -467l106 470l-70 -2v52l186 4v-52l-67 -3l-118 -547h57v-52l-236 2v52z" />
    <glyph glyph-name="Q" unicode="Q" horiz-adv-x="938" 
d="M876 -31q-29 -13 -65.5 -17.5t-67.5 8.5q-18 8 -31 15t-24.5 15.5t-22 20t-24.5 28.5q-36 -20 -89 -30t-107.5 -13.5t-103 -0.5t-75.5 11q-108 27 -169.5 81.5t-84.5 123.5t-12 147t48 153.5t96 142t132 112.5t156 65.5t167 0.5q87 -20 148 -72.5t96.5 -123.5
t44.5 -153.5t-9 -161.5t-63 -147.5t-118 -111.5q3 -17 22 -30.5t45.5 -20t56.5 -4.5t54 16v35h47v-102h-47v13zM369 350h43v-16q29 12 53.5 6t46 -23t39.5 -42.5t32.5 -52.5t26 -51.5t20.5 -40.5q18 -9 31.5 12t22 62t10 97t-4 117t-19.5 121t-37 110t-56.5 84t-78.5 42
q-42 8 -82 -1.5t-66 -44.5q-25 -44 -48.5 -95.5t-41 -108t-25.5 -115.5t-1.5 -118.5t29.5 -118t69 -112.5q-11 2 -1.5 -0.5t32.5 -5.5t54.5 -5t64.5 1t63 13t50 32q-14 26 -31 65.5t-39 74.5t-50 57t-63 12v-45h-43v90z" />
    <glyph glyph-name="semicolon" unicode=";" horiz-adv-x="238" 
d="M77 -123q17 11 37 25.5t36 33t24 40.5t1 48q-3 -3 -12.5 -13.5t-22.5 -22.5t-28 -23t-30 -15t-28.5 2t-22.5 27q-9 26 3.5 52.5t35.5 47t50 31t47 5.5q33 -33 41.5 -75.5t-4.5 -80.5t-45.5 -64.5t-81.5 -28.5v11zM32 209q-11 27 0.5 47t33 31.5t47.5 15t44 -2.5
q20 -14 21 -31t-10.5 -34t-31 -30.5t-40 -19t-38.5 -1t-26 24.5z" />
    <glyph glyph-name="asciicircum" unicode="^" horiz-adv-x="454" 
d="M155 595l202 1v-36h-49l90 -192l33 -1v-39l-108 1v40l33 -1l-80 156l-82 -153h39v-40l-219 1v40h35l142 188h-36v35z" />
    <glyph glyph-name="bracketleft" unicode="[" horiz-adv-x="366" 
d="M30 -82l5 953l312 5l-4 -43l-164 2l-5 -868l168 6v-51z" />
    <glyph glyph-name="backslash" unicode="\" horiz-adv-x="401" 
d="M103 786l255 -720l40 -4l-2 -47l-164 -5l3 47h55l-245 721h-45l2 47l149 -2l6 -35z" />
    <glyph glyph-name="underscore" unicode="_" horiz-adv-x="532" 
d="M20 164l39 -2l-2 -39l404 2l1 35l40 2l2 -160l-40 -2l-3 25l-404 2l2 -33l-39 2v168z" />
    <glyph glyph-name="bracketright" unicode="]" horiz-adv-x="329" 
d="M19 -62v51l166 -6l-5 863l-162 -2l-4 43l309 -5l5 -948z" />
    <glyph glyph-name="slash" unicode="/" horiz-adv-x="363" 
d="M228 788l5 35l126 2l2 -47h-38l-208 -721h47l2 -47l-139 5l-2 47l34 4l217 720z" />
    <glyph glyph-name="exclam" unicode="!" horiz-adv-x="349" 
d="M33 829h305v-65h-79l-16 -490h87v-65h-305v65h84l13 490h-89v65zM110 11q-17 19 -19.5 37.5t5 34t23 27.5t34 18t37 6t33.5 -9q13 -14 14 -32t-7 -35.5t-22.5 -32.5t-31.5 -22.5t-34.5 -6.5t-31.5 15z" />
    <glyph glyph-name="hyphen" unicode="-" horiz-adv-x="463" 
d="M52 469l39 -2l-2 -39l292 2l1 35l40 2l2 -160l-40 -2l-3 25l-292 2l2 -33l-39 2v168z" />
    <glyph glyph-name="hyphen" unicode="&#xad;" horiz-adv-x="463" 
d="M52 469l39 -2l-2 -39l292 2l1 35l40 2l2 -160l-40 -2l-3 25l-292 2l2 -33l-39 2v168z" />
    <glyph glyph-name="less" unicode="&#x3c;" horiz-adv-x="442" 
d="M375 207l-319 174l315 233v24l38 -1v-136l-38 2v19l-193 -164l201 -106v33h38l-4 -115h-38v37z" />
    <glyph glyph-name="R" unicode="R" horiz-adv-x="663" 
d="M493 53h43l-188 355q-12 -6 -33 -12t-45 -9t-48.5 -1t-43.5 13v-342h18v-54l-179 -2v54h29v712l-29 1v54l177 -1v-54h-18v-42q63 57 122.5 79.5t110 19.5t90 -28t63 -62.5t29.5 -84t-11 -93t-59 -89t-113 -71.5l185 -343h61v-54h-161v54zM178 432q57 -14 97.5 0
t65.5 44.5t35.5 71.5t7.5 80.5t-18.5 71.5t-42.5 45t-64 0.5t-83 -61.5z" />
    <glyph glyph-name="Euro" unicode="&#x20ac;" horiz-adv-x="639" 
d="M12 459h78q13 55 34 107.5t49 97.5t62 79.5t73 54.5t81 22t86 -17q21 -10 48 -21.5t45 -26.5v65l43 1v-192l-43 -1v80q-15 16 -41 30t-54.5 24t-54.5 13.5t-42 -2.5q-25 -25 -44.5 -59.5t-33 -75.5t-21.5 -87t-11 -92l334 1v-53l-335 -1q0 -10 0.5 -19t1.5 -18l335 1v-53
l-330 -1q7 -51 21 -95t35 -76t49 -49.5t63.5 -14.5t77.5 28.5t91 79.5l10 -54q-30 -35 -74.5 -68t-95.5 -54.5t-104.5 -27t-102.5 15.5q-45 19 -77 51.5t-52.5 73.5t-30 89.5t-9.5 100.5h-59v53h62q1 9 1.5 18t2.5 19h-68v53z" />
    <glyph glyph-name="acute" unicode="&#xb4;" horiz-adv-x="235" 
d="M21 777l151 120l35 -81l-156 -128z" />
    <glyph glyph-name="circumflex" unicode="&#x2c6;" horiz-adv-x="454" 
d="M315 872l96 -188h-42l-78 131l-135 -127l-127 8l163 172z" />
    <glyph glyph-name="tilde" unicode="&#x2dc;" horiz-adv-x="481" 
d="M23 690q0 4 8 23.5t23 43.5t35.5 48t44.5 36.5t49.5 8t51.5 -36.5q37 -51 68.5 -64.5t58.5 -2t50 39.5t42 60l19 -24q-18 -58 -56.5 -99.5t-83.5 -52t-90 17.5t-77 109q-23 8 -38.5 -5.5t-26 -35t-19 -42.5t-17.5 -28z" />
    <glyph glyph-name="caron" unicode="&#x2c7;" horiz-adv-x="454" 
d="M194 688l-153 188l119 9l127 -139l73 143h39l-90 -205z" />
    <glyph glyph-name="breve" unicode="&#x2d8;" horiz-adv-x="399" 
d="M59 849q37 -51 75 -69.5t73 -13.5t64 28t48 55l19 -24q-16 -44 -41 -77.5t-55 -53.5t-62.5 -25.5t-63.5 7.5t-58.5 46t-47.5 89z" />
    <glyph glyph-name="ring" unicode="&#x2da;" horiz-adv-x="336" 
d="M90 685q-38 21 -48 48t1 52.5t38 45.5t62.5 27.5t74.5 -2t75 -42.5q23 -22 24 -44t-13 -41t-39.5 -34t-55.5 -22t-61.5 -5t-57.5 17zM143 715q18 -9 39 -9.5t40.5 5t35 17t20.5 26.5q7 20 -8.5 29t-40.5 10t-53 -6t-45 -18t-17.5 -25t29.5 -29z" />
    <glyph glyph-name="hungarumlaut" unicode="&#x2dd;" horiz-adv-x="423" 
d="M25 646l149 143l34 -97l-153 -153zM216 646l149 143l34 -97l-153 -153z" />
    <glyph glyph-name="dotlessi" unicode="&#x131;" horiz-adv-x="305" 
d="M42 633h192l1 -591l56 5l1 -44l-251 -2l3 43l61 -2l1 544h-67z" />
    <glyph glyph-name="ogonek" unicode="&#x2db;" horiz-adv-x="284" 
d="M218 0q-25 -3 -38.5 -15t-17 -27t1.5 -30t16.5 -25t28 -12t36.5 9l9 -49q-33 -29 -62 -30.5t-50.5 13t-33.5 41.5t-12 55.5t14 53.5t46 38z" />
    <glyph glyph-name="dotaccent" unicode="&#x2d9;" horiz-adv-x="853" 
d="M40 685q-21 41 -10.5 71.5t36.5 48.5t59.5 23t58 -5t32.5 -36t-16 -69q-13 -18 -33.5 -33t-43.5 -22t-45 -3t-38 25z" />
    <glyph glyph-name="quoteright" unicode="&#x2019;" horiz-adv-x="210" 
d="M70 496q20 22 38.5 48t29.5 55q-35 -22 -54.5 -20.5t-26.5 15.5t-2.5 35.5t17 39t33 25t45.5 -4.5q21 -11 25 -33t-2.5 -47t-20.5 -50.5t-29.5 -43t-30.5 -24.5t-22 5z" />
    <glyph glyph-name="quoteleft" unicode="&#x2018;" horiz-adv-x="210" 
d="M142 502q-6 -11 -18 -5t-25 23t-24.5 41t-17 48t-2 44.5t20.5 30.5q21 12 37.5 4.5t27 -24t14 -36.5t-2.5 -33.5t-22.5 -15t-44.5 19.5q9 -28 24.5 -52.5t32.5 -44.5z" />
    <glyph glyph-name="quotesinglbase" unicode="&#x201a;" horiz-adv-x="210" 
d="M62 -13q20 22 38.5 48t29.5 55q-35 -22 -54.5 -20.5t-26.5 15.5t-2.5 35.5t17 39t33 25t45.5 -4.5q21 -11 25 -33t-2.5 -47t-20.5 -50.5t-29.5 -43t-30.5 -24.5t-22 5z" />
    <glyph glyph-name="quotedblright" unicode="&#x201d;" horiz-adv-x="349" 
d="M62 567q1 1 9 0t18.5 3t21.5 16t19 38q-61 -11 -86 0.5t-26 32.5t16.5 45t41 37t48 8t37.5 -40q4 -14 2.5 -36t-7.5 -44.5t-15.5 -43.5t-22 -31.5t-27 -8.5t-29.5 24zM230 592q1 1 9 0t18.5 3t21.5 16t19 38q-61 -11 -86 0.5t-26 32.5t16.5 45t41 37t48 8t37.5 -40
q4 -14 2.5 -36t-7.5 -44.5t-15.5 -43.5t-22 -31.5t-27 -8.5t-29.5 24z" />
    <glyph glyph-name="quotedblleft" unicode="&#x201c;" horiz-adv-x="349" 
d="M267 537q-13 -22 -25 -24t-22.5 9t-19 31t-13.5 42.5t-6 43.5t2 35q9 26 23 34.5t29.5 5t30.5 -16t25 -28.5t13 -33t-5 -29.5t-29 -17t-60 3.5q6 -26 15.5 -38t18.5 -15.5t15.5 -3t7.5 0.5zM125 562q-13 -22 -25 -24t-22.5 8.5t-19 30.5t-14 42.5t-7 43.5t2.5 35
q11 35 32 39.5t41 -8.5t34.5 -36t14 -43.5t-22 -32t-72.5 -0.5q6 -26 15.5 -37.5t18.5 -15t16 -2.5t8 0z" />
    <glyph glyph-name="quotedblbase" unicode="&#x201e;" horiz-adv-x="349" 
d="M67 22q1 1 9 0t18.5 3t21.5 16t19 38q-61 -11 -86 0.5t-26 32.5t16.5 45t41 37t48 8t37.5 -40q4 -14 2.5 -36t-7.5 -44.5t-15.5 -43.5t-22 -31.5t-27 -8.5t-29.5 24zM235 47q1 1 9 0t18.5 3t21.5 16t19 38q-61 -11 -86 0.5t-26 32.5t16.5 45t41 37t48 8t37.5 -40
q4 -14 2.5 -36t-7.5 -44.5t-15.5 -43.5t-22 -31.5t-27 -8.5t-29.5 24z" />
    <glyph glyph-name="florin" unicode="&#x192;" horiz-adv-x="511" 
d="M11 514l86 2q7 98 35.5 169t77 111t115 47t149.5 -23q47 -18 69 -52.5t25 -73t-10 -74.5t-37 -57.5t-55.5 -22t-65.5 32.5q-17 37 -7.5 62.5t31.5 38.5t50.5 14t51.5 -9q4 24 -8.5 42.5t-34 31.5t-48.5 20.5t-53 10t-46.5 0t-29.5 -9.5q-6 -5 -11.5 -23.5t-10 -44.5
t-8 -56.5t-5.5 -58t-2 -49.5t3 -31h87v-53q-31 3 -48.5 3.5t-26 0.5t-11 -0.5l-2.5 -0.5l-2.5 -87.5t-3.5 -114t-3 -128t-1.5 -128.5t1 -116.5t5.5 -91.5l-368 8l-5 52l201 -11q0 4 3.5 53t5 131t-0.5 192t-12 238l-77 3z" />
    <glyph glyph-name="endash" unicode="&#x2013;" horiz-adv-x="463" 
d="M52 469l39 -2l-2 -39l292 2l1 35l40 2l2 -160l-40 -2l-3 25l-292 2l2 -33l-39 2v168z" />
    <glyph glyph-name="minus" unicode="&#x2212;" horiz-adv-x="463" 
d="M52 469l39 -2l-2 -39l292 2l1 35l40 2l2 -160l-40 -2l-3 25l-292 2l2 -33l-39 2v168z" />
    <glyph glyph-name="ellipsis" unicode="&#x2026;" horiz-adv-x="750" 
d="M34 22q-21 41 -10.5 71.5t36.5 48.5t59.5 23t58 -5t32.5 -36t-16 -69q-13 -18 -33.5 -33t-43.5 -22t-45 -3t-38 25zM284 22q-21 41 -10.5 71.5t36.5 48.5t59.5 23t58 -5t32.5 -36t-16 -69q-13 -18 -33.5 -33t-43.5 -22t-45 -3t-38 25zM534 22q-21 41 -10.5 71.5
t36.5 48.5t59.5 23t58 -5t32.5 -36t-16 -69q-13 -18 -33.5 -33t-43.5 -22t-45 -3t-38 25z" />
    <glyph glyph-name="cedilla" unicode="&#xb8;" horiz-adv-x="347" 
d="M87 -219q15 -24 41.5 -40t52.5 -13t46 30t21 90q-1 32 -11.5 49t-26.5 24t-34.5 8t-35.5 0.5t-30.5 2t-19.5 12.5q-3 13 -1.5 27.5t4.5 27l5.5 23.5t1.5 17l47 -13q2 -29 -1.5 -44.5t7.5 -16.5q57 13 94.5 1.5t58 -36.5t25 -59.5t-4.5 -68t-30.5 -61.5t-52.5 -40
t-70.5 -4t-85.5 46v38z" />
    <glyph glyph-name="macron" unicode="&#xaf;" horiz-adv-x="463" 
d="M31 822l39 -2l-2 -19l292 2l1 15l40 2l2 -128l-40 -2l-3 13l-292 2l2 -21l-39 2v136z" />
    <glyph glyph-name="Thorn" unicode="&#xde;" horiz-adv-x="708" 
d="M19 760l217 2v-52h-30l-8 -240q91 79 166.5 112t134.5 30.5t100.5 -34t64.5 -81t27.5 -110t-11.5 -120.5t-53 -114t-95.5 -90t-140 -48t-186.5 12l-14 -263h47v-52l-217 -2v52l35 1l-2 945h-35v52zM205 70q0 -9 19.5 -13.5t44.5 -7t48 -2.5t29 1q46 14 78 53t50.5 89.5
t23.5 107t-4 105.5t-31.5 83.5t-58.5 42.5t-86 -17.5t-114 -97.5z" />
    <glyph glyph-name="thorn" unicode="&#xfe;" horiz-adv-x="708" 
d="M19 824l217 2v-52h-30l-8 -136q91 80 166.5 112.5t134.5 30t100.5 -34t64.5 -81t27.5 -110t-11.5 -120.5t-53 -114t-95.5 -90t-140 -48t-186.5 12l-14 -144h47v-52l-217 -2v52l35 1l-2 722h-35v52zM205 238q0 -9 19.5 -13.5t44.5 -7t48 -2.5t29 1q46 14 78 53t50.5 89.5
t23.5 107t-4 105.5t-31.5 83.5t-58.5 42.5t-86 -17.5t-114 -97.5z" />
    <glyph glyph-name="dieresis" unicode="&#xa8;" horiz-adv-x="431" 
d="M46 693q-17 42 -9.5 72.5t27.5 48.5t47 23t50 -2.5t35.5 -28.5t4.5 -56q-6 -27 -24 -47.5t-41.5 -30.5t-47.5 -6t-42 27zM248 696q-17 42 -9.5 72.5t27.5 48.5t47 23t50 -2.5t35.5 -28.5t4.5 -56q-6 -27 -24 -47.5t-41.5 -30.5t-47.5 -6t-42 27z" />
    <glyph glyph-name="germandbls" unicode="&#xdf;" horiz-adv-x="571" 
d="M22 -62h27q1 39 1 109.5v156t-1.5 177.5t-2.5 176t-3 150.5t-4 101.5q110 16 187 13.5t127 -18.5t76 -41.5t34 -55.5t2 -60.5t-20 -56.5t-33.5 -43.5t-37.5 -20.5q84 -42 123.5 -93t46 -104t-15.5 -104t-62 -94t-92.5 -74t-106.5 -44l-4 67q28 -3 64.5 12.5t70 43
t58.5 65.5t30.5 82t-13.5 90.5t-73 91.5q-23 20 -60.5 27.5t-72.5 3.5l-5 44q33 8 65 19.5t47 22.5q39 29 46.5 56t-6 51t-43.5 43.5t-65.5 32.5t-72 18t-63.5 0l20 -845h18v-43h-186v43z" />
    <glyph glyph-name="exclamdown" unicode="&#xa1;" horiz-adv-x="349" 
d="M40.6309 7.66699h292.341v60.2432h-75.7217l-15.3359 454.142h83.3896v60.2432h-292.341v-60.2432h80.5137l12.46 -454.142h-85.3057v-60.2432zM114.435 765.805q-16.2939 -17.6094 -18.6904 -34.7559q-2.39648 -17.1455 4.79199 -31.5117
q7.18848 -14.3652 22.0459 -25.4873q14.8564 -11.1221 32.5889 -16.6826q17.7314 -5.56055 35.4639 -5.56055t32.1094 8.34082q12.4609 12.9756 13.4199 29.6582q0.958008 16.6826 -6.70996 32.9023t-21.5664 30.1211q-13.8975 13.9023 -30.1924 20.8535t-33.0684 6.02441
t-30.1924 -13.9023z" />
    <glyph glyph-name="questiondown" unicode="&#xbf;" horiz-adv-x="481" 
d="M303.371 567.424h-28.2422l1.88281 -129.24q-1.88281 -15.0938 -17.8867 -24.5273t-38.127 -16.5088t-47.541 -13.6787t-47.0703 -17.4521t-36.7148 -26.8857t-16.9453 -42.4512q-2.82422 -43.3945 4.23633 -77.8271t21.1816 -60.375t34.3613 -44.8096t42.834 -32.0742
q41.4219 -24.5273 78.1367 -24.5273t67.3105 14.6221t52.7188 38.6777t33.4199 47.6396t10.3555 41.9795t-16.9453 21.2256q-30.125 -34.9043 -56.0137 -45.2812t-44.2461 -5.18848t-27.7715 21.6973t-8.00195 35.376t15.0625 35.376t41.8926 22.1689
q32.9492 6.60352 58.8379 -0.943359t42.3633 -24.5273t21.6523 -41.5078t-3.29492 -51.8848q-19.7695 -60.375 -52.7188 -95.2793t-72.959 -49.5264t-83.3145 -10.8486t-84.2559 20.7539t-76.2539 45.7529t-57.8965 64.1484t-29.6543 74.5254t8.00195 78.2988
t55.543 75.9404t112.027 66.0352l9.41406 131.127h-32.9492v34.9043h167.57v-34.9043zM307.137 765.529q22.5938 -37.7344 15.5332 -64.6201t-29.1836 -41.5078t-53.1895 -17.4521t-56.0137 6.13184t-37.6562 30.6592t0.470703 55.6582q13.1797 16.9805 33.4199 31.1309
t43.3047 20.7539t45.1875 2.83008t38.127 -23.584z" />
    <glyph glyph-name="commaaccent" horiz-adv-x="400" 
d="M121 -252q8 15 30 30t43 32t32 38t-2 48q-35 -36 -59 -41.5t-37 7t-15 36.5t8.5 46t33 36t57.5 6q45 -19 59 -51.5t2.5 -68.5t-45.5 -71t-84 -58l-23 11v0z" />
    <glyph glyph-name="Aacute" unicode="&#xc1;" horiz-adv-x="849" 
d="M508 33l62 3l-46 315l-261 -11l-148 -290h65v-41l-166 -6l3 44h57l341 723l-81 -6l-3 41l263 6l162 -770l69 -2h1v-38l-318 -6v38zM516 404l-49 356l-182 -364zM405 917l151 120l35 -81l-156 -128z" />
    <glyph glyph-name="Abreve" unicode="&#x102;" horiz-adv-x="849" 
d="M508 33l62 3l-46 315l-261 -11l-148 -290h65v-41l-166 -6l3 44h57l341 723l-81 -6l-3 41l263 6l162 -770l69 -2h1v-38l-318 -6v38zM516 404l-49 356l-182 -364zM366 1022q37 -51 75 -69.5t73 -13.5t64 28t48 55l19 -24q-16 -44 -41 -77.5t-55 -53.5t-62.5 -25.5
t-63.5 7.5t-58.5 46t-47.5 89z" />
    <glyph glyph-name="Acircumflex" unicode="&#xc2;" horiz-adv-x="849" 
d="M508 33l62 3l-46 315l-261 -11l-148 -290h65v-41l-166 -6l3 44h57l341 723l-81 -6l-3 41l263 6l162 -770l69 -2h1v-38l-318 -6v38zM516 404l-49 356l-182 -364zM563 1043l96 -188h-42l-78 131l-135 -127l-127 8l163 172z" />
    <glyph glyph-name="Agrave" unicode="&#xc0;" horiz-adv-x="849" 
d="M508 33l62 3l-46 315l-261 -11l-148 -290h65v-41l-166 -6l3 44h57l341 723l-81 -6l-3 41l263 6l162 -770l69 -2h1v-38l-318 -6v38zM516 404l-49 356l-182 -364zM512 841l-149 107l33 95l145 -98z" />
    <glyph glyph-name="Adieresis" unicode="&#xc4;" horiz-adv-x="849" 
d="M508 33l62 3l-46 315l-261 -11l-148 -290h65v-41l-166 -6l3 44h57l341 723l-81 -6l-3 41l263 6l162 -770l69 -2h1v-38l-318 -6v38zM516 404l-49 356l-182 -364zM313 867q-17 42 -9.5 72.5t27.5 48.5t47 23t50 -2.5t35.5 -28.5t4.5 -56q-6 -27 -24 -47.5t-41.5 -30.5
t-47.5 -6t-42 27zM515 870q-17 42 -9.5 72.5t27.5 48.5t47 23t50 -2.5t35.5 -28.5t4.5 -56q-6 -27 -24 -47.5t-41.5 -30.5t-47.5 -6t-42 27z" />
    <glyph glyph-name="Amacron" unicode="&#x100;" horiz-adv-x="849" 
d="M508 33l62 3l-46 315l-261 -11l-148 -290h65v-41l-166 -6l3 44h57l341 723l-81 -6l-3 41l263 6l162 -770l69 -2h1v-38l-318 -6v38zM516 404l-49 356l-182 -364zM287 968l39 -2l-2 -19l292 2l1 15l40 2l2 -128l-40 -2l-3 13l-292 2l2 -21l-39 2v136z" />
    <glyph glyph-name="Aogonek" unicode="&#x104;" horiz-adv-x="849" 
d="M508 33l62 3l-46 315l-261 -11l-148 -290h65v-41l-166 -6l3 44h57l341 723l-81 -6l-3 41l263 6l162 -770l69 -2h1v-38l-318 -6v38zM516 404l-49 356l-182 -364zM790 0q-25 -3 -38.5 -15t-17 -27t1.5 -30t16.5 -25t28 -12t36.5 9l9 -49q-33 -29 -62 -30.5t-50.5 13
t-33.5 41.5t-12 55.5t14 53.5t46 38z" />
    <glyph glyph-name="Aring" unicode="&#xc5;" horiz-adv-x="849" 
d="M508 33l62 3l-46 315l-261 -11l-148 -290h65v-41l-166 -6l3 44h57l341 723l-81 -6l-3 41l263 6l162 -770l69 -2h1v-38l-318 -6v38zM516 404l-49 356l-182 -364zM354 858q-38 21 -48 48t1 52.5t38 45.5t62.5 27.5t74.5 -2t75 -42.5q23 -22 24 -44t-13 -41t-39.5 -34
t-55.5 -22t-61.5 -5t-57.5 17zM407 888q18 -9 39 -9.5t40.5 5t35 17t20.5 26.5q7 20 -8.5 29t-40.5 10t-53 -6t-45 -18t-17.5 -25t29.5 -29z" />
    <glyph glyph-name="Atilde" unicode="&#xc3;" horiz-adv-x="849" 
d="M508 33l62 3l-46 315l-261 -11l-148 -290h65v-41l-166 -6l3 44h57l341 723l-81 -6l-3 41l263 6l162 -770l69 -2h1v-38l-318 -6v38zM516 404l-49 356l-182 -364zM247 860q0 4 8 23.5t23 43.5t35.5 48t44.5 36.5t49.5 8t51.5 -36.5q37 -51 68.5 -64.5t58.5 -2t50 39.5
t42 60l19 -24q-18 -58 -56.5 -99.5t-83.5 -52t-90 17.5t-77 109q-23 8 -38.5 -5.5t-26 -35t-19 -42.5t-17.5 -28z" />
    <glyph glyph-name="AE" unicode="&#xc6;" horiz-adv-x="1018" 
d="M709 377q-12 0 -26.5 -1t-28 -1.5t-24.5 -1t-15 -0.5v-325l311 9l-2 65l45 -2l2 -131l-45 2v20l-478 -17v38l50 3l10 313l-245 -8l-148 -290h65v-41l-166 -6l3 44l27 3l393 717l-62 -3l2 35l508 6l11 7h45l4 -131h-45l-2 70h-277l-5 -333l93 2v36h36v-118h-36v39z
M500 401l5 352l-220 -357z" />
    <glyph glyph-name="AEacute" unicode="&#x1fc;" horiz-adv-x="1018" 
d="M709 377q-12 0 -26.5 -1t-28 -1.5t-24.5 -1t-15 -0.5v-325l311 9l-2 65l45 -2l2 -131l-45 2v20l-478 -17v38l50 3l10 313l-245 -8l-148 -290h65v-41l-166 -6l3 44l27 3l393 717l-62 -3l2 35l508 6l11 7h45l4 -131h-45l-2 70h-277l-5 -333l93 2v36h36v-118h-36v39z
M500 401l5 352l-220 -357zM553 905l151 120l35 -81l-156 -128z" />
    <glyph glyph-name="Cacute" unicode="&#x106;" horiz-adv-x="611" 
d="M551 114q-33 -30 -75 -57t-88 -43.5t-93.5 -18.5t-90.5 16q-66 28 -104.5 84t-53.5 126t-9 148.5t29.5 153.5t61.5 139.5t86.5 107t105 56.5t117.5 -13q21 -10 48 -21.5t45 -26.5v65l43 1v-192l-43 -1v80q-15 16 -41 30t-54.5 24t-54.5 13.5t-42 -2.5q-38 -38 -63 -98
t-37 -129.5t-10.5 -142t15 -135.5t40 -110.5t65 -66t89.5 -2.5t114 79v55h35v-143h-35v24zM245 929l151 120l35 -81l-156 -128z" />
    <glyph glyph-name="Ccaron" unicode="&#x10c;" horiz-adv-x="611" 
d="M551 114q-33 -30 -75 -57t-88 -43.5t-93.5 -18.5t-90.5 16q-66 28 -104.5 84t-53.5 126t-9 148.5t29.5 153.5t61.5 139.5t86.5 107t105 56.5t117.5 -13q21 -10 48 -21.5t45 -26.5v65l43 1v-192l-43 -1v80q-15 16 -41 30t-54.5 24t-54.5 13.5t-42 -2.5q-38 -38 -63 -98
t-37 -129.5t-10.5 -142t15 -135.5t40 -110.5t65 -66t89.5 -2.5t114 79v55h35v-143h-35v24zM280 861l-153 188l119 9l127 -139l73 143h39l-90 -205z" />
    <glyph glyph-name="Ccedilla" unicode="&#xc7;" horiz-adv-x="611" 
d="M551 114q-33 -30 -75 -57t-88 -43.5t-93.5 -18.5t-90.5 16q-66 28 -104.5 84t-53.5 126t-9 148.5t29.5 153.5t61.5 139.5t86.5 107t105 56.5t117.5 -13q21 -10 48 -21.5t45 -26.5v65l43 1v-192l-43 -1v80q-15 16 -41 30t-54.5 24t-54.5 13.5t-42 -2.5q-38 -38 -63 -98
t-37 -129.5t-10.5 -142t15 -135.5t40 -110.5t65 -66t89.5 -2.5t114 79v55h35v-143h-35v24zM277 -222q15 -24 41.5 -40t52.5 -13t46 30t21 90q-1 32 -11.5 49t-26.5 24t-34.5 8t-35.5 0.5t-30.5 2t-19.5 12.5q-3 13 -1.5 27.5t4.5 27l5.5 23.5t1.5 17l47 -13
q2 -29 -1.5 -44.5t7.5 -16.5q57 13 94.5 1.5t58 -36.5t25 -59.5t-4.5 -68t-30.5 -61.5t-52.5 -40t-70.5 -4t-85.5 46v38z" />
    <glyph glyph-name="Ccircumflex" unicode="&#x108;" horiz-adv-x="611" 
d="M551 114q-33 -30 -75 -57t-88 -43.5t-93.5 -18.5t-90.5 16q-66 28 -104.5 84t-53.5 126t-9 148.5t29.5 153.5t61.5 139.5t86.5 107t105 56.5t117.5 -13q21 -10 48 -21.5t45 -26.5v65l43 1v-192l-43 -1v80q-15 16 -41 30t-54.5 24t-54.5 13.5t-42 -2.5q-38 -38 -63 -98
t-37 -129.5t-10.5 -142t15 -135.5t40 -110.5t65 -66t89.5 -2.5t114 79v55h35v-143h-35v24zM395 1045l96 -188h-42l-78 131l-135 -127l-127 8l163 172z" />
    <glyph glyph-name="Cdotaccent" unicode="&#x10a;" horiz-adv-x="611" 
d="M551 114q-33 -30 -75 -57t-88 -43.5t-93.5 -18.5t-90.5 16q-66 28 -104.5 84t-53.5 126t-9 148.5t29.5 153.5t61.5 139.5t86.5 107t105 56.5t117.5 -13q21 -10 48 -21.5t45 -26.5v65l43 1v-192l-43 -1v80q-15 16 -41 30t-54.5 24t-54.5 13.5t-42 -2.5q-38 -38 -63 -98
t-37 -129.5t-10.5 -142t15 -135.5t40 -110.5t65 -66t89.5 -2.5t114 79v55h35v-143h-35v24zM275 887q-21 41 -10.5 71.5t36.5 48.5t59.5 23t58 -5t32.5 -36t-16 -69q-13 -18 -33.5 -33t-43.5 -22t-45 -3t-38 25z" />
    <glyph glyph-name="Dcaron" unicode="&#x10e;" horiz-adv-x="651" 
d="M38 823l32 -1l-2 -26q102 27 194.5 26t166.5 -29.5t125 -83t71 -133.5t4.5 -181t-75.5 -226q-55 -65 -119.5 -100.5t-131.5 -51t-134 -16t-127 3.5l-1 -35l-31 1l5 109l31 -1l-2 -38l74 -2l12 733l-63 -15l-2 -35l-32 1zM327 75q55 6 101.5 39t81 84t55 114t25 127
t-9 125t-47 107.5t-89.5 73.5t-137 24zM299 861l-153 188l119 9l127 -139l73 143h39l-90 -205z" />
    <glyph glyph-name="Dcroat" unicode="&#x110;" horiz-adv-x="651" 
d="M32 487l39 -2l-2 -19h56l5 306l-63 -15l-2 -35l-32 1l5 100l32 -1l-2 -26q102 27 194.5 26t166.5 -29.5t125 -83t71 -133.5t4.5 -181t-75.5 -226q-55 -65 -119.5 -100.5t-131.5 -51t-134 -16t-127 3.5l-1 -35l-31 1l5 109l31 -1l-2 -38l74 -2l5 330l-54 1l2 -21l-39 2
v136zM315 467l46 1l1 15l40 2l2 -128l-40 -2l-3 13h-43l9 -293q55 6 101.5 39t81 84t55 114t25 127t-9 125t-47 107.5t-89.5 73.5t-137 24z" />
    <glyph glyph-name="Eacute" unicode="&#xc9;" horiz-adv-x="570" 
d="M277 389q-12 0 -26.5 -1t-28 -1.5t-24.5 -1t-15 -0.5l-8 -316h319l-2 65l45 -2l2 -131l-45 2v20l-464 -4l6 788l430 2l-2 29h45l4 -145h-45l-2 70h-277l-5 -333l93 2v36h36v-118h-36v39zM192 950l151 120l35 -81l-156 -128z" />
    <glyph glyph-name="Ebreve" unicode="&#x114;" horiz-adv-x="570" 
d="M277 389q-12 0 -26.5 -1t-28 -1.5t-24.5 -1t-15 -0.5l-8 -316h319l-2 65l45 -2l2 -131l-45 2v20l-464 -4l6 788l430 2l-2 29h45l4 -145h-45l-2 70h-277l-5 -333l93 2v36h36v-118h-36v39zM170 1022q37 -51 75 -69.5t73 -13.5t64 28t48 55l19 -24q-16 -44 -41 -77.5
t-55 -53.5t-62.5 -25.5t-63.5 7.5t-58.5 46t-47.5 89z" />
    <glyph glyph-name="Ecaron" unicode="&#x11a;" horiz-adv-x="570" 
d="M277 389q-12 0 -26.5 -1t-28 -1.5t-24.5 -1t-15 -0.5l-8 -316h319l-2 65l45 -2l2 -131l-45 2v20l-464 -4l6 788l430 2l-2 29h45l4 -145h-45l-2 70h-277l-5 -333l93 2v36h36v-118h-36v39zM259 861l-153 188l119 9l127 -139l73 143h39l-90 -205z" />
    <glyph glyph-name="Ecircumflex" unicode="&#xca;" horiz-adv-x="570" 
d="M277 389q-12 0 -26.5 -1t-28 -1.5t-24.5 -1t-15 -0.5l-8 -316h319l-2 65l45 -2l2 -131l-45 2v20l-464 -4l6 788l430 2l-2 29h45l4 -145h-45l-2 70h-277l-5 -333l93 2v36h36v-118h-36v39zM380 1045l96 -188h-42l-78 131l-135 -127l-127 8l163 172z" />
    <glyph glyph-name="Edieresis" unicode="&#xcb;" horiz-adv-x="570" 
d="M277 389q-12 0 -26.5 -1t-28 -1.5t-24.5 -1t-15 -0.5l-8 -316h319l-2 65l45 -2l2 -131l-45 2v20l-464 -4l6 788l430 2l-2 29h45l4 -145h-45l-2 70h-277l-5 -333l93 2v36h36v-118h-36v39zM123 866q-17 42 -9.5 72.5t27.5 48.5t47 23t50 -2.5t35.5 -28.5t4.5 -56
q-6 -27 -24 -47.5t-41.5 -30.5t-47.5 -6t-42 27zM325 869q-17 42 -9.5 72.5t27.5 48.5t47 23t50 -2.5t35.5 -28.5t4.5 -56q-6 -27 -24 -47.5t-41.5 -30.5t-47.5 -6t-42 27z" />
    <glyph glyph-name="Edotaccent" unicode="&#x116;" horiz-adv-x="570" 
d="M277 389q-12 0 -26.5 -1t-28 -1.5t-24.5 -1t-15 -0.5l-8 -316h319l-2 65l45 -2l2 -131l-45 2v20l-464 -4l6 788l430 2l-2 29h45l4 -145h-45l-2 70h-277l-5 -333l93 2v36h36v-118h-36v39zM198 858q-21 41 -10.5 71.5t36.5 48.5t59.5 23t58 -5t32.5 -36t-16 -69
q-13 -18 -33.5 -33t-43.5 -22t-45 -3t-38 25z" />
    <glyph glyph-name="Egrave" unicode="&#xc8;" horiz-adv-x="570" 
d="M277 389q-12 0 -26.5 -1t-28 -1.5t-24.5 -1t-15 -0.5l-8 -316h319l-2 65l45 -2l2 -131l-45 2v20l-464 -4l6 788l430 2l-2 29h45l4 -145h-45l-2 70h-277l-5 -333l93 2v36h36v-118h-36v39zM345 839l-149 107l33 95l145 -98z" />
    <glyph glyph-name="Emacron" unicode="&#x112;" horiz-adv-x="570" 
d="M277 389q-12 0 -26.5 -1t-28 -1.5t-24.5 -1t-15 -0.5l-8 -316h319l-2 65l45 -2l2 -131l-45 2v20l-464 -4l6 788l430 2l-2 29h45l4 -145h-45l-2 70h-277l-5 -333l93 2v36h36v-118h-36v39zM99 995l39 -2l-2 -19l292 2l1 15l40 2l2 -128l-40 -2l-3 13l-292 2l2 -21l-39 2
v136z" />
    <glyph glyph-name="Eogonek" unicode="&#x118;" horiz-adv-x="570" 
d="M277 389q-12 0 -26.5 -1t-28 -1.5t-24.5 -1t-15 -0.5l-8 -316h319l-2 65l45 -2l2 -131l-45 2v20l-464 -4l6 788l430 2l-2 29h45l4 -145h-45l-2 70h-277l-5 -333l93 2v36h36v-118h-36v39zM454 29q-25 -3 -38.5 -15t-17 -27t1.5 -30t16.5 -25t28 -12t36.5 9l9 -49
q-33 -29 -62 -30.5t-50.5 13t-33.5 41.5t-12 55.5t14 53.5t46 38z" />
    <glyph glyph-name="Gbreve" unicode="&#x11e;" horiz-adv-x="741" 
d="M550 58h28l-5 104q-8 -11 -23.5 -24.5t-33 -26.5l-33 -23.5t-22.5 -13.5q-95 -52 -168.5 -63.5t-127 8.5t-87.5 65t-49 106t-11.5 132t24.5 142t59 137t93 116q24 21 58.5 41.5t74.5 36.5t82.5 25t82.5 6t74.5 -19.5t57.5 -51.5q25 -40 21.5 -70.5t-22 -50t-47 -26
t-52.5 1.5q-23 7 -37 28t-12.5 44t23 43.5t69.5 27.5q-8 13 -25.5 19.5t-41 8t-49 -1t-48 -7.5t-40 -11t-23.5 -12q-33 -44 -58 -104t-40 -126.5t-19 -134.5t6.5 -127.5t36 -106t68.5 -70.5q11 -1 34.5 6t52 20.5t57 33.5t51 45.5t34.5 57t6 68.5q-5 1 -11.5 1.5t-30.5 1.5
l2 39l194 -1l-2 -39l-36 1l2 -256h39v-43h-176v43zM255 1022q37 -51 75 -69.5t73 -13.5t64 28t48 55l19 -24q-16 -44 -41 -77.5t-55 -53.5t-62.5 -25.5t-63.5 7.5t-58.5 46t-47.5 89z" />
    <glyph glyph-name="Gcircumflex" unicode="&#x11c;" horiz-adv-x="741" 
d="M550 58h28l-5 104q-8 -11 -23.5 -24.5t-33 -26.5l-33 -23.5t-22.5 -13.5q-95 -52 -168.5 -63.5t-127 8.5t-87.5 65t-49 106t-11.5 132t24.5 142t59 137t93 116q24 21 58.5 41.5t74.5 36.5t82.5 25t82.5 6t74.5 -19.5t57.5 -51.5q25 -40 21.5 -70.5t-22 -50t-47 -26
t-52.5 1.5q-23 7 -37 28t-12.5 44t23 43.5t69.5 27.5q-8 13 -25.5 19.5t-41 8t-49 -1t-48 -7.5t-40 -11t-23.5 -12q-33 -44 -58 -104t-40 -126.5t-19 -134.5t6.5 -127.5t36 -106t68.5 -70.5q11 -1 34.5 6t52 20.5t57 33.5t51 45.5t34.5 57t6 68.5q-5 1 -11.5 1.5t-30.5 1.5
l2 39l194 -1l-2 -39l-36 1l2 -256h39v-43h-176v43zM465 1045l96 -188h-42l-78 131l-135 -127l-127 8l163 172z" />
    <glyph glyph-name="Gcommaaccent" unicode="&#x122;" horiz-adv-x="741" 
d="M550 58h28l-5 104q-8 -11 -23.5 -24.5t-33 -26.5l-33 -23.5t-22.5 -13.5q-95 -52 -168.5 -63.5t-127 8.5t-87.5 65t-49 106t-11.5 132t24.5 142t59 137t93 116q24 21 58.5 41.5t74.5 36.5t82.5 25t82.5 6t74.5 -19.5t57.5 -51.5q25 -40 21.5 -70.5t-22 -50t-47 -26
t-52.5 1.5q-23 7 -37 28t-12.5 44t23 43.5t69.5 27.5q-8 13 -25.5 19.5t-41 8t-49 -1t-48 -7.5t-40 -11t-23.5 -12q-33 -44 -58 -104t-40 -126.5t-19 -134.5t6.5 -127.5t36 -106t68.5 -70.5q11 -1 34.5 6t52 20.5t57 33.5t51 45.5t34.5 57t6 68.5q-5 1 -11.5 1.5t-30.5 1.5
l2 39l194 -1l-2 -39l-36 1l2 -256h39v-43h-176v43zM289 -252q8 15 30 30t43 32t32 38t-2 48q-35 -36 -59 -41.5t-37 7t-15 36.5t8.5 46t33 36t57.5 6q45 -19 59 -51.5t2.5 -68.5t-45.5 -71t-84 -58l-23 11v0z" />
    <glyph glyph-name="Gdotaccent" unicode="&#x120;" horiz-adv-x="741" 
d="M550 58h28l-5 104q-8 -11 -23.5 -24.5t-33 -26.5l-33 -23.5t-22.5 -13.5q-95 -52 -168.5 -63.5t-127 8.5t-87.5 65t-49 106t-11.5 132t24.5 142t59 137t93 116q24 21 58.5 41.5t74.5 36.5t82.5 25t82.5 6t74.5 -19.5t57.5 -51.5q25 -40 21.5 -70.5t-22 -50t-47 -26
t-52.5 1.5q-23 7 -37 28t-12.5 44t23 43.5t69.5 27.5q-8 13 -25.5 19.5t-41 8t-49 -1t-48 -7.5t-40 -11t-23.5 -12q-33 -44 -58 -104t-40 -126.5t-19 -134.5t6.5 -127.5t36 -106t68.5 -70.5q11 -1 34.5 6t52 20.5t57 33.5t51 45.5t34.5 57t6 68.5q-5 1 -11.5 1.5t-30.5 1.5
l2 39l194 -1l-2 -39l-36 1l2 -256h39v-43h-176v43zM283 858q-21 41 -10.5 71.5t36.5 48.5t59.5 23t58 -5t32.5 -36t-16 -69q-13 -18 -33.5 -33t-43.5 -22t-45 -3t-38 25z" />
    <glyph glyph-name="Hbar" unicode="&#x126;" horiz-adv-x="663" 
d="M-11 684l52 -2l-5 -21l629 2l2 17l43 2l5 -143l-43 -2l-7 15l-629 2l5 -24l-52 3v151zM456 51h40l-6 370l-292 -14v-353h39v-47l-215 -1v47h52l4 725h-55v47l215 1v-47h-41l-1 -336l289 14l-1 319h-27v47h191v-47h-55l14 -725h40v-47h-191v47z" />
    <glyph glyph-name="Hcircumflex" unicode="&#x124;" horiz-adv-x="663" 
d="M456 51h40l-6 370l-292 -14v-353h39v-47l-215 -1v47h52l4 725h-55v47l215 1v-47h-41l-1 -336l289 14l-1 319h-27v47h191v-47h-55l14 -725h40v-47h-191v47zM426 1045l96 -188h-42l-78 131l-135 -127l-127 8l163 172z" />
    <glyph glyph-name="Iacute" unicode="&#xcd;" horiz-adv-x="604" 
d="M221 51l-1 732h-182v40l548 2l-4 -43l-226 2v-729l230 6v-51l-545 -3v40zM209 950l151 120l35 -81l-156 -128z" />
    <glyph glyph-name="Ibreve" unicode="&#x12c;" horiz-adv-x="604" 
d="M221 51l-1 732h-182v40l548 2l-4 -43l-226 2v-729l230 6v-51l-545 -3v40zM187 1022q37 -51 75 -69.5t73 -13.5t64 28t48 55l19 -24q-16 -44 -41 -77.5t-55 -53.5t-62.5 -25.5t-63.5 7.5t-58.5 46t-47.5 89z" />
    <glyph glyph-name="Igrave" unicode="&#xcc;" horiz-adv-x="604" 
d="M221 51l-1 732h-182v40l548 2l-4 -43l-226 2v-729l230 6v-51l-545 -3v40zM362 839l-149 107l33 95l145 -98z" />
    <glyph glyph-name="Icircumflex" unicode="&#xce;" horiz-adv-x="604" 
d="M221 51l-1 732h-182v40l548 2l-4 -43l-226 2v-729l230 6v-51l-545 -3v40zM397 1045l96 -188h-42l-78 131l-135 -127l-127 8l163 172z" />
    <glyph glyph-name="Idieresis" unicode="&#xcf;" horiz-adv-x="604" 
d="M221 51l-1 732h-182v40l548 2l-4 -43l-226 2v-729l230 6v-51l-545 -3v40zM140 866q-17 42 -9.5 72.5t27.5 48.5t47 23t50 -2.5t35.5 -28.5t4.5 -56q-6 -27 -24 -47.5t-41.5 -30.5t-47.5 -6t-42 27zM342 869q-17 42 -9.5 72.5t27.5 48.5t47 23t50 -2.5t35.5 -28.5t4.5 -56
q-6 -27 -24 -47.5t-41.5 -30.5t-47.5 -6t-42 27z" />
    <glyph glyph-name="Idotaccent" unicode="&#x130;" horiz-adv-x="604" 
d="M221 51l-1 732h-182v40l548 2l-4 -43l-226 2v-729l230 6v-51l-545 -3v40zM215 858q-21 41 -10.5 71.5t36.5 48.5t59.5 23t58 -5t32.5 -36t-16 -69q-13 -18 -33.5 -33t-43.5 -22t-45 -3t-38 25z" />
    <glyph glyph-name="Iogonek" unicode="&#x12e;" horiz-adv-x="604" 
d="M221 51l-1 732h-182v40l548 2l-4 -43l-226 2v-729l230 6v-51l-545 -3v40zM550 29q-25 -3 -38.5 -15t-17 -27t1.5 -30t16.5 -25t28 -12t36.5 9l9 -49q-33 -29 -62 -30.5t-50.5 13t-33.5 41.5t-12 55.5t14 53.5t46 38z" />
    <glyph glyph-name="Imacron" horiz-adv-x="604" 
d="M221 51l-1 732h-182v40l548 2l-4 -43l-226 2v-729l230 6v-51l-545 -3v40zM116 995l39 -2l-2 -19l292 2l1 15l40 2l2 -128l-40 -2l-3 13l-292 2l2 -21l-39 2v136z" />
    <glyph glyph-name="Itilde" unicode="&#x128;" horiz-adv-x="604" 
d="M221 51l-1 732h-182v40l548 2l-4 -43l-226 2v-729l230 6v-51l-545 -3v40zM78 863q0 4 8 23.5t23 43.5t35.5 48t44.5 36.5t49.5 8t51.5 -36.5q37 -51 68.5 -64.5t58.5 -2t50 39.5t42 60l19 -24q-18 -58 -56.5 -99.5t-83.5 -52t-90 17.5t-77 109q-23 8 -38.5 -5.5t-26 -35
t-19 -42.5t-17.5 -28z" />
    <glyph glyph-name="Jcircumflex" unicode="&#x134;" horiz-adv-x="653" 
d="M198 11q-53 12 -96 48t-64.5 83t-15 99.5t51.5 99.5q24 22 50.5 35t53 12t49.5 -17t39 -53q15 -53 7.5 -85.5t-27 -46.5t-45 -10.5t-47 22.5t-33 52.5t-2.5 78.5q-45 -37 -52.5 -81.5t10.5 -86t55.5 -73.5t83 -42.5t92 6.5t83.5 73q16 32 25 78.5t12.5 102t2.5 117
t-3.5 123.5t-5.5 122.5t-4 113.5l-133 1l3 47q103 2 176.5 3t124 1h81.5h48.5t25 -0.5t12.5 -0.5l-3 -43l-145 -4q1 -65 5 -137.5t6 -146t-1.5 -145t-17.5 -133.5t-41.5 -111.5t-75 -79.5t-117.5 -37t-168 15zM609 1045l96 -188h-42l-78 131l-135 -127l-127 8l163 172z" />
    <glyph glyph-name="Kcommaaccent" unicode="&#x136;" horiz-adv-x="712" 
d="M460 58l84 -2l-202 423l-137 -123l-11 -298l108 2v-54l-290 -5v54h29l28 717l-60 -1v54l284 6h1q4 0 4 -1v-53l-81 -2l-12 -369l363 367h-106v54h237v-54h-69l-242 -261l217 -457l96 -2v-54l-241 5v54zM295 -263q8 15 30 30t43 32t32 38t-2 48q-35 -36 -59 -41.5t-37 7
t-15 36.5t8.5 46t33 36t57.5 6q45 -19 59 -51.5t2.5 -68.5t-45.5 -71t-84 -58l-23 11v0z" />
    <glyph glyph-name="Lacute" unicode="&#x139;" horiz-adv-x="639" 
d="M575 24h-508l11 756h-62v54h264v-54h-52l-1 -702h348v51h47v-125h-47v20zM255 946l151 120l35 -81l-156 -128z" />
    <glyph glyph-name="Lcaron" unicode="&#x13d;" horiz-adv-x="639" 
d="M575 24h-508l11 756h-62v54h264v-54h-52l-1 -702h348v51h47v-125h-47v20zM372 665q20 22 38.5 48t29.5 55q-35 -22 -54.5 -20.5t-26.5 15.5t-2.5 35.5t17 39t33 25t45.5 -4.5q21 -11 25 -33t-2.5 -47t-20.5 -50.5t-29.5 -43t-30.5 -24.5t-22 5z" />
    <glyph glyph-name="Lcommaaccent" unicode="&#x13b;" horiz-adv-x="639" 
d="M575 24h-508l11 756h-62v54h264v-54h-52l-1 -702h348v51h47v-125h-47v20zM238 -252q8 15 30 30t43 32t32 38t-2 48q-35 -36 -59 -41.5t-37 7t-15 36.5t8.5 46t33 36t57.5 6q45 -19 59 -51.5t2.5 -68.5t-45.5 -71t-84 -58l-23 11v0z" />
    <glyph glyph-name="Ldot" unicode="&#x13f;" horiz-adv-x="639" 
d="M575 24h-508l11 756h-62v54h264v-54h-52l-1 -702h348v51h47v-125h-47v20zM330 376q-21 41 -10.5 71.5t36.5 48.5t59.5 23t58 -5t32.5 -36t-16 -69q-13 -18 -33.5 -33t-43.5 -22t-45 -3t-38 25z" />
    <glyph glyph-name="Lslash" unicode="&#x141;" horiz-adv-x="639" 
d="M575 24h-508l11 756h-62v54h264v-54h-52l-1 -702h348v51h47v-125h-47v20zM-38 466l39 -2l-2 -39l292 2l1 35l40 2l2 -160l-40 -2l-3 25l-292 2l2 -33l-39 2v168z" />
    <glyph glyph-name="Nacute" unicode="&#x143;" horiz-adv-x="823" 
d="M551 45h18l-347 665l6 -646q1 -2 1.5 -3.5t1.5 -3.5l71 1v-54l-279 -2v54h39l2 710h-41v54l279 2v-54l-64 -1l366 -693l7 692h-62v54l249 2v-54l-57 -1l-6 -720l63 1v-54l-247 -3v54zM318 950l151 120l35 -81l-156 -128z" />
    <glyph glyph-name="Ncommaaccent" unicode="&#x145;" horiz-adv-x="823" 
d="M551 45h18l-347 665l6 -646q1 -2 1.5 -3.5t1.5 -3.5l71 1v-54l-279 -2v54h39l2 710h-41v54l279 2v-54l-64 -1l366 -693l7 692h-62v54l249 2v-54l-57 -1l-6 -720l63 1v-54l-247 -3v54zM347 -259q8 15 30 30t43 32t32 38t-2 48q-35 -36 -59 -41.5t-37 7t-15 36.5t8.5 46
t33 36t57.5 6q45 -19 59 -51.5t2.5 -68.5t-45.5 -71t-84 -58l-23 11v0z" />
    <glyph glyph-name="Ncaron" unicode="&#x147;" horiz-adv-x="823" 
d="M551 45h18l-347 665l6 -646q1 -2 1.5 -3.5t1.5 -3.5l71 1v-54l-279 -2v54h39l2 710h-41v54l279 2v-54l-64 -1l366 -693l7 692h-62v54l249 2v-54l-57 -1l-6 -720l63 1v-54l-247 -3v54zM385 861l-153 188l119 9l127 -139l73 143h39l-90 -205z" />
    <glyph glyph-name="Ntilde" unicode="&#xd1;" horiz-adv-x="823" 
d="M551 45h18l-347 665l6 -646q1 -2 1.5 -3.5t1.5 -3.5l71 1v-54l-279 -2v54h39l2 710h-41v54l279 2v-54l-64 -1l366 -693l7 692h-62v54l249 2v-54l-57 -1l-6 -720l63 1v-54l-247 -3v54zM187 863q0 4 8 23.5t23 43.5t35.5 48t44.5 36.5t49.5 8t51.5 -36.5q37 -51 68.5 -64.5
t58.5 -2t50 39.5t42 60l19 -24q-18 -58 -56.5 -99.5t-83.5 -52t-90 17.5t-77 109q-23 8 -38.5 -5.5t-26 -35t-19 -42.5t-17.5 -28z" />
    <glyph glyph-name="Oacute" unicode="&#xd3;" horiz-adv-x="835" 
d="M284 21q-93 40 -150.5 104t-84 138.5t-24.5 154t28 152t74 132t113 93.5t145 36.5t171 -38.5q88 -46 146 -109.5t88.5 -135t34 -145.5t-17.5 -141.5t-65.5 -123.5t-111 -91t-153.5 -44t-193 18zM343 754q-41 -57 -62.5 -127.5t-25 -144.5t11 -145.5t45 -129.5t75.5 -97.5
t103 -48.5q54 7 88 45t51 94t18.5 123t-8 133t-29 123.5t-44.5 94.5q-13 24 -42 48.5t-62.5 39.5t-66 15.5t-52.5 -23.5zM324 950l151 120l35 -81l-156 -128z" />
    <glyph glyph-name="Obreve" unicode="&#x14e;" horiz-adv-x="835" 
d="M284 21q-93 40 -150.5 104t-84 138.5t-24.5 154t28 152t74 132t113 93.5t145 36.5t171 -38.5q88 -46 146 -109.5t88.5 -135t34 -145.5t-17.5 -141.5t-65.5 -123.5t-111 -91t-153.5 -44t-193 18zM343 754q-41 -57 -62.5 -127.5t-25 -144.5t11 -145.5t45 -129.5t75.5 -97.5
t103 -48.5q54 7 88 45t51 94t18.5 123t-8 133t-29 123.5t-44.5 94.5q-13 24 -42 48.5t-62.5 39.5t-66 15.5t-52.5 -23.5zM310 1038q37 -51 75 -69.5t73 -13.5t64 28t48 55l19 -24q-16 -44 -41 -77.5t-55 -53.5t-62.5 -25.5t-63.5 7.5t-58.5 46t-47.5 89z" />
    <glyph glyph-name="Ocircumflex" unicode="&#xd4;" horiz-adv-x="835" 
d="M284 21q-93 40 -150.5 104t-84 138.5t-24.5 154t28 152t74 132t113 93.5t145 36.5t171 -38.5q88 -46 146 -109.5t88.5 -135t34 -145.5t-17.5 -141.5t-65.5 -123.5t-111 -91t-153.5 -44t-193 18zM343 754q-41 -57 -62.5 -127.5t-25 -144.5t11 -145.5t45 -129.5t75.5 -97.5
t103 -48.5q54 7 88 45t51 94t18.5 123t-8 133t-29 123.5t-44.5 94.5q-13 24 -42 48.5t-62.5 39.5t-66 15.5t-52.5 -23.5zM512 1045l96 -188h-42l-78 131l-135 -127l-127 8l163 172z" />
    <glyph glyph-name="Odieresis" unicode="&#xd6;" horiz-adv-x="835" 
d="M284 21q-93 40 -150.5 104t-84 138.5t-24.5 154t28 152t74 132t113 93.5t145 36.5t171 -38.5q88 -46 146 -109.5t88.5 -135t34 -145.5t-17.5 -141.5t-65.5 -123.5t-111 -91t-153.5 -44t-193 18zM343 754q-41 -57 -62.5 -127.5t-25 -144.5t11 -145.5t45 -129.5t75.5 -97.5
t103 -48.5q54 7 88 45t51 94t18.5 123t-8 133t-29 123.5t-44.5 94.5q-13 24 -42 48.5t-62.5 39.5t-66 15.5t-52.5 -23.5zM255 866q-17 42 -9.5 72.5t27.5 48.5t47 23t50 -2.5t35.5 -28.5t4.5 -56q-6 -27 -24 -47.5t-41.5 -30.5t-47.5 -6t-42 27zM457 869q-17 42 -9.5 72.5
t27.5 48.5t47 23t50 -2.5t35.5 -28.5t4.5 -56q-6 -27 -24 -47.5t-41.5 -30.5t-47.5 -6t-42 27z" />
    <glyph glyph-name="Ograve" unicode="&#xd2;" horiz-adv-x="835" 
d="M284 21q-93 40 -150.5 104t-84 138.5t-24.5 154t28 152t74 132t113 93.5t145 36.5t171 -38.5q88 -46 146 -109.5t88.5 -135t34 -145.5t-17.5 -141.5t-65.5 -123.5t-111 -91t-153.5 -44t-193 18zM343 754q-41 -57 -62.5 -127.5t-25 -144.5t11 -145.5t45 -129.5t75.5 -97.5
t103 -48.5q54 7 88 45t51 94t18.5 123t-8 133t-29 123.5t-44.5 94.5q-13 24 -42 48.5t-62.5 39.5t-66 15.5t-52.5 -23.5zM477 843l-149 107l33 95l145 -98z" />
    <glyph glyph-name="Ohungarumlaut" unicode="&#x150;" horiz-adv-x="835" 
d="M284 21q-93 40 -150.5 104t-84 138.5t-24.5 154t28 152t74 132t113 93.5t145 36.5t171 -38.5q88 -46 146 -109.5t88.5 -135t34 -145.5t-17.5 -141.5t-65.5 -123.5t-111 -91t-153.5 -44t-193 18zM343 754q-41 -57 -62.5 -127.5t-25 -144.5t11 -145.5t45 -129.5t75.5 -97.5
t103 -48.5q54 7 88 45t51 94t18.5 123t-8 133t-29 123.5t-44.5 94.5q-13 24 -42 48.5t-62.5 39.5t-66 15.5t-52.5 -23.5zM246 958l149 143l34 -97l-153 -153zM437 958l149 143l34 -97l-153 -153z" />
    <glyph glyph-name="Omacron" unicode="&#x14c;" horiz-adv-x="835" 
d="M284 21q-93 40 -150.5 104t-84 138.5t-24.5 154t28 152t74 132t113 93.5t145 36.5t171 -38.5q88 -46 146 -109.5t88.5 -135t34 -145.5t-17.5 -141.5t-65.5 -123.5t-111 -91t-153.5 -44t-193 18zM343 754q-41 -57 -62.5 -127.5t-25 -144.5t11 -145.5t45 -129.5t75.5 -97.5
t103 -48.5q54 7 88 45t51 94t18.5 123t-8 133t-29 123.5t-44.5 94.5q-13 24 -42 48.5t-62.5 39.5t-66 15.5t-52.5 -23.5zM231 995l39 -2l-2 -19l292 2l1 15l40 2l2 -128l-40 -2l-3 13l-292 2l2 -21l-39 2v136z" />
    <glyph glyph-name="Oslash" unicode="&#xd8;" horiz-adv-x="835" 
d="M284 21q-93 40 -150.5 104t-84 138.5t-24.5 154t28 152t74 132t113 93.5t145 36.5t171 -38.5q88 -46 146 -109.5t88.5 -135t34 -145.5t-17.5 -141.5t-65.5 -123.5t-111 -91t-153.5 -44t-193 18zM343 754q-41 -57 -62.5 -127.5t-25 -144.5t11 -145.5t45 -129.5t75.5 -97.5
t103 -48.5q54 7 88 45t51 94t18.5 123t-8 133t-29 123.5t-44.5 94.5q-13 24 -42 48.5t-62.5 39.5t-66 15.5t-52.5 -23.5zM512.471 861.495l6.85156 42.1289l172.682 2.40723l2.74023 -56.5723h-52.0781l-285.061 -867.85h64.4131l2.74121 -56.5723l-190.498 6.01758
l-2.74023 56.5732l46.5957 4.81445l297.396 866.646z" />
    <glyph glyph-name="Oslashacute" unicode="&#x1fe;" horiz-adv-x="835" 
d="M284 21q-93 40 -150.5 104t-84 138.5t-24.5 154t28 152t74 132t113 93.5t145 36.5t171 -38.5q88 -46 146 -109.5t88.5 -135t34 -145.5t-17.5 -141.5t-65.5 -123.5t-111 -91t-153.5 -44t-193 18zM343 754q-41 -57 -62.5 -127.5t-25 -144.5t11 -145.5t45 -129.5t75.5 -97.5
t103 -48.5q54 7 88 45t51 94t18.5 123t-8 133t-29 123.5t-44.5 94.5q-13 24 -42 48.5t-62.5 39.5t-66 15.5t-52.5 -23.5zM531.854 848.942l7.4082 41.5713l186.709 2.375l2.96289 -55.8242h-56.3086l-308.217 -856.363h69.6455l2.96387 -55.8242l-205.973 5.93945
l-2.96289 55.8242l50.3809 4.75l321.554 855.176zM324 950l151 120l35 -81l-156 -128z" />
    <glyph glyph-name="Otilde" unicode="&#xd5;" horiz-adv-x="835" 
d="M284 21q-93 40 -150.5 104t-84 138.5t-24.5 154t28 152t74 132t113 93.5t145 36.5t171 -38.5q88 -46 146 -109.5t88.5 -135t34 -145.5t-17.5 -141.5t-65.5 -123.5t-111 -91t-153.5 -44t-193 18zM343 754q-41 -57 -62.5 -127.5t-25 -144.5t11 -145.5t45 -129.5t75.5 -97.5
t103 -48.5q54 7 88 45t51 94t18.5 123t-8 133t-29 123.5t-44.5 94.5q-13 24 -42 48.5t-62.5 39.5t-66 15.5t-52.5 -23.5zM193 863q0 4 8 23.5t23 43.5t35.5 48t44.5 36.5t49.5 8t51.5 -36.5q37 -51 68.5 -64.5t58.5 -2t50 39.5t42 60l19 -24q-18 -58 -56.5 -99.5t-83.5 -52
t-90 17.5t-77 109q-23 8 -38.5 -5.5t-26 -35t-19 -42.5t-17.5 -28z" />
    <glyph glyph-name="OE" unicode="&#x152;" horiz-adv-x="1179" 
d="M869 397q-12 0 -26.5 -1t-28 -1.5t-24.5 -1t-15 -0.5l-8 -316h319l-2 65l45 -2l2 -131l-45 2v20l-458 -14l3 116q-23 -41 -53.5 -70.5t-70 -44.5t-87.5 -13t-106 25q-87 34 -143 87t-85 116.5t-33.5 133t10.5 136.5t47.5 128t77 107t99 73t114.5 27t122.5 -31.5
t122.5 -103.5l3 98l409 16l-2 29h45l4 -145h-45l-2 70h-277l-5 -333l93 2v36h36v-118h-36v39zM373 763q-47 -45 -69 -109.5t-24.5 -136t12.5 -143.5t41.5 -132t62 -101t75 -50.5t79.5 19t76 107.5v438q-8 16 -26.5 35t-42.5 36t-50.5 31t-52 20.5t-47 4t-34.5 -18.5z" />
    <glyph glyph-name="Racute" unicode="&#x154;" horiz-adv-x="663" 
d="M493 53h43l-188 355q-12 -6 -33 -12t-45 -9t-48.5 -1t-43.5 13v-342h18v-54l-179 -2v54h29v712l-29 1v54l177 -1v-54h-18v-42q63 57 122.5 79.5t110 19.5t90 -28t63 -62.5t29.5 -84t-11 -93t-59 -89t-113 -71.5l185 -343h61v-54h-161v54zM178 432q57 -14 97.5 0
t65.5 44.5t35.5 71.5t7.5 80.5t-18.5 71.5t-42.5 45t-64 0.5t-83 -61.5zM238 950l151 120l35 -81l-156 -128z" />
    <glyph glyph-name="Rcaron" unicode="&#x158;" horiz-adv-x="663" 
d="M493 53h43l-188 355q-12 -6 -33 -12t-45 -9t-48.5 -1t-43.5 13v-342h18v-54l-179 -2v54h29v712l-29 1v54l177 -1v-54h-18v-42q63 57 122.5 79.5t110 19.5t90 -28t63 -62.5t29.5 -84t-11 -93t-59 -89t-113 -71.5l185 -343h61v-54h-161v54zM178 432q57 -14 97.5 0
t65.5 44.5t35.5 71.5t7.5 80.5t-18.5 71.5t-42.5 45t-64 0.5t-83 -61.5zM305 861l-153 188l119 9l127 -139l73 143h39l-90 -205z" />
    <glyph glyph-name="Rcommaaccent" unicode="&#x156;" horiz-adv-x="663" 
d="M493 53h43l-188 355q-12 -6 -33 -12t-45 -9t-48.5 -1t-43.5 13v-342h18v-54l-179 -2v54h29v712l-29 1v54l177 -1v-54h-18v-42q63 57 122.5 79.5t110 19.5t90 -28t63 -62.5t29.5 -84t-11 -93t-59 -89t-113 -71.5l185 -343h61v-54h-161v54zM178 432q57 -14 97.5 0
t65.5 44.5t35.5 71.5t7.5 80.5t-18.5 71.5t-42.5 45t-64 0.5t-83 -61.5zM250 -252q8 15 30 30t43 32t32 38t-2 48q-35 -36 -59 -41.5t-37 7t-15 36.5t8.5 46t33 36t57.5 6q45 -19 59 -51.5t2.5 -68.5t-45.5 -71t-84 -58l-23 11v0z" />
    <glyph glyph-name="Sacute" unicode="&#x15a;" horiz-adv-x="748" 
d="M532 692q-3 9 -21 19t-42 18.5t-50.5 15t-45.5 9.5q-39 5 -68.5 -9.5t-49.5 -41t-29.5 -59.5t-9 -66.5t11.5 -62t33 -44.5q29 -21 69.5 -23.5t85.5 1t92 6.5t89 -8t75.5 -42.5t51.5 -96.5q10 -79 -18.5 -137t-81.5 -95t-123 -54t-143.5 -14t-142.5 26.5t-120 67.5h-3v-50
h-46v158h46v-51q67 -45 124.5 -69t105.5 -31t84.5 0t61.5 24q28 19 43 48t19.5 61.5t0.5 66.5t-14.5 62.5t-26.5 49t-35 27.5l-332 12q-62 24 -90 59t-29 74.5t21.5 80.5t61.5 76t91.5 61.5t111 38t120 4t119.5 -39.5v58l44 1l3 -161l-44 -1v31zM281 950l151 120l35 -81
l-156 -128z" />
    <glyph glyph-name="Scaron" unicode="&#x160;" horiz-adv-x="748" 
d="M532 692q-3 9 -21 19t-42 18.5t-50.5 15t-45.5 9.5q-39 5 -68.5 -9.5t-49.5 -41t-29.5 -59.5t-9 -66.5t11.5 -62t33 -44.5q29 -21 69.5 -23.5t85.5 1t92 6.5t89 -8t75.5 -42.5t51.5 -96.5q10 -79 -18.5 -137t-81.5 -95t-123 -54t-143.5 -14t-142.5 26.5t-120 67.5h-3v-50
h-46v158h46v-51q67 -45 124.5 -69t105.5 -31t84.5 0t61.5 24q28 19 43 48t19.5 61.5t0.5 66.5t-14.5 62.5t-26.5 49t-35 27.5l-332 12q-62 24 -90 59t-29 74.5t21.5 80.5t61.5 76t91.5 61.5t111 38t120 4t119.5 -39.5v58l44 1l3 -161l-44 -1v31zM348 861l-153 188l119 9
l127 -139l73 143h39l-90 -205z" />
    <glyph glyph-name="Scedilla" unicode="&#x15e;" horiz-adv-x="748" 
d="M532 692q-3 9 -21 19t-42 18.5t-50.5 15t-45.5 9.5q-39 5 -68.5 -9.5t-49.5 -41t-29.5 -59.5t-9 -66.5t11.5 -62t33 -44.5q29 -21 69.5 -23.5t85.5 1t92 6.5t89 -8t75.5 -42.5t51.5 -96.5q10 -79 -18.5 -137t-81.5 -95t-123 -54t-143.5 -14t-142.5 26.5t-120 67.5h-3v-50
h-46v158h46v-51q67 -45 124.5 -69t105.5 -31t84.5 0t61.5 24q28 19 43 48t19.5 61.5t0.5 66.5t-14.5 62.5t-26.5 49t-35 27.5l-332 12q-62 24 -90 59t-29 74.5t21.5 80.5t61.5 76t91.5 61.5t111 38t120 4t119.5 -39.5v58l44 1l3 -161l-44 -1v31zM265 -215q15 -24 41.5 -40
t52.5 -13t46 30t21 90q-1 32 -11.5 49t-26.5 24t-34.5 8t-35.5 0.5t-30.5 2t-19.5 12.5q-3 13 -1.5 27.5t4.5 27l5.5 23.5t1.5 17l47 -13q2 -29 -1.5 -44.5t7.5 -16.5q57 13 94.5 1.5t58 -36.5t25 -59.5t-4.5 -68t-30.5 -61.5t-52.5 -40t-70.5 -4t-85.5 46v38z" />
    <glyph glyph-name="Scircumflex" unicode="&#x15c;" horiz-adv-x="748" 
d="M532 692q-3 9 -21 19t-42 18.5t-50.5 15t-45.5 9.5q-39 5 -68.5 -9.5t-49.5 -41t-29.5 -59.5t-9 -66.5t11.5 -62t33 -44.5q29 -21 69.5 -23.5t85.5 1t92 6.5t89 -8t75.5 -42.5t51.5 -96.5q10 -79 -18.5 -137t-81.5 -95t-123 -54t-143.5 -14t-142.5 26.5t-120 67.5h-3v-50
h-46v158h46v-51q67 -45 124.5 -69t105.5 -31t84.5 0t61.5 24q28 19 43 48t19.5 61.5t0.5 66.5t-14.5 62.5t-26.5 49t-35 27.5l-332 12q-62 24 -90 59t-29 74.5t21.5 80.5t61.5 76t91.5 61.5t111 38t120 4t119.5 -39.5v58l44 1l3 -161l-44 -1v31zM469 1045l96 -188h-42
l-78 131l-135 -127l-127 8l163 172z" />
    <glyph glyph-name="Scommaaccent" unicode="&#x218;" horiz-adv-x="748" 
d="M532 692q-3 9 -21 19t-42 18.5t-50.5 15t-45.5 9.5q-39 5 -68.5 -9.5t-49.5 -41t-29.5 -59.5t-9 -66.5t11.5 -62t33 -44.5q29 -21 69.5 -23.5t85.5 1t92 6.5t89 -8t75.5 -42.5t51.5 -96.5q10 -79 -18.5 -137t-81.5 -95t-123 -54t-143.5 -14t-142.5 26.5t-120 67.5h-3v-50
h-46v158h46v-51q67 -45 124.5 -69t105.5 -31t84.5 0t61.5 24q28 19 43 48t19.5 61.5t0.5 66.5t-14.5 62.5t-26.5 49t-35 27.5l-332 12q-62 24 -90 59t-29 74.5t21.5 80.5t61.5 76t91.5 61.5t111 38t120 4t119.5 -39.5v58l44 1l3 -161l-44 -1v31zM306 -279q8 15 30 30t43 32
t32 38t-2 48q-35 -36 -59 -41.5t-37 7t-15 36.5t8.5 46t33 36t57.5 6q45 -19 59 -51.5t2.5 -68.5t-45.5 -71t-84 -58l-23 11v0z" />
    <glyph glyph-name="Tbar" unicode="&#x166;" horiz-adv-x="658" 
d="M692 712h-240l-2 -664h52v-52h-299v52h70l1 664h-204v-44h-60v148h60v-52h622v54h60v-148h-60v42zM180 578l39 -2l-2 -19l292 2l1 15l40 2l2 -128l-40 -2l-3 13l-292 2l2 -21l-39 2v136z" />
    <glyph glyph-name="Tcaron" unicode="&#x164;" horiz-adv-x="658" 
d="M692 712h-240l-2 -664h52v-52h-299v52h70l1 664h-204v-44h-60v148h60v-52h622v54h60v-148h-60v42zM303 861l-153 188l119 9l127 -139l73 143h39l-90 -205z" />
    <glyph glyph-name="Tcommaaccent" unicode="&#x162;" horiz-adv-x="658" 
d="M692 712h-240l-2 -664h52v-52h-299v52h70l1 664h-204v-44h-60v148h60v-52h622v54h60v-148h-60v42zM269 -279q8 15 30 30t43 32t32 38t-2 48q-35 -36 -59 -41.5t-37 7t-15 36.5t8.5 46t33 36t57.5 6q45 -19 59 -51.5t2.5 -68.5t-45.5 -71t-84 -58l-23 11v0z" />
    <glyph glyph-name="Uacute" unicode="&#xda;" horiz-adv-x="832" 
d="M548 811h300v-46l-124 6q13 -132 14 -246.5t-14.5 -206.5t-50.5 -159.5t-95.5 -106t-149.5 -45.5t-212 22q-29 22 -52.5 48.5t-41.5 65t-29 91t-15.5 127t-1 174t15.5 230.5h-70v46h300v-46h-65q-8 -54 -12 -120t-2.5 -134.5t10 -135.5t24.5 -123.5t41 -99t59.5 -61.5
t80 -11t102.5 52q39 44 61 101t33 118.5t13.5 124t1 118.5t-4.5 101t-2 72l-114 -2v46zM323 950l151 120l35 -81l-156 -128z" />
    <glyph glyph-name="Ubreve" unicode="&#x16c;" horiz-adv-x="832" 
d="M548 811h300v-46l-124 6q13 -132 14 -246.5t-14.5 -206.5t-50.5 -159.5t-95.5 -106t-149.5 -45.5t-212 22q-29 22 -52.5 48.5t-41.5 65t-29 91t-15.5 127t-1 174t15.5 230.5h-70v46h300v-46h-65q-8 -54 -12 -120t-2.5 -134.5t10 -135.5t24.5 -123.5t41 -99t59.5 -61.5
t80 -11t102.5 52q39 44 61 101t33 118.5t13.5 124t1 118.5t-4.5 101t-2 72l-114 -2v46zM301 1022q37 -51 75 -69.5t73 -13.5t64 28t48 55l19 -24q-16 -44 -41 -77.5t-55 -53.5t-62.5 -25.5t-63.5 7.5t-58.5 46t-47.5 89z" />
    <glyph glyph-name="Ucircumflex" unicode="&#xdb;" horiz-adv-x="832" 
d="M548 811h300v-46l-124 6q13 -132 14 -246.5t-14.5 -206.5t-50.5 -159.5t-95.5 -106t-149.5 -45.5t-212 22q-29 22 -52.5 48.5t-41.5 65t-29 91t-15.5 127t-1 174t15.5 230.5h-70v46h300v-46h-65q-8 -54 -12 -120t-2.5 -134.5t10 -135.5t24.5 -123.5t41 -99t59.5 -61.5
t80 -11t102.5 52q39 44 61 101t33 118.5t13.5 124t1 118.5t-4.5 101t-2 72l-114 -2v46zM511 1045l96 -188h-42l-78 131l-135 -127l-127 8l163 172z" />
    <glyph glyph-name="Udieresis" unicode="&#xdc;" horiz-adv-x="832" 
d="M548 811h300v-46l-124 6q13 -132 14 -246.5t-14.5 -206.5t-50.5 -159.5t-95.5 -106t-149.5 -45.5t-212 22q-29 22 -52.5 48.5t-41.5 65t-29 91t-15.5 127t-1 174t15.5 230.5h-70v46h300v-46h-65q-8 -54 -12 -120t-2.5 -134.5t10 -135.5t24.5 -123.5t41 -99t59.5 -61.5
t80 -11t102.5 52q39 44 61 101t33 118.5t13.5 124t1 118.5t-4.5 101t-2 72l-114 -2v46zM254 866q-17 42 -9.5 72.5t27.5 48.5t47 23t50 -2.5t35.5 -28.5t4.5 -56q-6 -27 -24 -47.5t-41.5 -30.5t-47.5 -6t-42 27zM456 869q-17 42 -9.5 72.5t27.5 48.5t47 23t50 -2.5
t35.5 -28.5t4.5 -56q-6 -27 -24 -47.5t-41.5 -30.5t-47.5 -6t-42 27z" />
    <glyph glyph-name="Ugrave" unicode="&#xd9;" horiz-adv-x="832" 
d="M548 811h300v-46l-124 6q13 -132 14 -246.5t-14.5 -206.5t-50.5 -159.5t-95.5 -106t-149.5 -45.5t-212 22q-29 22 -52.5 48.5t-41.5 65t-29 91t-15.5 127t-1 174t15.5 230.5h-70v46h300v-46h-65q-8 -54 -12 -120t-2.5 -134.5t10 -135.5t24.5 -123.5t41 -99t59.5 -61.5
t80 -11t102.5 52q39 44 61 101t33 118.5t13.5 124t1 118.5t-4.5 101t-2 72l-114 -2v46zM476 839l-149 107l33 95l145 -98z" />
    <glyph glyph-name="fraction" unicode="&#x2044;" horiz-adv-x="363" 
d="M228 788l5 35l126 2l2 -47h-38l-208 -721h47l2 -47l-139 5l-2 47l34 4l217 720z" />
    <glyph glyph-name="Uhungarumlaut" unicode="&#x170;" horiz-adv-x="832" 
d="M548 811h300v-46l-124 6q13 -132 14 -246.5t-14.5 -206.5t-50.5 -159.5t-95.5 -106t-149.5 -45.5t-212 22q-29 22 -52.5 48.5t-41.5 65t-29 91t-15.5 127t-1 174t15.5 230.5h-70v46h300v-46h-65q-8 -54 -12 -120t-2.5 -134.5t10 -135.5t24.5 -123.5t41 -99t59.5 -61.5
t80 -11t102.5 52q39 44 61 101t33 118.5t13.5 124t1 118.5t-4.5 101t-2 72l-114 -2v46zM266 942l149 143l34 -97l-153 -153zM457 942l149 143l34 -97l-153 -153z" />
    <glyph glyph-name="Umacron" unicode="&#x16a;" horiz-adv-x="832" 
d="M548 811h300v-46l-124 6q13 -132 14 -246.5t-14.5 -206.5t-50.5 -159.5t-95.5 -106t-149.5 -45.5t-212 22q-29 22 -52.5 48.5t-41.5 65t-29 91t-15.5 127t-1 174t15.5 230.5h-70v46h300v-46h-65q-8 -54 -12 -120t-2.5 -134.5t10 -135.5t24.5 -123.5t41 -99t59.5 -61.5
t80 -11t102.5 52q39 44 61 101t33 118.5t13.5 124t1 118.5t-4.5 101t-2 72l-114 -2v46zM230 995l39 -2l-2 -19l292 2l1 15l40 2l2 -128l-40 -2l-3 13l-292 2l2 -21l-39 2v136z" />
    <glyph glyph-name="Uogonek" unicode="&#x172;" horiz-adv-x="832" 
d="M548 811h300v-46l-124 6q13 -132 14 -246.5t-14.5 -206.5t-50.5 -159.5t-95.5 -106t-149.5 -45.5t-212 22q-29 22 -52.5 48.5t-41.5 65t-29 91t-15.5 127t-1 174t15.5 230.5h-70v46h300v-46h-65q-8 -54 -12 -120t-2.5 -134.5t10 -135.5t24.5 -123.5t41 -99t59.5 -61.5
t80 -11t102.5 52q39 44 61 101t33 118.5t13.5 124t1 118.5t-4.5 101t-2 72l-114 -2v46zM644 102q-25 -3 -38.5 -15t-17 -27t1.5 -30t16.5 -25t28 -12t36.5 9l9 -49q-33 -29 -62 -30.5t-50.5 13t-33.5 41.5t-12 55.5t14 53.5t46 38z" />
    <glyph glyph-name="Uring" unicode="&#x16e;" horiz-adv-x="832" 
d="M548 811h300v-46l-124 6q13 -132 14 -246.5t-14.5 -206.5t-50.5 -159.5t-95.5 -106t-149.5 -45.5t-212 22q-29 22 -52.5 48.5t-41.5 65t-29 91t-15.5 127t-1 174t15.5 230.5h-70v46h300v-46h-65q-8 -54 -12 -120t-2.5 -134.5t10 -135.5t24.5 -123.5t41 -99t59.5 -61.5
t80 -11t102.5 52q39 44 61 101t33 118.5t13.5 124t1 118.5t-4.5 101t-2 72l-114 -2v46zM346 858q-38 21 -48 48t1 52.5t38 45.5t62.5 27.5t74.5 -2t75 -42.5q23 -22 24 -44t-13 -41t-39.5 -34t-55.5 -22t-61.5 -5t-57.5 17zM399 888q18 -9 39 -9.5t40.5 5t35 17t20.5 26.5
q7 20 -8.5 29t-40.5 10t-53 -6t-45 -18t-17.5 -25t29.5 -29z" />
    <glyph glyph-name="Utilde" unicode="&#x168;" horiz-adv-x="832" 
d="M548 811h300v-46l-124 6q13 -132 14 -246.5t-14.5 -206.5t-50.5 -159.5t-95.5 -106t-149.5 -45.5t-212 22q-29 22 -52.5 48.5t-41.5 65t-29 91t-15.5 127t-1 174t15.5 230.5h-70v46h300v-46h-65q-8 -54 -12 -120t-2.5 -134.5t10 -135.5t24.5 -123.5t41 -99t59.5 -61.5
t80 -11t102.5 52q39 44 61 101t33 118.5t13.5 124t1 118.5t-4.5 101t-2 72l-114 -2v46zM192 863q0 4 8 23.5t23 43.5t35.5 48t44.5 36.5t49.5 8t51.5 -36.5q37 -51 68.5 -64.5t58.5 -2t50 39.5t42 60l19 -24q-18 -58 -56.5 -99.5t-83.5 -52t-90 17.5t-77 109
q-23 8 -38.5 -5.5t-26 -35t-19 -42.5t-17.5 -28z" />
    <glyph glyph-name="Wacute" unicode="&#x1e82;" horiz-adv-x="1253" 
d="M1241 832v-46h-78l-59 -343l-39.5 -221.5l-23.5 -126.5t-11.5 -59t-4.5 -17t-2 -2l-167 -4l-180 449l-129 -451l-55 -1l-362 769l-2 0.5t-8.5 1t-20.5 1t-38 1.5v46h367v-46l-99 -6l239 -503q2 7 8.5 27.5l15.5 47.5l19 57l19 57l15.5 47t8.5 28l34 2l168 -435l132 681
h-53v46h306zM533 950l151 120l35 -81l-156 -128z" />
    <glyph glyph-name="Wcircumflex" unicode="&#x174;" horiz-adv-x="1253" 
d="M1241 832v-46h-78l-59 -343l-39.5 -221.5l-23.5 -126.5t-11.5 -59t-4.5 -17t-2 -2l-167 -4l-180 449l-129 -451l-55 -1l-362 769l-2 0.5t-8.5 1t-20.5 1t-38 1.5v46h367v-46l-99 -6l239 -503q2 7 8.5 27.5l15.5 47.5l19 57l19 57l15.5 47t8.5 28l34 2l168 -435l132 681
h-53v46h306zM750 1041l96 -188h-42l-78 131l-135 -127l-127 8l163 172z" />
    <glyph glyph-name="Wdieresis" unicode="&#x1e84;" horiz-adv-x="1253" 
d="M1241 832v-46h-78l-59 -343l-39.5 -221.5l-23.5 -126.5t-11.5 -59t-4.5 -17t-2 -2l-167 -4l-180 449l-129 -451l-55 -1l-362 769l-2 0.5t-8.5 1t-20.5 1t-38 1.5v46h367v-46l-99 -6l239 -503q2 7 8.5 27.5l15.5 47.5l19 57l19 57l15.5 47t8.5 28l34 2l168 -435l132 681
h-53v46h306zM492 858q-17 42 -9.5 72.5t27.5 48.5t47 23t50 -2.5t35.5 -28.5t4.5 -56q-6 -27 -24 -47.5t-41.5 -30.5t-47.5 -6t-42 27zM694 861q-17 42 -9.5 72.5t27.5 48.5t47 23t50 -2.5t35.5 -28.5t4.5 -56q-6 -27 -24 -47.5t-41.5 -30.5t-47.5 -6t-42 27z" />
    <glyph glyph-name="Wgrave" unicode="&#x1e80;" horiz-adv-x="1253" 
d="M1241 832v-46h-78l-59 -343l-39.5 -221.5l-23.5 -126.5t-11.5 -59t-4.5 -17t-2 -2l-167 -4l-180 449l-129 -451l-55 -1l-362 769l-2 0.5t-8.5 1t-20.5 1t-38 1.5v46h367v-46l-99 -6l239 -503q2 7 8.5 27.5l15.5 47.5l19 57l19 57l15.5 47t8.5 28l34 2l168 -435l132 681
h-53v46h306zM686 839l-149 107l33 95l145 -98z" />
    <glyph glyph-name="Yacute" unicode="&#xdd;" horiz-adv-x="838" 
d="M24 827h227v-43h-73l321 -309l118 309h-20v43h227v-43h-53l-249 -723h32v-55h-263v55h49l140 373l-359 350h-97v43zM326 950l151 120l35 -81l-156 -128z" />
    <glyph glyph-name="Ycircumflex" unicode="&#x176;" horiz-adv-x="838" 
d="M24 827h227v-43h-73l321 -309l118 309h-20v43h227v-43h-53l-249 -723h32v-55h-263v55h49l140 373l-359 350h-97v43zM514 1045l96 -188h-42l-78 131l-135 -127l-127 8l163 172z" />
    <glyph glyph-name="Ydieresis" unicode="&#x178;" horiz-adv-x="838" 
d="M24 827h227v-43h-73l321 -309l118 309h-20v43h227v-43h-53l-249 -723h32v-55h-263v55h49l140 373l-359 350h-97v43zM257 866q-17 42 -9.5 72.5t27.5 48.5t47 23t50 -2.5t35.5 -28.5t4.5 -56q-6 -27 -24 -47.5t-41.5 -30.5t-47.5 -6t-42 27zM459 869q-17 42 -9.5 72.5
t27.5 48.5t47 23t50 -2.5t35.5 -28.5t4.5 -56q-6 -27 -24 -47.5t-41.5 -30.5t-47.5 -6t-42 27z" />
    <glyph glyph-name="Ygrave" unicode="&#x1ef2;" horiz-adv-x="838" 
d="M24 827h227v-43h-73l321 -309l118 309h-20v43h227v-43h-53l-249 -723h32v-55h-263v55h49l140 373l-359 350h-97v43zM479 839l-149 107l33 95l145 -98z" />
    <glyph glyph-name="Zacute" unicode="&#x179;" horiz-adv-x="852" 
d="M48 807h38v-22q28 14 68 16.5t89.5 0t106.5 -7t119 -4.5t127 7t131 29l-248 -376h112v-54h-134l-183 -334l475 -3v52h32v-128h-32v28l-720 2l246 385h-112v54h139l205 292q-32 -10 -66 -10t-69 4t-71 10t-72 8t-72 -1.5t-71 -18.5v-38h-38v109zM333 950l151 120l35 -81
l-156 -128z" />
    <glyph glyph-name="Zcaron" unicode="&#x17d;" horiz-adv-x="852" 
d="M48 807h38v-22q28 14 68 16.5t89.5 0t106.5 -7t119 -4.5t127 7t131 29l-248 -376h112v-54h-134l-183 -334l475 -3v52h32v-128h-32v28l-720 2l246 385h-112v54h139l205 292q-32 -10 -66 -10t-69 4t-71 10t-72 8t-72 -1.5t-71 -18.5v-38h-38v109zM400 861l-153 188l119 9
l127 -139l73 143h39l-90 -205z" />
    <glyph glyph-name="Zdotaccent" unicode="&#x17b;" horiz-adv-x="852" 
d="M48 807h38v-22q28 14 68 16.5t89.5 0t106.5 -7t119 -4.5t127 7t131 29l-248 -376h112v-54h-134l-183 -334l475 -3v52h32v-128h-32v28l-720 2l246 385h-112v54h139l205 292q-32 -10 -66 -10t-69 4t-71 10t-72 8t-72 -1.5t-71 -18.5v-38h-38v109zM339 858
q-21 41 -10.5 71.5t36.5 48.5t59.5 23t58 -5t32.5 -36t-16 -69q-13 -18 -33.5 -33t-43.5 -22t-45 -3t-38 25z" />
    <glyph glyph-name="aacute" unicode="&#xe1;" horiz-adv-x="720" 
d="M422 34h49l1 109q-22 -19 -54.5 -42t-70 -45t-78 -39.5t-79 -24.5t-74 -1.5t-61.5 29.5q-35 32 -43 67t4.5 70.5t42 70t69 65.5t86 57t93 45t89.5 29.5t76 9.5q7 48 -3.5 89.5t-37 64t-68 20t-96.5 -40.5q-3 -2 6 -14.5t18.5 -31.5t15 -42t-3 -45t-36 -41t-84.5 -30
q-40 0 -63.5 19.5t-27.5 48.5t13.5 64t59.5 66.5t109.5 55.5t163.5 31q75 6 116.5 -14t62 -60t24.5 -97.5t3.5 -127.5t1 -150t15.5 -165l48 1l-2 -37l-287 -1zM222 132q19 -14 33 -23t27.5 -12.5t28 -0.5t36 14.5t51.5 31.5l74 50v197q-36 -1 -77 -8.5t-79 -22t-69.5 -36
t-47 -49.5t-12 -63.5t34.5 -77.5zM267 777l151 120l35 -81l-156 -128z" />
    <glyph glyph-name="abreve" unicode="&#x103;" horiz-adv-x="720" 
d="M422 34h49l1 109q-22 -19 -54.5 -42t-70 -45t-78 -39.5t-79 -24.5t-74 -1.5t-61.5 29.5q-35 32 -43 67t4.5 70.5t42 70t69 65.5t86 57t93 45t89.5 29.5t76 9.5q7 48 -3.5 89.5t-37 64t-68 20t-96.5 -40.5q-3 -2 6 -14.5t18.5 -31.5t15 -42t-3 -45t-36 -41t-84.5 -30
q-40 0 -63.5 19.5t-27.5 48.5t13.5 64t59.5 66.5t109.5 55.5t163.5 31q75 6 116.5 -14t62 -60t24.5 -97.5t3.5 -127.5t1 -150t15.5 -165l48 1l-2 -37l-287 -1zM222 132q19 -14 33 -23t27.5 -12.5t28 -0.5t36 14.5t51.5 31.5l74 50v197q-36 -1 -77 -8.5t-79 -22t-69.5 -36
t-47 -49.5t-12 -63.5t34.5 -77.5zM245 849q37 -51 75 -69.5t73 -13.5t64 28t48 55l19 -24q-16 -44 -41 -77.5t-55 -53.5t-62.5 -25.5t-63.5 7.5t-58.5 46t-47.5 89z" />
    <glyph glyph-name="acircumflex" unicode="&#xe2;" horiz-adv-x="720" 
d="M422 34h49l1 109q-22 -19 -54.5 -42t-70 -45t-78 -39.5t-79 -24.5t-74 -1.5t-61.5 29.5q-35 32 -43 67t4.5 70.5t42 70t69 65.5t86 57t93 45t89.5 29.5t76 9.5q7 48 -3.5 89.5t-37 64t-68 20t-96.5 -40.5q-3 -2 6 -14.5t18.5 -31.5t15 -42t-3 -45t-36 -41t-84.5 -30
q-40 0 -63.5 19.5t-27.5 48.5t13.5 64t59.5 66.5t109.5 55.5t163.5 31q75 6 116.5 -14t62 -60t24.5 -97.5t3.5 -127.5t1 -150t15.5 -165l48 1l-2 -37l-287 -1zM222 132q19 -14 33 -23t27.5 -12.5t28 -0.5t36 14.5t51.5 31.5l74 50v197q-36 -1 -77 -8.5t-79 -22t-69.5 -36
t-47 -49.5t-12 -63.5t34.5 -77.5zM455 872l96 -188h-42l-78 131l-135 -127l-127 8l163 172z" />
    <glyph glyph-name="adieresis" unicode="&#xe4;" horiz-adv-x="720" 
d="M422 34h49l1 109q-22 -19 -54.5 -42t-70 -45t-78 -39.5t-79 -24.5t-74 -1.5t-61.5 29.5q-35 32 -43 67t4.5 70.5t42 70t69 65.5t86 57t93 45t89.5 29.5t76 9.5q7 48 -3.5 89.5t-37 64t-68 20t-96.5 -40.5q-3 -2 6 -14.5t18.5 -31.5t15 -42t-3 -45t-36 -41t-84.5 -30
q-40 0 -63.5 19.5t-27.5 48.5t13.5 64t59.5 66.5t109.5 55.5t163.5 31q75 6 116.5 -14t62 -60t24.5 -97.5t3.5 -127.5t1 -150t15.5 -165l48 1l-2 -37l-287 -1zM222 132q19 -14 33 -23t27.5 -12.5t28 -0.5t36 14.5t51.5 31.5l74 50v197q-36 -1 -77 -8.5t-79 -22t-69.5 -36
t-47 -49.5t-12 -63.5t34.5 -77.5zM198 693q-17 42 -9.5 72.5t27.5 48.5t47 23t50 -2.5t35.5 -28.5t4.5 -56q-6 -27 -24 -47.5t-41.5 -30.5t-47.5 -6t-42 27zM400 696q-17 42 -9.5 72.5t27.5 48.5t47 23t50 -2.5t35.5 -28.5t4.5 -56q-6 -27 -24 -47.5t-41.5 -30.5t-47.5 -6
t-42 27z" />
    <glyph glyph-name="agrave" unicode="&#xe0;" horiz-adv-x="720" 
d="M422 34h49l1 109q-22 -19 -54.5 -42t-70 -45t-78 -39.5t-79 -24.5t-74 -1.5t-61.5 29.5q-35 32 -43 67t4.5 70.5t42 70t69 65.5t86 57t93 45t89.5 29.5t76 9.5q7 48 -3.5 89.5t-37 64t-68 20t-96.5 -40.5q-3 -2 6 -14.5t18.5 -31.5t15 -42t-3 -45t-36 -41t-84.5 -30
q-40 0 -63.5 19.5t-27.5 48.5t13.5 64t59.5 66.5t109.5 55.5t163.5 31q75 6 116.5 -14t62 -60t24.5 -97.5t3.5 -127.5t1 -150t15.5 -165l48 1l-2 -37l-287 -1zM222 132q19 -14 33 -23t27.5 -12.5t28 -0.5t36 14.5t51.5 31.5l74 50v197q-36 -1 -77 -8.5t-79 -22t-69.5 -36
t-47 -49.5t-12 -63.5t34.5 -77.5zM420 666l-149 107l33 95l145 -98z" />
    <glyph glyph-name="amacron" unicode="&#x101;" horiz-adv-x="720" 
d="M422 34h49l1 109q-22 -19 -54.5 -42t-70 -45t-78 -39.5t-79 -24.5t-74 -1.5t-61.5 29.5q-35 32 -43 67t4.5 70.5t42 70t69 65.5t86 57t93 45t89.5 29.5t76 9.5q7 48 -3.5 89.5t-37 64t-68 20t-96.5 -40.5q-3 -2 6 -14.5t18.5 -31.5t15 -42t-3 -45t-36 -41t-84.5 -30
q-40 0 -63.5 19.5t-27.5 48.5t13.5 64t59.5 66.5t109.5 55.5t163.5 31q75 6 116.5 -14t62 -60t24.5 -97.5t3.5 -127.5t1 -150t15.5 -165l48 1l-2 -37l-287 -1zM222 132q19 -14 33 -23t27.5 -12.5t28 -0.5t36 14.5t51.5 31.5l74 50v197q-36 -1 -77 -8.5t-79 -22t-69.5 -36
t-47 -49.5t-12 -63.5t34.5 -77.5zM174 822l39 -2l-2 -19l292 2l1 15l40 2l2 -128l-40 -2l-3 13l-292 2l2 -21l-39 2v136z" />
    <glyph glyph-name="aogonek" unicode="&#x105;" horiz-adv-x="720" 
d="M422 34h49l1 109q-22 -19 -54.5 -42t-70 -45t-78 -39.5t-79 -24.5t-74 -1.5t-61.5 29.5q-35 32 -43 67t4.5 70.5t42 70t69 65.5t86 57t93 45t89.5 29.5t76 9.5q7 48 -3.5 89.5t-37 64t-68 20t-96.5 -40.5q-3 -2 6 -14.5t18.5 -31.5t15 -42t-3 -45t-36 -41t-84.5 -30
q-40 0 -63.5 19.5t-27.5 48.5t13.5 64t59.5 66.5t109.5 55.5t163.5 31q75 6 116.5 -14t62 -60t24.5 -97.5t3.5 -127.5t1 -150t15.5 -165l48 1l-2 -37l-287 -1zM222 132q19 -14 33 -23t27.5 -12.5t28 -0.5t36 14.5t51.5 31.5l74 50v197q-36 -1 -77 -8.5t-79 -22t-69.5 -36
t-47 -49.5t-12 -63.5t34.5 -77.5zM702 0q-25 -3 -38.5 -15t-17 -27t1.5 -30t16.5 -25t28 -12t36.5 9l9 -49q-33 -29 -62 -30.5t-50.5 13t-33.5 41.5t-12 55.5t14 53.5t46 38z" />
    <glyph glyph-name="aring" unicode="&#xe5;" horiz-adv-x="720" 
d="M422 34h49l1 109q-22 -19 -54.5 -42t-70 -45t-78 -39.5t-79 -24.5t-74 -1.5t-61.5 29.5q-35 32 -43 67t4.5 70.5t42 70t69 65.5t86 57t93 45t89.5 29.5t76 9.5q7 48 -3.5 89.5t-37 64t-68 20t-96.5 -40.5q-3 -2 6 -14.5t18.5 -31.5t15 -42t-3 -45t-36 -41t-84.5 -30
q-40 0 -63.5 19.5t-27.5 48.5t13.5 64t59.5 66.5t109.5 55.5t163.5 31q75 6 116.5 -14t62 -60t24.5 -97.5t3.5 -127.5t1 -150t15.5 -165l48 1l-2 -37l-287 -1zM222 132q19 -14 33 -23t27.5 -12.5t28 -0.5t36 14.5t51.5 31.5l74 50v197q-36 -1 -77 -8.5t-79 -22t-69.5 -36
t-47 -49.5t-12 -63.5t34.5 -77.5zM290 685q-38 21 -48 48t1 52.5t38 45.5t62.5 27.5t74.5 -2t75 -42.5q23 -22 24 -44t-13 -41t-39.5 -34t-55.5 -22t-61.5 -5t-57.5 17zM343 715q18 -9 39 -9.5t40.5 5t35 17t20.5 26.5q7 20 -8.5 29t-40.5 10t-53 -6t-45 -18t-17.5 -25
t29.5 -29z" />
    <glyph glyph-name="atilde" unicode="&#xe3;" horiz-adv-x="720" 
d="M422 34h49l1 109q-22 -19 -54.5 -42t-70 -45t-78 -39.5t-79 -24.5t-74 -1.5t-61.5 29.5q-35 32 -43 67t4.5 70.5t42 70t69 65.5t86 57t93 45t89.5 29.5t76 9.5q7 48 -3.5 89.5t-37 64t-68 20t-96.5 -40.5q-3 -2 6 -14.5t18.5 -31.5t15 -42t-3 -45t-36 -41t-84.5 -30
q-40 0 -63.5 19.5t-27.5 48.5t13.5 64t59.5 66.5t109.5 55.5t163.5 31q75 6 116.5 -14t62 -60t24.5 -97.5t3.5 -127.5t1 -150t15.5 -165l48 1l-2 -37l-287 -1zM222 132q19 -14 33 -23t27.5 -12.5t28 -0.5t36 14.5t51.5 31.5l74 50v197q-36 -1 -77 -8.5t-79 -22t-69.5 -36
t-47 -49.5t-12 -63.5t34.5 -77.5zM136 690q0 4 8 23.5t23 43.5t35.5 48t44.5 36.5t49.5 8t51.5 -36.5q37 -51 68.5 -64.5t58.5 -2t50 39.5t42 60l19 -24q-18 -58 -56.5 -99.5t-83.5 -52t-90 17.5t-77 109q-23 8 -38.5 -5.5t-26 -35t-19 -42.5t-17.5 -28z" />
    <glyph glyph-name="ae" unicode="&#xe6;" horiz-adv-x="1220" 
d="M1131 34l-2 36q-51 -29 -105.5 -48.5t-108.5 -26.5t-105 1t-95 36q-36 25 -62 60q2 -14 3.5 -29t4.5 -29l48 1l-2 -37l-287 -1l2 37h49l1 109q-22 -19 -54.5 -42t-70 -45t-78 -39.5t-79 -24.5t-74 -1.5t-61.5 29.5q-35 32 -43 67t4.5 70.5t42 70t69 65.5t86 57t93 45
t89.5 29.5t76 9.5q7 48 -3.5 89.5t-37 64t-68 20t-96.5 -40.5q-3 -2 6 -14.5t18.5 -31.5t15 -42t-3 -45t-36 -41t-84.5 -30q-40 0 -63.5 19.5t-27.5 48.5t13.5 64t59.5 66.5t109.5 55.5t163.5 31q63 5 102 -8.5t61.5 -41.5t31 -70t10.5 -94q30 63 76.5 113t104.5 77
q96 23 160.5 14.5t105 -42t60.5 -88.5t25 -126l-360 -41q-6 -19 -6 -48t4 -61t10.5 -64.5t14 -58t14.5 -41.5t13 -15q30 -3 66.5 3t73 18.5t70 30.5t56.5 38l-2 46l52 -1l2 -155zM222 132q19 -14 33 -23t27.5 -12.5t28 -0.5t36 14.5t51.5 31.5l74 50v197q-36 -1 -77 -8.5
t-79 -22t-69.5 -36t-47 -49.5t-12 -63.5t34.5 -77.5zM840 559q-2 -1 -4.5 -13.5t-5.5 -30.5t-5.5 -39.5t-5 -40t-3.5 -32t-1 -15.5l194 22l-32 156q-4 19 -25.5 22.5t-46 -1t-44.5 -13.5t-21 -15z" />
    <glyph glyph-name="aeacute" unicode="&#x1fd;" horiz-adv-x="1220" 
d="M1131 34l-2 36q-51 -29 -105.5 -48.5t-108.5 -26.5t-105 1t-95 36q-36 25 -62 60q2 -14 3.5 -29t4.5 -29l48 1l-2 -37l-287 -1l2 37h49l1 109q-22 -19 -54.5 -42t-70 -45t-78 -39.5t-79 -24.5t-74 -1.5t-61.5 29.5q-35 32 -43 67t4.5 70.5t42 70t69 65.5t86 57t93 45
t89.5 29.5t76 9.5q7 48 -3.5 89.5t-37 64t-68 20t-96.5 -40.5q-3 -2 6 -14.5t18.5 -31.5t15 -42t-3 -45t-36 -41t-84.5 -30q-40 0 -63.5 19.5t-27.5 48.5t13.5 64t59.5 66.5t109.5 55.5t163.5 31q63 5 102 -8.5t61.5 -41.5t31 -70t10.5 -94q30 63 76.5 113t104.5 77
q96 23 160.5 14.5t105 -42t60.5 -88.5t25 -126l-360 -41q-6 -19 -6 -48t4 -61t10.5 -64.5t14 -58t14.5 -41.5t13 -15q30 -3 66.5 3t73 18.5t70 30.5t56.5 38l-2 46l52 -1l2 -155zM222 132q19 -14 33 -23t27.5 -12.5t28 -0.5t36 14.5t51.5 31.5l74 50v197q-36 -1 -77 -8.5
t-79 -22t-69.5 -36t-47 -49.5t-12 -63.5t34.5 -77.5zM840 559q-2 -1 -4.5 -13.5t-5.5 -30.5t-5.5 -39.5t-5 -40t-3.5 -32t-1 -15.5l194 22l-32 156q-4 19 -25.5 22.5t-46 -1t-44.5 -13.5t-21 -15zM571 785l151 120l35 -81l-156 -128z" />
    <glyph glyph-name="cacute" unicode="&#x107;" horiz-adv-x="557" 
d="M508 129q-38 -41 -83 -69.5t-93.5 -42t-98.5 -10t-99 27.5q-53 29 -80.5 79.5t-33.5 111t7.5 125t42.5 122.5t72 103t96.5 66.5t115.5 13t128 -57.5v54h37v-187h-37v46q-11 19 -29 37.5t-42 30t-53.5 14t-63.5 -8.5q-14 -22 -28.5 -64.5t-24.5 -95t-14 -108.5t1 -105.5
t21.5 -86.5t47.5 -51q4 -2 25.5 2t52 16t66 33.5t67.5 56.5v53l38 1v-144h-38v38zM185 777l151 120l35 -81l-156 -128z" />
    <glyph glyph-name="ccaron" unicode="&#x10d;" horiz-adv-x="557" 
d="M508 129q-38 -41 -83 -69.5t-93.5 -42t-98.5 -10t-99 27.5q-53 29 -80.5 79.5t-33.5 111t7.5 125t42.5 122.5t72 103t96.5 66.5t115.5 13t128 -57.5v54h37v-187h-37v46q-11 19 -29 37.5t-42 30t-53.5 14t-63.5 -8.5q-14 -22 -28.5 -64.5t-24.5 -95t-14 -108.5t1 -105.5
t21.5 -86.5t47.5 -51q4 -2 25.5 2t52 16t66 33.5t67.5 56.5v53l38 1v-144h-38v38zM252 688l-153 188l119 9l127 -139l73 143h39l-90 -205z" />
    <glyph glyph-name="ccedilla" unicode="&#xe7;" horiz-adv-x="557" 
d="M508 129q-38 -41 -83 -69.5t-93.5 -42t-98.5 -10t-99 27.5q-53 29 -80.5 79.5t-33.5 111t7.5 125t42.5 122.5t72 103t96.5 66.5t115.5 13t128 -57.5v54h37v-187h-37v46q-11 19 -29 37.5t-42 30t-53.5 14t-63.5 -8.5q-14 -22 -28.5 -64.5t-24.5 -95t-14 -108.5t1 -105.5
t21.5 -86.5t47.5 -51q4 -2 25.5 2t52 16t66 33.5t67.5 56.5v53l38 1v-144h-38v38zM259 -214q15 -24 41.5 -40t52.5 -13t46 30t21 90q-1 32 -11.5 49t-26.5 24t-34.5 8t-35.5 0.5t-30.5 2t-19.5 12.5q-3 13 -1.5 27.5t4.5 27l5.5 23.5t1.5 17l47 -13q2 -29 -1.5 -44.5
t7.5 -16.5q57 13 94.5 1.5t58 -36.5t25 -59.5t-4.5 -68t-30.5 -61.5t-52.5 -40t-70.5 -4t-85.5 46v38z" />
    <glyph glyph-name="ccircumflex" unicode="&#x109;" horiz-adv-x="557" 
d="M508 129q-38 -41 -83 -69.5t-93.5 -42t-98.5 -10t-99 27.5q-53 29 -80.5 79.5t-33.5 111t7.5 125t42.5 122.5t72 103t96.5 66.5t115.5 13t128 -57.5v54h37v-187h-37v46q-11 19 -29 37.5t-42 30t-53.5 14t-63.5 -8.5q-14 -22 -28.5 -64.5t-24.5 -95t-14 -108.5t1 -105.5
t21.5 -86.5t47.5 -51q4 -2 25.5 2t52 16t66 33.5t67.5 56.5v53l38 1v-144h-38v38zM373 872l96 -188h-42l-78 131l-135 -127l-127 8l163 172z" />
    <glyph glyph-name="cdotaccent" unicode="&#x10b;" horiz-adv-x="557" 
d="M508 129q-38 -41 -83 -69.5t-93.5 -42t-98.5 -10t-99 27.5q-53 29 -80.5 79.5t-33.5 111t7.5 125t42.5 122.5t72 103t96.5 66.5t115.5 13t128 -57.5v54h37v-187h-37v46q-11 19 -29 37.5t-42 30t-53.5 14t-63.5 -8.5q-14 -22 -28.5 -64.5t-24.5 -95t-14 -108.5t1 -105.5
t21.5 -86.5t47.5 -51q4 -2 25.5 2t52 16t66 33.5t67.5 56.5v53l38 1v-144h-38v38zM228 693q-21 41 -10.5 71.5t36.5 48.5t59.5 23t58 -5t32.5 -36t-16 -69q-13 -18 -33.5 -33t-43.5 -22t-45 -3t-38 25z" />
    <glyph glyph-name="dcaron" unicode="&#x10f;" horiz-adv-x="766" 
d="M380 41l49 2v60q-91 -61 -160.5 -76t-118.5 4t-78.5 64.5t-41 105.5t-6.5 127t24.5 128t53.5 110.5t80.5 73.5t104 16t124.5 -61l4 199l-68 -6l3 38l288 1l-3 -34l-65 1l17 -754l47 6l3 -36l-254 -5zM306 84q11 -5 30.5 0t38.5 16.5t33 27.5t14 33l-6 369
q-31 50 -61 61.5t-56.5 -4t-47 -53.5t-33 -87.5t-15.5 -105t6.5 -106.5t33 -91.5t63.5 -59.5zM637 541q20 22 38.5 48t29.5 55q-35 -22 -54.5 -20.5t-26.5 15.5t-2.5 35.5t17 39t33 25t45.5 -4.5q21 -11 25 -33t-2.5 -47t-20.5 -50.5t-29.5 -43t-30.5 -24.5t-22 5z" />
    <glyph glyph-name="dcroat" unicode="&#x111;" horiz-adv-x="657" 
d="M310 780l39 -2l-2 -39l292 2l1 35l40 2l2 -100l-40 -2l-3 25l-292 2l2 -33l-39 2v108zM380 41l49 2v60q-91 -61 -160.5 -76t-118.5 4t-78.5 64.5t-41 105.5t-6.5 127t24.5 128t53.5 110.5t80.5 73.5t104 16t124.5 -61l4 199l-68 -6l3 38l288 1l-3 -34l-65 1l17 -754l47 6
l3 -36l-254 -5zM306 84q11 -5 30.5 0t38.5 16.5t33 27.5t14 33l-6 369q-31 50 -61 61.5t-56.5 -4t-47 -53.5t-33 -87.5t-15.5 -105t6.5 -106.5t33 -91.5t63.5 -59.5z" />
    <glyph glyph-name="eacute" unicode="&#xe9;" 
d="M542 50l-2 36q-51 -29 -105.5 -48.5t-108.5 -26.5t-105 1t-95 36q-53 37 -80 89t-32 110t9.5 117.5t44.5 113t73 96t94 66.5q96 23 160.5 14.5t105 -42t60.5 -88.5t25 -126l-360 -41q-6 -19 -6 -48t4 -61t10.5 -64.5t14 -58t14.5 -41.5t13 -15q30 -3 66.5 3t73 18.5
t70 30.5t56.5 38l-2 46l52 -1l2 -155zM251 575q-2 -1 -4.5 -13.5t-5.5 -30.5t-5.5 -39.5t-5 -40t-3.5 -32t-1 -15.5l194 22l-32 156q-4 19 -25.5 22.5t-46 -1t-44.5 -13.5t-21 -15zM216 777l151 120l35 -81l-156 -128z" />
    <glyph glyph-name="ebreve" unicode="&#x115;" 
d="M542 50l-2 36q-51 -29 -105.5 -48.5t-108.5 -26.5t-105 1t-95 36q-53 37 -80 89t-32 110t9.5 117.5t44.5 113t73 96t94 66.5q96 23 160.5 14.5t105 -42t60.5 -88.5t25 -126l-360 -41q-6 -19 -6 -48t4 -61t10.5 -64.5t14 -58t14.5 -41.5t13 -15q30 -3 66.5 3t73 18.5
t70 30.5t56.5 38l-2 46l52 -1l2 -155zM251 575q-2 -1 -4.5 -13.5t-5.5 -30.5t-5.5 -39.5t-5 -40t-3.5 -32t-1 -15.5l194 22l-32 156q-4 19 -25.5 22.5t-46 -1t-44.5 -13.5t-21 -15zM198 866q37 -51 75 -69.5t73 -13.5t64 28t48 55l19 -24q-16 -44 -41 -77.5t-55 -53.5
t-62.5 -25.5t-63.5 7.5t-58.5 46t-47.5 89z" />
    <glyph glyph-name="ecaron" unicode="&#x11b;" 
d="M542 50l-2 36q-51 -29 -105.5 -48.5t-108.5 -26.5t-105 1t-95 36q-53 37 -80 89t-32 110t9.5 117.5t44.5 113t73 96t94 66.5q96 23 160.5 14.5t105 -42t60.5 -88.5t25 -126l-360 -41q-6 -19 -6 -48t4 -61t10.5 -64.5t14 -58t14.5 -41.5t13 -15q30 -3 66.5 3t73 18.5
t70 30.5t56.5 38l-2 46l52 -1l2 -155zM251 575q-2 -1 -4.5 -13.5t-5.5 -30.5t-5.5 -39.5t-5 -40t-3.5 -32t-1 -15.5l194 22l-32 156q-4 19 -25.5 22.5t-46 -1t-44.5 -13.5t-21 -15zM283 688l-153 188l119 9l127 -139l73 143h39l-90 -205z" />
    <glyph glyph-name="ecircumflex" unicode="&#xea;" 
d="M542 50l-2 36q-51 -29 -105.5 -48.5t-108.5 -26.5t-105 1t-95 36q-53 37 -80 89t-32 110t9.5 117.5t44.5 113t73 96t94 66.5q96 23 160.5 14.5t105 -42t60.5 -88.5t25 -126l-360 -41q-6 -19 -6 -48t4 -61t10.5 -64.5t14 -58t14.5 -41.5t13 -15q30 -3 66.5 3t73 18.5
t70 30.5t56.5 38l-2 46l52 -1l2 -155zM251 575q-2 -1 -4.5 -13.5t-5.5 -30.5t-5.5 -39.5t-5 -40t-3.5 -32t-1 -15.5l194 22l-32 156q-4 19 -25.5 22.5t-46 -1t-44.5 -13.5t-21 -15zM404 872l96 -188h-42l-78 131l-135 -127l-127 8l163 172z" />
    <glyph glyph-name="edieresis" unicode="&#xeb;" 
d="M542 50l-2 36q-51 -29 -105.5 -48.5t-108.5 -26.5t-105 1t-95 36q-53 37 -80 89t-32 110t9.5 117.5t44.5 113t73 96t94 66.5q96 23 160.5 14.5t105 -42t60.5 -88.5t25 -126l-360 -41q-6 -19 -6 -48t4 -61t10.5 -64.5t14 -58t14.5 -41.5t13 -15q30 -3 66.5 3t73 18.5
t70 30.5t56.5 38l-2 46l52 -1l2 -155zM251 575q-2 -1 -4.5 -13.5t-5.5 -30.5t-5.5 -39.5t-5 -40t-3.5 -32t-1 -15.5l194 22l-32 156q-4 19 -25.5 22.5t-46 -1t-44.5 -13.5t-21 -15zM147 693q-17 42 -9.5 72.5t27.5 48.5t47 23t50 -2.5t35.5 -28.5t4.5 -56q-6 -27 -24 -47.5
t-41.5 -30.5t-47.5 -6t-42 27zM349 696q-17 42 -9.5 72.5t27.5 48.5t47 23t50 -2.5t35.5 -28.5t4.5 -56q-6 -27 -24 -47.5t-41.5 -30.5t-47.5 -6t-42 27z" />
    <glyph glyph-name="edotaccent" unicode="&#x117;" 
d="M542 50l-2 36q-51 -29 -105.5 -48.5t-108.5 -26.5t-105 1t-95 36q-53 37 -80 89t-32 110t9.5 117.5t44.5 113t73 96t94 66.5q96 23 160.5 14.5t105 -42t60.5 -88.5t25 -126l-360 -41q-6 -19 -6 -48t4 -61t10.5 -64.5t14 -58t14.5 -41.5t13 -15q30 -3 66.5 3t73 18.5
t70 30.5t56.5 38l-2 46l52 -1l2 -155zM251 575q-2 -1 -4.5 -13.5t-5.5 -30.5t-5.5 -39.5t-5 -40t-3.5 -32t-1 -15.5l194 22l-32 156q-4 19 -25.5 22.5t-46 -1t-44.5 -13.5t-21 -15zM222 685q-21 41 -10.5 71.5t36.5 48.5t59.5 23t58 -5t32.5 -36t-16 -69q-13 -18 -33.5 -33
t-43.5 -22t-45 -3t-38 25z" />
    <glyph glyph-name="egrave" unicode="&#xe8;" 
d="M542 50l-2 36q-51 -29 -105.5 -48.5t-108.5 -26.5t-105 1t-95 36q-53 37 -80 89t-32 110t9.5 117.5t44.5 113t73 96t94 66.5q96 23 160.5 14.5t105 -42t60.5 -88.5t25 -126l-360 -41q-6 -19 -6 -48t4 -61t10.5 -64.5t14 -58t14.5 -41.5t13 -15q30 -3 66.5 3t73 18.5
t70 30.5t56.5 38l-2 46l52 -1l2 -155zM251 575q-2 -1 -4.5 -13.5t-5.5 -30.5t-5.5 -39.5t-5 -40t-3.5 -32t-1 -15.5l194 22l-32 156q-4 19 -25.5 22.5t-46 -1t-44.5 -13.5t-21 -15zM369 666l-149 107l33 95l145 -98z" />
    <glyph glyph-name="emacron" unicode="&#x113;" 
d="M542 50l-2 36q-51 -29 -105.5 -48.5t-108.5 -26.5t-105 1t-95 36q-53 37 -80 89t-32 110t9.5 117.5t44.5 113t73 96t94 66.5q96 23 160.5 14.5t105 -42t60.5 -88.5t25 -126l-360 -41q-6 -19 -6 -48t4 -61t10.5 -64.5t14 -58t14.5 -41.5t13 -15q30 -3 66.5 3t73 18.5
t70 30.5t56.5 38l-2 46l52 -1l2 -155zM251 575q-2 -1 -4.5 -13.5t-5.5 -30.5t-5.5 -39.5t-5 -40t-3.5 -32t-1 -15.5l194 22l-32 156q-4 19 -25.5 22.5t-46 -1t-44.5 -13.5t-21 -15zM123 822l39 -2l-2 -19l292 2l1 15l40 2l2 -128l-40 -2l-3 13l-292 2l2 -21l-39 2v136z" />
    <glyph glyph-name="eogonek" unicode="&#x119;" 
d="M542 50l-2 36q-51 -29 -105.5 -48.5t-108.5 -26.5t-105 1t-95 36q-53 37 -80 89t-32 110t9.5 117.5t44.5 113t73 96t94 66.5q96 23 160.5 14.5t105 -42t60.5 -88.5t25 -126l-360 -41q-6 -19 -6 -48t4 -61t10.5 -64.5t14 -58t14.5 -41.5t13 -15q30 -3 66.5 3t73 18.5
t70 30.5t56.5 38l-2 46l52 -1l2 -155zM251 575q-2 -1 -4.5 -13.5t-5.5 -30.5t-5.5 -39.5t-5 -40t-3.5 -32t-1 -15.5l194 22l-32 156q-4 19 -25.5 22.5t-46 -1t-44.5 -13.5t-21 -15zM493 70q-25 -3 -38.5 -15t-17 -27t1.5 -30t16.5 -25t28 -12t36.5 9l9 -49
q-33 -29 -62 -30.5t-50.5 13t-33.5 41.5t-12 55.5t14 53.5t46 38z" />
    <glyph glyph-name="gbreve" unicode="&#x11f;" 
d="M224 -470q-53 29 -76.5 65t-25.5 73t14 72.5t43.5 64.5t63 49t72 24.5t70.5 -8t59 -48.5q9 -24 2.5 -40t-21 -24.5t-33 -10.5t-33.5 1.5t-23 11t-1 17.5q30 -5 45.5 1t19.5 17t-4 22.5t-26 17.5t-44.5 1.5t-60.5 -25.5q-21 -35 -16 -67.5t25.5 -59t52 -44t65.5 -21.5
t64.5 8.5t49.5 45t20.5 88.5t-22.5 140q-13 40 -37 61t-53.5 29t-62 4t-63 -13t-56.5 -22t-42 -24l-14 27q4 5 16 11.5l25.5 13.5l25.5 13.5t17 10.5v28q-75 -1 -125 23.5t-78 66t-34.5 95.5t5.5 110.5t41 111t73 98t101 71.5t125 31q4 27 21 50.5t41.5 39.5t53 23.5
t55.5 2.5t49 -23.5t34 -54.5q5 -30 -6.5 -50.5t-30 -30.5t-37.5 -9.5t-29 13t-5 37t35 63.5q-17 11 -44 8t-50.5 -14t-36.5 -26.5t-1 -28.5q49 -19 81 -55.5t47.5 -83t17 -99.5t-9.5 -104.5t-33.5 -99t-54 -83t-70.5 -56t-84 -17.5q-1 0 0 -4t2 -8.5t2 -8.5t1 -5
q85 24 146.5 9.5t100.5 -54.5t55 -97t9.5 -117t-35 -115.5t-79.5 -92t-123 -47t-166 20.5zM295 167l-3 -66q31 3 54 34.5t37.5 77.5t21.5 101t6.5 107t-8.5 94.5t-22 63.5q-14 19 -30.5 14.5t-34 -26.5t-33.5 -57t-29 -77.5t-21 -88t-8 -88.5t8.5 -79t29.5 -59l9 68z
M153 881q37 -51 75 -69.5t73 -13.5t64 28t48 55l19 -24q-16 -44 -41 -77.5t-55 -53.5t-62.5 -25.5t-63.5 7.5t-58.5 46t-47.5 89z" />
    <glyph glyph-name="gcircumflex" unicode="&#x11d;" 
d="M224 -470q94 -31 166 -20.5t123 47t79.5 92t35 115.5t-9.5 117t-55 97t-100.5 54.5t-146.5 -9.5q0 1 -1 5t-2 8.5t-2 8.5t0 4q45 -3 84 17.5t70.5 56t54 83t33.5 99t9.5 104.5t-17 99.5t-47.5 83t-81 55.5q-12 13 1 28.5t36.5 26.5t50.5 14t44 -8q-30 -39 -35 -63.5
t5 -37t29 -13t37.5 9.5t30 30.5t6.5 50.5q-12 36 -34 54.5t-49 23.5t-55.5 -2.5t-53 -23.5t-41.5 -39.5t-21 -50.5q-68 -3 -125 -31t-101 -71.5t-73 -98t-41 -111t-5.5 -110.5t34.5 -95.5t78 -66t125 -23.5v-28q-5 -4 -17 -10.5l-25.5 -13.5l-25.5 -13.5t-16 -11.5l14 -27
q16 11 42 24t56.5 22t63 13t62 -4t53.5 -29t37 -61q24 -84 22.5 -140t-20.5 -88.5t-49.5 -45t-64.5 -8.5t-65.5 21.5t-52 44t-25.5 59t16 67.5q34 21 60.5 25.5t44.5 -1.5t26 -17.5t4 -22.5t-19.5 -17t-45.5 -1q-7 -10 1 -17.5t23 -11t33.5 -1.5t33 10.5t21 24.5t-2.5 40
q-25 36 -59 48.5t-70.5 8t-72 -24.5t-63 -49t-43.5 -64.5t-14 -72.5t25.5 -73t76.5 -65zM272 186l-9 -68q-21 23 -29.5 59t-8.5 79t8 88.5t21 88t29 77.5t33.5 57t34 26.5t30.5 -14.5q14 -21 22 -63.5t8.5 -94.5t-6.5 -107t-21.5 -101t-37.5 -77.5t-54 -34.5l3 66zM375 965
l96 -188h-42l-78 131l-135 -127l-127 8l163 172z" />
    <glyph glyph-name="gcommaaccent" unicode="&#x123;" 
d="M224 -470q-53 29 -76.5 65t-25.5 73t14 72.5t43.5 64.5t63 49t72 24.5t70.5 -8t59 -48.5q9 -24 2.5 -40t-21 -24.5t-33 -10.5t-33.5 1.5t-23 11t-1 17.5q30 -5 45.5 1t19.5 17t-4 22.5t-26 17.5t-44.5 1.5t-60.5 -25.5q-21 -35 -16 -67.5t25.5 -59t52 -44t65.5 -21.5
t64.5 8.5t49.5 45t20.5 88.5t-22.5 140q-13 40 -37 61t-53.5 29t-62 4t-63 -13t-56.5 -22t-42 -24l-14 27q4 5 16 11.5l25.5 13.5l25.5 13.5t17 10.5v28q-75 -1 -125 23.5t-78 66t-34.5 95.5t5.5 110.5t41 111t73 98t101 71.5t125 31q12 50 31.5 101t53.5 91q17 21 41 31.5
t47.5 9t42.5 -17t26 -46.5q5 -30 -6.5 -50.5t-30 -30.5t-37.5 -9.5t-29 13t-5 37t35 63.5q-11 7 -26.5 -1.5t-31.5 -27t-31 -43t-24.5 -48.5t-12 -43.5t5.5 -28.5q49 -19 81 -55.5t47.5 -83t17 -99.5t-9.5 -104.5t-33.5 -99t-54 -83t-70.5 -56t-84 -17.5q-1 0 0 -4t2 -8.5
t2 -8.5t1 -5q85 24 146.5 9.5t100.5 -54.5t55 -97t9.5 -117t-35 -115.5t-79.5 -92t-123 -47t-166 20.5zM295 167l-3 -66q31 3 54 34.5t37.5 77.5t21.5 101t6.5 107t-8.5 94.5t-22 63.5q-14 19 -30.5 14.5t-34 -26.5t-33.5 -57t-29 -77.5t-21 -88t-8 -88.5t8.5 -79t29.5 -59
l9 68zM252 700q-6 -11 -18 -5t-25 23t-24.5 41t-17 48t-2 44.5t20.5 30.5q21 12 37.5 4.5t27 -24t14 -36.5t-2.5 -33.5t-22.5 -15t-44.5 19.5q9 -28 24.5 -52.5t32.5 -44.5z" />
    <glyph glyph-name="gdotaccent" unicode="&#x121;" 
d="M224 -470q-53 29 -76.5 65t-25.5 73t14 72.5t43.5 64.5t63 49t72 24.5t70.5 -8t59 -48.5q9 -24 2.5 -40t-21 -24.5t-33 -10.5t-33.5 1.5t-23 11t-1 17.5q30 -5 45.5 1t19.5 17t-4 22.5t-26 17.5t-44.5 1.5t-60.5 -25.5q-21 -35 -16 -67.5t25.5 -59t52 -44t65.5 -21.5
t64.5 8.5t49.5 45t20.5 88.5t-22.5 140q-13 40 -37 61t-53.5 29t-62 4t-63 -13t-56.5 -22t-42 -24l-14 27q4 5 16 11.5l25.5 13.5l25.5 13.5t17 10.5v28q-75 -1 -125 23.5t-78 66t-34.5 95.5t5.5 110.5t41 111t73 98t101 71.5t125 31q12 50 31.5 101t53.5 91q17 21 41 31.5
t47.5 9t42.5 -17t26 -46.5q5 -30 -6.5 -50.5t-30 -30.5t-37.5 -9.5t-29 13t-5 37t35 63.5q-11 7 -26.5 -1.5t-31.5 -27t-31 -43t-24.5 -48.5t-12 -43.5t5.5 -28.5q49 -19 81 -55.5t47.5 -83t17 -99.5t-9.5 -104.5t-33.5 -99t-54 -83t-70.5 -56t-84 -17.5q-1 0 0 -4t2 -8.5
t2 -8.5t1 -5q85 24 146.5 9.5t100.5 -54.5t55 -97t9.5 -117t-35 -115.5t-79.5 -92t-123 -47t-166 20.5zM295 167l-3 -66q31 3 54 34.5t37.5 77.5t21.5 101t6.5 107t-8.5 94.5t-22 63.5q-14 19 -30.5 14.5t-34 -26.5t-33.5 -57t-29 -77.5t-21 -88t-8 -88.5t8.5 -79t29.5 -59
l9 68zM177 694q-21 41 -10.5 71.5t36.5 48.5t59.5 23t58 -5t32.5 -36t-16 -69q-13 -18 -33.5 -33t-43.5 -22t-45 -3t-38 25z" />
    <glyph glyph-name="hbar" unicode="&#x127;" horiz-adv-x="652" 
d="M-27 735l39 -2l-2 -19l292 2l1 15l40 2l2 -70l-40 -2l-3 13l-292 2l2 -21l-39 2v78zM415 49h24q1 18 2 58.5t-0.5 92t-5 108.5t-12 108.5t-22 93t-34 61t-48.5 12t-65 -52.5l-4 -481l50 3l6 -52l-284 -3l-1 54l36 -2l12 740h-61l-5 46h303l5 -46h-66l11 -202
q58 46 104.5 60t82 2.5t61.5 -44t44.5 -80.5t29.5 -106.5t16.5 -121.5t6.5 -127t-1 -121l39 3l2 -44l-229 -3z" />
    <glyph glyph-name="hcircumflex" unicode="&#x125;" horiz-adv-x="652" 
d="M415 49h24q1 18 2 58.5t-0.5 92t-5 108.5t-12 108.5t-22 93t-34 61t-48.5 12t-65 -52.5l-4 -481l50 3l6 -52l-284 -3l-1 54l36 -2l12 740h-61l-5 46h303l5 -46h-66l11 -202q58 46 104.5 60t82 2.5t61.5 -44t44.5 -80.5t29.5 -106.5t16.5 -121.5t6.5 -127t-1 -121l39 3
l2 -44l-229 -3zM344 1044l96 -188h-42l-78 131l-135 -127l-127 8l163 172z" />
    <glyph glyph-name="iacute" unicode="&#xed;" horiz-adv-x="305" 
d="M42 633h192l1 -591l56 5l1 -44l-251 -2l3 43l61 -2l1 544h-67zM59 777l151 120l35 -81l-156 -128z" />
    <glyph glyph-name="ibreve" horiz-adv-x="305" 
d="M42 633h192l1 -591l56 5l1 -44l-251 -2l3 43l61 -2l1 544h-67zM39 849q37 -51 75 -69.5t73 -13.5t64 28t48 55l19 -24q-16 -44 -41 -77.5t-55 -53.5t-62.5 -25.5t-63.5 7.5t-58.5 46t-47.5 89z" />
    <glyph glyph-name="icircumflex" unicode="&#xee;" horiz-adv-x="305" 
d="M42 633h192l1 -591l56 5l1 -44l-251 -2l3 43l61 -2l1 544h-67zM249 872l96 -188h-42l-78 131l-135 -127l-127 8l163 172z" />
    <glyph glyph-name="idieresis" unicode="&#xef;" horiz-adv-x="305" 
d="M42 633h192l1 -591l56 5l1 -44l-251 -2l3 43l61 -2l1 544h-67zM-8 693q-17 42 -9.5 72.5t27.5 48.5t47 23t50 -2.5t35.5 -28.5t4.5 -56q-6 -27 -24 -47.5t-41.5 -30.5t-47.5 -6t-42 27zM194 696q-17 42 -9.5 72.5t27.5 48.5t47 23t50 -2.5t35.5 -28.5t4.5 -56
q-6 -27 -24 -47.5t-41.5 -30.5t-47.5 -6t-42 27z" />
    <glyph glyph-name="igrave" unicode="&#xec;" horiz-adv-x="305" 
d="M42 633h192l1 -591l56 5l1 -44l-251 -2l3 43l61 -2l1 544h-67zM212 666l-149 107l33 95l145 -98z" />
    <glyph glyph-name="imacron" unicode="&#x12b;" horiz-adv-x="305" 
d="M42 633h192l1 -591l56 5l1 -44l-251 -2l3 43l61 -2l1 544h-67zM-32 822l39 -2l-2 -19l292 2l1 15l40 2l2 -128l-40 -2l-3 13l-292 2l2 -21l-39 2v136z" />
    <glyph glyph-name="iogonek" unicode="&#x12f;" horiz-adv-x="305" 
d="M42 633h192l1 -591l56 5l1 -44l-251 -2l3 43l61 -2l1 544h-67zM107 677q-12 7 -21 22t-12.5 33t0 37t15.5 34t33.5 24t55.5 7q44 -18 55 -50t-2.5 -61t-46.5 -45t-77 -1zM229 0q-25 -3 -38.5 -15t-17 -27t1.5 -30t16.5 -25t28 -12t36.5 9l9 -49q-33 -29 -62 -30.5
t-50.5 13t-33.5 41.5t-12 55.5t14 53.5t46 38z" />
    <glyph glyph-name="itilde" unicode="&#x129;" horiz-adv-x="305" 
d="M42 633h192l1 -591l56 5l1 -44l-251 -2l3 43l61 -2l1 544h-67zM-70 690q0 4 8 23.5t23 43.5t35.5 48t44.5 36.5t49.5 8t51.5 -36.5q37 -51 68.5 -64.5t58.5 -2t50 39.5t42 60l19 -24q-18 -58 -56.5 -99.5t-83.5 -52t-90 17.5t-77 109q-23 8 -38.5 -5.5t-26 -35t-19 -42.5
t-17.5 -28z" />
    <glyph glyph-name="dotlessj" unicode="&#x237;" horiz-adv-x="319" 
d="M40 610l246 3v-39h-41l10.5 -143.5t8 -159.5t0.5 -165t-12.5 -159.5t-31.5 -143.5t-55 -117t-83 -79t-117 -31q-86 15 -135.5 47t-71.5 71.5t-20 82.5t19 80.5t45 64.5t58.5 34.5t59 -8t46.5 -64.5q2 -33 -11.5 -57.5t-34 -39t-44.5 -19.5t-44.5 1t-33 22.5t-9.5 45.5
q-16 -50 -1 -91t47 -69.5t74 -43t80.5 -11.5t67.5 24t35 64l4 860v1h-56v39z" />
    <glyph glyph-name="jcircumflex" unicode="&#x135;" horiz-adv-x="319" 
d="M40 610l246 3v-39h-41l10.5 -143.5t8 -159.5t0.5 -165t-12.5 -159.5t-31.5 -143.5t-55 -117t-83 -79t-117 -31q-86 15 -135.5 47t-71.5 71.5t-20 82.5t19 80.5t45 64.5t58.5 34.5t59 -8t46.5 -64.5q2 -33 -11.5 -57.5t-34 -39t-44.5 -19.5t-44.5 1t-33 22.5t-9.5 45.5
q-16 -50 -1 -91t47 -69.5t74 -43t80.5 -11.5t67.5 24t35 64l4 860v1h-56v39zM256 872l96 -188h-42l-78 131l-135 -127l-127 8l163 172z" />
    <glyph glyph-name="kcommaaccent" unicode="&#x137;" horiz-adv-x="688" 
d="M499 63h59l-201 400l-90 -114l2 -303h65v-41h-303v41q4 0 8 0.5t10.5 0.5t17 -0.5t28.5 -0.5l-12 732h-80l4 41v2h325l3 -43h-88l8 -361l141 162h-21v52l164 -3v-52h-66.5h-22t1.5 0h5q-7 -5 -18.5 -19t-23 -29.5t-19.5 -28t-7 -13.5l216 -423h70v-52h-176v52zM349 -259
q8 15 30 30t43 32t32 38t-2 48q-35 -36 -59 -41.5t-37 7t-15 36.5t8.5 46t33 36t57.5 6q45 -19 59 -51.5t2.5 -68.5t-45.5 -71t-84 -58l-23 11v0z" />
    <glyph glyph-name="lacute" unicode="&#x13a;" horiz-adv-x="298" 
d="M16 57h66l-1 729l-42 2v52l196 -1l-7 -782h45v-52h-257v52zM31 953l151 120l35 -81l-156 -128z" />
    <glyph glyph-name="lcaron" unicode="&#x13e;" horiz-adv-x="422" 
d="M16 57h66l-1 729l-42 2v52l196 -1l-7 -782h45v-52h-257v52zM276.277 495.771q20.9355 21.4131 40.3018 46.7197t30.8809 53.5332q-36.6377 -21.4131 -57.0508 -19.9531t-27.7412 15.0859q-7.32715 13.627 -2.61621 34.5537q4.70996 20.9268 17.7959 37.96
q13.085 17.0332 34.5439 24.333q21.46 7.2998 47.6309 -4.37988q21.9824 -10.707 26.1699 -32.1201t-2.61719 -45.7461q-6.80371 -24.333 -21.46 -49.1533q-14.6553 -24.8203 -30.8809 -41.8535t-31.9277 -23.8457q-15.7021 -6.81348 -23.0293 4.86621z" />
    <glyph glyph-name="lcommaaccent" unicode="&#x13c;" horiz-adv-x="298" 
d="M16 57h66l-1 729l-42 2v52l196 -1l-7 -782h45v-52h-257v52zM94 -259q8 15 30 30t43 32t32 38t-2 48q-35 -36 -59 -41.5t-37 7t-15 36.5t8.5 46t33 36t57.5 6q45 -19 59 -51.5t2.5 -68.5t-45.5 -71t-84 -58l-23 11v0z" />
    <glyph glyph-name="ldot" unicode="&#x140;" horiz-adv-x="483" 
d="M16 57h66l-1 729l-42 2v52l196 -1l-7 -782h45v-52h-257v52zM287 490q-21 41 -10.5 71.5t36.5 48.5t59.5 23t58 -5t32.5 -36t-16 -69q-13 -18 -33.5 -33t-43.5 -22t-45 -3t-38 25z" />
    <glyph glyph-name="lslash" unicode="&#x142;" horiz-adv-x="298" 
d="M16 57h66l-1 729l-42 2v52l196 -1l-7 -782h45v-52h-257v52zM-36 469l39 -2l-2 -39l292 2l1 35l40 2l2 -160l-40 -2l-3 25l-292 2l2 -33l-39 2v168z" />
    <glyph glyph-name="nacute" unicode="&#x144;" horiz-adv-x="700" 
d="M11 656l240 2v-52h-33v-119q20 34 50.5 68t67 60t75.5 39t75.5 3.5t68.5 -45t53.5 -106.5t30 -182.5t-0.5 -272.5l50 1v-52l-242 -4v52h27q5 45 7 100t0.5 112.5t-6.5 113.5t-13 102.5t-19.5 80.5t-25.5 47q-72 -29 -113 -79.5t-61 -120t-24 -159t-1 -196.5l39 1v-52
l-247 -3v52h39l23 557h-60v52zM257 777l151 120l35 -81l-156 -128z" />
    <glyph glyph-name="napostrophe" unicode="&#x149;" horiz-adv-x="700" 
d="M11 656l240 2v-52h-33v-119q20 34 50.5 68t67 60t75.5 39t75.5 3.5t68.5 -45t53.5 -106.5t30 -182.5t-0.5 -272.5l50 1v-52l-242 -4v52h27q5 45 7 100t0.5 112.5t-6.5 113.5t-13 102.5t-19.5 80.5t-25.5 47q-72 -29 -113 -79.5t-61 -120t-24 -159t-1 -196.5l39 1v-52
l-247 -3v52h39l23 557h-60v52zM72 707q8 15 30 30t43 32t32 38t-2 48q-35 -36 -59 -41.5t-37 7t-15 36.5t8.5 46t33 36t57.5 6q45 -19 59 -51.5t2.5 -68.5t-45.5 -71t-84 -58l-23 11v0z" />
    <glyph glyph-name="ncaron" unicode="&#x148;" horiz-adv-x="700" 
d="M11 656l240 2v-52h-33v-119q20 34 50.5 68t67 60t75.5 39t75.5 3.5t68.5 -45t53.5 -106.5t30 -182.5t-0.5 -272.5l50 1v-52l-242 -4v52h27q5 45 7 100t0.5 112.5t-6.5 113.5t-13 102.5t-19.5 80.5t-25.5 47q-72 -29 -113 -79.5t-61 -120t-24 -159t-1 -196.5l39 1v-52
l-247 -3v52h39l23 557h-60v52zM324 688l-153 188l119 9l127 -139l73 143h39l-90 -205z" />
    <glyph glyph-name="ncommaaccent" unicode="&#x146;" horiz-adv-x="700" 
d="M11 656l240 2v-52h-33v-119q20 34 50.5 68t67 60t75.5 39t75.5 3.5t68.5 -45t53.5 -106.5t30 -182.5t-0.5 -272.5l50 1v-52l-242 -4v52h27q5 45 7 100t0.5 112.5t-6.5 113.5t-13 102.5t-19.5 80.5t-25.5 47q-72 -29 -113 -79.5t-61 -120t-24 -159t-1 -196.5l39 1v-52
l-247 -3v52h39l23 557h-60v52zM269 -252q8 15 30 30t43 32t32 38t-2 48q-35 -36 -59 -41.5t-37 7t-15 36.5t8.5 46t33 36t57.5 6q45 -19 59 -51.5t2.5 -68.5t-45.5 -71t-84 -58l-23 11v0z" />
    <glyph glyph-name="ntilde" unicode="&#xf1;" horiz-adv-x="700" 
d="M11 656l240 2v-52h-33v-119q20 34 50.5 68t67 60t75.5 39t75.5 3.5t68.5 -45t53.5 -106.5t30 -182.5t-0.5 -272.5l50 1v-52l-242 -4v52h27q5 45 7 100t0.5 112.5t-6.5 113.5t-13 102.5t-19.5 80.5t-25.5 47q-72 -29 -113 -79.5t-61 -120t-24 -159t-1 -196.5l39 1v-52
l-247 -3v52h39l23 557h-60v52zM126 707q0 4 8 23.5t23 43.5t35.5 48t44.5 36.5t49.5 8t51.5 -36.5q37 -51 68.5 -64.5t58.5 -2t50 39.5t42 60l19 -24q-18 -58 -56.5 -99.5t-83.5 -52t-90 17.5t-77 109q-23 8 -38.5 -5.5t-26 -35t-19 -42.5t-17.5 -28z" />
    <glyph glyph-name="oacute" unicode="&#xf3;" horiz-adv-x="676" 
d="M153 11q-50 19 -80.5 55t-45 82t-14.5 99.5t12 107t34.5 104.5t52.5 92t66 70t76 38q119 16 200.5 -9.5t129 -76.5t62.5 -120.5t1.5 -141t-54 -137.5t-104 -111.5t-148.5 -62.5t-188 11zM270 604q-24 -27 -40 -72t-24 -98.5t-7.5 -111.5t9.5 -111.5t26.5 -98.5t43.5 -73
q52 1 90 28t62 69t34.5 95.5t8.5 108t-16.5 105.5t-40.5 89t-62.5 58t-83.5 12zM245 777l151 120l35 -81l-156 -128z" />
    <glyph glyph-name="obreve" unicode="&#x14f;" horiz-adv-x="676" 
d="M153 11q-50 19 -80.5 55t-45 82t-14.5 99.5t12 107t34.5 104.5t52.5 92t66 70t76 38q119 16 200.5 -9.5t129 -76.5t62.5 -120.5t1.5 -141t-54 -137.5t-104 -111.5t-148.5 -62.5t-188 11zM270 604q-24 -27 -40 -72t-24 -98.5t-7.5 -111.5t9.5 -111.5t26.5 -98.5t43.5 -73
q52 1 90 28t62 69t34.5 95.5t8.5 108t-16.5 105.5t-40.5 89t-62.5 58t-83.5 12zM223 868q37 -51 75 -69.5t73 -13.5t64 28t48 55l19 -24q-16 -44 -41 -77.5t-55 -53.5t-62.5 -25.5t-63.5 7.5t-58.5 46t-47.5 89z" />
    <glyph glyph-name="ocircumflex" unicode="&#xf4;" horiz-adv-x="676" 
d="M153 11q-50 19 -80.5 55t-45 82t-14.5 99.5t12 107t34.5 104.5t52.5 92t66 70t76 38q119 16 200.5 -9.5t129 -76.5t62.5 -120.5t1.5 -141t-54 -137.5t-104 -111.5t-148.5 -62.5t-188 11zM270 604q-24 -27 -40 -72t-24 -98.5t-7.5 -111.5t9.5 -111.5t26.5 -98.5t43.5 -73
q52 1 90 28t62 69t34.5 95.5t8.5 108t-16.5 105.5t-40.5 89t-62.5 58t-83.5 12zM433 872l96 -188h-42l-78 131l-135 -127l-127 8l163 172z" />
    <glyph glyph-name="odieresis" unicode="&#xf6;" horiz-adv-x="676" 
d="M153 11q-50 19 -80.5 55t-45 82t-14.5 99.5t12 107t34.5 104.5t52.5 92t66 70t76 38q119 16 200.5 -9.5t129 -76.5t62.5 -120.5t1.5 -141t-54 -137.5t-104 -111.5t-148.5 -62.5t-188 11zM270 604q-24 -27 -40 -72t-24 -98.5t-7.5 -111.5t9.5 -111.5t26.5 -98.5t43.5 -73
q52 1 90 28t62 69t34.5 95.5t8.5 108t-16.5 105.5t-40.5 89t-62.5 58t-83.5 12zM176 704q-17 42 -9.5 72.5t27.5 48.5t47 23t50 -2.5t35.5 -28.5t4.5 -56q-6 -27 -24 -47.5t-41.5 -30.5t-47.5 -6t-42 27zM378 707q-17 42 -9.5 72.5t27.5 48.5t47 23t50 -2.5t35.5 -28.5
t4.5 -56q-6 -27 -24 -47.5t-41.5 -30.5t-47.5 -6t-42 27z" />
    <glyph glyph-name="ograve" unicode="&#xf2;" horiz-adv-x="676" 
d="M153 11q-50 19 -80.5 55t-45 82t-14.5 99.5t12 107t34.5 104.5t52.5 92t66 70t76 38q119 16 200.5 -9.5t129 -76.5t62.5 -120.5t1.5 -141t-54 -137.5t-104 -111.5t-148.5 -62.5t-188 11zM270 604q-24 -27 -40 -72t-24 -98.5t-7.5 -111.5t9.5 -111.5t26.5 -98.5t43.5 -73
q52 1 90 28t62 69t34.5 95.5t8.5 108t-16.5 105.5t-40.5 89t-62.5 58t-83.5 12zM398 673l-149 107l33 95l145 -98z" />
    <glyph glyph-name="ohungarumlaut" unicode="&#x151;" horiz-adv-x="676" 
d="M153 11q-50 19 -80.5 55t-45 82t-14.5 99.5t12 107t34.5 104.5t52.5 92t66 70t76 38q119 16 200.5 -9.5t129 -76.5t62.5 -120.5t1.5 -141t-54 -137.5t-104 -111.5t-148.5 -62.5t-188 11zM270 604q-24 -27 -40 -72t-24 -98.5t-7.5 -111.5t9.5 -111.5t26.5 -98.5t43.5 -73
q52 1 90 28t62 69t34.5 95.5t8.5 108t-16.5 105.5t-40.5 89t-62.5 58t-83.5 12zM143 793l149 143l34 -97l-153 -153zM334 793l149 143l34 -97l-153 -153z" />
    <glyph glyph-name="omacron" unicode="&#x14d;" horiz-adv-x="676" 
d="M153 11q-50 19 -80.5 55t-45 82t-14.5 99.5t12 107t34.5 104.5t52.5 92t66 70t76 38q119 16 200.5 -9.5t129 -76.5t62.5 -120.5t1.5 -141t-54 -137.5t-104 -111.5t-148.5 -62.5t-188 11zM270 604q-24 -27 -40 -72t-24 -98.5t-7.5 -111.5t9.5 -111.5t26.5 -98.5t43.5 -73
q52 1 90 28t62 69t34.5 95.5t8.5 108t-16.5 105.5t-40.5 89t-62.5 58t-83.5 12zM152 822l39 -2l-2 -19l292 2l1 15l40 2l2 -128l-40 -2l-3 13l-292 2l2 -21l-39 2v136z" />
    <glyph glyph-name="oslash" unicode="&#xf8;" horiz-adv-x="676" 
d="M153 11q-50 19 -80.5 55t-45 82t-14.5 99.5t12 107t34.5 104.5t52.5 92t66 70t76 38q119 16 200.5 -9.5t129 -76.5t62.5 -120.5t1.5 -141t-54 -137.5t-104 -111.5t-148.5 -62.5t-188 11zM270 604q-24 -27 -40 -72t-24 -98.5t-7.5 -111.5t9.5 -111.5t26.5 -98.5t43.5 -73
q52 1 90 28t62 69t34.5 95.5t8.5 108t-16.5 105.5t-40.5 89t-62.5 58t-83.5 12zM362 707l5 35l126 2l2 -47h-38l-208 -721h47l2 -47l-139 5l-2 47l34 4l217 720z" />
    <glyph glyph-name="oslashacute" unicode="&#x1ff;" horiz-adv-x="676" 
d="M153 11q-50 19 -80.5 55t-45 82t-14.5 99.5t12 107t34.5 104.5t52.5 92t66 70t76 38q119 16 200.5 -9.5t129 -76.5t62.5 -120.5t1.5 -141t-54 -137.5t-104 -111.5t-148.5 -62.5t-188 11zM270 604q-24 -27 -40 -72t-24 -98.5t-7.5 -111.5t9.5 -111.5t26.5 -98.5t43.5 -73
q52 1 90 28t62 69t34.5 95.5t8.5 108t-16.5 105.5t-40.5 89t-62.5 58t-83.5 12zM375.982 685.998l4.95508 33.7119l124.886 1.92676l1.98145 -45.2705h-37.6631l-206.159 -694.464h46.584l1.98242 -45.2705l-137.771 4.81641l-1.98145 45.2695l33.6982 3.85352
l215.08 693.501zM245 777l151 120l35 -81l-156 -128z" />
    <glyph glyph-name="otilde" unicode="&#xf5;" horiz-adv-x="676" 
d="M153 11q-50 19 -80.5 55t-45 82t-14.5 99.5t12 107t34.5 104.5t52.5 92t66 70t76 38q119 16 200.5 -9.5t129 -76.5t62.5 -120.5t1.5 -141t-54 -137.5t-104 -111.5t-148.5 -62.5t-188 11zM270 604q-24 -27 -40 -72t-24 -98.5t-7.5 -111.5t9.5 -111.5t26.5 -98.5t43.5 -73
q52 1 90 28t62 69t34.5 95.5t8.5 108t-16.5 105.5t-40.5 89t-62.5 58t-83.5 12zM114 706q0 4 8 23.5t23 43.5t35.5 48t44.5 36.5t49.5 8t51.5 -36.5q37 -51 68.5 -64.5t58.5 -2t50 39.5t42 60l19 -24q-18 -58 -56.5 -99.5t-83.5 -52t-90 17.5t-77 109q-23 8 -38.5 -5.5
t-26 -35t-19 -42.5t-17.5 -28z" />
    <glyph glyph-name="oe" unicode="&#x153;" horiz-adv-x="1200" 
d="M153 11q-50 19 -80.5 55t-45 82t-14.5 99.5t12 107t34.5 104.5t52.5 92t66 70t76 38q119 16 200.5 -9.5t129 -76.5t62.5 -120.5t1.5 -141t-54 -137.5t-104 -111.5t-148.5 -62.5t-188 11zM270 604q-24 -27 -40 -72t-24 -98.5t-7.5 -111.5t9.5 -111.5t26.5 -98.5t43.5 -73
q52 1 90 28t62 69t34.5 95.5t8.5 108t-16.5 105.5t-40.5 89t-62.5 58t-83.5 12zM1124 46l-2 36q-51 -29 -105.5 -48.5t-108.5 -26.5t-105 1t-95 36q-53 37 -80 89t-32 110t9.5 117.5t44.5 113t73 96t94 66.5q96 23 160.5 14.5t105 -42t60.5 -88.5t25 -126l-360 -41
q-6 -19 -6 -48t4 -61t10.5 -64.5t14 -58t14.5 -41.5t13 -15q30 -3 66.5 3t73 18.5t70 30.5t56.5 38l-2 46l52 -1l2 -155zM833 571q-2 -1 -4.5 -13.5t-5.5 -30.5t-5.5 -39.5t-5 -40t-3.5 -32t-1 -15.5l194 22l-32 156q-4 19 -25.5 22.5t-46 -1t-44.5 -13.5t-21 -15z" />
    <glyph glyph-name="racute" unicode="&#x155;" horiz-adv-x="552" 
d="M-22 41h53l-15 558h-43v43l281 4v-43h-67l4 -217q11 18 25.5 47t33 61.5t42 64.5t54.5 55t70 33t88 0q27 -6 40.5 -29t15.5 -53t-6.5 -61.5t-26 -54t-42.5 -30t-55 10.5t-33 48.5t10.5 60.5t38.5 51.5t52 20.5q-53 12 -98 -12.5t-81.5 -72t-63.5 -111t-42.5 -130
t-19.5 -130t6 -109.5l57 -1l1 -39l-278 -4zM183 777l151 120l35 -81l-156 -128z" />
    <glyph glyph-name="rcaron" unicode="&#x159;" horiz-adv-x="552" 
d="M-22 41h53l-15 558h-43v43l281 4v-43h-67l4 -217q11 18 25.5 47t33 61.5t42 64.5t54.5 55t70 33t88 0q27 -6 40.5 -29t15.5 -53t-6.5 -61.5t-26 -54t-42.5 -30t-55 10.5t-33 48.5t10.5 60.5t38.5 51.5t52 20.5q-53 12 -98 -12.5t-81.5 -72t-63.5 -111t-42.5 -130
t-19.5 -130t6 -109.5l57 -1l1 -39l-278 -4zM250 688l-153 188l119 9l127 -139l73 143h39l-90 -205z" />
    <glyph glyph-name="rcommaaccent" unicode="&#x157;" horiz-adv-x="552" 
d="M-22 41h53l-15 558h-43v43l281 4v-43h-67l4 -217q11 18 25.5 47t33 61.5t42 64.5t54.5 55t70 33t88 0q27 -6 40.5 -29t15.5 -53t-6.5 -61.5t-26 -54t-42.5 -30t-55 10.5t-33 48.5t10.5 60.5t38.5 51.5t52 20.5q-53 12 -98 -12.5t-81.5 -72t-63.5 -111t-42.5 -130
t-19.5 -130t6 -109.5l57 -1l1 -39l-278 -4zM277 -255q8 15 30 30t43 32t32 38t-2 48q-35 -36 -59 -41.5t-37 7t-15 36.5t8.5 46t33 36t57.5 6q45 -19 59 -51.5t2.5 -68.5t-45.5 -71t-84 -58l-23 11v0z" />
    <glyph glyph-name="sacute" unicode="&#x15b;" horiz-adv-x="574" 
d="M11 164h40v-47q20 -24 52.5 -43.5t69 -29.5t74 -8t68 21.5t50 58t21.5 102.5q-3 49 -25 74.5t-54.5 36.5t-71 12t-74 1t-64 3t-40.5 19q-42 39 -53 85t3.5 89t51 76t90.5 45.5t122 -1.5t145 -66l4 30l37 1l4 -104l-45 3l-2 29q-6 7 -23.5 16.5t-41.5 18.5t-52 16.5
t-53 11.5t-45.5 3t-30.5 -9q-16 -24 -23.5 -61t-5 -71t14.5 -58t35 -23q118 19 196 2t120 -55t51.5 -90t-9.5 -102.5t-63.5 -93t-109 -61t-146.5 -6.5t-177 70l2 -35h-40zM194 777l151 120l35 -81l-156 -128z" />
    <glyph glyph-name="scaron" unicode="&#x161;" horiz-adv-x="574" 
d="M11 164h40v-47q20 -24 52.5 -43.5t69 -29.5t74 -8t68 21.5t50 58t21.5 102.5q-3 49 -25 74.5t-54.5 36.5t-71 12t-74 1t-64 3t-40.5 19q-42 39 -53 85t3.5 89t51 76t90.5 45.5t122 -1.5t145 -66l4 30l37 1l4 -104l-45 3l-2 29q-6 7 -23.5 16.5t-41.5 18.5t-52 16.5
t-53 11.5t-45.5 3t-30.5 -9q-16 -24 -23.5 -61t-5 -71t14.5 -58t35 -23q118 19 196 2t120 -55t51.5 -90t-9.5 -102.5t-63.5 -93t-109 -61t-146.5 -6.5t-177 70l2 -35h-40zM261 688l-153 188l119 9l127 -139l73 143h39l-90 -205z" />
    <glyph glyph-name="scedilla" unicode="&#x15f;" horiz-adv-x="574" 
d="M11 164h40v-47q20 -24 52.5 -43.5t69 -29.5t74 -8t68 21.5t50 58t21.5 102.5q-3 49 -25 74.5t-54.5 36.5t-71 12t-74 1t-64 3t-40.5 19q-42 39 -53 85t3.5 89t51 76t90.5 45.5t122 -1.5t145 -66l4 30l37 1l4 -104l-45 3l-2 29q-6 7 -23.5 16.5t-41.5 18.5t-52 16.5
t-53 11.5t-45.5 3t-30.5 -9q-16 -24 -23.5 -61t-5 -71t14.5 -58t35 -23q118 19 196 2t120 -55t51.5 -90t-9.5 -102.5t-63.5 -93t-109 -61t-146.5 -6.5t-177 70l2 -35h-40zM239 -234q15 -24 41.5 -40t52.5 -13t46 30t21 90q-1 32 -11.5 49t-26.5 24t-34.5 8t-35.5 0.5
t-30.5 2t-19.5 12.5q-3 13 -1.5 27.5t4.5 27l5.5 23.5t1.5 17l47 -13q2 -29 -1.5 -44.5t7.5 -16.5q57 13 94.5 1.5t58 -36.5t25 -59.5t-4.5 -68t-30.5 -61.5t-52.5 -40t-70.5 -4t-85.5 46v38z" />
    <glyph glyph-name="scircumflex" unicode="&#x15d;" horiz-adv-x="574" 
d="M11 164h40v-47q20 -24 52.5 -43.5t69 -29.5t74 -8t68 21.5t50 58t21.5 102.5q-3 49 -25 74.5t-54.5 36.5t-71 12t-74 1t-64 3t-40.5 19q-42 39 -53 85t3.5 89t51 76t90.5 45.5t122 -1.5t145 -66l4 30l37 1l4 -104l-45 3l-2 29q-6 7 -23.5 16.5t-41.5 18.5t-52 16.5
t-53 11.5t-45.5 3t-30.5 -9q-16 -24 -23.5 -61t-5 -71t14.5 -58t35 -23q118 19 196 2t120 -55t51.5 -90t-9.5 -102.5t-63.5 -93t-109 -61t-146.5 -6.5t-177 70l2 -35h-40zM382 872l96 -188h-42l-78 131l-135 -127l-127 8l163 172z" />
    <glyph glyph-name="scommaaccent" unicode="&#x219;" horiz-adv-x="574" 
d="M11 164h40v-47q20 -24 52.5 -43.5t69 -29.5t74 -8t68 21.5t50 58t21.5 102.5q-3 49 -25 74.5t-54.5 36.5t-71 12t-74 1t-64 3t-40.5 19q-42 39 -53 85t3.5 89t51 76t90.5 45.5t122 -1.5t145 -66l4 30l37 1l4 -104l-45 3l-2 29q-6 7 -23.5 16.5t-41.5 18.5t-52 16.5
t-53 11.5t-45.5 3t-30.5 -9q-16 -24 -23.5 -61t-5 -71t14.5 -58t35 -23q118 19 196 2t120 -55t51.5 -90t-9.5 -102.5t-63.5 -93t-109 -61t-146.5 -6.5t-177 70l2 -35h-40zM218 -283q8 15 30 30t43 32t32 38t-2 48q-35 -36 -59 -41.5t-37 7t-15 36.5t8.5 46t33 36t57.5 6
q45 -19 59 -51.5t2.5 -68.5t-45.5 -71t-84 -58l-23 11v0z" />
    <glyph glyph-name="tbar" unicode="&#x167;" horiz-adv-x="530" 
d="M18 454l39 -2l-2 -19l292 2l1 15l40 2l2 -72l-40 -2l-3 13l-292 2l2 -21l-39 2v80zM481 103q-106 -87 -177 -98.5t-113.5 42.5t-59.5 168t-16 277h-118v52h118l10 249l-44 1l2 36h248l-2 -36h-36l-8 -250h104v-52h-103q1 -62 1 -123t4.5 -112t15 -88.5t32 -53t56 -6
t86.5 52.5l-2 49h38l2 -136h-38v28z" />
    <glyph glyph-name="tcaron" unicode="&#x165;" horiz-adv-x="545" 
d="M481 103q-106 -87 -177 -98.5t-113.5 42.5t-59.5 168t-16 277h-118v52h118l10 249l-44 1l2 36h248l-2 -36h-36l-8 -250h104v-52h-103q1 -62 1 -123t4.5 -112t15 -88.5t32 -53t56 -6t86.5 52.5l-2 49h38l2 -136h-38v28zM407 598q20 22 38.5 48t29.5 55
q-35 -22 -54.5 -20.5t-26.5 15.5t-2.5 35.5t17 39t33 25t45.5 -4.5q21 -11 25 -33t-2.5 -47t-20.5 -50.5t-29.5 -43t-30.5 -24.5t-22 5z" />
    <glyph glyph-name="tcommaaccent" unicode="&#x163;" horiz-adv-x="530" 
d="M481 103q-106 -87 -177 -98.5t-113.5 42.5t-59.5 168t-16 277h-118v52h118l10 249l-44 1l2 36h248l-2 -36h-36l-8 -250h104v-52h-103q1 -62 1 -123t4.5 -112t15 -88.5t32 -53t56 -6t86.5 52.5l-2 49h38l2 -136h-38v28zM209 -271q8 15 30 30t43 32t32 38t-2 48
q-35 -36 -59 -41.5t-37 7t-15 36.5t8.5 46t33 36t57.5 6q45 -19 59 -51.5t2.5 -68.5t-45.5 -71t-84 -58l-23 11v0z" />
    <glyph glyph-name="uacute" unicode="&#xfa;" horiz-adv-x="670" 
d="M420 658l232 2v-52l-34 -1v-555h36v-44q-50 -4 -81 -2t-48.5 13t-24.5 32.5t-9 56t-2.5 82.5t-5.5 112q-4 -38 -16 -81t-28.5 -81.5t-37 -68t-41.5 -40.5q-72 -32 -122.5 -27.5t-83 38t-50 91.5t-24 132.5t-4.5 161t8 177.5h-52v52l260 2v-52l-35 -1q0 -47 -3 -102.5
t-5 -111.5t0.5 -108.5t14 -93.5t35.5 -65.5t65 -25.5q11 5 25 38.5t28 83.5t27 108.5t22.5 113.5t14.5 99t3 65h-64v52zM242 777l151 120l35 -81l-156 -128z" />
    <glyph glyph-name="ubreve" unicode="&#x16d;" horiz-adv-x="670" 
d="M420 658l232 2v-52l-34 -1v-555h36v-44q-50 -4 -81 -2t-48.5 13t-24.5 32.5t-9 56t-2.5 82.5t-5.5 112q-4 -38 -16 -81t-28.5 -81.5t-37 -68t-41.5 -40.5q-72 -32 -122.5 -27.5t-83 38t-50 91.5t-24 132.5t-4.5 161t8 177.5h-52v52l260 2v-52l-35 -1q0 -47 -3 -102.5
t-5 -111.5t0.5 -108.5t14 -93.5t35.5 -65.5t65 -25.5q11 5 25 38.5t28 83.5t27 108.5t22.5 113.5t14.5 99t3 65h-64v52zM245 874q37 -51 75 -69.5t73 -13.5t64 28t48 55l19 -24q-16 -44 -41 -77.5t-55 -53.5t-62.5 -25.5t-63.5 7.5t-58.5 46t-47.5 89z" />
    <glyph glyph-name="ucircumflex" unicode="&#xfb;" horiz-adv-x="670" 
d="M420 658l232 2v-52l-34 -1v-555h36v-44q-50 -4 -81 -2t-48.5 13t-24.5 32.5t-9 56t-2.5 82.5t-5.5 112q-4 -38 -16 -81t-28.5 -81.5t-37 -68t-41.5 -40.5q-72 -32 -122.5 -27.5t-83 38t-50 91.5t-24 132.5t-4.5 161t8 177.5h-52v52l260 2v-52l-35 -1q0 -47 -3 -102.5
t-5 -111.5t0.5 -108.5t14 -93.5t35.5 -65.5t65 -25.5q11 5 25 38.5t28 83.5t27 108.5t22.5 113.5t14.5 99t3 65h-64v52zM430 872l96 -188h-42l-78 131l-135 -127l-127 8l163 172z" />
    <glyph glyph-name="udieresis" unicode="&#xfc;" horiz-adv-x="670" 
d="M420 658l232 2v-52l-34 -1v-555h36v-44q-50 -4 -81 -2t-48.5 13t-24.5 32.5t-9 56t-2.5 82.5t-5.5 112q-4 -38 -16 -81t-28.5 -81.5t-37 -68t-41.5 -40.5q-72 -32 -122.5 -27.5t-83 38t-50 91.5t-24 132.5t-4.5 161t8 177.5h-52v52l260 2v-52l-35 -1q0 -47 -3 -102.5
t-5 -111.5t0.5 -108.5t14 -93.5t35.5 -65.5t65 -25.5q11 5 25 38.5t28 83.5t27 108.5t22.5 113.5t14.5 99t3 65h-64v52zM197 730q-17 42 -9.5 72.5t27.5 48.5t47 23t50 -2.5t35.5 -28.5t4.5 -56q-6 -27 -24 -47.5t-41.5 -30.5t-47.5 -6t-42 27zM399 733q-17 42 -9.5 72.5
t27.5 48.5t47 23t50 -2.5t35.5 -28.5t4.5 -56q-6 -27 -24 -47.5t-41.5 -30.5t-47.5 -6t-42 27z" />
    <glyph glyph-name="uhungarumlaut" unicode="&#x171;" horiz-adv-x="670" 
d="M420 658l232 2v-52l-34 -1v-555h36v-44q-50 -4 -81 -2t-48.5 13t-24.5 32.5t-9 56t-2.5 82.5t-5.5 112q-4 -38 -16 -81t-28.5 -81.5t-37 -68t-41.5 -40.5q-72 -32 -122.5 -27.5t-83 38t-50 91.5t-24 132.5t-4.5 161t8 177.5h-52v52l260 2v-52l-35 -1q0 -47 -3 -102.5
t-5 -111.5t0.5 -108.5t14 -93.5t35.5 -65.5t65 -25.5q11 5 25 38.5t28 83.5t27 108.5t22.5 113.5t14.5 99t3 65h-64v52zM181 806l149 143l34 -97l-153 -153zM372 806l149 143l34 -97l-153 -153z" />
    <glyph glyph-name="ugrave" unicode="&#xf9;" horiz-adv-x="670" 
d="M420 658l232 2v-52l-34 -1v-555h36v-44q-50 -4 -81 -2t-48.5 13t-24.5 32.5t-9 56t-2.5 82.5t-5.5 112q-4 -38 -16 -81t-28.5 -81.5t-37 -68t-41.5 -40.5q-72 -32 -122.5 -27.5t-83 38t-50 91.5t-24 132.5t-4.5 161t8 177.5h-52v52l260 2v-52l-35 -1q0 -47 -3 -102.5
t-5 -111.5t0.5 -108.5t14 -93.5t35.5 -65.5t65 -25.5q11 5 25 38.5t28 83.5t27 108.5t22.5 113.5t14.5 99t3 65h-64v52zM391 711l-149 107l33 95l145 -98z" />
    <glyph glyph-name="umacron" unicode="&#x16b;" horiz-adv-x="670" 
d="M420 658l232 2v-52l-34 -1v-555h36v-44q-50 -4 -81 -2t-48.5 13t-24.5 32.5t-9 56t-2.5 82.5t-5.5 112q-4 -38 -16 -81t-28.5 -81.5t-37 -68t-41.5 -40.5q-72 -32 -122.5 -27.5t-83 38t-50 91.5t-24 132.5t-4.5 161t8 177.5h-52v52l260 2v-52l-35 -1q0 -47 -3 -102.5
t-5 -111.5t0.5 -108.5t14 -93.5t35.5 -65.5t65 -25.5q11 5 25 38.5t28 83.5t27 108.5t22.5 113.5t14.5 99t3 65h-64v52zM149 822l39 -2l-2 -19l292 2l1 15l40 2l2 -128l-40 -2l-3 13l-292 2l2 -21l-39 2v136z" />
    <glyph glyph-name="uogonek" unicode="&#x173;" horiz-adv-x="670" 
d="M420 658l232 2v-52l-34 -1v-555h36v-44q-50 -4 -81 -2t-48.5 13t-24.5 32.5t-9 56t-2.5 82.5t-5.5 112q-4 -38 -16 -81t-28.5 -81.5t-37 -68t-41.5 -40.5q-72 -32 -122.5 -27.5t-83 38t-50 91.5t-24 132.5t-4.5 161t8 177.5h-52v52l260 2v-52l-35 -1q0 -47 -3 -102.5
t-5 -111.5t0.5 -108.5t14 -93.5t35.5 -65.5t65 -25.5q11 5 25 38.5t28 83.5t27 108.5t22.5 113.5t14.5 99t3 65h-64v52zM581 24q-25 -3 -38.5 -15t-17 -27t1.5 -30t16.5 -25t28 -12t36.5 9l9 -49q-33 -29 -62 -30.5t-50.5 13t-33.5 41.5t-12 55.5t14 53.5t46 38z" />
    <glyph glyph-name="uring" unicode="&#x16f;" horiz-adv-x="670" 
d="M420 658l232 2v-52l-34 -1v-555h36v-44q-50 -4 -81 -2t-48.5 13t-24.5 32.5t-9 56t-2.5 82.5t-5.5 112q-4 -38 -16 -81t-28.5 -81.5t-37 -68t-41.5 -40.5q-72 -32 -122.5 -27.5t-83 38t-50 91.5t-24 132.5t-4.5 161t8 177.5h-52v52l260 2v-52l-35 -1q0 -47 -3 -102.5
t-5 -111.5t0.5 -108.5t14 -93.5t35.5 -65.5t65 -25.5q11 5 25 38.5t28 83.5t27 108.5t22.5 113.5t14.5 99t3 65h-64v52zM265 706q-38 21 -48 48t1 52.5t38 45.5t62.5 27.5t74.5 -2t75 -42.5q23 -22 24 -44t-13 -41t-39.5 -34t-55.5 -22t-61.5 -5t-57.5 17zM318 736
q18 -9 39 -9.5t40.5 5t35 17t20.5 26.5q7 20 -8.5 29t-40.5 10t-53 -6t-45 -18t-17.5 -25t29.5 -29z" />
    <glyph glyph-name="utilde" unicode="&#x169;" horiz-adv-x="670" 
d="M420 658l232 2v-52l-34 -1v-555h36v-44q-50 -4 -81 -2t-48.5 13t-24.5 32.5t-9 56t-2.5 82.5t-5.5 112q-4 -38 -16 -81t-28.5 -81.5t-37 -68t-41.5 -40.5q-72 -32 -122.5 -27.5t-83 38t-50 91.5t-24 132.5t-4.5 161t8 177.5h-52v52l260 2v-52l-35 -1q0 -47 -3 -102.5
t-5 -111.5t0.5 -108.5t14 -93.5t35.5 -65.5t65 -25.5q11 5 25 38.5t28 83.5t27 108.5t22.5 113.5t14.5 99t3 65h-64v52zM107 718q0 4 8 23.5t23 43.5t35.5 48t44.5 36.5t49.5 8t51.5 -36.5q37 -51 68.5 -64.5t58.5 -2t50 39.5t42 60l19 -24q-18 -58 -56.5 -99.5t-83.5 -52
t-90 17.5t-77 109q-23 8 -38.5 -5.5t-26 -35t-19 -42.5t-17.5 -28z" />
    <glyph glyph-name="wacute" unicode="&#x1e83;" horiz-adv-x="866" 
d="M645 635l212 2v-52l-49 -1l-141 -577l-42 -3l-190 402l-114 -398h-34l-239 565h-41v52l238 2v-52l-47 -1l159 -299l54 232l44 2l128 -304l95 378h-33v52zM340 777l151 120l35 -81l-156 -128z" />
    <glyph glyph-name="wcircumflex" unicode="&#x175;" horiz-adv-x="866" 
d="M645 635l212 2v-52l-49 -1l-141 -577l-42 -3l-190 402l-114 -398h-34l-239 565h-41v52l238 2v-52l-47 -1l159 -299l54 232l44 2l128 -304l95 378h-33v52zM528 872l96 -188h-42l-78 131l-135 -127l-127 8l163 172z" />
    <glyph glyph-name="wdieresis" unicode="&#x1e85;" horiz-adv-x="866" 
d="M645 635l212 2v-52l-49 -1l-141 -577l-42 -3l-190 402l-114 -398h-34l-239 565h-41v52l238 2v-52l-47 -1l159 -299l54 232l44 2l128 -304l95 378h-33v52zM271 693q-17 42 -9.5 72.5t27.5 48.5t47 23t50 -2.5t35.5 -28.5t4.5 -56q-6 -27 -24 -47.5t-41.5 -30.5t-47.5 -6
t-42 27zM473 696q-17 42 -9.5 72.5t27.5 48.5t47 23t50 -2.5t35.5 -28.5t4.5 -56q-6 -27 -24 -47.5t-41.5 -30.5t-47.5 -6t-42 27z" />
    <glyph glyph-name="wgrave" unicode="&#x1e81;" horiz-adv-x="866" 
d="M645 635l212 2v-52l-49 -1l-141 -577l-42 -3l-190 402l-114 -398h-34l-239 565h-41v52l238 2v-52l-47 -1l159 -299l54 232l44 2l128 -304l95 378h-33v52zM493 666l-149 107l33 95l145 -98z" />
    <glyph glyph-name="yacute" unicode="&#xfd;" horiz-adv-x="699" 
d="M430 663h254v-52l-53 4q-3 -89 -5 -184.5t-7.5 -191t-18 -186t-36 -168.5t-62 -139t-96 -97t-137.5 -43.5t-188 22.5q-51 19 -77 61t-29.5 91.5t13.5 99t53 83.5q40 38 73 48t56.5 1.5t37.5 -30t16.5 -45.5t-6.5 -46t-31 -30.5t-58.5 0.5t-87.5 46q-27 -91 -12.5 -146.5
t54 -76.5t95 -8.5t109 56.5t96 119t57.5 180l-354 572l-70 1v52l256 2v-52l-123 -1l308 -499l26 505h-53v52zM268 798l151 120l35 -81l-156 -128z" />
    <glyph glyph-name="ycircumflex" unicode="&#x177;" horiz-adv-x="699" 
d="M430 663h254v-52l-53 4q-3 -89 -5 -184.5t-7.5 -191t-18 -186t-36 -168.5t-62 -139t-96 -97t-137.5 -43.5t-188 22.5q-51 19 -77 61t-29.5 91.5t13.5 99t53 83.5q40 38 73 48t56.5 1.5t37.5 -30t16.5 -45.5t-6.5 -46t-31 -30.5t-58.5 0.5t-87.5 46q-27 -91 -12.5 -146.5
t54 -76.5t95 -8.5t109 56.5t96 119t57.5 180l-354 572l-70 1v52l256 2v-52l-123 -1l308 -499l26 505h-53v52zM452 897l96 -188h-42l-78 131l-135 -127l-127 8l163 172z" />
    <glyph glyph-name="ydieresis" unicode="&#xff;" horiz-adv-x="699" 
d="M430 663h254v-52l-53 4q-3 -89 -5 -184.5t-7.5 -191t-18 -186t-36 -168.5t-62 -139t-96 -97t-137.5 -43.5t-188 22.5q-51 19 -77 61t-29.5 91.5t13.5 99t53 83.5q40 38 73 48t56.5 1.5t37.5 -30t16.5 -45.5t-6.5 -46t-31 -30.5t-58.5 0.5t-87.5 46q-27 -91 -12.5 -146.5
t54 -76.5t95 -8.5t109 56.5t96 119t57.5 180l-354 572l-70 1v52l256 2v-52l-123 -1l308 -499l26 505h-53v52zM187 738q-17 42 -9.5 72.5t27.5 48.5t47 23t50 -2.5t35.5 -28.5t4.5 -56q-6 -27 -24 -47.5t-41.5 -30.5t-47.5 -6t-42 27zM389 741q-17 42 -9.5 72.5t27.5 48.5
t47 23t50 -2.5t35.5 -28.5t4.5 -56q-6 -27 -24 -47.5t-41.5 -30.5t-47.5 -6t-42 27z" />
    <glyph glyph-name="ygrave" unicode="&#x1ef3;" horiz-adv-x="699" 
d="M430 663h254v-52l-53 4q-3 -89 -5 -184.5t-7.5 -191t-18 -186t-36 -168.5t-62 -139t-96 -97t-137.5 -43.5t-188 22.5q-51 19 -77 61t-29.5 91.5t13.5 99t53 83.5q40 38 73 48t56.5 1.5t37.5 -30t16.5 -45.5t-6.5 -46t-31 -30.5t-58.5 0.5t-87.5 46q-27 -91 -12.5 -146.5
t54 -76.5t95 -8.5t109 56.5t96 119t57.5 180l-354 572l-70 1v52l256 2v-52l-123 -1l308 -499l26 505h-53v52zM389 707l-149 107l33 95l145 -98z" />
    <glyph glyph-name="zacute" unicode="&#x17a;" horiz-adv-x="643" 
d="M197 379l106 6l184 225q-29 -14 -65 -23t-74 -14t-74 -7t-64 -1.5t-45.5 2t-17.5 4.5v-42h-34v126h34v-34q41 -12 87.5 -11.5t94 6.5t94.5 16t89 16t78 6.5t61 -11.5l-174 -256l90 -3l-0.5 -6t-1.5 -13.5t-1.5 -13.5t-0.5 -7l-113 2l-19.5 -27l-34 -46l-42 -55.5l-42 -56
l-34 -46.5t-18.5 -27q18 -11 61.5 -20.5t93.5 -12.5t95 3.5t66 27.5l-3 51h42l3 -129h-42l-3 33q-55 -26 -104 -29t-93.5 4.5t-86 19.5t-81.5 16t-79 -6t-79 -46l-25 41l240 303h-68v35zM228 777l151 120l35 -81l-156 -128z" />
    <glyph glyph-name="zcaron" unicode="&#x17e;" horiz-adv-x="643" 
d="M197 379l106 6l184 225q-29 -14 -65 -23t-74 -14t-74 -7t-64 -1.5t-45.5 2t-17.5 4.5v-42h-34v126h34v-34q41 -12 87.5 -11.5t94 6.5t94.5 16t89 16t78 6.5t61 -11.5l-174 -256l90 -3l-0.5 -6t-1.5 -13.5t-1.5 -13.5t-0.5 -7l-113 2l-19.5 -27l-34 -46l-42 -55.5l-42 -56
l-34 -46.5t-18.5 -27q18 -11 61.5 -20.5t93.5 -12.5t95 3.5t66 27.5l-3 51h42l3 -129h-42l-3 33q-55 -26 -104 -29t-93.5 4.5t-86 19.5t-81.5 16t-79 -6t-79 -46l-25 41l240 303h-68v35zM295 688l-153 188l119 9l127 -139l73 143h39l-90 -205z" />
    <glyph glyph-name="zdotaccent" unicode="&#x17c;" horiz-adv-x="643" 
d="M197 379l106 6l184 225q-29 -14 -65 -23t-74 -14t-74 -7t-64 -1.5t-45.5 2t-17.5 4.5v-42h-34v126h34v-34q41 -12 87.5 -11.5t94 6.5t94.5 16t89 16t78 6.5t61 -11.5l-174 -256l90 -3l-0.5 -6t-1.5 -13.5t-1.5 -13.5t-0.5 -7l-113 2l-19.5 -27l-34 -46l-42 -55.5l-42 -56
l-34 -46.5t-18.5 -27q18 -11 61.5 -20.5t93.5 -12.5t95 3.5t66 27.5l-3 51h42l3 -129h-42l-3 33q-55 -26 -104 -29t-93.5 4.5t-86 19.5t-81.5 16t-79 -6t-79 -46l-25 41l240 303h-68v35zM234 685q-21 41 -10.5 71.5t36.5 48.5t59.5 23t58 -5t32.5 -36t-16 -69
q-13 -18 -33.5 -33t-43.5 -22t-45 -3t-38 25z" />
    <glyph glyph-name="Eth" unicode="&#xd0;" horiz-adv-x="651" 
d="M32 487l39 -2l-2 -19h56l5 306l-63 -15l-2 -35l-32 1l5 100l32 -1l-2 -26q102 27 194.5 26t166.5 -29.5t125 -83t71 -133.5t4.5 -181t-75.5 -226q-55 -65 -119.5 -100.5t-131.5 -51t-134 -16t-127 3.5l-1 -35l-31 1l5 109l31 -1l-2 -38l74 -2l5 330l-54 1l2 -21l-39 2
v136zM315 467l46 1l1 15l40 2l2 -128l-40 -2l-3 13h-43l9 -293q55 6 101.5 39t81 84t55 114t25 127t-9 125t-47 107.5t-89.5 73.5t-137 24z" />
    <glyph glyph-name="glyph324" horiz-adv-x="0" 
 />
    <glyph glyph-name="glyph325" horiz-adv-x="0" 
 />
  </font>
</defs>
</svg>
