<?xml version="1.0" standalone="no"?>
<!DOCTYPE svg PUBLIC "-//W3C//DTD SVG 1.1//EN" "http://www.w3.org/Graphics/SVG/1.1/DTD/svg11.dtd" >
<svg>
<metadata>
Created by FontForge 20090622 at Thu Jun 16 12:01:20 2016
 By deploy user
Copyright (c) 2016 by dcoxy Medina Gregory. All rights reserved. 
You have to purchase a license for all commercial use, promotional use and reproduction..
"personal use only" does not constitut public domain or free. 
Thank you to contact me before: dcoxymg@gmail.com
</metadata>
<defs>
<font id="LaCithare" horiz-adv-x="1587" >
  <font-face 
    font-family="La Cithare"
    font-weight="400"
    font-stretch="normal"
    units-per-em="1000"
    panose-1="2 0 0 0 0 0 0 0 0 0"
    ascent="800"
    descent="-200"
    x-height="352"
    cap-height="715"
    bbox="-338.612 -416.956 1432.13 825"
    underline-thickness="50"
    underline-position="-50"
    unicode-range="U+0020-U+2122"
  />
<missing-glyph horiz-adv-x="250" 
 />
    <glyph glyph-name=".notdef" horiz-adv-x="250" 
 />
    <glyph glyph-name=".null" horiz-adv-x="0" 
 />
    <glyph glyph-name="nonmarkingreturn" horiz-adv-x="250" 
 />
    <glyph glyph-name="space" unicode=" " horiz-adv-x="250" 
 />
    <glyph glyph-name="space" unicode="&#xa0;" horiz-adv-x="250" 
 />
    <glyph glyph-name="f" unicode="f" horiz-adv-x="149" 
d="M157 246q7 16 15.5 22t14.5 3.5t7.5 -12t-4.5 -24.5q-22 -55 -47 -96.5t-52 -72t-54 -50.5t-54 -32q-39 -77 -79 -109t-72.5 -33.5t-52.5 20t-18 51.5q2 31 19 48t41.5 26t52 12.5l50.5 6.5q8 18 14.5 38.5l14.5 45.5l12 42.5l25.5 86.5l34 111l37 117l35 104t28.5 72
q7 0 17 -5t20 -13t19 -19t13 -23q-14 -32 -32 -79.5l-37 -100l-37 -106l-32.5 -97l-24 -73.5l-11.5 -36l-6 -15.5l-6 -15.5q50 35 85 88t64 118zM-193 -86q0 -10 8 -17.5t21.5 -5t31 19t37.5 54.5l-37 -6t-31.5 -8.5t-21.5 -14t-8 -22.5z" />
    <glyph glyph-name="t" unicode="t" horiz-adv-x="162" 
d="M331 519q1 0 -2 -9.5t-9 -21.5t-13 -23t-14 -14h-43t-79 1l-55.5 -136.5t-48 -127.5t-29.5 -95.5t0 -39.5q7 -2 18.5 9.5t25 30t27.5 41.5l26.5 45l22 39.5t13.5 25.5q9 16 17.5 21.5t14 2.5t6.5 -13t-6 -24q-10 -21 -31 -60.5t-46 -78.5t-50.5 -67t-45.5 -25
q-36 6 -47 45.5t-2.5 102t33.5 142t60 165.5q-38 1 -63.5 0t-36.5 0q0 7 3.5 18t8 21.5t9 18.5t6.5 9q8 1 31.5 2t71.5 -1l22.5 49.5l22.5 48.5q7 -1 17 -6t19.5 -14t18 -20t11.5 -24l-15 -36q49 -2 84 -2h47z" />
    <glyph glyph-name="A" unicode="A" horiz-adv-x="482" 
d="M533 716q7 0 17 -5t20.5 -13t19 -19t12.5 -23q-111 -168 -172.5 -362t-70.5 -397q-4 -8 -10 -11.5t-12.5 -3.5t-11.5 2.5t-7 4.5q-40 66 -92.5 97.5t-110.5 38.5q-64 -68 -120 -115t-105.5 -76.5t-91.5 -43t-78 -14.5q-46 0 -55.5 22t10 55.5t61.5 72.5t98.5 73t122 57
t131.5 24q55 69 111.5 148l113 161.5l111.5 165.5zM-270 -195q36 0 73.5 16.5t77 45.5t80.5 69.5t83 89.5q-53 -5 -104.5 -23t-95.5 -42.5t-77.5 -52t-51 -50.5t-15 -38t29.5 -15zM309 -19q2 69 17.5 163.5t44.5 197.5q-57 -81 -110 -147.5t-102 -121.5q42 -9 80 -31t70 -61
z" />
    <glyph glyph-name="copyright" unicode="&#xa9;" horiz-adv-x="1249" 
d="M876 -51q0 -1 0.5 -1t0.5 -1v-2h-1q-1 1 -1 2q-1 0 -1 1v1h1h1zM529 -141q-1 -1 -1 -1.5t-1 -1.5l-1 -1h-1q0 -1 -1 -1h-1l1 2q0 1 0.5 1.5t0.5 1.5q1 1 2 1t2 1v-1v-1zM473 163q1 -1 1 -2t-0.5 -2t-0.5 -2q-1 -1 -1 -1.5t-1 -1.5q-2 -2 -4 -2v4v4q1 1 1 3v3h4
q0 -1 0.5 -1.5t0.5 -1.5zM516 -140h-2l1 1l1 1q1 1 2 1q3 3 3 0l-1 -1l-2 -2h-2zM481 -127q-1 -1 -2 -1l1 2l2 2l2 1q2 0 2 -1l-1 -1q0 -1 -2 -1q0 -1 -2 -1zM422 -83l-2 -1h-2l1 1h1q1 1 1.5 1t1.5 1h2q1 0 1 1l-1 -2q-2 0 -3 -1zM454 156q0 -4 -1 -5t-1 -1.5t-1 -1.5
t-3 -1q-1 0 -2 1q0 2 -0.5 2.5t-0.5 1.5v5q0 2 0.5 2.5t0.5 1.5q1 1 1 1.5t1 1.5t3 1t2 -2q1 -1 1 -3v-4zM366 163q0 -1 1 -2q-1 -1 -1 -4q0 -1 -2 -3q-4 -2 -5 -2q0 1 0.5 2t0.5 2v4q0 1 1 3v3h4q1 -1 1 -3zM425 -98q1 1 4 1l1 1v-1v-2q0 -1 -0.5 -1.5t-0.5 -1.5v-2l-1 1
q0 1 -1 2q0 1 -0.5 1t-0.5 1t-1 1zM403 -81q0 -1 -1 -1h-1h-1h-2h-1l2 2l2 2q2 0 3 1h2v-1q0 -1 -1 -1v-1l-1 -1h-1zM461 -118q-1 -1 -2 -1v1l1 1l2 2h2h2q1 0 0.5 -0.5t-1.5 -0.5l-2 -2h-2zM662 -155l-2 -2v2q0 2 1 3l1 1q1 1 2 1v-1q0 -1 -0.5 -1.5t-0.5 -1.5zM674 -152
v-1v-1q0 -1 -0.5 -1t-0.5 -1l-1 -1h-1h-1v1v3q1 1 1 1.5t1 1.5q0 1 1 1l1 -1v-1v-1zM639 -155v-1q0 -1 -1 -1l-1 -1l-1 -1l-1 -1h-1v2q0 1 0.5 1t0.5 1q1 1 1 1.5t1 1.5q0 1 1 1l1 -1v-1v-1zM621 156q1 -2 1 -4q0 -1 -2 -1h-2q0 1 0.5 2t0.5 2q1 2 1 3t1 2v-4zM613 -153v-1
v-1v-2l-1 -1l-1 -1l-1 -1h-1v3l1 1q1 1 1 1.5t1 1.5l1 1v-1zM800 -109v-3v-2v-1q-1 -1 -1 -2l-1 -1q-1 0 -1 1v2v3v3q0 2 1 2l1 -1zM544 157q0 -1 -2 -3t-4 -2v4q1 1 1 4v3q0 1 0.5 1.5t0.5 1.5h2l3 -3v-2q0 -3 -1 -4zM823 -96q1 -2 0 -3l-1 1q0 1 -0.5 1t-0.5 1v1v2h1l1 -1
v-2zM569 -153l-2 -1v1l1 1q0 2 1 2l2 2h2v-2q-1 0 -1 -0.5t-1 -0.5zM582 -152q0 -1 -0.5 -1.5t-0.5 -1.5l-1 -1q-1 0 -1 -0.5t-1 -0.5h-1v1q1 1 1 3q1 1 1 1.5t1 1.5q1 0 1 1q1 0 1 -2v-1zM689 -146v-2v-2l-1 -2l-1 2v1v2q1 0 1 1h1zM372 -45q1 1 2 1q2 0 3 1h4l-1 -1h-3
q-2 0 -3 -1h-2zM740 163q1 -1 1 -1.5t1 -1.5q0 -3 -1 -4q0 -4 -1 -5q0 -1 -2 -3q0 -1 -1 -1q-2 0 -3 1q0 3 -1 4v5l2 4q0 1 0.5 1.5t0.5 1.5q1 1 2 1q2 0 2 -2zM356 -40h-2q-1 0 -1 1h-2l2 2q1 0 1.5 0.5t2.5 0.5h3h2l-1 -1v-1h-1v-1q-1 0 -1.5 -0.5t-1.5 -0.5h-1zM348 310
q4 -3 6 -13q3 -12 3 -18q-7 -20 -8 -34q-1 -4 -8 -13q-4 -3 -12 -11q-4 -3 -7 -5.5t-6 -4.5t-5.5 -3t-4.5 -2q-3 11 2 28q2 9 4.5 17t7.5 16q4 9 7.5 16t7.5 13q10 13 13 14zM380 -50h-3h2q1 0 1.5 0.5t1.5 0.5h2q1 0 2 1l-2 -1q-1 0 -1 -1h-3zM867 150q0 10 9 10q3 0 6 -3
t3 -7q0 -5 -3 -7.5t-6 -1.5q-9 0 -9 9zM880 155q0 1 -3 1q-7 0 -7 -7q0 -6 7 -6q2 0 3 1v1q-1 0 -1.5 -0.5t-1.5 -0.5q-5 0 -5 6q0 5 5 5q1 0 1.5 -0.5t1.5 -0.5v1zM613 249q-3 3 -4.5 7.5t-2.5 9.5q-2 8 0 18q2 9 6 16q3 6 10 11q6 -1 9 -8v-15q-2 -10 -7 -19
q-4 -10 -11 -20zM506 165q1 -1 1 -2v-2v-3q0 -1 -2 -3q0 -2 -2 -2q-1 -1 -3 -1v4q0 3 1 4v3v3h3q1 0 2 -1zM584 163q1 -1 1 -1.5t1 -1.5q0 -3 -1 -4q0 -4 -1 -5q0 -1 -2 -3q-1 -1 -2 -1q-2 0 -2 1q0 3 -1 4v5q1 2 1 4q0 1 0.5 1.5t0.5 1.5q1 1 3 1t2 -2zM623 713
q87 0 164 -35.5t134.5 -97.5t90.5 -145t33 -177t-33 -177t-90.5 -144.5t-134.5 -97t-164 -35.5q-88 0 -165 35.5t-134.5 97t-90.5 144.5t-33 177t33 177t90.5 145t134.5 97.5t165 35.5zM1028 267h-4v-6h4v6zM1028 274q0 6 -1 9l-4 -1q0 -2 0.5 -4t0.5 -4h4zM1027 290
q0 5 -1 8h-4q0 -2 0.5 -4t0.5 -4h4zM1026 306q-1 2 -1 8l-4 -1v-8zM1024 321q-1 2 -1 4t-1 4h-3q0 -6 1 -9zM1021 337q0 2 -0.5 4t-0.5 4l-3 -1q0 -2 0.5 -4t0.5 -3h3zM1019 353q0 1 -2 7l-4 -1q1 -2 1 -3.5t1 -3.5zM1015 368q0 3 -2 7l-4 -1q2 -4 2 -7zM993 381q-2 6 -2 8
h-2q0 -2 2 -8h2zM991 135q-1 -2 -1.5 -4t-1.5 -4h2q1 2 3 8h-2zM995 150q-1 -2 -1 -3.5t-1 -3.5l2 -1q1 2 1 4t1 4h-2zM1009 289q0 5 -1 8h-2q1 -3 1 -8h2zM1007 281q1 -2 1 -8h2v8h-3zM1008 304q-1 3 -1 8h-2q0 -5 1 -8h2zM1006 320q-1 2 -1 4t-1 4h-2q1 -2 1 -4t1 -4h2z
M1003 336q0 2 -0.5 3.5t-0.5 3.5h-1q0 -2 0.5 -4t0.5 -3h1zM1001 351q-1 2 -1 3.5t-1 3.5h-2q1 -2 1 -3.5t1 -3.5h2zM997 366q0 5 -2 7h-2q2 -4 2 -7h2zM999 158q1 2 1 3.5t1 3.5h-2q-1 -2 -1 -3.5t-1 -3.5h2zM1002 173q0 5 1 7h-1q-1 -2 -1 -3.5t-1 -3.5h2zM1004 188
q1 2 1 4t1 4h-3q0 -5 -1 -8h2zM1007 204q0 5 1 8h-3v-8h2zM1008 219q1 3 1 8h-2q0 -5 -1 -8h2zM1009 235q1 2 1 8h-2q0 -6 -1 -8h2zM1010 250v6h-2v-6h2zM1010 261v5h-2v-5h2zM1011 383q0 3 -2 7h-4q2 -6 2 -8zM1007 398q-1 2 -1.5 4t-1.5 4l-3 -1q1 -2 1 -4t1 -4zM1002 413
q-1 2 -3 8l-3 -2q1 -2 1 -4t1 -4zM996 427q-1 2 -1.5 4t-1.5 4l-3 -2q1 -2 1.5 -3.5t1.5 -3.5zM990 443q-1 1 -1.5 2.5t-1.5 3.5l-3 -1q0 -3 2 -7zM988 396q-2 6 -3 8h-1q0 -4 2 -8h2zM986 120q-2 -4 -2 -8h1q1 2 3 8h-2zM977 461l4 -6l3 2l-3 6zM984 411q-1 2 -1.5 4
t-1.5 4l-2 -1q1 -2 1.5 -4t1.5 -4zM981 106q-1 -2 -1.5 -4t-1.5 -4l2 -1q1 2 1.5 4t1.5 4zM978 426q-1 2 -2 3.5t-2 3.5l-2 -1q2 -2 2.5 -3.5t1.5 -2.5h2zM975 90q-1 -1 -1.5 -2.5t-1.5 -3.5l2 -1q1 2 1.5 3.5t1.5 3.5h-2zM969 476q2 -2 2.5 -3.5t1.5 -3.5l4 2q-1 2 -2 3.5
t-2 3.5zM968 447l-2 -1l3 -6l2 1zM962 489q2 -3 4 -7l3 2q-1 2 -2 3.5t-1 3.5zM965 455q-2 4 -4 6h-2q2 -2 2.5 -3.5t1.5 -3.5zM954 502q2 -4 4 -6l3 2q-2 4 -4 7zM957 468q-1 4 -4 8l-2 -1q3 -4 4 -8zM945 515q4 -2 4 -6l3 3q-1 2 -2 2.5t-1 2.5zM949 482q0 2 -1 3.5
t-2 3.5l-2 -1q1 -2 2 -3.5t2 -3.5zM936 528q1 -2 5 -6l3 2q-2 2 -2.5 3.5t-2.5 3.5zM935 501q3 -5 5 -6l1 1q-3 3 -4 6zM927 540q1 -2 2 -3t2 -3l3 2q-2 3 -4 7zM927 514q1 -2 2 -3.5t2 -3.5l1 2q-2 4 -4 5h-1zM916 552q2 -2 3 -2.5t3 -2.5l3 2l-6 6zM923 521q-1 2 -5 6
l-1 -1q1 -2 5 -6zM906 564l6 -6l2 3q-1 2 -5 6zM913 533q-2 4 -4 6l-2 -1q4 -4 5 -6zM896 575q1 -2 5 -6l3 3l-6 6zM903 545q-2 3 -5 6l-2 -2q2 -1 6 -5zM884 585q4 -2 6 -4l3 3q-2 1 -3 2t-3 2zM887 563l-1 -2l6 -6l1 2zM873 596q2 -2 3 -2.5t2 -2.5l3 3q-4 4 -6 5z
M881 567q-2 2 -2.5 3t-2.5 3l-1 -1v-1q2 -1 2.5 -2t2.5 -2h1zM860 606q4 -4 6 -4l3 2q-2 1 -6 5zM870 579q-2 1 -6 5l-1 -2q2 -1 6 -5zM851 592q4 -4 6 -5l2 1q-2 2 -3.5 3t-3.5 3zM848 616q4 -4 6 -5l3 3q-1 1 -7 5zM835 624q3 -2 7 -4l2 3q-2 1 -3 2t-3 2zM846 599
q-2 1 -3 2t-3 2l-1 -1q2 -2 3 -2.5t2 -2.5zM823 633q3 -3 6 -4l2 3l-6 4zM833 607q-1 1 -7 5l-1 -2q2 -1 3.5 -2t3.5 -2zM808 640q2 -1 4 -1.5t4 -1.5l2 3q-4 1 -8 4zM821 617q-2 1 -4 1.5t-4 1.5l-1 -1q2 -1 3.5 -2t3.5 -2zM795 648q2 -1 3.5 -2t3.5 -2l2 4q-2 1 -3.5 1.5
t-3.5 2.5zM807 624q-3 2 -7 4l-1 -2q4 -2 7 -4zM781 655q2 -1 4 -1.5t4 -1.5l1 3q-2 1 -3.5 1.5t-3.5 1.5zM793 632q-2 1 -3.5 2t-3.5 2v-2q4 -2 6 -4zM767 661q2 -1 3.5 -1.5t3.5 -1.5l1 3q-2 1 -3 2t-3 2zM779 639q-3 1 -7 3v-2q2 -2 6 -2zM753 667q1 -1 2.5 -1.5
t3.5 -1.5l2 4q-3 1 -7 3zM765 645q-2 1 -4 1.5t-4 1.5l-1 -1q2 -2 4 -2.5t4 -1.5zM737 672q2 -1 4 -1.5t4 -1.5l1 4q-2 0 -8 2zM750 651q-2 1 -3.5 1.5t-3.5 1.5l-1 -2q2 -1 8 -3v2zM722 676q2 -1 4 -1.5t4 -1.5l1 4q-2 1 -8 3zM736 656q-6 2 -8 2l-1 -2q2 0 4 -0.5t4 -0.5z
M707 680q6 -2 8 -2l1 4q-2 0 -8 2zM720 661q-3 0 -7 2l-1 -2q6 -2 7 -2zM692 683q2 -1 4 -1t4 -1l1 4q-6 2 -8 2zM705 665q-2 0 -4 0.5t-4 0.5v-2q2 0 3.5 -0.5t3.5 -0.5zM677 686q2 -1 3.5 -1t3.5 -1l1 4q-2 1 -4 1t-4 1v-4zM689 668q-2 1 -7 1v-2q4 0 7 -1v2zM661 688
q3 -1 8 -1v4h-7zM674 671q-6 0 -8 1v-2q2 -1 8 -1v2zM646 689q4 0 7 -1l1 3q-3 1 -8 1v-3zM650 673v-2h8v2h-8zM631 689h7v3q-2 0 -4 0.5t-3 0.5v-4zM635 673v-1h8v1h-8zM619 673v-1h5h3v1h-3h-5zM614 693v-4h8v4h-8zM612 673h-8v-1h8v1zM598 692l1 -3h8v3h-9zM595 673
q-4 0 -7 -1v-2q3 1 7 1v2zM583 691v-4q2 0 4 0.5t4 0.5v3h-8zM580 671q-5 0 -7 -1v-2q3 1 7 1v2zM576 690q-6 0 -9 -1l1 -4q2 0 4 0.5t4 0.5v4zM564 669q-2 0 -3.5 -0.5t-3.5 -0.5l1 -2q2 0 3.5 0.5t3.5 0.5zM560 688q-2 -1 -4 -1t-4 -1l1 -4q2 1 3.5 1t3.5 1v4zM549 666
q-2 -1 -3.5 -1t-3.5 -1v-2q2 1 3.5 1t3.5 1v2zM544 685q-4 -2 -7 -2l1 -4q1 0 7 2zM534 662q-2 0 -8 -2v-2q6 2 8 2v2zM529 681q-6 -2 -7 -2l1 -4q1 0 7 2zM519 658q-2 -1 -4 -1.5t-4 -1.5l1 -1q2 1 3.5 1t3.5 1v2zM514 676q-2 -1 -4 -1t-3 -1v-3q6 2 8 2zM504 654
q-2 -1 -8 -3l1 -2q2 1 4 1.5t4 1.5zM499 672q-2 -1 -4 -1.5t-4 -1.5l2 -4q2 1 3.5 1.5t3.5 1.5zM490 349q-3 -1 -7 -1t-8 -1q-8 -2 -10 -3q-4 -2 -8 -5t-8 -8q-12 -12 -17 -23q-7 -8 -12 -24h-1q-3 -5 -7.5 -10.5t-9.5 -10.5q-4 -6 -8.5 -11.5l-8.5 -10.5l-7.5 -9t-7.5 -8
q-3 -4 -4.5 -6.5t-3.5 -3.5q2 6 3.5 13.5t5.5 17.5l6.5 17.5l7.5 20.5l9.5 19.5l9.5 19.5q5 11 10 20t10 17q10 16 19 29q9 12 16 16q-2 2 -8 4h-14q-7 0 -16 -3q-4 -2 -7.5 -3.5t-7.5 -3.5q-3 -5 -6 -12q-2 -4 -5 -9t-6 -11t-5.5 -12t-5.5 -14l-6 -14t-6 -15v11t-1 11
q-1 5 -2 9t-2 6h-7q-2 -1 -4.5 -1t-5.5 -2q-8 -2 -11 -3q-2 -2 -4 -2.5t-3 -1.5q-3 -1 -9 -11q-6 -11 -12 -24q-8 -14 -12 -30q-4 -8 -5.5 -16t-3.5 -16q-2 -16 3 -30q3 -12 16 -22q4 2 7.5 3.5t5.5 3.5q4 2 7.5 4.5t6.5 5.5q3 4 11 10q5 5 7 10v-11t1 -10q3 -10 7 -16
q4 5 9 10.5l12 13.5l14 16.5t13 17.5q3 3 6 6.5t6 7.5v-12q2 -16 11 -31q5 -8 12 -15.5t17 -13.5q10 7 19 17q6 5 11.5 10.5l11.5 11.5q6 5 11.5 11.5t12.5 12.5q4 5 8 9.5t8 8.5q0 -2 -0.5 -4t-0.5 -4q-1 -8 -1 -15.5v-15.5q1 -7 1.5 -13t2.5 -12q3 -11 9 -17q14 0 32 8
q18 9 33 24q5 -4 11.5 -6l12.5 -4q5 5 10 11l10 12q6 8 11.5 14.5l11.5 13.5l8 11.5t9 10.5q2 -8 3.5 -15.5t5.5 -15.5q-5 -10 -9 -19.5t-7 -19.5q-5 -17 4 -27q0 4 2 8t4 10q3 6 7 11.5t9 13.5q3 -8 7 -13.5l8 -11.5t8.5 -9.5t9.5 -6.5q3 4 8.5 10l12.5 14l13.5 16t13.5 18
q5 3 8 9q-1 -5 -1.5 -8t-1.5 -8q-2 -15 3 -29q1 -13 16 -23q11 5 20 12l8 8t8 7l-7.5 -21t-7.5 -20q-5 -10 -8.5 -18t-7.5 -13q-3 2 -1 10t3 13q4 10 7 13q4 8 7 10q-8 -3 -15 -11q-5 -6 -8 -16q-3 -8 -3 -17q0 -8 3 -11q5 0 13 6q7 4 14 15q4 5 7 10l6 10l6 10.5t5 10.5
q4 -6 7 -7q3 4 8.5 10t11.5 14q8 8 14 16l14 18q7 8 13.5 16.5t12.5 17.5q7 8 11 13.5t8 9.5q-1 1 -5 3q0 3 -3 3q-4 -4 -14 -17l-12.5 -14.5t-12.5 -15.5q-8 -9 -13.5 -16.5t-12.5 -15.5q-5 -7 -9 -11.5t-6 -5.5q1 2 1.5 5t2.5 7t3 8t3 9q2 4 2.5 7.5t2.5 8.5l3 7.5t3 5.5
q2 7 5 12.5t6 12.5q3 5 6 11t6 11l5.5 9t6.5 7q6 6 11 8q-2 4 -9 4q-6 1 -13 0q-8 0 -15 -3q-3 -2 -6.5 -3.5t-7.5 -3.5q-1 -1 -3 -9q-2 -4 -3.5 -7.5l-3.5 -8.5t-3.5 -9.5l-3.5 -10.5q-2 -5 -3 -10.5t-3 -11.5q-2 -3 -4 -11q-1 -7 -5 -14l-4 -6t-4 -7q-4 -3 -12 -11
q-6 -6 -13 -10q-3 -2 -5.5 -3.5t-4.5 -2.5q-3 10 0 23q2 16 7 28q3 8 6 15t7 14q5 8 8.5 14.5l7.5 13.5q7 11 16 22q7 10 11 13h-8q-2 -1 -5.5 -1t-7.5 -2q-6 -1 -13 -4q-6 -1 -9 -4q-2 0 -8 -11l-6.5 -10.5t-5.5 -13.5q-3 -4 -7 -14q-1 -2 -2 -2.5t-2 -1.5
q-5 -5 -8.5 -10.5t-8.5 -10.5q-5 -6 -8.5 -11.5t-8.5 -10.5t-8 -9l-6 -8q-7 -9 -9 -10q-8 6 -12 16q-3 5 -5 11l-4 12q5 8 10 14t10 14q7 6 12.5 12.5t10.5 11.5q5 6 10 11l10 10t9 8.5t8 5.5q-6 6 -9 7q-4 1 -13 1q-3 -1 -6.5 -1.5t-7.5 -2.5q-5 -1 -7.5 -3t-6.5 -4
q-2 -2 -5.5 -6.5l-8.5 -11.5q-11 -12 -23 -32q-1 5 -1 10v10t0.5 9t0.5 8q2 8 5 13q2 2 3 3.5t3 2.5q-3 3 -8 4q-4 1 -12 1q-8 -2 -14 -4q-5 -1 -11 -7q-4 -13 0 -36v-3v-1q-5 -5 -9 -10.5t-10 -12.5l-10 -12.5t-11 -12.5q-9 -14 -18 -21q-2 0 -10 4l13 15.5t11 16.5
q5 8 9.5 16t6.5 16t3 15.5t1 13.5q-1 13 -11 23q-24 3 -40 -7q-17 -8 -26 -23q-10 -18 -11 -35q0 -22 8 -35q2 -5 4 -8.5t5 -6.5q-7 -7 -19 -14q-5 -3 -11 -4l-12 -2q-2 11 3 29q3 19 10 39q4 11 8.5 20t9.5 18q9 16 22 24q-2 2 -8 4q-6 1 -12 0q-10 -2 -14 -4q-5 -2 -13 -6
q-7 -8 -12 -19q-6 -12 -9 -27v-1l-6 -6q-5 -5 -9.5 -10t-10.5 -10q-5 -6 -10.5 -11.5t-10.5 -11.5l-9.5 -9.5l-9.5 -9.5t-8.5 -7.5l-6.5 -4.5q-15 8 -19 24q-3 16 2 33q5 16 19 30q14 13 29 14q2 -1 4 -8q1 -2 1 -10v-11q0 -3 -0.5 -4.5t-0.5 -3.5q6 4 11 10q7 5 10 18
q1 6 1.5 12t0.5 13q-1 13 -7 21q-1 0 -3 0.5t-4 0.5h-15zM969 76q-1 -2 -2 -3t-1 -3l1 -1q2 4 4 6zM963 62q-2 -2 -2.5 -3.5t-1.5 -3.5h2q1 1 1.5 2.5t1.5 3.5zM912 -16l-6 -6l2 -1q2 2 2.5 3t2.5 3zM886 150q0 11 -10 11q-11 0 -11 -11t11 -11q10 0 10 11zM778 147
q-3 0 -5 -1v5q1 1 1 4v5q1 1 1 4v3q1 1 1 2l-1 1q-1 1 -2 1q-1 1 -2 1l-1 -1v-3v-4v-4q-1 -2 -1 -6v-5v-4v-1q0 -1 1 -1v-1q1 0 1 -0.5t1 -0.5q1 1 2 1t3 1h3q1 0 1 1v2q1 0 1 1l-1 1q-2 0 -3 -1zM766 170h-1q-1 1 -2 1l-1 1h-1q-1 0 -1 -1v-2v-4q0 -1 -0.5 -1.5t-0.5 -2.5
v-3q0 1 -0.5 1.5t-0.5 1.5t-0.5 1.5t-0.5 1.5q0 2 -1 3v2l-1 1q-1 0 -1 1q-1 0 -2 1q-1 0 -1 -1t-0.5 -1.5t-0.5 -1.5v-6v-5q-1 -2 -1 -6v-5v-3q1 0 2 -1h2l1 1v4v4v5l2 -4q0 -3 1 -4q0 -2 1 -3v-2h1q1 0 1 -0.5t1 -0.5h1h1v2q1 2 1 6t1 6v5q1 2 1 5v3v1zM746 156q1 2 1 5
q-1 2 -1 3t-1 2q0 2 -2 4q-4 2 -5 2t-3 -2l-3 -3q-2 -4 -2 -5q-1 -1 -1 -2t-1 -3v-6q1 -2 1 -2.5t1 -2.5q0 -3 2 -3q1 0 2 -0.5t2 -0.5q2 0 3 1q2 0 4 2q2 4 2 5q1 2 1 6zM708 160q-1 0 -2 -0.5t-2 -0.5v3v3h3q1 0 2 1h2h1q1 0 1 1v2q1 1 1 2t-1 1l-2 -1h-4q-1 0 -2 -0.5
t-2 -0.5q-2 0 -3 -1t-1 -3v-5v-3q0 -2 -0.5 -2.5t-0.5 -2.5v-4v-3v-2l1 -1l1 -1h1l2 1h4h2h2l1 1v2v2h-1h-1h-2q-1 0 -1.5 -0.5t-1.5 -0.5h-3v3q1 1 1 3q2 1 4 1q1 0 1 0.5t1 0.5h1l1 1v2v2h-3zM690 163v-2l1 -1h1l1 -1h2q0 2 0.5 2.5t0.5 2.5q0 1 -0.5 2t-0.5 2l-3 3
q-1 0 -1.5 0.5t-1.5 0.5q-2 0 -3 -1q-1 0 -2 -1q-2 -2 -2 -3q-1 -1 -1 -1.5t-1 -1.5v-4q0 -1 2 -3t2 -3q1 -1 1.5 -1t1.5 -1t1.5 -1t1.5 -1v-3q0 -1 -1 -1q0 -1 -1 -1q-2 0 -2 1q-1 0 -2 1v2v4l-1 1l-2 1h-2l-1 -1q0 -4 1 -6t3 -4q1 -1 1.5 -1t1.5 -1h4q1 0 2 0.5t2 0.5
q2 2 2 3q1 2 0 5q0 1 -2 3l-2 2q-3 0 -3 2q-1 0 -3 2v1q0 2 1 3q0 1 1 1q1 1 2 1l1 -1v-2zM665 149q0 4 1 7v5v5v3v1q-1 1 -2 1l-1 1h-1q-1 0 -1 -1v-2v-4q-1 -1 -1 -4v-4v-4q-1 -1 -1 -4q0 -2 0.5 -2.5t0.5 -1.5q1 -2 3 -2q1 -1 3 -1l2 1q2 0 3 1q2 2 2 5q0 2 1 3v4
q1 1 1 4q0 1 0.5 1.5t0.5 1.5q0 3 1 4v2l-1 1q-1 0 -1 0.5t-1 0.5q-1 1 -2 1t-2 -1v-2v-4q-1 -2 -1 -4q0 -3 -1 -4v-4q0 -3 -1 -4q0 -2 -1 -3v-1l-1 1v3zM641 147q-3 0 -5 -1v5q0 1 0.5 2t0.5 2v5q1 1 1 4v3q0 1 1 2l-1 1q-1 1 -2 1q-1 1 -3 1l-1 -1v-3v-4q0 -3 -1 -4v-6v-5
v-4v-1q0 -1 1 -1v-1q1 0 1 -1q2 1 3.5 1t3.5 1h3q1 0 1 1v2q1 0 1 0.5t-1 0.5v1q-2 0 -3 -1zM597 143v4q0 3 1 4v5l2 -4q0 -3 1 -4q0 -2 1 -3v-2h1q1 0 1 -0.5t1 -0.5h1h1v2q1 2 1 6t1 6v5q1 2 1 5v3v1h-1q-1 1 -2 1l-1 1h-1q-1 0 -1 -1v-2v-4q0 -1 -0.5 -1.5t-0.5 -2.5v-3
q0 1 -0.5 1.5t-0.5 1.5t-0.5 1.5t-0.5 1.5q0 2 -1 3v2l-1 1q-1 0 -1 0.5t-1 0.5t-2 1v-1q0 -1 -0.5 -1.5t-0.5 -1.5v-6v-5q-1 -2 -1 -6v-5v-3q1 0 2 -1h1zM596 -146q0 1 -1 1l-2 -1l-2 -1h2q1 1 2 1v-1h1v1zM590 156q1 2 1 5q-1 2 -1 3t-1 2q0 2 -2 4q-4 2 -5 2q-2 0 -4 -2
q-1 0 -1 -1t-1 -2q-2 -4 -2 -5q-1 -1 -1 -2t-1 -3v-6q1 -2 1 -2.5t1 -2.5q0 -3 2 -3q1 0 1.5 -0.5t1.5 -0.5q3 0 4 1q2 0 4 2q2 4 2 5q1 2 1 6zM564 165l1 -2l-1 -2q1 0 1 -1h1q1 -1 2 -1h1q1 2 1 5t-1 4t-1 1.5t-1 1.5q-1 0 -2 0.5t-2 0.5q-2 0 -3 -1l-2 -1q-1 -1 -1 -1.5
t-1 -1.5t-1 -3q-1 -2 -1 -4q1 -1 1 -1.5t1 -1.5l3 -3q1 -1 1.5 -1t1.5 -1l2 -2q1 -2 0 -3q0 -1 -1 -1q0 -1 -1 -1t-2 1l-1 1q0 2 -1 2v4l-1 1l-1 1h-2q-1 0 -1 -1q-1 -2 -0.5 -3t0.5 -3q1 -2 3 -4l4 -2h3q2 0 2.5 0.5t1.5 0.5q2 2 2 3q1 2 1 5q-1 1 -1 1.5t-1 1.5q-1 0 -3 2
q-1 0 -3 2q-2 0 -2 2v1v3l1 1q1 1 2 1zM525 160q-1 0 -1.5 -0.5t-2.5 -0.5v3q0 1 0.5 1.5t0.5 1.5h2q1 0 1 0.5t1 0.5h2h1v1q1 1 1 2v2q0 1 -1 1l-2 -1h-2q-2 0 -2.5 -0.5t-2.5 -0.5q-3 0 -4 -1v-3q0 -2 -0.5 -2.5t-0.5 -2.5v-3v-5v-4q-1 -1 -1 -3q0 -1 1 -2v-1q1 0 1 -1h1
q2 0 4 1h3h2h1q1 0 1 1v2q1 1 0 2h-2h-1q-1 0 -1 -0.5t-1 -0.5h-4q1 1 1 3v3q2 1 5 1q0 1 2 1v1l1 2v2h-1h-2zM512 164q0 2 -2 4t-3 2l-2 2h-3q-2 0 -3 -1h-3q0 -1 -0.5 -1t-0.5 -1v-4v-4q0 -4 -1 -6v-5v-4v-3q1 0 2 -1h2l1 1v4h4q2 1 4 3l3 3q2 4 2 6v5zM472 149l2 1
q0 1 2 3q1 1 1 1.5t1 1.5q0 1 0.5 1.5t0.5 1.5v5q-1 1 -1 2t-1 2q-2 2 -3 2q-1 1 -2 1q-1 1 -4 1q-2 0 -3 -1h-2q0 -1 -0.5 -1t-0.5 -1v-4v-4q0 -2 -0.5 -3t-0.5 -3v-5v-4v-3q1 0 2 -1h1h1q0 1 1 1v3q1 0 3 -2q1 0 1.5 -0.5t1.5 -0.5h1q1 -1 2 -1h1l1 1h1q1 0 0 1l-1 1
q-1 0 -2 1zM428 157q0 1 0.5 2t0.5 2v3q1 0 1.5 0.5t1.5 0.5h3q1 0 1 1h1h1v2l1 1v1v1q0 1 -1 1l-2 -1h-3q-2 0 -2.5 -0.5t-2.5 -0.5q-3 0 -5 -1v-4v-4q0 -4 -1 -6v-5v-4v-3q1 0 2 -1h2q1 1 1 3q0 4 1 6q1 1 4 1q2 0 2 1q1 0 1 1l1 1v2q0 1 -1 1t-3 -1h-4zM402 160
q-1 0 -1.5 -0.5t-2.5 -0.5q0 2 1 3v3h2l2 1h2h1l1 1v2v2v1q-2 0 -3 -1h-3q-1 0 -1.5 -0.5t-2.5 -0.5q-3 0 -4 -1v-3v-5q-1 0 -1 -3v-5v-4v-3v-2v-1q1 0 1 -1h1q3 0 4 1h3h2h1q1 0 1 1t1 2v2h-1h-1h-3l-1 -1h-3v3v3q1 0 1.5 0.5t1.5 0.5h1q1 1 3 1v1q1 0 1 2v2h-1h-2z
M405 -70l-1 1h-2h-2h1q1 0 2 -1l1 -1zM384 160q-1 0 -1.5 -0.5t-2.5 -0.5q1 1 1 3v3h2q1 0 2 1h2h1l1 1v2q2 2 0 2v1q-1 0 -2 -1h-4q0 -1 -1 -1h-2q-3 0 -5 -1v-3v-5v-3q-1 -2 -1 -5v-4v-3v-2l1 -1l1 -1h1q2 0 3 1h3h2h2v1q1 1 1 2v2h-1h-1h-2q-1 0 -1 -0.5t-1 -0.5h-3v3
q0 1 0.5 1.5t0.5 1.5l2 1h1q1 0 1 0.5t1 0.5h1l1 1v2v2h-3zM365 149l1 1l3 3q0 1 0.5 1.5t0.5 1.5q1 1 1 3q1 2 0 5q0 1 -0.5 2t-0.5 2q-2 2 -3 2q-1 1 -2 1q-2 1 -4 1t-3 -1h-2q-1 -1 -1 -2v-4q0 -1 -0.5 -2t-0.5 -2v-6v-5q0 -2 -0.5 -2.5t-0.5 -1.5v-3h1l2 -1h1h1v1
q0 2 1 3q1 0 3 -2q1 0 1.5 -0.5t1.5 -0.5h1q0 -1 1 -1h1q1 0 2 1h1v1q-1 0 -3 2zM350 166v2q1 0 1 1v1v1q0 1 -1 1l-2 -1h-3q-1 0 -2 -0.5t-3 -0.5q-3 0 -4 -1q0 -1 -0.5 -1.5t-0.5 -2.5v-4v-6q0 -2 -0.5 -3t-0.5 -2v-4v-3h1l1 -1h2h1v3q0 2 0.5 3t0.5 3q1 1 4 1q2 0 3 1v1
l1 1v2q0 1 -1 1l-2 -1h-5q1 1 1 4v3q1 0 1.5 0.5t1.5 0.5h3q1 0 1 1h2zM349 -31q-1 2 -2 3.5t-3 3.5l-1 -2q4 -4 5 -6zM334 -13l-2 -1l3 -3l3 -3l1 2zM330 -6q-4 4 -5 6l-2 -1q2 -2 2.5 -3.5t2.5 -3.5zM320 6q-2 2 -2.5 3t-2.5 3l-1 -1q1 -2 2 -3t2 -3zM312 19q-2 2 -2.5 3
t-2.5 3l-2 -1q2 -2 2.5 -3.5t2.5 -2.5zM295 45q-1 4 -4 8l-1 -1q1 -4 4 -8zM288 59q-2 2 -2.5 3.5t-1.5 3.5h-2l2 -4l2 -4zM284 451q3 4 4 8l-2 1q-1 -2 -1.5 -4t-1.5 -4zM292 465q1 2 2 3.5t1 3.5l-1 1q-1 -2 -2 -3.5t-2 -3.5zM316 505q1 3 5 7l-2 1q-1 -1 -5 -7zM326 518
q1 2 2 3t2 3l-1 2q-2 -2 -2.5 -3.5t-2.5 -3.5zM335 531l5 5l-2 1q-2 -3 -5 -5zM345 542q2 2 2.5 3.5t2.5 3.5h-2q0 -1 -4 -5zM356 554q1 2 5 6l-1 1l-6 -6zM366 565q2 2 3 2.5t3 2.5l-1 2l-5 -5v-2zM489 648q-4 -2 -7 -3l1 -2q2 1 3.5 1.5t2.5 1.5v2zM484 666
q-2 -1 -3.5 -1.5t-3.5 -1.5l1 -4q2 1 4 1.5t4 1.5zM474 641l-6 -3l1 -1q2 1 3 1t3 1zM470 660q-2 -1 -3.5 -1.5t-3.5 -2.5l1 -2q2 1 4 1t4 1zM461 635q-5 -2 -7 -4v-2q3 2 7 4v2zM455 654q-2 -2 -6 -4l2 -4q3 3 6 4zM447 627q-5 -2 -7 -4l1 -2q2 2 3.5 2.5t3.5 2.5zM441 646
q-4 -2 -6 -4l1 -4q2 2 3.5 2.5t3.5 1.5zM434 620q-3 -2 -7 -4l1 -2q2 1 3.5 2t3.5 2zM428 638q-2 -1 -3.5 -1.5t-3.5 -1.5l2 -4q2 1 3.5 2t3.5 2zM420 611q-2 -2 -3 -2.5t-3 -2.5l1 -1q2 1 3 2t3 2zM415 630q-2 -2 -3.5 -2.5t-3.5 -2.5l2 -3q2 2 3.5 2.5t3.5 2.5zM407 602
q-2 -1 -6 -5l1 -1q2 1 6 5zM401 621q-3 -3 -6 -4l3 -4q2 2 2.5 3t2.5 2zM395 592q-2 -1 -3.5 -2t-3.5 -3l2 -1q2 1 6 5zM389 612q-3 -2 -6 -5l2 -4q4 4 6 5zM383 583l-6 -6l1 -1q2 2 3 2.5t2 2.5v2zM377 602q-4 -2 -7 -5l3 -3q2 2 3 2.5t3 2.5zM365 591q-2 -2 -3 -2.5
t-3 -2.5l3 -2q4 2 5 4zM353 581q-4 -4 -5 -6l2 -3l6 6zM342 569q-2 -2 -3 -2.5t-2 -2.5l3 -3q2 2 2.5 3t2.5 3zM331 558q-1 -2 -2 -3t-2 -3l3 -3q0 2 4 6zM321 546q-2 -2 -2.5 -3t-2.5 -3l3 -3q4 4 5 7zM312 533q-2 -1 -5 -6l3 -2q2 2 4 7zM310 500q-1 -2 -2 -3t-2 -3l2 -2
q1 2 2 3t2 3zM302 521q-2 -2 -2.5 -3.5t-2.5 -3.5l4 -2q1 2 2 3t2 3zM302 487q-2 -2 -2.5 -4t-2.5 -4h2q1 2 2 3t2 3zM294 508q-2 -2 -2.5 -3.5t-2.5 -3.5l4 -2q2 4 3 7zM285 495q-3 -4 -4 -8l3 -2q3 4 4 8zM279 445q-2 -4 -3 -7l1 -1q1 2 2 3.5t2 3.5zM277 480
q-1 -1 -1.5 -2.5t-1.5 -3.5l3 -2q0 2 1 3.5t2 3.5zM272 423q1 2 1.5 3.5t1.5 3.5l-2 1q-1 -3 -3 -7zM275 88q-2 4 -3 7l-2 -1q1 -2 1.5 -3.5t1.5 -3.5zM270 467q-2 -3 -4 -7l4 -2q1 2 1.5 3.5t1.5 3.5zM266 408q1 2 1.5 3.5t1.5 3.5l-2 1q-1 -2 -3 -8h2zM269 102q-1 3 -3 7
l-2 -1q1 -1 1.5 -2.5t1.5 -3.5h2zM262 453q-2 -6 -2 -8l3 -2q1 2 1.5 4t1.5 4zM261 393q1 2 1 4t1 4l-2 1q-1 -3 -1 -8zM263 117q-1 2 -3 8l-1 -1q1 -2 1 -4t1 -4zM257 438q-1 -2 -1.5 -3.5t-1.5 -3.5l3 -2q1 2 1.5 4t1.5 4zM246 340q-1 -2 -1 -3.5t-1 -3.5h2q1 2 1 3.5
t1 3.5h-2zM249 348l2 7l-2 1q-1 -2 -1 -3.5t-1 -3.5zM243 325q-1 -3 -1 -7h2q0 4 1 7h-2zM242 310q-1 -3 -1 -8h1q0 5 1 7zM240 294q0 -5 -1 -8h2q1 2 1 8h-2zM239 279v-9h2v9h-2zM239 263v-5v-3h2v3v5h-2zM239 247v-8h2v8h-2zM239 231q1 -2 1 -7h2q0 5 -1 7h-2zM241 215v-7
h2q-1 3 -1 8zM242 200q0 -5 1 -7h2q-1 3 -1 7h-2zM244 184q0 -2 0.5 -3.5t0.5 -3.5l2 1q0 1 -0.5 3t-0.5 4zM247 169q1 -2 1 -4t1 -4l2 1q-1 2 -1 4t-1 4zM251 154q0 -2 2 -8h2q-2 6 -2 8h-2zM253 363q0 4 2 8l-2 1q-2 -6 -2 -8zM255 139q0 -2 2 -8l2 1q-2 4 -2 7h-2z
M257 378q1 2 1 4t1 4l-2 1q-1 -2 -1 -4t-1 -4zM250 424q-1 -2 -1 -4t-1 -4l3 -1q1 2 3 8zM245 408q-1 -1 -3 -7l4 -1q1 2 1.5 4t1.5 4h-4zM241 394q-1 -3 -3 -7l4 -2q0 3 2 7zM236 379q-1 -2 -1 -4t-1 -3l4 -1q1 2 1 3.5t1 3.5zM232 363q-1 -2 -1 -4t-1 -4h4q2 4 2 8h-4z
M229 348q-1 -2 -1 -4t-1 -4l4 -1q1 2 1 4t1 4zM226 333q-1 -3 -1 -8l4 -1q0 5 1 8zM224 317q0 -5 -1 -8h4q0 5 1 8h-4zM223 302q-1 -3 -1 -8l3 -1q0 6 1 9h-3zM221 278h3q0 5 1 7h-4v-7zM221 262h3v8h-3v-8zM221 247h3v7h-3v-7zM221 231h4q-1 2 -1 8h-3v-8zM222 223
q0 -6 1 -8h3q0 2 -0.5 4t-0.5 4h-3zM223 207q1 -2 1 -8l4 1q-1 2 -1 8zM225 192q0 -6 1 -8h4q-1 3 -1 8h-4zM227 176q1 -2 1 -4t1 -4l4 1q-1 2 -1 4t-1 4zM230 161q2 -6 2 -8l4 1q0 3 -2 7h-4zM234 145q1 -2 1 -3.5t1 -3.5l4 1q-1 2 -1 3.5t-1 3.5zM238 130q1 -3 3 -7l3 1
q-2 4 -2 7zM242 115q1 -3 3 -7l4 1q-1 2 -1.5 3.5t-1.5 3.5zM248 100q1 -2 1.5 -3.5t1.5 -3.5l3 1q-1 2 -1 4t-1 4zM254 86q1 -2 1.5 -4t1.5 -4l3 2q0 2 -1 3.5t-2 3.5zM260 72q0 -5 3 -8l3 2q-1 2 -1.5 3.5t-1.5 2.5h-3zM274 52q-2 2 -4 6l-4 -2q2 -2 4 -6zM280 37
q-1 2 -1.5 4t-1.5 4l-3 -2q1 -3 3 -7zM280 73q-1 2 -1.5 3.5t-1.5 3.5h-1q1 -2 1 -4t2 -4zM288 24q-1 2 -1.5 3.5t-2.5 3.5l-3 -2q1 -2 2 -3.5t2 -3.5zM296 11q-1 2 -1.5 3.5t-1.5 3.5l-4 -2q2 -2 2.5 -3.5t2.5 -3.5zM297 37q3 -3 4 -6l2 1l-4 6zM305 -1q-1 2 -2 2.5t-2 2.5
l-4 -2q3 -1 5 -6zM314 -15q-1 2 -1.5 3.5t-2.5 3.5l-3 -3q2 -2 2.5 -3t2.5 -2zM324 -27q-1 3 -5 7l-3 -3q2 -2 2.5 -3t2.5 -3zM334 -38q-4 4 -4 5l-4 -2q4 -4 5 -6zM345 -50l-6 6l-3 -3q4 -4 6 -5zM356 -61l-6 6l-2 -3q1 -2 5 -6zM367 -71q-1 2 -5 4l-3 -2q2 -1 6 -5z
M379 -82q-4 4 -6 5l-3 -3q2 -1 6 -5zM366 -54q1 0 2 1q1 0 1 0.5t1 0.5q2 1 5 1h6q2 0 4 1q2 0 4 1q1 0 1 0.5t1 0.5l-1 1l-1 1q-1 0 -1 0.5t-1 0.5l-1 1q-1 0 -1.5 -0.5t-1.5 -0.5t-2 -0.5t-2 -0.5q-2 -1 -3 -1t-2 -1q-1 0 -1.5 -0.5t-1.5 -0.5h-1h-3h-2h-2h-1l4 2q0 2 3 2
q2 0 3 -0.5t3 -0.5t3 0.5t2 0.5h2l1 1q1 1 2 1v1q-1 0 -1 0.5t-1 0.5v1q-1 1 -2 1h-1q-1 0 -2 -1q-3 0 -5 -1q-1 0 -2 -0.5t-3 -0.5l-2 -2h-1q-1 1 -2 1h-3h-2h-2h1q1 0 1 0.5t1 0.5q2 0 2.5 0.5t1.5 0.5t1 0.5t1 0.5h1h3h-1q0 1 -1 1q0 1 -1 1v1h-1q-1 0 -2 -1l1 2l1 1
l-1 1h-2v1l-2 -1h-2h-3q-2 0 -3 -1l-2 -2v-3h1q1 0 1 -0.5t1 -0.5h3l-2 -2v-1h3q2 0 2.5 -0.5t2.5 -0.5h2q-1 0 -3 -2q-3 -3 -1 -3h3h3h3q-3 -3 -3 -2q0 -1 -0.5 -1.5t-0.5 -1.5h3h4h4h3v1h-1h-2h-3h-3h-2h-2zM391 -91q-2 1 -3.5 2t-3.5 2l-1 -2q2 -3 5 -5zM403 -101
q-2 2 -3 2.5t-3 2.5l-2 -4q2 -1 3 -2t3 -2zM416 -109q-2 1 -3 2t-3 2l-3 -3q6 -4 7 -5zM429 -118q-2 1 -3.5 2t-3.5 2l-2 -3q6 -4 7 -5zM432 -104h3q1 0 1 0.5t1 0.5h2q1 1 2 1h-1v1l-1 -1h-2q-1 0 -2 -1h-2v2v2q0 1 1 2v1h2h1l-1 1v1h-1q-1 1 -2 1h-1v-1h-1h-1v-1
q-1 0 -1 -0.5t-1 -0.5h-3q-1 -1 -2 -1h-2q-1 -1 -2 -1l3 3q2 0 4 2t5 2q1 1 2 1.5t2 1.5q1 -1 1 -2h2l-2 2q1 1 3 1h2v1h-2q0 1 -1 1h-2l-1 -1h-2q-1 0 -2 1l-1 -1l1 -1q-2 0 -4 -2l-4 -2q-1 -1 -4 -1l-1 -1h-2h-2q0 1 1 1t2 1q2 0 2 2q2 0 2.5 0.5t1.5 0.5h3h-1q0 1 -1 1
l-2 1l-2 1h-2h1q2 0 3 1q1 0 2 0.5t2 0.5q2 2 3 2q1 1 2 1q0 1 -1 1l-1 1q-1 0 -1 0.5t-1 0.5h-1q-2 0 -4 -1q-1 0 -3 -2t-4 -2l-2 -2h-2h-3q-1 -1 -3 -1h-2h-1h1q0 1 1 1t1 0.5t1 0.5l1 1q1 0 2 1h2q1 1 2 1h2l-1 1h-1q0 1 -1 1h-2h-1q-1 0 -2 -1l1 1v1l1 1v1h-1h-1
q0 1 -1 1h-1h-1q-1 0 -1 -0.5t-1 -0.5h-1q-1 0 -1.5 -0.5t-1.5 -0.5h-4h-3h1q1 0 1 0.5t1 0.5l4 2l2 1h1h2v1l-1 1q-1 0 -1 1h-1h-1q-1 -1 -1.5 -1t-1.5 -1h-1h-3h-3h-2h-2q0 1 1 1t2 1h4q2 0 2.5 0.5t1.5 0.5h3l-1 1h-1q0 1 -1 1q-1 1 -2 1h-1h-1q-1 0 -1 1q-1 0 -1 1v1h1
l-1 1h-1h-2l-1 -1h1q0 -2 1 -3q0 -1 2 -1q1 0 1 -1t-1 -1h-2q-1 -1 -3 -1q-1 0 -1 -0.5t-1 -0.5v-2h3h5h3q-1 -1 -1.5 -1t-1.5 -1l-1 -2q-2 0 0 -2h1l2 1h4h2l-2 -1q0 -1 -0.5 -1t-0.5 -1v-3h2h3q-1 -1 -2 -1q-1 -1 -2 -1q-1 -1 -2 -1t-1 -1l1 1q0 1 1 1l1 1h1h-2l-1 -1
q-1 0 -2 -1v-1h1h2q2 0 3 1h2v-1l2 1h4q2 0 2.5 0.5t1.5 0.5h-1q-2 -2 -3 -2q0 -1 -0.5 -1t-0.5 -1v-1q0 1 1 1t2 1q1 0 1.5 0.5t1.5 0.5q1 1 3 1h2q1 0 1 -0.5t1 -0.5l-2 -1q-2 -2 -3 -2q-1 -1 -1 -1.5t-1 -1.5v-2h1q1 0 2 1q3 0 4 1h2q-2 -2 -2 -3v-3h2q1 1 3 1l1 -1
q0 -2 1 -3l1 -2l1 -1l2 1h2zM443 -125q-3 1 -7 3l-2 -3q2 -1 3.5 -2t3.5 -2zM444 143q1 0 1.5 -0.5t2.5 -0.5q3 0 4 1q1 0 3 2q1 2 1 3t1 2q1 2 1 6v5q0 4 -1 5q-2 3 -3 4q0 2 -3 2q-2 0 -4 -2l-3 -3q-1 -2 -1.5 -2.5t-1.5 -2.5q0 -1 -0.5 -2t-0.5 -3v-6q0 -2 0.5 -2.5
t0.5 -2.5zM456 -133q-2 1 -3 2t-3 2l-2 -4q5 -3 6 -4zM471 -140q-2 1 -3.5 1.5t-3.5 1.5l-2 -3q2 0 3.5 -1t3.5 -2zM485 -145q-2 1 -3.5 1.5t-3.5 1.5l-2 -4q2 -1 4 -1.5t4 -1.5zM500 -151q-2 1 -4 1.5t-4 1.5l-1 -4q2 -1 3.5 -1.5t3.5 -1.5zM514 -156q-3 0 -7 2l-1 -3
q2 -1 3.5 -1t3.5 -1zM529 -160q-4 2 -7 2l-1 -4q3 0 7 -2zM533 -145q1 0 3 2l2 1h1q0 1 -1 1h-1l-2 -2q-1 0 -2 -1q-1 0 -2 -1t-2 -1l-1 -1l1 2l3 3l2 2l3 3q1 1 1.5 1t1.5 1q1 0 2 1h-1q0 1 -1 1h-2h-2l-1 -1q0 -1 -1 -2l-2 -2l-1 -2v2v2h-1h-1h-1h-1l-1 -1t-1 -2l-2 -1
l-1 -1q-2 0 -3 -1q-1 0 -2 -1h-2l-1 2h2q1 0 1.5 0.5t1.5 0.5h3l2 2v2v2h-1l-1 1h-2h-1q-1 0 -2 -1q-1 0 -2 -1q-1 0 -1 -1q-1 0 -1 -1h-2l-1 -1l1 2q0 1 0.5 1t0.5 1q1 1 2 1q1 1 2 1l-1 1h-1h-2h-1q-1 0 -1 -1q-1 -1 -1 -2l-2 -2l-2 -1q-1 -1 -2 -1q-1 -1 -2 -1v2l1 2
q2 0 2 2q1 0 2 1t1 2h2l-1 1h-1q0 1 -1 1h-1l-3 -3l-2 -1q-1 0 -1 -0.5t-1 -0.5t-1.5 -0.5t-1.5 -0.5q-1 -1 -2 -1t-1 -1q1 0 1 1t1 2l3 3l4 2q1 0 2 1h-1l-1 1h-1h-2l-1 -1h-1q-1 0 -1 0.5t-1 0.5l-1 1q1 0 1 1h-1h-2l-1 -1v-1l1 -1q-1 0 -2 -1l-2 -1q-2 0 -3 -1h-2
q-1 -1 -2 -1l-1 2h1l1 1h3q1 1 3 1l2 2v2v1h-1q-1 1 -2 1h-1h-2q-1 -1 -2 -1q-2 0 -3 -1q0 -1 -1 -1t-1 -0.5t-1 -0.5h-1v2v1v2v1l2 1h2v1h-2q0 1 -1 1h-2q-1 0 -1 -1h-1v-2h-1q-1 -1 -3 -1q-1 0 -1.5 -0.5t-1.5 -0.5h-3q0 -1 -1 -1t-1 1v1h2q1 0 1.5 0.5t1.5 0.5q2 0 3 1
q1 0 2 1t1 2v2h-1q0 1 -1 1t-2 1h-1l-2 -1h-2q-1 -1 -2 -1q0 -1 -1 -1h-2q-1 -1 -2 -1t-2 -1h-2q0 1 1 1t2 1t3 2q2 2 3 2h3l-1 1l-1 1h-1h-2h-1h-2v1h-1v1l1 1h-1h-1h-2v-1v-1l2 -2q1 0 2 -1l-2 -2l-2 -2q-1 -1 -1 -2q-1 -1 0 -2h1q1 0 1 0.5t1 0.5t1.5 0.5t1.5 0.5
t1.5 0.5t1.5 0.5l-1 -1v-3v-2q0 -1 1 -1h3h3q1 0 1.5 0.5t1.5 0.5q2 0 3 1h1q1 -1 1 -2v-2v-2l-1 1l-2 2l-1 1l-1 1v-1h-1h1q0 -1 0.5 -1t0.5 -1t1 -2t1 -2q2 0 2 1l2 1q2 0 2 1h1v-1v-3q0 -3 2 -3h2q1 1 3 1q1 1 3 1q1 1 2 1q1 1 2 1h1q0 -1 2 -1h1l-2 -2l-2 -2
q0 -1 -0.5 -1.5t-0.5 -1.5v-1q2 0 3 1q2 0 2.5 0.5t1.5 0.5l4 2l-1 -1q-1 -1 -1 -4q-1 -1 0 -2h3q2 0 3 1l2 1q0 2 2 2v-2v-1l2 1h1v-2q-1 0 0 -2q0 -3 2 -3l2 1q1 0 1.5 0.5t1.5 0.5t1.5 0.5t1.5 0.5v-1q-1 0 -1 -2q0 -1 0.5 -1.5t0.5 -1.5l2 1h1l1 1h1l-1 -1q0 -2 1 -2
l2 1q1 1 2 1.5t2 1.5zM544 -164q-4 2 -7 2l-1 -4q2 -1 4 -1t3 -1zM544 143q1 -1 2 -1h1q1 0 2 1h1v1q-1 0 -3 2q-2 1 -2.5 1.5t-2.5 1.5q1 0 1.5 0.5t1.5 0.5q2 2 2 3q2 2 2 3q1 1 1 3v5q0 2 -2 4q0 2 -2 2q-1 1 -4 1q0 1 -2 1t-3 -1h-2q-1 -1 -1 -2t-0.5 -1.5t-0.5 -2.5v-4
v-6q0 -2 -0.5 -2.5t-0.5 -2.5v-4v-3h1l1 -1h2h1v1v3q1 0 3 -2q1 0 2 -1h2zM560 -167q-2 1 -4 1t-4 1v-4q2 -1 4 -1t4 -1v4zM576 -169q-6 0 -8 1l-1 -4q3 -1 8 -1zM591 -171q-5 0 -8 1v-4q2 -1 8 -1v4zM607 -172h-9v-3h8zM622 -173h-8v-3h8v3zM623 -153l-1 1l-1 -1l-1 -1
l-2 -2q-1 -1 -2 -1q0 -1 -0.5 -1t-0.5 -1q-1 0 -1 -1v1q0 1 1 2q0 1 2 3q0 1 2 3l1 1l1 1h-1h-1h-2h-1q0 -1 -1 -1q0 -1 -1 -2v2v1q0 1 -1 0h-1h-1l-1 -1q0 -1 -0.5 -1t-0.5 -1v-1h-1q0 -1 -2 -3q-1 -1 -3 -1l-2 -2q1 0 1 1l1 1l2 4q0 1 2 3q1 1 2 1l-2 1h-2q-1 -1 -3 -1
q-1 -1 -2 -1t-1 -1l2 2l1 1h-2h-1h-2q0 -1 -1 -2l-1 -2q0 -1 -2 -3t-3 -2t-1 -1l1 2l2 4q2 2 2 3l1 1v1h-1h-1q-1 -1 -2 -1v-1l-2 -2v-1h-1q0 -2 -2 -2q0 -1 -0.5 -1t-0.5 -1q-1 0 -2 -1h-1l1 2q1 1 1 1.5t1 1.5t1 1.5t1 1.5l3 3q0 1 2 3l2 1h-1h-2h-1h-2l-1 -1q0 -1 -1 -2
l-1 -2l-2 -2v2v1h-1h-1h-1l-1 -1h-1v-2q-1 -1 -1 -1.5t-1 -1.5l-1 -1q-1 0 -1 -0.5t-1 -0.5l-2 -2q-1 0 -2 -1l-2 2h1q1 0 1 0.5t1 0.5t1 0.5t1 0.5q2 2 3 2q1 1 1 2q2 2 0 2v2h-1h-1h-2h-1q-1 0 -2 -1q-1 0 -1 -0.5t-1 -0.5q0 -1 -0.5 -1t-0.5 -1q-1 -1 -1.5 -1t-1.5 -1
l-2 -1q0 -1 -0.5 -1t-0.5 -1v2q1 1 1.5 2t1.5 2q0 1 2 3q1 0 2 1h-1q-1 1 -2 1q-1 -1 -3 -1q-1 -1 -2 -1t-1 -1q0 1 1 1l1 1l1 1l-1 1h-2q-1 0 -1.5 -0.5t-1.5 -0.5t-1 -0.5t-1 -0.5h-1l2 1q1 1 2 1l-1 1h-1h-2h-1q-1 -1 -1 -2l-2 -2l-1 -2q-1 -1 -1 -1.5t-1 -1.5v-2v-2v1
q0 1 0.5 1t0.5 1l2 2l2 2q1 1 2 1q1 1 2 1h1l-2 -2q0 -1 -0.5 -1.5t-0.5 -1.5t-0.5 -1.5t-0.5 -1.5t1 -2l1 2q0 1 0.5 1.5t0.5 1.5l2 2q1 0 1.5 0.5t1.5 0.5l1 1h1q-1 0 -1 -1v-2q-1 -1 -1 -3q-1 -1 -1 -3v-1q0 -1 1 -1l1 2l3 3q1 0 2 1v-1v-3q2 -2 3 -2h2q1 0 3 2
q1 0 1.5 0.5t1.5 0.5q-1 0 -1 -1v-2l1 -1h2v1h2v-1q1 0 1 -1l2 2q3 0 4 1q0 1 0.5 1t0.5 1q0 -1 -0.5 -1.5t-0.5 -1.5v-1q0 -2 1 -2l2 2q1 1 1.5 1t1.5 1q1 0 1 0.5t1 0.5q0 -1 -1 -2v-2q0 -1 1 -2v3q0 1 1 2l2 2l2 2h1l1 1v-1q0 -1 -1 -2q0 -1 -0.5 -1.5t-0.5 -1.5v-2
q0 -2 1 -2l2 2q2 2 3 2l1 1v-1v-2q0 -1 1 -2t3 1q1 0 2 1v-1v-2l2 2l3 3q1 0 3 2zM629 143v2q0 2 -0.5 3t-0.5 3t-0.5 3t-0.5 3t-0.5 3t-0.5 2q0 2 -0.5 3t-0.5 2v3l-1 1h-1q-2 0 -2 1h-2h-2v-1q0 -1 -0.5 -1.5t-0.5 -2.5q0 -1 -0.5 -2t-0.5 -3q-1 -1 -1 -2t-1 -3v-6
q0 -2 -0.5 -2.5t-0.5 -2.5q0 -1 -0.5 -1.5t-0.5 -1.5h1l1 -1h1h1v1q1 0 1 2q2 0 2.5 0.5t1.5 0.5h3q0 -1 1 -2v-1l1 -1h2h2v1zM638 -176l-1 4q-2 0 -3.5 -0.5t-3.5 -0.5v-3h8zM653 -175v4q-3 -1 -7 -1v-3h7zM661 -175q2 0 4 0.5t4 0.5l-1 4q-4 0 -7 -1v-4zM677 -173
q2 0 3.5 0.5t3.5 0.5v4q-5 0 -8 -1zM692 -170q2 0 4.5 0.5t4.5 0.5l-1 4q-2 0 -4 -0.5t-4 -0.5v-4zM708 -167q2 1 4 1t4 1l-1 4q-2 -1 -4 -1t-4 -1zM720 -140h-1q0 -1 -0.5 -2t-0.5 -2q-2 -2 -2 -3q-1 -1 -1 -2v1v2v1v2l1 2q0 1 1 1v2q1 0 1 1h-1h-1l-1 -1q-1 0 -1 -0.5
t-1 -0.5v-1v-2q0 -2 -1 -2v-1v-2v-1q-1 0 -1 -1l-1 -1l-1 -1q-1 0 -1 2v2q0 1 0.5 1.5t0.5 1.5t0.5 1.5t0.5 1.5t1 1q0 1 1 2h-1q0 -1 -1 -1l-1 -1h-1h-1v-3q-1 0 -1 -1v-1l-2 -2q0 -1 -0.5 -1t-0.5 -1l-2 -2v-1v3q1 1 1 4q1 1 1 2t1 2t2 1h-1h-2h-1l-1 -1v-1l-1 -1h-1h-1
q-1 0 -1 1l1 1l-2 -1l-1 -1v-1v-1l1 -1l-2 -2q0 -1 -0.5 -1.5t-0.5 -1.5l-2 -2h-1q1 0 1 1t1 2q0 2 0.5 2.5t0.5 1.5v2q0 2 -2 2q-1 0 -2 -0.5t-2 -0.5q-1 -1 -1 -1.5t-1 -1.5v-3q0 -2 1 -3q0 -1 1 -1l-2 -2l-1 -1v3v4q0 2 1 3l1 2q0 1 1 1h-1h-2v-1l-1 -1l-1 -2v-2
q-1 0 -1 -1l-2 -2q0 -1 -0.5 -1t-0.5 -1q-1 -1 -1 -2q-1 0 -1 -1v1v2q1 0 1 1v2l1 2q0 1 0.5 1t0.5 1t0.5 1t0.5 1l1 1h-1h-1q-1 0 -1 -0.5t-1 -0.5l-1 -1l-1 -1v-2v1q0 1 -1 1v1v1h-1l-1 -1h-1h-1v-2q-1 0 -1 -2q-1 0 -1 -2l-2 -2l-1 -2q0 -1 -1 -1t-2 -1l-2 1h1l1 1
q1 0 3 2l1 2q0 2 1 3l-1 1v2h-1h-1q-1 0 -1 -0.5t-1 -0.5h-1l-1 -1q-1 -1 -1 -1.5t-1 -1.5v-1q-1 0 -1 -1l-2 -2l-2 -2l-1 -1q-1 0 -1 -1v1l1 1q0 2 2 4q0 2 2 4l1 1l1 1h-1h-2l-1 -1h-1l-1 -1l-1 -1h-2h-1v1v1v-1q-1 0 -1 -1l-1 -1v-1h1q0 -1 -0.5 -1t-0.5 -1l-2 -2
q-1 0 -1 -0.5t-1 -0.5l-1 -1l-1 -1v1l1 1v1q1 0 1 1q0 2 1 2q0 1 1 2q0 1 0.5 1t0.5 1l1 1h-1h-1q-1 0 -2 -1h-1v-1q-1 -1 -1 -2v1v1q-1 0 -1 1v1h-1l-1 -1h-1h-1v-1q-1 -1 -1 -1.5t-1 -1.5l-1 -2q0 -2 -1 -2q0 -2 1 -3q0 -2 2 -2l2 1q0 1 1 2q-1 -1 -1 -2v-2q-1 -1 -1 -2
t-1 -1v1v1l1 1q0 1 1 1l-2 -1l-1 -1v-2l1 -1l1 1l1 1l2 2q0 1 1 2v-1l3 3q0 2 2 2l3 3q0 1 1 1h2q1 0 1 1q-1 0 -1 -1v-2q0 -1 -1 -2v-2q0 -1 1 -2q1 0 3 2q0 1 2 3l2 2v-2q0 -1 0.5 -1t0.5 -1q1 0 2 -1t2 -1l2 2l2 1q0 2 1 2v1v-2q0 -1 1 -1q0 -2 2 -2l2 1q0 1 1 1
q-1 0 -1 -1v-2q0 -1 -0.5 -1t-0.5 -1v-1v1v1v1q0 1 1 1l-1 -1q-1 0 -1 -1v-2v-1l1 1q1 0 1 0.5t1 0.5q0 1 1 2q0 1 1 2h1l1 1q2 2 3 4l1 2v-1q0 -1 1 -2v-3h2h2l3 3h1h2l1 2q1 1 1 1.5t1 1.5l2 2v1h1h2q1 0 1 1q-1 0 -1 -1v-2v-3v-2q0 -1 1 -2q0 2 1 3q2 2 3 4l1 2v-3
q0 -1 1 -2q0 -2 2 -2l1 2l1 1l1 1q-1 -1 -1 -2v-2q0 -1 -0.5 -1.5t-0.5 -1.5v-1v1v2v1q1 0 1 1l-1 -1q-1 -1 -1 -2v-2h1h1q0 1 0.5 1t0.5 1t0.5 1t0.5 1t1 2l2 2q1 1 1 2t1 2t1 4zM723 -163q6 2 8 2l-1 4q-4 0 -8 -2zM738 -158q2 1 8 1l-2 4q-2 -1 -3.5 -1t-3.5 -1z
M754 -154q1 1 2.5 1.5t3.5 1.5l-1 4q-3 -1 -7 -3zM768 -148q2 1 3.5 1.5t3.5 1.5l-2 4q-4 -2 -7 -3zM780 -122q1 0 1 1l1 2l1 2v1h-1v-1q0 -1 -0.5 -1t-0.5 -1v-1q-1 0 -1 -1l-1 2v2v2q1 1 1 2h-1q0 -1 -1 -1l-1 -1q-1 0 -1 -1v-1q0 -1 1 -2q0 -1 -0.5 -1.5t-0.5 -1.5v-1
q0 -1 -0.5 -1.5t-0.5 -1.5t-1 -2v3q-1 1 -1 3l1 2q0 1 1 2h-1h-2v-1l-1 -1v-2q0 -2 -1 -4q0 -2 -1 -3q0 -1 -1 -2v3v4q0 2 0.5 2t0.5 1t1 2h-1h-1q-1 0 -1 -1q-1 0 -1 -0.5t-1 -0.5v-1v-2v-2q-1 0 -1 -1l-1 -1v2q-1 0 -1 2q0 1 0.5 1t0.5 1l1 1h-1l-1 -1h-2l-1 -1v-1
q0 -1 1 -2v-3q-1 0 -1 -2q0 -1 -0.5 -1.5t-0.5 -1.5l-1 -2v1q0 1 -0.5 1t-0.5 1v4q1 1 1 3q0 1 1 2h-1l-1 -1h-1q-1 -1 -1 -2v-2q0 -3 -1 -4q0 -2 -1 -3q0 -1 -1 -2v3v4q1 1 1 4q0 1 1 2h-1h-1q0 -1 -1 -1t-1 -1v-2l-1 -2v-2q-1 0 -1 -1l-1 -1v2v2v2q0 1 1 2h-1l-1 -1h-1
q-1 -1 -2 -1q0 -1 1 -2v-2l-1 -2v-3q-1 -1 -1 -2q-1 0 -1 -1l-1 2v3q0 1 0.5 1.5t0.5 1.5t1 2h-1h-1l-1 -1q-1 0 -1 -1v-3q0 -1 -0.5 -1.5t-0.5 -1.5t-0.5 -1t-0.5 -1l-2 -2v1l1 2v3q0 1 0.5 1.5t0.5 2.5q2 2 1 2t-2 -1h-1l-1 -1v-2q-1 -1 -1 -2v-3v-2q1 -1 1 -3l1 -1l2 2
l1 2l1 2v2v-2l1 -1q0 -1 1 -2h1l1 1q1 1 1 2q1 0 1 2l1 2v1l1 -1l1 -1l1 2q1 0 1 2v-1q1 -1 1 -3t1 -2q0 -1 1 -1l1 1q1 0 1 2q1 1 1 3v2l1 -2v-2q1 0 1 -1t1 -1l2 2q0 1 1 2q0 2 1 3v3l1 -1q1 0 1 -0.5t1 -0.5v2q1 0 1 2l1 -1v-3q0 -1 1 -2q0 -1 2 -1l1 1q0 1 1 2q0 2 1 3
v3v-2v-2q1 -1 1 -2h2l1 2l1 2v3q1 1 1 2l1 -1h1zM782 -141q2 1 4 1t4 1l-2 4q-4 -1 -8 -4zM790 -121q-1 0 -1 -1v-1h1v1v1zM792 149q2 0 4 2q1 1 1 2t1 2v4q1 2 1 3q0 2 0.5 2.5t0.5 1.5v3v1q-1 1 -2 1q-1 1 -2 1t-1 -1q0 -2 -0.5 -3.5t-0.5 -3.5q-1 -3 -1 -7q-1 -1 -1 -3
q-1 0 -1 -0.5t-1 -0.5v1v3v7q0 2 0.5 3t0.5 2l-1 1q0 1 -1 1t-1 0.5t-1 0.5h-1l-1 -1v-3v-4q-1 -1 -1 -2v-1v-5q0 -4 1 -5q2 -2 3 -2v-4v-2q1 0 2 -1h1q1 1 1 2v5zM796 -135q4 1 8 4l-2 3q-2 -1 -4 -1.5t-4 -1.5zM810 -127q2 1 3.5 1.5t3.5 2.5l-2 2q-2 -1 -3.5 -1t-3.5 -2z
M824 -120q2 2 6 4l-2 4q-2 -2 -6 -4zM837 -111q2 2 3.5 2.5t2.5 2.5l-1 2q-3 0 -7 -4zM847 -88v1h1v1l1 2v4v4q0 1 0.5 1t0.5 1v1h-1l-1 -2v-4v-4q-1 -1 -1 -2v1q0 1 -1 2v1v1q0 1 -0.5 1.5t-0.5 1.5v2v2q0 1 0.5 1t0.5 1l-1 -1q-1 0 -1 -1q-1 0 -1 -1v-1v-1v-2v-2v-2
q1 0 1 -1v-1v-1v-2q-1 0 -1 -1v-1l-1 2l-1 2v3v3v2v2v-1q-1 0 -1 -1q-1 0 -1 -1q-1 0 -1 -1v-1v-3v-1v-1v-2v-2q-1 -1 -1 -2v-1h-2q-1 0 -2 1q0 2 1 4v2q0 1 1 2v3l-1 -1h-1q0 -1 -1 -1q0 -1 -1 -2v-2v-3l-1 2h-1v1v1h-1l-1 -1q-1 0 -1 -1h-1q0 -1 2 -3v-3q0 -1 -0.5 -1.5
t-0.5 -1.5v-3h-1v4v3v3q-1 0 -2 1q-1 -1 -2 -1.5t-2 -1.5q0 -1 -0.5 -1.5t-0.5 -1.5q0 -2 0.5 -2.5t0.5 -1.5l2 -2h2q-1 0 -1 -1v-2q-1 0 -2 -1l-1 2q0 1 -0.5 1.5t-0.5 2.5v3v2l1 1h-1h-1l-1 -1q-1 -1 -1 -2v-2v-2v-1q0 -1 -0.5 -1.5t-0.5 -1.5t-0.5 -1t-0.5 -1t-1 -2
q0 -2 -1 -2h-1q-1 0 -1 1l-2 2q0 2 1 3q0 2 2 2q1 0 1 -1v-1h1v1v2q0 1 -1 2q0 1 -1 1h-1l-1 -1q-1 0 -1 -1v-1q-1 0 -1 -1t-0.5 -1.5t-0.5 -1.5v-1v-1v-2q-1 -1 -1 -3l-1 -2v-1v3q-1 1 -1 4v3v3q0 2 0.5 2.5t0.5 1.5v2q-1 -1 -2 -1l-1 -1q0 -1 -1 -1v-2v-2v-2v-2l-1 1
q0 1 -1 1t-1 -1h-1q0 -1 -1 -1v-1v-3v-3q0 -2 1 -3q0 -2 1 -2q1 -1 3 -1v1q1 1 1 2q1 0 1 1v1l1 -1q1 -1 2 -1v3l2 4v1l2 -2q1 -1 4 -1l1 2q0 1 0.5 1.5t0.5 1.5t0.5 1.5t0.5 1.5l1 2v-1q0 -1 1 -2q1 0 2 -1l2 -1q1 0 1 1l1 1t1 2t1 2h2v3q0 1 0.5 1.5t0.5 2.5v2q1 0 3 -2
v-3q0 -1 1 -1l1 -1v2v2h2q1 -1 3 -1v4q1 1 1 4h1q0 -2 2 -2q0 -1 1 -1t1 2l1 1v-1q0 -1 0.5 -1t0.5 -1v-3l-1 1v1v1v1l-1 -1v-2q0 -1 1 -1q0 -1 1 -1l1 1v2v3zM850 -102q2 1 6 5l-2 3q-1 -1 -7 -5zM860 -77l-1 1h-1q0 -1 -1 -1v-1l1 -1h1l1 1v1zM862 -92q2 1 3.5 2t3.5 3
l-3 2q-2 -2 -3 -2t-3 -2zM875 -83q2 2 2.5 3t2.5 3l-2 3l-6 -6zM886 -72q2 2 3.5 2.5t3.5 2.5l-3 3q-4 -4 -6 -5zM896 -44v3v5q-1 1 -1 3v3q-1 0 -1 -1v-1v-2v-2v-2v-3v-1v1q0 1 -0.5 1t-0.5 1t-0.5 1.5t-0.5 2.5q-1 1 -1 3q-1 1 0 2l-2 -1l-1 -2q0 -1 -0.5 -1t-0.5 -1
t-0.5 -1t-0.5 -1v-1v2v2l-1 -1l-2 -2q0 -1 -0.5 -1.5t-0.5 -1.5t-0.5 -1t-0.5 -1v-1v2v2l-1 -1q-1 -1 -1 -2q-1 0 -1 -1v-2q1 -1 1 -2l1 -1v-2v-2q0 -2 -1 -3h-1v4v2q0 2 -1 2q-1 1 -2 1q-3 -3 -3 -4q-1 -1 -1 -2q1 -1 1 -1.5t1 -1.5q0 -2 3 -2h1v-1q0 -1 -1 -2l-1 -2l-2 2
q0 1 -0.5 1.5t-0.5 2.5q-1 1 -1 3v3l-1 -1h-1l-1 -1v-1v-2q0 -1 0.5 -1.5t0.5 -1.5v-1v-3q-1 -1 -1 -3v-2q0 -1 -1 -2h-3q-1 1 -2 3v3q0 3 2 3h1v-1q1 0 1 -1l1 1q0 1 -1 2q0 1 -0.5 1t-0.5 1q-1 0 -1 0.5t-1 0.5l-1 -1l-1 -1l-1 -1v-1v-2v-3v-2q0 -2 1 -2t1.5 -0.5
t1.5 -0.5h4l1 2v3q0 1 0.5 1.5t0.5 1.5v3v-1l2 -2q1 -1 2 -1q1 -1 2 -1t1 1t1 2v4h1q1 0 1 0.5t1 0.5v3v3q0 -1 1 -1q0 -2 2 -2q0 -1 1 -1h1q-1 0 -1 1q-1 1 -1 2l-1 2q-1 1 -1 2q0 2 1 3v2l1 1v-1q0 -2 1 -2q0 -1 0.5 -1.5t0.5 -1.5l2 -2h3l-1 1q-1 0 -1 1q-1 0 -1 1v2
q-1 0 -1 2v3q1 1 1 2v1q-1 0 2 -3q0 -1 2 -3l1 -2h3zM903 -55l-3 2q-2 -1 -4 -5l1 -3zM900 -32q2 2 2 2.5t2 2.5l-1 1l-5 -5zM909 -50q4 4 5 6l-2 3q-2 -2 -3 -3.5t-3 -3.5zM921 -4q-2 -2 -2.5 -3t-2.5 -3l1 -2q2 3 6 7zM919 -38q4 4 6 5l-4 3q-2 -3 -5 -5zM931 9
q-2 -2 -3 -3.5t-2 -3.5h2q3 3 3 5v2zM930 -26q2 4 4 6l-3 3q-1 -2 -2 -3.5t-2 -3.5zM939 21q-3 -3 -5 -6l2 -1q3 5 5 6zM939 -14q2 2 2.5 3.5t2.5 3.5l-3 2q-4 -4 -5 -7zM945 27q2 3 4 7l-1 1q-1 -1 -5 -7zM949 0q0 1 4 5l-4 3q0 -3 -3 -6zM953 40q1 4 4 8l-2 1l-2 -4l-2 -4
zM957 12q4 6 5 7l-4 2q-1 -2 -2 -3t-2 -3zM966 26q0 2 1 3.5t2 3.5l-3 2q-2 -5 -4 -7zM973 39q1 2 2 3.5t2 3.5l-4 2q-2 -4 -4 -7zM981 54q1 1 1.5 2.5t1.5 3.5l-3 2q-2 -2 -2.5 -3.5t-1.5 -3.5zM990 74l-4 2q-2 -4 -2 -6l3 -2zM994 82q1 2 1.5 4t1.5 4h-4q-1 -1 -1.5 -2.5
t-1.5 -3.5zM1000 97q1 2 1 3.5t1 3.5l-3 2q-1 -2 -1.5 -4t-1.5 -4zM1004 111q2 6 3 8l-4 1q-1 -2 -1 -3.5t-1 -3.5zM1009 126q2 6 2 8l-4 1q0 -2 -2 -8zM1014 142q0 1 2 7l-4 1q-2 -6 -2 -7zM1017 157q2 6 2 7l-4 1q0 -1 -2 -7zM1020 173q0 2 0.5 3.5t0.5 3.5h-3
q0 -2 -0.5 -3.5t-0.5 -3.5h3zM1023 188q0 5 1 8h-4q-1 -2 -1 -7zM1025 203q0 6 1 9h-5v-8zM1026 219q1 3 1 8h-4q0 -2 -0.5 -4t-0.5 -4h4zM1027 235q1 2 1 8h-4q0 -2 -0.5 -4t-0.5 -4h4zM1028 250v6h-4v-6h4z" />
    <glyph glyph-name="D" unicode="D" horiz-adv-x="616" 
d="M265 696q33 12 76.5 16.5t87 -6t81.5 -40.5t58 -86.5t17 -143.5t-40 -213q-26 -88 -67.5 -152.5t-90.5 -107t-102.5 -63t-103.5 -21.5t-94 17.5t-74.5 55t-43.5 90t-2 123.5q5 6 15.5 13.5t22.5 14.5t23 12t17 6q-11 -45 -12.5 -82t4.5 -67q9 66 29 145.5t49 163.5
t67 167.5t83 157.5zM471 234q33 118 33.5 200.5t-21.5 132t-62.5 66.5t-89.5 3q-44 -77 -83.5 -162t-71.5 -171t-56 -171t-37 -162q37 -35 92 -36t111 32t106.5 100t78.5 168z" />
    <glyph glyph-name="E" unicode="E" horiz-adv-x="560" 
d="M569 257q7 12 15.5 15.5t15 1t9 -10t-2.5 -18.5q-17 -37 -43 -80.5t-59 -87t-72.5 -82.5t-84.5 -66.5t-94 -41t-100 -4.5q-71 12 -107 51t-43 90.5t11.5 109.5t55.5 106.5t89.5 81.5t113.5 36q-39 25 -57 65.5t-16.5 85t21 87.5t55.5 73t87 41.5t116 -6.5
q42 -12 64.5 -40.5t28.5 -63.5t-4 -70.5t-33.5 -62t-59.5 -38t-83 2.5q0 6 3 18t7.5 25.5t10.5 26.5t13 19q33 -12 55 0.5t28 34.5t-7.5 46.5t-50.5 37.5q-36 12 -67 2t-53 -34t-34 -57t-10.5 -66t17 -61.5t48.5 -43.5q6 -7 9 -20.5t4 -28.5t-0.5 -29t-5.5 -21
q-58 11 -108.5 -6.5t-87.5 -51t-59.5 -77.5t-24.5 -85.5t17.5 -74.5t66.5 -46q46 -13 89.5 -1.5t84 37.5t76 63.5t65.5 77t53 76.5t38 64z" />
    <glyph glyph-name="F" unicode="F" horiz-adv-x="501" 
d="M596 716q7 -6 15.5 -21.5t15 -33t11 -34t3.5 -23.5q-24 4 -58 6t-74 -0.5t-84.5 -11t-88.5 -24.5q-11 -103 -34.5 -204.5t-52.5 -191.5q51 -2 96 4t73 17q-7 -49 -55.5 -71t-136.5 -17q-32 -85 -64 -144.5t-61 -84.5q-4 -1 -11.5 -0.5t-16.5 5.5q-29 19 -48.5 68
t-25.5 116t3.5 144.5t39 153t80 142.5t127.5 112q2 13 2.5 25t1.5 25q10 8 23.5 12.5t26.5 6t24 0.5t17 -4q-1 -5 -1 -11v-11q52 20 114.5 32.5t138.5 17.5zM176 186q20 78 35.5 162.5t26.5 169.5q-50 -40 -86 -93.5t-58.5 -111.5t-33.5 -116.5t-11.5 -110t9 -91.5t26.5 -60
q41 78 73 184q-20 3 -41.5 7.5l-44.5 9.5l5.5 16t8 20t9 18.5t8.5 12.5q18 -6 36.5 -10t37.5 -7z" />
    <glyph glyph-name="G" unicode="G" horiz-adv-x="593" 
d="M599 244q7 16 15 22t14 4t7.5 -11.5t-4.5 -24.5q-42 -106 -96 -169.5t-105 -89.5q-3 -8 -3 -10q-25 -81 -54 -129.5t-58 -71.5t-55.5 -25.5t-46.5 8.5t-32 31.5t-10 43.5q2 30 22 55t47.5 45.5t59.5 35.5t58 26q2 4 2.5 7.5t2.5 7.5q1 3 3 11t6 21q-50 -58 -103 -83.5
t-101.5 -22t-87.5 33.5t-60 84.5t-20 131.5t33 174q27 81 77 155t113 126.5t134.5 74.5t141.5 -2q29 -10 48 -30t29 -46.5t11.5 -58t-3.5 -63.5q7 -8 12.5 -16t8.5 -17q-17 -37 -38.5 -95.5l-43.5 -122l-42.5 -124t-33.5 -102.5q50 36 86.5 93.5t65.5 122.5zM117 341
q-41 -102 -42.5 -177t24 -118t71 -52t96.5 21t101.5 101.5t86.5 189.5q-19 -8 -39.5 -10t-43.5 5q0 6 3 19.5t8 29.5t11 30t13 20q24 -9 45 2.5t36.5 34.5t23.5 53t6 59t-16 52t-42 33q-42 14 -90.5 -5t-95.5 -61t-88 -101.5t-68 -125.5zM233 -155q1 -11 10 -21t24 -5
t34.5 31t41.5 87q-21 -9 -41.5 -20t-36 -22.5t-24.5 -24t-8 -25.5z" />
    <glyph glyph-name="H" unicode="H" horiz-adv-x="586" 
d="M485 205q8 -6 16 -18.5t14 -27.5t10 -29t3 -21q-21 5 -41 9l-40 8q-11 -57 -18.5 -114t-9.5 -115q-4 -8 -10 -11t-12 -3t-11.5 2t-7.5 4q-11 33 -9 97.5t15 147.5q-60 7 -109 5t-88 -10q-33 -91 -68 -157t-65 -92q-2 -2 -15 3q-33 13 -52.5 48.5t-13.5 79t42 87.5t114 74
q32 118 51.5 247.5t27.5 254.5q10 8 23 12.5t26 6t24 0.5t17 -4q-4 -125 -29 -253.5t-60 -240.5q39 8 86 12t103 3q13 63 32 130t43.5 132.5t54.5 127.5t65 116q7 0 17 -5t20.5 -13t19 -19t12.5 -23q-68 -103 -117 -215.5t-80 -233.5q5 -1 10 -1t10 -1zM35 -70
q21 38 39.5 81.5t34.5 91.5q-39 -18 -61.5 -42.5t-30.5 -48.5t-3 -46t21 -36z" />
    <glyph glyph-name="I" unicode="I" horiz-adv-x="193" 
d="M230 715q7 -1 16 -7.5t18.5 -16.5t17.5 -22.5t12 -24.5q-54 -101 -97 -202.5t-74 -198t-49.5 -185t-24.5 -164.5q-3 -8 -9 -11t-12.5 -3t-12 2t-7.5 4q-9 29 -8 81.5t11.5 120t29.5 146.5t47 161t63.5 164t78.5 156z" />
    <glyph glyph-name="J" unicode="J" horiz-adv-x="433" 
d="M600 695q7 -7 13 -23t10.5 -34.5t6.5 -35.5t1 -24q-48 23 -96 36.5t-94 19.5q0 -9 -4.5 -48.5t-14 -96.5t-23.5 -126.5t-33 -140t-44.5 -136t-56.5 -114t-68.5 -75t-82.5 -19.5q-49 8 -75.5 38.5t-34.5 72.5t0.5 91.5t31.5 96.5t57.5 86.5t77.5 61.5q4 -5 8.5 -21.5
t8 -35.5t5 -36.5t-0.5 -24.5q-38 -20 -64.5 -47t-42 -56t-20.5 -58.5t-0.5 -53.5t18 -41t35.5 -21q26 -6 53.5 23t53 82t48 125t38.5 152.5t25 165t7 162.5q-54 0 -98 -8t-72 -18t-37.5 -21t5.5 -17q4 -11 7 -26.5t2 -27.5q-53 8 -74 30t-12 48.5t48 52t106.5 42t163 19
t218.5 -18.5z" />
    <glyph glyph-name="K" unicode="K" horiz-adv-x="426" 
d="M577 619q-41 -80 -85 -139.5t-88.5 -104.5t-87.5 -78.5t-83 -61.5q35 -76 72 -137.5t71.5 -105.5t64.5 -67.5t52 -23.5q-30 -24 -65.5 -20t-74.5 37.5t-80.5 97.5t-84.5 161q-18 -54 -37.5 -102t-39 -86.5t-38.5 -66.5t-36 -43q-9 2 -18.5 8t-13.5 17q-17 46 -13.5 90
t21.5 85.5t48.5 80.5t68.5 77q24 106 39 217t23 219q10 8 23 12.5t26 6t24 0.5t17 -4q-2 -89 -16 -179.5t-35 -177.5l92 84t87 90t73.5 99.5t50.5 111.5q8 -6 16 -19t14 -27.5t10 -28.5t3 -22zM22 -65q24 44 44.5 95t37.5 108q-39 -37 -61.5 -84t-20.5 -119z" />
    <glyph glyph-name="L" unicode="L" horiz-adv-x="265" 
d="M100 4q39 -14 83.5 -27.5t88 -21.5t84 -7.5t73.5 15.5q-3 -20 -16.5 -40t-36 -33.5t-53.5 -18t-67 6.5q-19 6 -42 15.5t-47 20.5l-49 22.5l-49 22.5q-27 -36 -56 -55t-61 -15t-51 19.5t-26 35.5t-3 41t18.5 36.5t38.5 23t56 -0.5q11 -3 25.5 -7.5t31.5 -10.5
q29 60 56 147t48.5 181t36 183.5t18.5 155.5q10 9 23 13.5t26 6t24 0t17 -4.5q-1 -39 -8 -92.5t-19 -116t-28.5 -130t-37.5 -133t-45.5 -125.5t-52.5 -107zM-40 -61q14 -2 28 9.5t28 31.5q-24 8 -42.5 11.5t-29.5 -1.5t-15 -13t-2 -16.5t10.5 -14.5t22.5 -7z" />
    <glyph glyph-name="M" unicode="M" horiz-adv-x="658" 
d="M695 714q7 0 17 -5t20 -13t18.5 -19t12.5 -23q-49 -91 -91 -192.5t-74.5 -202.5t-53 -195t-26.5 -169q-3 -8 -10 -12t-14 -5t-13.5 0.5t-8.5 3.5q-6 19 -6.5 51t4 73t13 89t19.5 100q-54 -78 -117 -144t-135 -117q-14 60 -9.5 144t22.5 176q-43 -73 -95 -136.5
t-106 -116.5t-108 -94.5t-102.5 -71t-88 -46t-64.5 -19.5q-9 5 -12 21.5t6 23.5q75 27 145 78t133.5 116.5t119 140t103 149t85.5 143l65.5 121.5l44 85.5t20.5 34.5q7 0 17 -5t20 -13.5t19 -19.5t13 -23q-39 -71 -69 -140.5t-52.5 -139.5t-37.5 -142t-23 -147q42 32 82 81
t77.5 107.5t71.5 122.5l64 126l29.5 66.5l34 73.5l28 59.5t12.5 24.5z" />
    <glyph glyph-name="N" unicode="N" horiz-adv-x="517" 
d="M569 716q7 0 17 -5t20.5 -13t19 -19t12.5 -23q-111 -168 -172 -362t-71 -397q-4 -8 -10 -11.5t-12.5 -3.5t-11.5 2.5t-7 4.5q-30 29 -56.5 73t-49.5 99.5t-42 120t-32 135.5q-19 -78 -42.5 -149t-48.5 -128.5t-50.5 -99t-47.5 -60.5q-1 -1 -6 0.5t-11 5t-10.5 9
t-3.5 14.5q41 67 72 154t53 185t35.5 202.5t19.5 206.5q10 9 23.5 13.5t26.5 6t24 0t17 -4.5q0 -32 2.5 -81.5t8 -108.5t15 -125t23 -131.5t31.5 -127.5t40 -113q1 45 8.5 101.5t20.5 120t31.5 130.5t43 133.5t54.5 129t66 116.5z" />
    <glyph glyph-name="O" unicode="O" horiz-adv-x="552" 
d="M382 710q52 -12 83 -56.5t43.5 -109t8 -142t-24 -155t-52 -149t-76 -124t-96.5 -78.5t-113 -14q-62 13 -97.5 58.5t-49 110t-6.5 142t29.5 155t59 148.5t82.5 123t99.5 78t109.5 13zM166 -62q41 -11 79 10.5t70.5 65.5t58.5 104.5t43.5 127t24.5 132.5t2 120.5t-24 93
t-53 48.5q-37 11 -74.5 -11t-71.5 -65.5t-63.5 -103.5t-49.5 -125.5t-29.5 -131.5t-4.5 -121t27 -93.5t65 -50.5z" />
    <glyph glyph-name="P" unicode="P" horiz-adv-x="598" 
d="M339 699q70 24 123 11t87 -51t49.5 -93.5t10.5 -117t-30.5 -121.5t-72 -106t-115.5 -72.5t-161 -19.5q-34 -97 -70 -160t-67 -89q-7 -4 -15 -2t-14 7q-27 21 -43.5 72t-20 120t8 149t41 158.5t77.5 148t119 118.5q1 11 1.5 21.5t1.5 21.5q10 8 23.5 12.5t26.5 6t24 0.5
t17 -4q0 -7 -1 -10zM78 -53q31 57 56 127.5t45 149.5t34.5 163.5t23.5 169.5q-47 -41 -80.5 -95.5t-54.5 -113.5t-31.5 -119.5t-12.5 -114.5t3.5 -97.5t16.5 -69.5zM249 196q62 -6 111 14t84 55t55.5 80.5t27 92t-2.5 88.5t-32.5 69.5t-63 35.5t-94.5 -13
q-11 -111 -32 -217.5t-53 -204.5z" />
    <glyph glyph-name="Q" unicode="Q" horiz-adv-x="557" 
d="M405 34q23 -50 50.5 -90t50.5 -60q-38 -11 -75 11.5t-70 77.5q-43 -51 -95 -76t-111 -13q-62 13 -98 58.5t-49 110t-6 142t30.5 155t60 148.5t82.5 122.5t99.5 77.5t109.5 13q48 -11 78 -49.5t44 -94.5t13 -125t-14.5 -140.5t-39 -141t-60.5 -126.5zM167 -61
q45 -13 86.5 14.5t76.5 81.5q-25 60 -41 137q1 5 10 8t20 4.5t22.5 1t16.5 -1.5q2 -17 6 -34.5t9 -34.5q22 49 38.5 105t25.5 111.5t10.5 107.5t-6 93.5t-25 69.5t-46.5 36q-37 10 -75 -12t-72.5 -65.5t-64 -103.5t-50 -125t-30 -130t-4 -119.5t27.5 -93t65 -50.5z" />
    <glyph glyph-name="R" unicode="R" horiz-adv-x="597" 
d="M311 129q49 -57 96.5 -98.5t89 -67t74.5 -35.5t53 -4q-24 -32 -63 -41t-89.5 11t-111 72.5t-128.5 142.5q-33 -92 -68 -150t-66 -84q-4 -1 -12 1.5t-14 9.5q-29 21 -48.5 77.5t-23.5 131.5t8.5 161t46 167.5t90.5 150.5t141 110q73 34 130.5 31t99 -31.5t65 -76.5
t28 -105t-10.5 -117t-51.5 -112.5t-95 -91t-140.5 -52.5zM260 196q62 -1 110 20.5t81.5 57t53 80t25 89.5t-4 86t-32.5 69t-61 38.5t-90 -5.5q-8 -115 -29 -224.5t-53 -210.5zM83 -58q33 61 60 135t47 156t34.5 170t22.5 177q-52 -43 -88 -99.5t-58.5 -119t-32.5 -126.5
t-11 -120.5t6 -102t20 -70.5z" />
    <glyph glyph-name="S" unicode="S" horiz-adv-x="584" 
d="M545 685q36 -23 53.5 -55.5t17 -66t-19.5 -62.5t-55 -44q20 45 12 85t-36 66.5t-71 35t-93 -8t-101.5 -63t-96.5 -130.5q53 51 107 73.5t102 20.5t85.5 -27t59 -69.5t23 -106t-24.5 -136.5q-32 -93 -77 -157.5t-95 -102.5t-101 -51.5t-95.5 -4.5t-78.5 38.5t-49 77
t-8 112t45 142.5q25 5 55.5 6.5t46.5 0.5q-54 -102 -64 -173.5t10 -110.5t62 -44.5t91.5 24.5t98.5 96t83 170q22 69 20.5 117.5t-20.5 77.5t-52 38t-74 -1t-86.5 -39.5t-88.5 -77.5q-8 4 -17.5 16.5t-17 27.5t-12 30.5t-4.5 26.5q30 77 81.5 138.5t115 97.5t133.5 41.5
t136 -28.5z" />
    <glyph glyph-name="T" unicode="T" horiz-adv-x="308" 
d="M609 709q7 -6 15 -18.5t14.5 -27.5t10.5 -29t3 -21q-69 17 -135 23.5t-122 6.5q2 -5 4 -9t4 -9q-49 -90 -90 -187.5t-71.5 -193.5t-50 -186t-25.5 -165q-4 -8 -10 -11.5t-12 -3.5t-11.5 2.5t-7.5 4.5q-9 27 -8 74.5t9.5 108t25 131.5t39.5 145.5t52 149t64 142.5
q-71 -11 -120 -29.5t-79 -39.5t-43.5 -43.5t-15 -41.5t8 -33t25.5 -18q5 -10 9.5 -25.5t6.5 -26.5q-46 3 -73.5 32.5t-27.5 71t31.5 87.5t103.5 81.5t188.5 53.5t287.5 4z" />
    <glyph glyph-name="U" unicode="U" horiz-adv-x="523" 
d="M643 646q-55 -83 -101.5 -175.5t-80 -189t-51.5 -194t-16 -191.5q-4 -8 -10 -11.5t-12 -3.5t-11.5 2.5t-7.5 4.5q-17 53 -12 144q-46 -75 -97.5 -114t-101.5 -40q-53 1 -86.5 38.5t-47 101t-6 147.5t36.5 176.5t80.5 188.5t126.5 184q7 -4 18 -12.5t22 -19.5t20 -23.5
t12 -25.5q-66 -78 -113 -158.5t-77 -155.5t-43.5 -141.5t-11.5 -117.5t18 -83t46 -38q26 -6 57 8.5t61.5 48t58 85t48.5 118.5q12 64 31.5 131.5t45.5 134.5t58.5 130.5t70.5 119.5q7 0 18 -6t22 -16t21 -22t14 -25z" />
    <glyph glyph-name="V" unicode="V" horiz-adv-x="545" 
d="M658 710q-6 -47 -39 -77t-78 -41q-4 -92 -19.5 -182t-41 -171.5t-60.5 -150.5t-77.5 -118t-92 -75t-103.5 -21q-55 5 -90 43.5t-48.5 100t-5 142.5t39.5 172t85 187.5t132 189.5q7 -4 18 -12.5t22 -19.5t20 -23.5t11 -25.5q-69 -79 -119 -158.5t-82 -153.5t-46.5 -139.5
t-12 -116.5t21.5 -84t54 -42q56 -10 106.5 35.5t91 134t69 213.5t39.5 274q-18 5 -35.5 11.5t-33.5 17.5q-11 42 6.5 65t45.5 28t57.5 -6.5t42.5 -38.5q34 5 64.5 18z" />
    <glyph glyph-name="W" unicode="W" horiz-adv-x="763" 
d="M751 668q33 5 64 18l58 24q-6 -46 -38 -76.5t-77 -41.5q-4 -92 -19.5 -182t-41 -171.5t-60.5 -150.5t-77.5 -118t-92 -75t-103.5 -21q-26 2 -47.5 12t-38.5 26q-31 -21 -63.5 -31t-67.5 -7q-55 5 -90 43.5t-49 100t-5.5 142.5t39.5 172t85 187.5t132 189.5q7 -4 18 -12.5
t22 -19.5t20 -23.5t12 -25.5q-69 -79 -119 -158.5t-82.5 -153.5t-47 -139.5t-12 -116.5t21.5 -84t54 -42q51 -9 97 28q-27 57 -29 132t23.5 163.5t80.5 187t142 202.5q7 -4 18 -12.5t22 -19.5t20 -23.5t12 -24.5q-5 -200 -57 -357t-149 -257q16 -15 36 -19q56 -10 107 35.5
t91.5 134t69 213.5t39.5 274q-38 8 -71 29q-11 42 6.5 65t45.5 28t58 -6.5t43 -38.5zM442 491q-48 -72 -80.5 -141t-51 -131t-22.5 -114.5t5 -90.5q53 72 91.5 194.5t57.5 282.5z" />
    <glyph glyph-name="X" unicode="X" horiz-adv-x="436" 
d="M304 155q26 -69 57 -132t67 -118q1 -9 -2.5 -14.5t-9 -9t-11 -4.5t-8.5 -1q-32 28 -68.5 82.5t-71.5 126.5q-84 -121 -157.5 -197t-134.5 -120q-2 2 -3 11t-1.5 21t0 24t3.5 20q65 57 129.5 144.5t124.5 184.5q-38 95 -67 201.5t-40 212.5q-23 -30 -44 -62t-36 -62.5
t-21 -56.5t1 -44q-26 18 -33.5 51.5t3.5 78.5t42.5 100t83.5 118h1q6 3 18.5 4t27.5 -1.5t29.5 -7.5t24.5 -13q-2 -105 13.5 -215.5t47.5 -217.5l92 165.5l75 143.5l51.5 102.5t22.5 41.5q5 -5 11.5 -16t12.5 -25t9.5 -29t3.5 -28q-64 -142 -125 -255t-118 -204z" />
    <glyph glyph-name="Y" unicode="Y" horiz-adv-x="564" 
d="M571 246q7 16 15 22t14 3.5t8 -12t-4 -24.5q-43 -105 -95.5 -163.5t-104.5 -83.5q-4 -11 -6 -17.5t-3 -8.5q-27 -76 -57 -123t-59.5 -70t-56 -26.5t-46.5 6.5t-31.5 29t-9.5 42q2 30 23 57t51 49t63.5 40t60.5 30q1 2 1 2.5t1 2.5q0 2 2 8t4 15q-45 -45 -95.5 -69
t-102.5 -18q-55 5 -89.5 39t-47.5 89.5t-3.5 129t41.5 158.5t86.5 177t132.5 185l18 -13.5t22 -19.5t20 -23.5t11 -24.5q-104 -119 -164.5 -227.5t-82 -193.5t-4.5 -141t69 -70q32 -7 66 3t66.5 37t62 71t53.5 104l43 136.5l44 135.5l38.5 113.5t28.5 72.5q7 0 17 -5
t20.5 -13t19 -19t12.5 -23q-11 -25 -27 -67l-34.5 -93l-38 -108l-38 -113l-35.5 -106l-29 -88q50 35 85.5 88t64.5 118zM201 -159q0 -12 9.5 -22t25.5 -4t37.5 35.5t44.5 97.5q-22 -11 -43 -24t-37.5 -26.5t-26.5 -28t-10 -28.5z" />
    <glyph glyph-name="Z" unicode="Z" horiz-adv-x="302" 
d="M556 630q-70 -61 -144 -140.5t-140.5 -168t-120 -182t-83.5 -182.5q46 -8 103.5 -9t113 2t101 10t67.5 16q-5 -32 -46.5 -54.5t-104.5 -33.5t-141.5 -8.5t-157.5 21.5q-1 1 -3 8q-1 33 13.5 82.5t41 108.5t63 125t80.5 133t93 131.5t101 120.5q-96 -1 -156 28t-67 75
q24 -9 64 -15t86.5 -6.5t94 5t88.5 18.5q0 1 1 1h1l1 -1q7 -4 15.5 -13t16.5 -21t13.5 -25.5t5.5 -25.5z" />
    <glyph glyph-name="OE" unicode="&#x152;" horiz-adv-x="894" 
d="M904 254q7 12 15.5 15.5t15 1t9 -10t-2.5 -18.5q-17 -37 -42.5 -80.5t-57.5 -86.5t-70.5 -82.5t-82.5 -67t-92.5 -40.5t-99.5 -4q-54 9 -82 37.5t-38 68.5q-22 -29 -47 -52t-52.5 -37t-57.5 -19t-62 2q-62 13 -98 58t-49.5 109.5t-7 142t29.5 155.5t59 149t82 122.5
t99 78t109 13.5q47 -11 77 -49t45 -93t15 -123t-12 -139q23 20 49 33.5t53 16.5q-39 25 -57 65.5t-16.5 85.5t21 88t55.5 73t87 41t116 -7q42 -12 64.5 -40.5t28.5 -63t-4 -70.5t-33.5 -62.5t-59.5 -38t-83 2.5q0 6 1 15.5t3.5 20t7 20.5t11.5 16q36 -13 60.5 2.5t32 42
t-5 54t-50.5 38.5q-44 13 -79.5 2.5t-60 -34.5t-36.5 -57t-9.5 -66.5t21 -62t55.5 -42.5q11 -14 12 -38t-7 -40q-45 5 -85.5 -16.5t-72.5 -58.5t-53 -82.5t-25 -87.5t10.5 -75t52.5 -44q46 -13 89 -2t81.5 37.5t73 64t63 77t50.5 77zM174 -64q41 -11 78 11t69 66.5t57 105
t41 127t22.5 132.5t1 120.5t-24 91.5t-52.5 45q-37 9 -74.5 -13.5t-71 -66t-62 -103.5t-48 -124.5t-28 -129.5t-2.5 -119.5t28.5 -92.5t65.5 -50z" />
    <glyph glyph-name="AE" unicode="&#xc6;" horiz-adv-x="871" 
d="M886 256q7 12 15.5 15.5t15 1t9 -10t-2.5 -18.5q-17 -37 -43 -81t-59 -87.5t-72.5 -83t-84 -67.5t-93.5 -42t-100 -5q-36 6 -62.5 19t-44.5 32q-1 -9 -1.5 -18t-0.5 -18q-4 -8 -10 -11t-12.5 -3t-12 2t-7.5 4q-39 66 -91.5 97.5t-110.5 38.5q-64 -68 -120 -115
t-105.5 -76.5t-91.5 -43t-78 -14.5q-47 0 -56.5 21.5t8.5 54t59.5 70.5t97 70.5t121 54.5t131.5 23q56 69 113 149.5l114 164.5l113.5 169l111.5 164q11 -2 30 -14t31 -31q36 27 85 36.5t111 -7.5q42 -12 64.5 -40.5t28.5 -63t-3.5 -70.5t-33 -62.5t-60 -38t-82.5 2.5
q0 6 1 15.5t3.5 20t6.5 20.5t11 16q36 -13 59.5 2t30.5 41t-6.5 54t-50.5 40q-45 14 -80 4.5t-59 -33.5t-35.5 -57.5t-8 -67.5t22.5 -63t56 -43q11 -14 11.5 -38t-7.5 -40q-55 7 -103 -13.5t-84 -56t-57 -81t-22.5 -88t20 -76t71.5 -45.5q46 -12 89.5 0t83 39t74 64
t63.5 76.5t51.5 76.5t37.5 64zM513 491q-49 -101 -82 -206q33 29 72 46.5t84 19.5q-37 24 -55 61t-19 79zM-267 -199q35 0 73 16.5t77.5 45.5t80.5 69.5t83 89.5q-53 -5 -104.5 -23t-95.5 -42.5t-77.5 -52t-51 -50t-15 -38t29.5 -15.5zM320 79q7 58 20.5 124t33.5 135
q-60 -84 -114.5 -152.5t-105.5 -125.5q43 -9 83 -31.5t75 -62.5q0 24 1.5 51.5t5.5 58.5q0 1 0.5 1.5t0.5 1.5z" />
    <glyph glyph-name="Ccedilla" unicode="&#xc7;" horiz-adv-x="553" 
d="M562 254q7 12 15.5 16t15 1.5t9 -10.5t-2.5 -19q-16 -35 -40.5 -77t-55.5 -84t-68 -81t-78.5 -67.5t-86.5 -43.5t-93 -10q-4 -8 -5 -13q15 -9 16 -27t-7.5 -34.5t-25.5 -26.5t-39 -1q-14 6 -19.5 16.5t-5 22.5t5.5 22.5t11 15.5q8 2 17 -6.5t8 -14.5q-7 -2 -10 -12.5
t4 -15.5q10 -5 18 0.5t11 15.5t-1 21t-20 17q1 5 3.5 12l5.5 15q-65 18 -98.5 67.5t-42.5 117.5t5.5 147.5t45.5 157.5t77 147t101 116.5t116.5 66t123.5 -5.5q45 -17 65 -56t18.5 -86t-20.5 -96t-50.5 -86t-73.5 -55.5t-89 -4.5q0 6 2.5 19.5t7 29t10.5 30t12 20.5
q24 -9 47.5 1.5t42.5 32t31.5 50t14 56t-10 50.5t-39.5 33q-35 13 -75 -6.5t-79.5 -60.5t-76.5 -98.5t-65 -121.5t-45 -128.5t-17.5 -120.5t18 -97t61.5 -58q44 -17 87 -8.5t82.5 34t75 63t65.5 77t53 77.5z" />
    <glyph glyph-name="b" unicode="b" horiz-adv-x="317" 
d="M324 249q6 13 14.5 17.5t14 2t6.5 -12t-6 -25.5q-20 -43 -49.5 -66t-61.5 -29q-10 -30 -25.5 -57t-36.5 -46t-46.5 -28t-53.5 -3q-34 7 -57 32l-3 -21q-3 -8 -9 -11t-12.5 -3t-12 2t-7.5 4q-9 29 -7 73.5t11.5 97t25 111t34 116t38 110.5l36.5 96q7 0 17 -5t20 -13
t19 -19t13 -24q-19 -42 -39 -92.5t-39 -104.5q27 9 59 3q28 -6 46.5 -22.5t28.5 -40t12 -52t-2 -58.5q20 7 38.5 23.5t33.5 44.5zM186 189q2 20 0 38.5t-9 31.5q-9 -24 -5.5 -41.5t14.5 -28.5zM88 58q14 -4 27 1.5t24.5 17.5t20.5 29t15 37q-33 14 -50.5 48t-3.5 85
q-17 -7 -31 -24.5t-23.5 -40t-13.5 -47.5t-2 -47t11 -38t26 -21z" />
    <glyph glyph-name="c" unicode="c" horiz-adv-x="247" 
d="M255 245q7 13 15.5 19t14.5 4.5t8 -10t-4 -24.5q-32 -78 -73 -129.5t-82 -77.5t-77.5 -27t-60 21.5t-29.5 68.5t15 115q18 59 44 93.5t53 48.5t52 9.5t40.5 -24.5t18.5 -53t-13 -76q-8 -14 -27.5 -20t-31.5 -2q15 43 13 67.5t-13.5 27.5t-29.5 -18t-35 -69
q-27 -74 -13.5 -106.5t48 -25.5t81 54t86.5 134z" />
    <glyph glyph-name="d" unicode="d" horiz-adv-x="318" 
d="M326 244q8 16 16.5 21t14.5 2t7 -12.5t-6 -23.5l-19 -37l-26.5 -49.5t-31.5 -53t-34 -47.5t-33 -33.5t-29 -10.5q-25 4 -38 19.5t-17 41.5q-17 -29 -39 -45t-43.5 -17.5t-40.5 10t-29.5 37.5t-11 65.5t14.5 93.5q21 73 52.5 108t62 42t54.5 -10.5t30 -49.5
q18 48 40.5 99.5t47.5 103.5q14 -2 34.5 -17.5t27.5 -40.5l-59 -137.5t-50 -123.5t-30 -90t2 -37q7 -2 19 9.5t25 30t27 42l26.5 45t22 39.5zM51 189q-19 -61 -14.5 -93.5t21 -37t39 19.5t39.5 75q2 11 5 22.5t7 22.5q7 35 -2 56t-25 22.5t-35.5 -19t-34.5 -68.5z" />
    <glyph glyph-name="e" unicode="e" horiz-adv-x="257" 
d="M264 244q7 14 15.5 20t14.5 5t8 -9.5t-4 -24.5q-32 -78 -74 -129.5t-84 -78t-80 -27.5t-63 22t-31.5 69.5t13.5 116.5q12 42 30 71.5t37.5 47t40 25t38.5 6.5q30 -2 46.5 -23t21 -51t-3.5 -65.5t-27.5 -66t-49 -52t-69.5 -24.5q11 -21 36 -20.5t56.5 21.5t65.5 63t63 104
zM127 280q-13 5 -28.5 -10.5t-29 -40.5t-23 -53.5t-10.5 -49.5q18 -1 34 9.5t29 26t22.5 35t13.5 37t2.5 30t-10.5 16.5z" />
    <glyph glyph-name="g" unicode="g" horiz-adv-x="313" 
d="M320 244q7 16 16 22t15 4t7.5 -11.5t-5.5 -25.5q-25 -61 -50.5 -103t-51.5 -70.5t-52.5 -46.5t-51.5 -30q-39 -78 -79 -110t-73 -33.5t-53 20t-18 51.5q2 32 19.5 49t42 25.5t51.5 11.5t50 6q2 4 3.5 8l3.5 9q-27 -21 -55.5 -20t-48 24.5t-24.5 69t14 113.5q21 72 52 107
t61.5 42.5t54.5 -9t31 -47.5q8 25 13 42t7 19q14 -2 35 -17t26 -39q-1 -4 -6.5 -21l-13 -41l-16.5 -51.5l-17.5 -52.5l-15 -44t-8.5 -26l-5.5 -15t-5.5 -14q43 30 76.5 78.5t71.5 125.5zM51 191q-18 -59 -14.5 -91.5t18.5 -38.5t36.5 14t39.5 65l6 21t7 23q11 40 4 65
t-23.5 29t-37.5 -16.5t-36 -70.5zM-30 -88q0 -10 8 -17.5t21.5 -5t31 18.5t37.5 54l-37 -6t-31.5 -8t-21.5 -13.5t-8 -22.5z" />
    <glyph glyph-name="h" unicode="h" horiz-adv-x="317" 
d="M325 245q9 16 17.5 21t14 1.5t6 -13t-5.5 -22.5q-17 -35 -40 -77t-47.5 -77.5t-48.5 -58t-44 -18.5q-30 6 -40 32.5t-8 63t13 78t25 79.5q-17 -10 -39 -27t-43.5 -43.5t-40.5 -62.5t-29 -83l-3 -24q-3 -8 -9 -11t-12.5 -3t-12 2t-7.5 4q-9 29 -6.5 75t13.5 101.5
t28 115.5t37 117.5t40.5 108t38.5 86.5q7 0 17 -5t20 -13t19 -19t13 -24l-64.5 -140.5t-60.5 -158.5q22 30 45.5 51t43.5 33.5t34.5 18t20.5 5.5v1q14 -2 34 -15.5t27 -38.5q-3 -11 -11.5 -33.5l-19.5 -50l-22 -57.5t-18.5 -54.5t-9.5 -41t6 -18.5q7 -2 18 9.5t24 30
t26 41.5l25 45.5l21.5 41t14.5 27.5z" />
    <glyph glyph-name="i" unicode="i" horiz-adv-x="152" 
d="M114 319q-8 21 -25 36t-39 16q3 8 7.5 18l8.5 19l7 16t5 10q7 -2 16 -6.5t18 -12.5t16.5 -18.5t10.5 -23.5q-4 -8 -10.5 -22.5zM158 246q9 16 17 21t13 1t5.5 -14t-5.5 -22q-17 -36 -40 -78t-47 -77.5t-48 -58t-44 -17.5q-30 6 -41 30.5t-10 58.5t11.5 73.5t24 77
t27.5 68.5l22 48q14 -2 34.5 -15.5t27.5 -39.5l-16 -38l-21 -51.5l-21.5 -55.5t-17.5 -51.5t-8 -38.5t6 -17t18.5 9.5t24.5 30t26.5 42l25.5 46l21.5 41t14.5 27.5z" />
    <glyph glyph-name="j" unicode="j" horiz-adv-x="150" 
d="M99 324q-8 20 -26 34t-39 14q3 9 6 19l6 19.5t5 16.5t4 9q7 -1 17 -5t19.5 -11.5t18 -18t11.5 -22.5q-2 -8 -8.5 -23.5zM156 246q7 16 15 21.5t14 3t7 -12.5t-5 -25q-22 -56 -46 -97.5t-49.5 -71.5t-53.5 -49.5t-58 -31.5q-39 -78 -79 -110.5t-73 -34t-53 20t-18 51.5
q2 32 19.5 49.5t42 26t51.5 11.5t50 6q8 18 14.5 38.5l14.5 45.5q2 9 9 32.5l15.5 52.5l18.5 61.5l18.5 59.5l14.5 45.5l7 21.5q14 -2 35 -17t26 -39q-1 -4 -6.5 -20.5l-13 -40.5l-16.5 -51.5l-17.5 -53l-15 -44.5t-8.5 -26l-6 -16l-6 -16q51 34 85.5 87t66.5 123zM-197 -89
q0 -10 8 -17.5t22 -4.5t32 20t38 56q-20 -3 -38 -6.5t-32 -9.5t-22 -15t-8 -23z" />
    <glyph glyph-name="k" unicode="k" horiz-adv-x="326" 
d="M335 246q8 16 16.5 21t13.5 2t6 -13t-5 -23q-19 -42 -45.5 -83.5t-53.5 -75t-51 -54t-37 -20.5q-18 0 -38.5 11.5t-38.5 27.5t-30.5 34t-13.5 32q30 8 54.5 27t41 42.5t23.5 47.5t4 42q-17 -10 -41 -27t-48 -43.5t-45 -64.5t-31 -90q-2 -6 -2.5 -12.5t-1.5 -12.5
q-3 -8 -9 -11t-12.5 -3t-12 2t-7.5 4q-9 29 -7 75t11.5 100.5t25 114t34.5 117t40 108.5t41 89q7 0 17 -5t20 -13t19 -19t13 -24l-61 -140.5t-58 -157.5q22 30 45.5 50.5t43.5 33.5t34.5 18t20.5 5q1 0 1 1q14 -2 33.5 -15.5t26.5 -38.5q-1 -27 -11.5 -59t-28.5 -62.5
t-43 -56t-56 -40.5q1 -11 16.5 -24.5t29.5 -14.5q10 0 30.5 19.5t43.5 49.5t45.5 64.5t37.5 64.5z" />
    <glyph glyph-name="l" unicode="l" horiz-adv-x="157" 
d="M163 244q9 16 17.5 21.5t14.5 2.5t7 -13t-6 -24l-31.5 -60.5t-45.5 -78.5t-51 -67t-46 -25q-30 5 -42 32.5t-10.5 72t16 102.5t37 124t52 136.5l61.5 140.5q7 -1 17 -6t19.5 -14t18 -20t11.5 -24l-42 -100l-43.5 -108l-40.5 -104.5t-31.5 -89.5t-16.5 -63t3 -26t18.5 9.5
t25 30t27.5 41.5t26 45l21.5 39.5t13.5 25.5z" />
    <glyph glyph-name="m" unicode="m" horiz-adv-x="460" 
d="M472 246q9 16 17 20.5t13 1t5.5 -13.5t-5.5 -22l-39.5 -77.5t-46.5 -78t-48 -58t-44 -17.5q-29 6 -40 29t-10.5 55t9 68.5t20.5 70.5q-16 -10 -37 -27.5t-41.5 -42.5t-39 -58.5t-29.5 -76.5q-5 -9 -14 -13.5t-19 -6t-17.5 -1t-9.5 3.5q1 31 7 63.5t15 64.5t19 63t21 58
q-17 -11 -37.5 -27.5t-41.5 -40t-40.5 -54t-32.5 -68.5q-4 -13 -6.5 -25t-5.5 -23q-4 -8 -10.5 -11t-12.5 -2t-11 3.5t-7 4.5q-6 27 -2 65.5t15.5 83.5t28 95.5t36.5 101.5q6 4 16 2t20 -8.5t18.5 -16.5t10.5 -21q-8 -17 -14.5 -33l-13.5 -33q21 28 42.5 49t40.5 35.5
t33.5 22t20.5 7.5v1q14 -2 33.5 -15.5t26.5 -38.5q-2 -6 -8.5 -21.5t-16.5 -36.5q35 41 66.5 62t40.5 21l1 1q13 -2 33 -15.5t27 -38.5q-3 -11 -11 -31.5l-18 -45l-20 -50t-16.5 -47t-8 -36t6.5 -16.5q7 -2 18.5 9.5t24 30t26 41.5l26 45.5l22 41t14.5 27.5z" />
    <glyph glyph-name="n" unicode="n" horiz-adv-x="301" 
d="M313 246q9 16 17 21t13 1.5t5.5 -13.5t-5.5 -23q-17 -36 -39.5 -78t-46.5 -77.5t-48 -57.5t-44 -18q-29 6 -40 29.5t-10.5 56.5t10 70.5t21.5 71.5q-15 -7 -34 -19.5t-39 -33t-38.5 -48.5t-31.5 -67l-6 -25t-5 -23q-5 -8 -11 -11t-12.5 -2t-11.5 3.5t-7 4.5
q-5 27 -1 65.5t15.5 83.5t28 95.5t36.5 101.5q6 4 16 2t20 -8.5t18 -16.5t10 -21l-30 -72q19 25 39 42.5t37.5 28.5t30.5 16.5t18 5.5h1q14 -2 33.5 -15t26.5 -39q-3 -11 -11 -31.5l-18 -45t-19.5 -50.5t-16 -48t-8 -36.5t5.5 -15.5q7 -2 18.5 9.5t24 30t26 42l26 46l22 41
t14.5 27.5z" />
    <glyph glyph-name="o" unicode="o" horiz-adv-x="303" 
d="M310 248q6 13 14 18t14 2.5t7.5 -12.5t-5.5 -26q-21 -48 -54 -71.5t-67 -27.5q-11 -30 -27.5 -57t-38 -45t-47 -25.5t-53.5 0.5q-40 11 -60.5 44.5t-23.5 76.5t10 88.5t39 80.5t63 52.5t82 5.5q25 -7 40.5 -24t23.5 -41t9 -52.5t-5 -58.5q22 5 43 22t36 50zM172 194
q2 20 1 37t-9 29q-8 -22 -5 -38.5t13 -27.5zM64 60q14 -5 28 -0.5t26 16t22 28.5t18 37q-32 15 -48 49.5t-2 85.5q-25 -11 -44.5 -42.5t-27.5 -67t-2.5 -66.5t30.5 -40z" />
    <glyph glyph-name="p" unicode="p" horiz-adv-x="305" 
d="M313 245q9 16 17.5 21t13.5 1.5t5.5 -13.5t-5.5 -23l-40.5 -77t-47 -77.5t-48.5 -58t-44 -18.5q-29 6 -39.5 32t-8.5 62t13 77.5t24 78.5q-29 -20 -70.5 -62.5t-76.5 -117.5l-28 -69l-25 -62l-19.5 -48t-11.5 -29q-5 -8 -13 -8t-16 4.5t-14.5 11.5t-6.5 15
q7 27 21.5 71.5l32.5 95.5l37 103l35 95l27 71.5t13 32.5q14 -2 34 -15t27 -38q-1 -3 -4.5 -11.5t-8.5 -22.5q37 43 69.5 66.5t42.5 23.5q14 -2 33.5 -15t26.5 -38q-3 -11 -11.5 -33.5l-19.5 -50.5l-22.5 -57.5t-19 -54.5t-9.5 -41.5t5 -18.5t18.5 9.5t24.5 30.5t26.5 42
l26 45.5t22 41.5t14.5 28z" />
    <glyph glyph-name="q" unicode="q" horiz-adv-x="313" 
d="M320 247q9 16 17 20.5t13 0.5t5.5 -14t-5.5 -22q-17 -36 -39.5 -78t-46.5 -77.5t-48 -58t-44 -18.5q-12 3 -21 9l-37.5 -92.5l-21.5 -53.5q-5 -8 -13 -8.5t-16 4t-14.5 11.5t-6.5 15q5 23 15.5 55.5l23.5 70.5q-26 -16 -52 -11.5t-43.5 29t-21 68.5t14.5 108
q22 76 55.5 111.5t65.5 40t55 -17t25 -57.5q22 58 26 66q14 -2 34 -15t27 -39q-1 -3 -6 -16l-13.5 -33.5l-18.5 -46.5l-22 -55q-7 -18 -12.5 -34.5t-8.5 -29t-2.5 -20.5t5.5 -9q7 -2 18.5 9.5t24 30.5t26 42l26 45.5t22 41.5t14.5 28zM50 190q-17 -53 -15.5 -84.5t13.5 -42
t30.5 1t36.5 43.5q8 19 14.5 38t13.5 37h-1q12 40 4.5 65t-23.5 29t-37 -16.5t-36 -70.5z" />
    <glyph glyph-name="r" unicode="r" horiz-adv-x="283" 
d="M289 246q9 16 17 20.5t12.5 1t5 -13.5t-5.5 -22q-17 -36 -39.5 -78t-46.5 -77.5t-48 -58t-44 -17.5q-27 6 -38.5 25.5t-13 48t5.5 62.5t18 69q-31 -14 -58 -17.5t-44 0.5q-32 15 -37 50q2 8 8.5 22.5t14.5 30.5t16.5 29.5t14.5 19.5q1 0 8.5 -4.5t16.5 -12t17.5 -17.5
t11.5 -20q-2 -5 -8 -15l-9 -15q6 0 17.5 7.5t26.5 21t32 32t33 39.5q14 -2 34.5 -15.5t27.5 -39.5l-26 -63t-32.5 -82.5t-23 -73t3.5 -34.5q7 -2 18.5 9.5t24.5 30.5t26.5 42l26 45.5t22 41.5t14.5 28z" />
    <glyph glyph-name="s" unicode="s" horiz-adv-x="234" 
d="M243 245q9 16 17.5 21t14.5 2.5t7 -12t-5 -21.5l-24 -47l-27 -50q-23 -41 -52.5 -74.5t-64.5 -51.5q-22 -11 -47 -12t-45.5 6.5t-34 23t-11.5 38.5q1 13 7 25.5t16.5 20t24 9.5t28.5 -5q14 -6 19.5 -20.5t3 -28t-14 -22t-30.5 -4.5q15 -8 30.5 -3.5t28 16.5t18.5 31t1 41
t-23 44.5t-54 42.5q-4 -8 -7.5 -16t-8.5 -16q-2 -1 -6 0.5t-8.5 4.5t-7.5 6t-3 6q5 8 8.5 15l6.5 13q-1 0 -1 0.5t-1 0.5q-11 4 -3 18l26.5 64.5t20.5 46.5q7 -1 16.5 -5t18.5 -11t16.5 -17t10.5 -23l-9 -20l-9 -20q48 -30 68.5 -65.5t22.5 -69.5l20.5 35l19.5 34t15.5 29
t10.5 20z" />
    <glyph glyph-name="u" unicode="u" horiz-adv-x="323" 
d="M332 246q9 16 17.5 21t13.5 2t5.5 -13.5t-5.5 -23.5q-17 -35 -39.5 -77t-47 -77.5t-48.5 -58t-44 -18.5q-23 5 -34.5 19.5t-15.5 35.5q-26 -32 -54.5 -46.5t-57.5 -9.5q-31 7 -43 39.5t-8.5 81t20.5 109t46 124.5q8 6 19 3.5t21 -10t18 -18.5t10 -22q-49 -120 -63.5 -179
t11.5 -68q18 -5 44.5 22.5t46.5 84.5q7 27 16.5 53.5t19 50t18 42.5t14.5 31q14 -2 35 -15.5t28 -39.5l-16 -37l-20.5 -49t-20 -52t-15.5 -47.5t-7 -36t6 -15.5q8 -2 19 9t23.5 29.5t26 42l25.5 45.5l21.5 40.5t14.5 27.5z" />
    <glyph glyph-name="v" unicode="v" horiz-adv-x="314" 
d="M323 245q9 16 17 21t13 2t6 -13.5t-5 -23.5q-38 -80 -77.5 -103.5t-79.5 -4.5q-2 2 -4.5 2.5t-4.5 2.5q-20 -42 -41 -68.5t-42.5 -40.5t-42.5 -17.5t-40 1.5q-30 9 -42.5 41t-9.5 79t19.5 106.5t45.5 123.5q8 6 19 3.5t21 -10t18 -18.5t10 -22q-49 -120 -63.5 -179
t10.5 -68q21 -8 49.5 30t57.5 121q3 37 15.5 78t35.5 69q14 -2 34.5 -16t27.5 -39l-22 -51.5t-14.5 -43.5t-3 -31t12.5 -14q11 -3 22 4.5t21 20.5t19.5 28.5z" />
    <glyph glyph-name="w" unicode="w" horiz-adv-x="455" 
d="M466 245q9 16 17.5 21t13.5 2t6 -13.5t-5 -23.5q-38 -80 -77.5 -103.5t-79.5 -4.5q-2 2 -4 2.5t-4 2.5q-19 -42 -38 -68.5t-38.5 -40.5t-38.5 -17.5t-38 1.5q-32 9 -45 44q-29 -32 -56.5 -41.5t-53.5 -2.5q-30 9 -43 41t-10 79t19.5 106.5t45.5 123.5q8 6 19 3.5
t21.5 -10t18.5 -18.5t10 -22q-50 -120 -64 -179t11 -68q16 -6 35 10.5t40 64.5q4 42 19.5 91.5t40.5 100.5q8 6 18.5 3.5t21 -10t18.5 -18.5t10 -22l-40.5 -100.5t-24 -66t-5 -38t14.5 -16.5t24.5 6t25.5 30t25.5 49t24.5 64q2 38 15 78.5t36 71.5q14 -2 34.5 -16t27.5 -40
l-22 -51t-14.5 -43t-3 -31t12.5 -14q11 -3 22 4.5t21 20.5t19 28.5z" />
    <glyph glyph-name="x" unicode="x" horiz-adv-x="406" 
d="M420 245q7 13 15.5 19t14.5 5t8 -9.5t-4 -24.5q-36 -87 -82.5 -141t-91 -77t-81.5 -15t-55 45q-21 -23 -46.5 -36t-53.5 -11q-39 3 -52.5 26t-8.5 47.5t24 40t45 3.5q9 -4 15 -12.5t7.5 -18t-1 -19t-8.5 -16.5q17 10 32 30.5t25.5 45t16 50t4 47.5t-10.5 36.5t-27 17.5
q-20 3 -29.5 -8.5t-12 -26.5t1 -27.5t9.5 -12.5q-25 -5 -42 4.5t-24.5 26.5t-6 38.5t12 40.5t31.5 32t52 13q37 0 61.5 -13t38.5 -36q25 31 51.5 41.5t52.5 5.5t40 -20.5t19 -35t0.5 -40t-15.5 -36.5t-29 -25t-40 -5q9 1 16 14t9.5 28t-1 27.5t-14.5 14.5q-12 2 -26 -12.5
t-26.5 -37.5t-21 -51.5t-10 -54t5 -44t25.5 -22.5q16 -3 39 7.5t48 34t51 60.5t49 87z" />
    <glyph glyph-name="y" unicode="y" horiz-adv-x="319" 
d="M326 246q7 16 16 21.5t15 3t7 -12.5t-6 -25q-48 -105 -101 -164t-105 -85q-39 -78 -79 -110.5t-72.5 -34t-52.5 20t-18 51.5q2 32 19 49t41.5 25.5t51.5 11.5t50 6q2 5 4.5 10.5t4.5 11.5q-39 -30 -78 -22q-31 7 -43 39t-9 80t20 108.5t46 124.5q8 6 19 3.5t21 -10
t18 -18.5t10 -22q-49 -120 -63.5 -179t10.5 -68q9 -3 21 4t25 22t25.5 37t22.5 51l17 55.5l16.5 52.5t13 40t6.5 18q14 -2 35 -17t26 -39l-6 -18.5l-12 -37.5l-15.5 -47l-16 -48t-14 -40.5t-8.5 -24.5t-5 -14t-5 -14q47 34 82.5 85t65.5 120zM-25 -88q0 -10 8 -17.5t21.5 -5
t31 18.5t37.5 54q-19 -3 -37 -5.5t-31.5 -7.5t-21.5 -13.5t-8 -23.5z" />
    <glyph glyph-name="z" unicode="z" horiz-adv-x="273" 
d="M283 246q7 16 15 22t13.5 3.5t6.5 -12.5t-5 -25q-23 -54 -48 -94.5t-50 -69.5t-50.5 -48.5t-50.5 -32.5q-26 -53 -53 -85t-52.5 -47.5t-48 -16.5t-39 8.5t-25.5 26.5t-7 37q2 34 20.5 51t43.5 25.5t53 11t50 6.5q19 41 40 104q-5 -7 -19.5 -18t-23.5 -22q-4 3 -8 10.5
t-7.5 16.5t-6 18t-3.5 15q3 12 14 32t26 37q-19 -7 -33.5 -8.5t-24.5 0.5q-16 8 -25.5 21t-11.5 29q2 8 8.5 23t14.5 30.5t16.5 29t14.5 19.5q1 0 8.5 -4.5t16.5 -11.5t17.5 -17t11.5 -20q-2 -5 -8 -15.5l-9 -15.5q6 0 17.5 8t26.5 21.5t32 32t33 39.5q14 -2 34.5 -16
t27.5 -40q-19 -18 -43 -36.5t-46.5 -39t-40.5 -42.5t-25 -47q19 29 36.5 43.5t31.5 23.5q4 -2 10.5 -7t13 -11t12 -12t8.5 -9l-9 -18l-13 -27l-14 -31t-12 -30l-2 -6l-2 -6q44 34 79 83t64 114zM-66 -87q0 -9 8 -14.5t21.5 -2t31.5 19t38 48.5q-19 -3 -37 -5.5t-31.5 -8
t-22 -14t-8.5 -23.5z" />
    <glyph glyph-name="oe" unicode="&#x153;" horiz-adv-x="454" 
d="M463 244q7 14 15 20t14 5t8 -9.5t-4 -24.5q-36 -88 -84.5 -142.5t-95 -76.5t-85 -12.5t-55.5 48.5q-24 -29 -55 -43t-66 -4q-40 11 -60.5 44.5t-23.5 76.5t10 88.5t38.5 80.5t62.5 53t82 6q22 -6 37 -20t24 -34q23 32 49.5 46t49.5 12q30 -2 46.5 -23t20.5 -51t-4 -65.5
t-27 -66t-49 -52t-70 -24.5q11 -21 36 -20.5t57 21.5t66 63t63 104zM324 276q-14 4 -29 -8t-27.5 -33.5t-22 -49.5t-10.5 -56q20 -3 36.5 6t30 24t22 34t12 36.5t1 30.5t-12.5 16zM163 150q11 32 12.5 62.5t-10.5 49.5q-15 -33 -16 -63.5t14 -48.5zM66 61q20 -7 38.5 4.5
t33.5 33.5q-18 13 -28.5 33.5t-14 44.5t0 49.5t12.5 49.5q-16 -8 -30.5 -25t-24.5 -39t-15.5 -46t-4.5 -45.5t8.5 -37.5t24.5 -22z" />
    <glyph glyph-name="ae" unicode="&#xe6;" horiz-adv-x="421" 
d="M431 243q7 14 15 20t14 5t8.5 -9.5t-3.5 -24.5q-32 -78 -74 -129.5t-84 -78t-80 -27.5t-62 22q-1 -2 -1 -5t-1 -5q-5 -8 -11 -10.5t-12.5 -2t-11.5 3t-7 4.5q-3 18 -3 39q-26 -37 -59.5 -45t-58 12t-34 68t12.5 124q21 73 52.5 108t62 42t54.5 -10t30 -49l10.5 28.5
l11.5 29.5q7 5 18 1.5t22 -11.5q25 16 52 14q30 -2 46.5 -23t20.5 -51t-3.5 -65.5t-27 -66t-49.5 -52t-70 -24.5q11 -21 36.5 -20.5t57 21.5t65.5 63t63 104zM134 151q16 46 10 75.5t-22 37.5t-37 -9.5t-36 -65.5q-19 -61 -14.5 -93.5t21 -37t39 18.5t39.5 74zM292 275
q-14 4 -28.5 -8t-27.5 -33.5t-22 -49.5t-11 -56q20 -3 37 6t30 24t22 34t12 36.5t0.5 30.5t-12.5 16z" />
    <glyph glyph-name="ccedilla" unicode="&#xe7;" horiz-adv-x="245" 
d="M254 245q6 13 14.5 19t14.5 4.5t8 -10t-4 -24.5q-24 -59 -54 -103t-61.5 -73t-62.5 -43.5t-58 -14.5l-3 -9q13 -8 14 -24.5t-6.5 -31.5t-23 -23.5t-35.5 -0.5q-12 5 -17 15t-4.5 20.5t5 20t9.5 13.5q8 2 16 -5.5t7 -13.5q-6 -2 -9 -11.5t4 -13.5q9 -5 16.5 0t10 14
t-1.5 19t-19 15q2 4 3.5 9.5t3.5 11.5q-19 7 -32.5 23t-19.5 41t-3.5 59t15.5 77q17 59 43 93.5t53 48.5t52 9.5t40.5 -24.5t18.5 -53t-13 -76q-8 -14 -27 -19.5t-31 -2.5q15 43 13 67.5t-14 27.5t-30 -18t-35 -69q-18 -49 -17 -80t14.5 -44t37.5 -8t52.5 27.5t58.5 62.5
t57 98z" />
    <glyph glyph-name="exclam" unicode="!" horiz-adv-x="361" 
d="M257 718q7 -2 15.5 -7.5t17 -15.5t15 -23.5t9.5 -31.5q-2 -8 -16 -46l-33.5 -92.5l-43 -117.5l-45 -120.5l-37.5 -102l-22 -60.5q-13 4 -26 21t-18 27q9 38 26 94l36.5 117.5l40 123l38 112l29.5 84t14 38.5zM77 81q16 0 27.5 -12t11.5 -29t-11.5 -28.5t-27.5 -11.5
q-17 0 -28 11.5t-11 28.5t11 29t28 12z" />
    <glyph glyph-name="exclamdown" unicode="&#xa1;" horiz-adv-x="361" 
d="M47.0156 -416.956q-7 2 -15.499 7.49902q-8.49902 5.5 -16.999 15.499q-8.49902 10 -14.999 23.499t-9.49902 31.498q2 8 15.999 45.9971l33.498 92.4941l42.9971 117.493l44.9971 120.492l37.498 101.994l21.998 60.4961q12.999 -3.99902 25.999 -20.998
q12.999 -16.999 17.999 -26.999q-9 -37.9971 -25.999 -93.9941l-36.498 -117.492l-39.9971 -122.993l-37.998 -111.993l-29.498 -83.9951q-11.999 -33.4971 -13.999 -38.4971zM227.005 220.005q-15.999 0 -27.498 11.999q-11.5 12 -11.5 28.998q0 16.999 11.5 28.499
q11.499 11.499 27.498 11.499q16.999 0 27.998 -11.499q10.999 -11.5 10.999 -28.499q0 -16.998 -10.999 -28.998q-10.999 -11.999 -27.998 -11.999z" />
    <glyph glyph-name="quotedbl" unicode="&#x22;" horiz-adv-x="232" 
d="M101 680v-29v-45v-45v-28q-5 -1 -12 0.5t-14.5 4t-13.5 5.5t-8 5q0 4 -0.5 24.5t-0.5 45t0.5 46.5t0.5 30q3 1 9.5 0t14 -3t14 -5t10.5 -6zM177 680v-29v-45v-45v-28q-5 -1 -12 0.5t-14.5 4t-13.5 5.5t-8 5q0 4 -0.5 24.5t-0.5 45t0.5 46.5t0.5 30q3 1 9.5 0t14 -3
t14.5 -5t10 -6z" />
    <glyph glyph-name="numbersign" unicode="#" horiz-adv-x="231" 
d="M162 610q-2 0 -6.5 0.5t-10.5 1.5q-2 -5 -3 -10t-3 -10q8 -1 13 -1.5t8 -0.5q1 -6 -4.5 -15t-10.5 -14q-2 0 -6 0.5t-9 0.5q-3 -10 -5 -17.5t-4 -11.5q-8 2 -15 9.5t-10 12.5q1 1 3 10q-5 1 -10 1.5t-10 1.5q-4 -12 -6.5 -21t-4.5 -13q-8 2 -15 9.5t-10 12.5q0 2 1 5.5
t3 9.5q-20 2 -25 3q-1 8 5.5 16.5t10.5 12.5q2 0 6.5 -0.5t11.5 -1.5q2 5 3 9.5t3 9.5q-17 3 -23 3q0 8 6 16.5t10 12.5q2 0 6 -0.5t11 -0.5q4 18 8 25q5 0 13 -6.5t12 -13.5q0 -1 -2 -9q5 0 10 -0.5t10 -1.5q4 11 6.5 19.5t3.5 11.5q6 0 13.5 -6.5t12.5 -13.5
q-1 -2 -2 -5.5t-3 -8.5q16 -3 23 -3q1 -5 -4.5 -14.5t-10.5 -14.5zM108 596q2 5 3 9.5t3 9.5q-5 1 -10.5 1t-10.5 1q-1 -8 -5 -19q5 -1 10 -1.5t10 -0.5z" />
    <glyph glyph-name="dollar" unicode="$" horiz-adv-x="401" 
d="M316 582q18 -11 26 -28t6.5 -34.5t-11.5 -33t-28 -22.5q10 23 6 43t-17 34t-34 19t-44.5 -3t-49 -30.5t-47.5 -64.5q39 38 78.5 44.5t67.5 -12t38 -58.5t-9 -96q-15 -45 -36.5 -76t-45.5 -50t-49 -27t-47 -5q-5 -11 -8 -18.5l-5 -12.5q-4 -8 -9 -7t-9.5 6.5t-7 14.5
t-1.5 17q2 8 4 14q-29 20 -37 64t22 107q13 2 28 3t23 1q-27 -51 -32 -86.5t5 -55t31 -22t45.5 12t49 47.5t41.5 85q16 51 7 79.5t-33 35.5t-58 -7.5t-66 -50.5q-4 2 -8.5 8t-8 13.5t-6 15t-2.5 13.5q21 55 63 92t90 45l18 45.5t9 20.5q8 -4 18.5 -21t10.5 -46v-1
q0 -1 -1 -2q6 -2 12 -4.5t11 -5.5z" />
    <glyph glyph-name="ampersand" unicode="&#x26;" horiz-adv-x="637" 
d="M489 90q23 -29 49.5 -56t58.5 -50q-4 -3 -20.5 -4.5t-36.5 -2t-38.5 1t-25.5 5.5l-24 22t-23 25q-27 -17 -60.5 -25t-75.5 -4q-57 6 -95 36.5t-57.5 73.5t-20.5 93t17 95t54.5 79.5t92.5 46.5q-8 71 -0.5 127t30 93.5t60 54.5t90.5 9q29 -4 51.5 -29.5t34.5 -61.5
t10.5 -78t-21.5 -79.5t-60.5 -65.5t-106.5 -36q9 -50 27 -101t46 -101q9 23 12 47.5t1 47.5l37 42.5t37 34.5q6 -26 6 -57.5t-5.5 -64.5t-16.5 -64t-27 -54zM437 619q-19 6 -34 -6t-24.5 -37t-14 -61.5t-1.5 -79.5q30 0 52 12.5t36.5 31t20.5 41t4.5 43t-11.5 36t-28 20.5z
M194 173q5 -39 29 -65t55 -37.5t62 -8.5t51 22q-36 58 -62.5 122.5t-38.5 136.5q-59 -20 -81.5 -67.5t-14.5 -102.5z" />
    <glyph glyph-name="quotesingle" unicode="'" horiz-adv-x="194" 
d="M128 700q4 -3 11.5 -11.5t14.5 -18.5t12 -20.5t5 -16.5q-6 -23 -19.5 -40t-29 -27.5t-29 -15.5t-18.5 -5q6 9 14 27.5t15.5 40.5t14 45t9.5 42z" />
    <glyph glyph-name="quoteright" unicode="&#x2019;" horiz-adv-x="201" 
d="M128 700q4 -3 11.5 -11.5t14.5 -18.5t12 -20.5t5 -16.5q-6 -23 -19.5 -40t-29 -27.5t-29 -15.5t-18.5 -5q6 9 14 27.5t15.5 40.5t14 45t9.5 42z" />
    <glyph glyph-name="quoteleft" unicode="&#x2018;" horiz-adv-x="180" 
d="M101 545q-4 3 -11.5 11.5t-14.5 18.5t-12 20.5t-5 16.5q6 23 19.5 40t29 27.5t29 15.5t18.5 5q-6 -9 -14 -27.5t-15.5 -40.5t-14 -45t-9.5 -42z" />
    <glyph glyph-name="parenleft" unicode="(" horiz-adv-x="335" 
d="M340 603q-31 -28 -59.5 -72.5t-53.5 -99t-45 -115t-32.5 -120.5t-17.5 -115.5t1 -100.5q3 -12 -4.5 -12.5t-17.5 5.5t-19 17t-10 22q-8 47 -5.5 104t13 118.5t28.5 124.5t42.5 121.5t54.5 109.5t64 89q14 -3 34 -22t27 -54z" />
    <glyph glyph-name="parenright" unicode=")" horiz-adv-x="351" 
d="M37 -2q31 28 59.5 72.5t53.5 99t45 115t32.5 120.5t17 115.5t-0.5 100.5q-3 12 4.5 12.5t17.5 -5.5t19 -17t10 -22q8 -47 5.5 -104t-13 -118.5t-28.5 -124.5t-42.5 -121.5t-54.5 -109.5t-64 -89q-14 3 -34 22t-27 54z" />
    <glyph glyph-name="asterisk" unicode="*" horiz-adv-x="228" 
d="M189 618q1 -6 -5 -16t-12 -16q-5 1 -13 1.5t-19 2.5q7 -14 11.5 -25t6.5 -15q-5 -5 -16.5 -5t-19.5 2q-6 11 -16 35l-22.5 -22.5t-14.5 -13.5q-7 5 -9.5 17l-3.5 17q2 2 6.5 7t11.5 12l-24.5 3.5t-15.5 2.5q0 9 7 18.5t12 13.5q2 0 10 -1t20 -3q-7 14 -12 25t-7 16
q8 5 20 4t18 -3q1 -2 5 -11l10 -22l22.5 21.5t14.5 13.5q5 -3 9 -14t5 -19l-20 -20l25 -3.5t16 -2.5z" />
    <glyph glyph-name="comma" unicode="," horiz-adv-x="205" 
d="M71 53q0 6 12.5 9.5t26 1.5t23.5 -9t6 -22t-14.5 -33t-23 -34t-24 -28t-17.5 -14q-5 0 -9 3.5t-4 8.5q1 3 4.5 18l7.5 33.5t7.5 37t4.5 28.5z" />
    <glyph glyph-name="hyphen" unicode="-" horiz-adv-x="380" 
d="M291 205q1 -5 -0.5 -14.5t-4.5 -20t-7 -20.5t-8 -15h-37.5h-56h-56h-36.5q-1 7 1.5 17t6 20.5t8 19.5t7.5 13q6 0 31 0.5t55 0.5t58 -0.5t39 -0.5z" />
    <glyph glyph-name="period" unicode="." horiz-adv-x="235" 
d="M109 81q16 0 27.5 -12t11.5 -29t-11.5 -28.5t-27.5 -11.5q-17 0 -28 11.5t-11 28.5t11 29t28 12z" />
    <glyph glyph-name="colon" unicode=":" horiz-adv-x="291" 
d="M107 81q16 0 27.5 -12t11.5 -29t-11.5 -28.5t-27.5 -11.5q-17 0 -28 11.5t-11 28.5t11 29t28 12zM136 220q17 0 28 -12t11 -29t-11 -28.5t-28 -11.5q-16 0 -27.5 11.5t-11.5 28.5t11.5 29t27.5 12z" />
    <glyph glyph-name="semicolon" unicode=";" horiz-adv-x="256" 
d="M123 201q16 0 27.5 -11.5t11.5 -28.5t-11.5 -29t-27.5 -12q-17 0 -28 12t-11 29t11 28.5t28 11.5zM71 58q0 6 12.5 9t26 1.5t23.5 -9t6 -22.5t-14.5 -32.5t-23 -33.5t-24 -28t-17.5 -14q-5 0 -9 3.5t-4 8.5q1 3 4.5 18l7.5 33.5t7.5 37t4.5 28.5z" />
    <glyph glyph-name="slash" unicode="/" horiz-adv-x="380" 
d="M273 644q7 -2 15.5 -8.5t16 -17t13 -25t6.5 -32.5q-2 -7 -19 -46l-41.5 -95l-53 -121l-55 -124l-46 -104l-26.5 -61q-6 -11 -14 -10t-15.5 7.5t-12.5 17.5t-4 22q12 38 33 95l46.5 122l52.5 130.5l49 119.5l37 89.5t18 40.5z" />
    <glyph glyph-name="backslash" unicode="\" horiz-adv-x="380" 
d="M86 644q2 -5 17.5 -40.5l37.5 -89.5l49 -119.5l52.5 -130.5l46.5 -122t33 -95q1 -11 -4 -22t-12.5 -17.5t-15.5 -7.5t-14 10l-26.5 61l-46 104l-55 124l-53 121l-41.5 95t-19 46q1 18 6.5 32.5t13 25t16 17t15.5 8.5z" />
    <glyph glyph-name="question" unicode="?" horiz-adv-x="490" 
d="M81 81q16 0 27.5 -12t11.5 -29t-11.5 -28.5t-27.5 -11.5q-17 0 -28 11.5t-11 28.5t11 29t28 12zM86 443q46 109 95.5 170.5t94 84t81 10t56 -51.5t18.5 -99.5t-31 -134.5q-16 -40 -40.5 -57t-52 -26t-56 -16.5t-54 -30t-45.5 -67t-30 -125.5q-14 5 -26 17t-20 23
q13 76 34 120.5t45.5 68.5t50 34.5t49.5 19t43 21.5t31 42q17 43 19 74t-7 48.5t-27 20t-39.5 -10.5t-45 -42.5t-44.5 -77.5q-8 -9 -21 -13.5t-27.5 -5.5t-28 0.5t-22.5 3.5z" />
    <glyph glyph-name="questiondown" unicode="&#xbf;" horiz-adv-x="490" 
d="M359.005 218.005q-15.999 0 -27.498 11.999q-11.499 12 -11.499 28.998q0 16.999 11.499 28.499q11.499 11.499 27.498 11.499q16.999 0 27.998 -11.499q11 -11.5 11 -28.499q0 -16.998 -11 -28.998q-10.999 -11.999 -27.998 -11.999zM354.005 -143.973
q-45.9971 -108.994 -95.4941 -170.49t-93.9941 -83.9941q-44.4971 -22.499 -80.9951 -10q-36.4971 12.499 -55.9961 51.4971t-18.499 99.4941t30.998 134.491q15.999 39.998 40.4971 56.9971q24.499 16.999 51.9971 25.998q27.499 9 55.9971 16.499
q28.498 7.5 53.9961 29.998q25.499 22.499 45.498 66.9961q19.998 44.4971 29.998 125.492q13.999 -4.99902 25.998 -16.999q11.999 -11.999 19.999 -22.998q-12.999 -75.9951 -33.998 -120.493q-20.999 -44.4971 -45.4971 -68.4951q-24.499 -23.999 -49.9971 -34.498
q-25.499 -10.5 -49.4971 -18.999q-23.999 -8.5 -42.9971 -21.499q-18.999 -12.999 -30.998 -41.9971q-16.999 -42.9971 -18.999 -73.9961q-2 -30.998 6.99902 -48.4961q9 -17.499 26.999 -19.999q17.998 -2.5 39.4971 10.499t44.9971 42.498q23.499 29.498 44.498 77.4951
q7.99902 8.99902 20.998 13.499t27.499 5.49902q14.499 1 27.998 -0.5q13.499 -1.49902 22.498 -3.49902z" />
    <glyph glyph-name="at" unicode="@" horiz-adv-x="808" 
d="M491 354q6 4 16 2t20 -8.5t18.5 -16.5t10.5 -21q-34 -78 -61 -155t-41 -142q-4 -8 -10.5 -11t-12.5 -2t-11 3.5t-7 4.5q-5 16 -3 39q-27 -37 -60 -45.5t-58 11.5t-34 68t13 125q21 72 52 107.5t62 42t55 -10.5t30 -49q5 15 10.5 29.5zM341 190q-19 -61 -14.5 -93.5
t21 -37t39 18.5t39.5 74l4 17.5l4 17.5q11 39 3.5 63t-24 27.5t-37 -17t-35.5 -70.5zM400 510q69 0 129 -25.5t105 -69.5t71 -103t26 -126q0 -68 -26 -127t-71 -103t-105 -69.5t-129 -25.5t-129.5 25.5t-105.5 69.5t-71 103t-26 127q0 67 26 126t71 103t105.5 69.5
t129.5 25.5zM400 -75q55 0 103.5 20.5t84.5 55.5t57 83t21 102t-21 101.5t-57 83t-84.5 56t-103.5 20.5t-103.5 -20.5t-85 -56t-57.5 -83t-21 -101.5t21 -102t57.5 -83t85 -55.5t103.5 -20.5z" />
    <glyph glyph-name="bracketleft" unicode="[" horiz-adv-x="410" 
d="M379 698q1 -5 -0.5 -14.5t-4.5 -20t-7 -20.5t-8 -15q-12 1 -43 -2t-64 -7l-12.5 -55l-20 -88l-25 -108l-26.5 -113.5l-24.5 -105l-19.5 -83.5l55 -8.5t44 -6.5q8 -11 12 -31t2 -30h-39h-58.5h-56h-31.5q0 4 6 36.5l15.5 82.5l21.5 113l25 128l25 127.5l21.5 111.5
l15.5 79.5t6 32.5h32.5t58.5 -0.5t60.5 -1t39.5 -1.5z" />
    <glyph glyph-name="bracketright" unicode="]" horiz-adv-x="413" 
d="M57 -7q-1 4 0.5 14t4.5 20.5t7 20.5t8 15q12 -1 43 2t64 7q3 17 12 55l20.5 88l25 108l26.5 113.5l24.5 105l19.5 83.5l-55 8.5t-44 6.5q-8 11 -12 31t-2 30h38.5h59h56h31.5q0 -4 -6 -36.5l-15.5 -82.5l-21.5 -113l-25 -128l-25 -127.5l-21.5 -111.5l-15.5 -79.5
t-6 -32.5h-18h-32.5t-40.5 0.5t-41.5 1t-35.5 0.5t-23 1z" />
    <glyph glyph-name="braceleft" unicode="{" horiz-adv-x="455" 
d="M195 573q17 51 44 81t57 41.5t58.5 5t49.5 -28.5t30 -59.5t-1 -88.5q-5 1 -15 4l-21 6t-20.5 7t-12.5 7q8 36 -2.5 58.5t-29 26t-40.5 -14t-36 -61.5q-9 -29 -5 -55l8 -51.5t1 -51.5t-25 -53q0 -32 -14.5 -53.5t-33 -39.5l-37.5 -36.5t-28 -45.5q-15 -44 -6.5 -71
t27 -35.5t41.5 3t38 46.5q4 0 12.5 -2t18 -6l18.5 -8t15 -8q-21 -45 -50 -69t-59 -29.5t-57.5 6t-44.5 37.5t-21 65.5t13 90.5q11 33 31.5 53.5t41 35t36.5 27.5t18 32q-6 3 -8 10.5t0 15t7.5 12.5t14.5 3q9 16 5 37.5t-11.5 47t-11.5 53t5 55.5z" />
    <glyph glyph-name="braceright" unicode="}" horiz-adv-x="462" 
d="M301 113q-17 -51 -44 -81t-57 -41.5t-58.5 -5t-49.5 28.5t-30 59.5t1 88.5q5 -2 15 -4.5l21 -5.5t20.5 -7t12.5 -7q-8 -36 2.5 -58.5t29 -26t40.5 14t36 61.5q9 28 5 54.5l-8 52t-1.5 51.5t25.5 53q0 32 14.5 53.5t33 39.5l37.5 36.5t28 45.5q15 43 6.5 70.5t-27 36
t-41.5 -3.5t-38 -46q-5 0 -13 2t-17.5 6l-18.5 8t-15 8q21 45 50 69t59 29.5t57.5 -6t44.5 -37.5t21 -66t-13 -90q-11 -33 -31.5 -53.5t-41 -35t-36.5 -27.5t-18 -32q6 -3 8 -10.5t0 -15t-7.5 -12.5t-14.5 -3q-9 -16 -5 -37.5t11.5 -47t11.5 -53t-5 -55.5z" />
    <glyph glyph-name="bar" unicode="|" horiz-adv-x="346" 
d="M224 673q0 -6 -0.5 -44.5t-2 -97t-4 -129t-6 -140t-7.5 -130.5t-8 -100q-3 -10 -12 -18t-18.5 -11.5t-17.5 -0.5t-9 15q0 17 0.5 66.5t1 113.5t0.5 135.5t0.5 132.5t1 103.5t1.5 49.5q8 16 19 27t22 17.5t21.5 9t17.5 1.5z" />
    <glyph glyph-name="trademark" unicode="&#x2122;" horiz-adv-x="390" 
d="M275 601q5 8 8.5 5.5t-0.5 -9.5q-5 -9 -10.5 -20.5t-12 -21t-13 -15.5t-11.5 -5q-8 1 -11 7.5t-3 15t2.5 18.5t5.5 19q-9 -5 -21 -18.5t-18 -36.5q-3 -5 -9 -5.5t-7 0.5q1 17 6 35t10 32q-9 -5 -21 -17.5t-20 -33.5q-1 -3 -1.5 -6.5t-1.5 -6.5q-2 -4 -5.5 -3.5t-5.5 2.5
q-1 6 0 13q-6 -8 -11 -12.5t-10 -3.5q-10 1 -12.5 12t-0.5 27.5t9 38t16 44.5h-29q-2 2 -0.5 9t3.5 9h34q3 7 6 13t6 13q4 -1 10 -5.5t8 -11.5q-2 -4 -4 -10q13 0 23.5 -0.5t13.5 -1.5t1 -8.5t-7 -9.5q-4 1 -14.5 1t-24.5 1q-8 -18 -15 -37l-12.5 -34.5t-8 -25.5t-0.5 -10
q4 -1 10 7.5t12 18.5q3 13 8 27.5l10 28.5q4 2 10 -2t8 -10q-2 -5 -4 -9t-4 -9q11 15 22.5 23t14.5 8q3 -1 8.5 -4t7.5 -10q-2 -6 -7 -16q10 11 18 16.5t11 5.5q4 0 9 -3.5t7 -10.5q-1 -4 -5 -14l-8 -20t-6 -18t1 -8q3 -1 8 5.5t10.5 15.5t10 18z" />
    <glyph glyph-name="Euro" unicode="&#x20ac;" horiz-adv-x="483" 
d="M395 397q8 13 16.5 9t3.5 -16q-14 -29 -37.5 -66t-55 -68t-69 -48.5t-77.5 -7.5q-45 11 -63 49.5t-16 89.5h-37q-1 7 4 20t8 17h30l2 12t3 13q-11 -1 -19 -0.5t-12 0.5q-1 7 4 20t8 17h29q15 45 40 86t55.5 70t65.5 40.5t70 -1.5q24 -9 34.5 -30t10 -45.5t-11 -50.5
t-27.5 -45.5t-39 -29t-47 -2.5q0 3 1.5 10t3.5 15.5t5.5 16t6.5 10.5q19 -7 37 8t27.5 36.5t6.5 44t-26 30.5q-19 7 -41 -4.5t-43.5 -34.5t-41 -55.5t-34.5 -68.5h30q2 -5 -2 -18.5t-8 -18.5h-34q-2 -6 -3.5 -12.5t-3.5 -12.5h35q2 -5 -2 -18.5t-8 -18.5h-32q-5 -38 4 -66
t37 -39q23 -9 45.5 -4.5t43.5 18t40 33t35 41t28 41.5z" />
    <glyph glyph-name="cent" unicode="&#xa2;" horiz-adv-x="238" 
d="M182 608q7 14 15.5 12.5t1.5 -18.5q-24 -60 -57 -90t-61 -34l-8.5 -20.5t-5.5 -12.5q-5 -8 -12.5 -0.5t-6.5 15.5q2 5 3.5 10t3.5 11q-18 9 -25 35t7 70q17 55 44 71.5t46 5.5l11 25.5t5 11.5q5 -2 12.5 -10t8.5 -23q-1 -2 -5.5 -12.5l-11.5 -27.5q2 -19 -7 -41
q-5 -9 -16 -11q-8 -17 -15 -34t-15 -33q19 5 43 30t45 70zM74 578q-8 -22 -9 -37t4 -24q9 26 20 53.5l22 52.5q-6 5 -16 -5.5t-21 -39.5z" />
    <glyph glyph-name="guillemotleft" unicode="&#xab;" horiz-adv-x="346" 
d="M222 243q5 5 13.5 3t15.5 -7.5t11 -12t1 -10.5q-8 -9 -20 -24.5t-19 -23.5l18 -22t19 -23q3 -4 -1 -11t-11 -13t-15 -9.5t-12 -0.5q-3 2 -13 13l-20.5 23.5t-19 24.5t-9.5 16q1 4 8 14t16.5 22t19.5 23t18 18zM126 168l18 -22t19 -23q3 -4 -1 -11t-11 -13t-15 -9.5
t-12 -0.5q-3 2 -13 13l-20.5 23.5t-19 24.5t-9.5 16q1 4 8 14t16.5 22t19.5 23t18 18q5 5 13.5 3t15.5 -7.5t11 -12t1 -10.5q-8 -9 -20 -24.5t-19 -23.5z" />
    <glyph glyph-name="guillemotright" unicode="&#xbb;" horiz-adv-x="346" 
d="M120 243l17.5 -18t20 -23t16.5 -22t8 -14q-1 -4 -9.5 -16t-19 -24.5l-20.5 -23.5t-13 -13q-5 -3 -12.5 0.5t-14.5 9.5t-11 13t-1 11q7 8 19 23l18 22q-7 8 -19 23.5t-20 24.5q-3 4 1 10.5t11 12t15.5 7.5t13.5 -3zM216 168q-7 8 -19 23.5t-20 24.5q-3 4 1 10.5t11 12
t15.5 7.5t13.5 -3l17.5 -18t20 -23t16.5 -22t8 -14q-1 -4 -9.5 -16t-19 -24.5l-20.5 -23.5t-13 -13q-5 -3 -12.5 0.5t-14.5 9.5t-11 13t-1 11q7 8 19 23z" />
    <glyph glyph-name="guilsinglleft" unicode="&#x2039;" horiz-adv-x="235" 
d="M126 168l18 -22t19 -23q3 -4 -1 -11t-11 -13t-15 -9.5t-12 -0.5q-3 2 -13 13l-20.5 23.5t-19 24.5t-9.5 16q1 4 8 14t16.5 22t19.5 23t18 18q5 5 13.5 3t15.5 -7.5t11 -12t1 -10.5q-8 -9 -20 -24.5t-19 -23.5z" />
    <glyph glyph-name="guilsinglright" unicode="&#x203a;" horiz-adv-x="235" 
d="M118 168q-7 8 -19 23.5t-20 24.5q-3 4 1 10.5t11 12t15.5 7.5t13.5 -3l17.5 -18t20 -23t16.5 -22t8 -14q-1 -4 -9.5 -16t-19 -24.5l-20.5 -23.5t-13 -13q-5 -3 -12.5 0.5t-14.5 9.5t-11 13t-1 11q7 8 19 23z" />
    <glyph glyph-name="endash" unicode="&#x2013;" horiz-adv-x="494" 
d="M407 205q1 -5 -0.5 -14.5t-4.5 -20t-7 -20.5t-8 -15h-32h-57h-70h-70h-57h-31q-1 7 1.5 17t6 20.5t8 19.5t7.5 13q4 0 26.5 0.5t55 0.5h70h71.5t59 -0.5t32 -0.5z" />
    <glyph glyph-name="emdash" unicode="&#x2014;" horiz-adv-x="609" 
d="M515 205q1 -5 -0.5 -14.5t-4.5 -20t-7 -20.5t-8 -15h-40h-77h-96h-96h-77h-39q-1 7 1.5 17t6 20.5t8 19.5t7.5 13q4 0 34.5 0.5t75 0.5h96h97.5t79 -0.5t40 -0.5z" />
    <glyph glyph-name="underscore" unicode="_" horiz-adv-x="657" 
d="M566 70q1 -5 -0.5 -14.5t-4.5 -20t-7 -20.5t-8 -15h-44h-86.5h-108h-108h-86.5h-43q-1 7 1.5 17t6 20.5t8 19.5t7.5 13q4 0 38.5 0.5t84.5 0.5h108.5h109.5t88 -0.5t44 -0.5z" />
    <glyph glyph-name="quotedblright" unicode="&#x201d;" horiz-adv-x="362" 
d="M190 633q0 -5 -1 -7q-1 -28 -10.5 -49.5t-21.5 -36.5t-25 -23.5t-20 -8.5q8 16 13.5 35.5t7.5 40.5q-14 4 -23 16t-11 28q-1 20 11.5 34.5t31.5 16.5q19 1 32.5 -12.5t15.5 -33.5zM298 627q-1 -28 -10.5 -49.5t-21.5 -36.5t-25 -23t-20 -8q8 15 13 34.5t8 40.5
q-14 4 -23.5 16t-10.5 28q-1 20 11.5 34.5t31.5 16.5q18 1 32 -12.5t15 -33.5v-7z" />
    <glyph glyph-name="quotedblleft" unicode="&#x201c;" horiz-adv-x="366" 
d="M183 556q0 5 1 7q1 28 10.5 49.5t21.5 36.5t24.5 23.5t20.5 8.5q-8 -16 -13.5 -35.5t-7.5 -40.5q14 -4 23 -16t11 -28q1 -20 -11.5 -34.5t-31.5 -16.5q-19 -1 -32.5 12.5t-15.5 33.5zM75 562q1 28 10.5 49.5t21.5 36.5t24.5 23t20.5 8q-8 -15 -13 -34.5t-8 -40.5
q14 -4 23.5 -16t10.5 -28q1 -20 -11.5 -34.5t-31.5 -16.5q-18 -1 -32 12.5t-15 33.5v7z" />
    <glyph glyph-name="degree" unicode="&#xb0;" horiz-adv-x="212" 
d="M103 685q19 0 32 -13t13 -33q0 -19 -13 -32.5t-32 -13.5t-32 13.5t-13 32.5q0 20 13 33t32 13zM103 620q8 0 13.5 5.5t5.5 13.5t-5.5 14t-13.5 6t-13.5 -6t-5.5 -14t5.5 -13.5t13.5 -5.5z" />
    <glyph glyph-name="ring" unicode="&#x2da;" horiz-adv-x="280" 
d="M144 469q23 0 38.5 -14t15.5 -34t-15.5 -34.5t-38.5 -14.5t-39 14.5t-16 34.5t16 34t39 14zM144 403q8 0 13.5 5t5.5 13q0 7 -5.5 12t-13.5 5t-14 -5t-6 -12q0 -8 6 -13t14 -5z" />
    <glyph glyph-name="grave" unicode="`" horiz-adv-x="290" 
d="M184 413q5 -3 4 -10.5t-5.5 -15t-10 -13t-9.5 -3.5q-16 8 -34.5 19.5t-23.5 19.5q-7 10 -6.5 21.5t4 20.5t8 13.5t5.5 0.5q1 -6 8.5 -13t17.5 -14l21 -14t21 -12z" />
    <glyph glyph-name="acute" unicode="&#xb4;" horiz-adv-x="290" 
d="M104 413q10 5 21 12l21 14t17 14t9 13q1 4 5.5 -0.5t8 -13.5t4 -20.5t-6.5 -21.5q-5 -8 -23.5 -19.5t-34.5 -19.5q-4 -2 -9.5 3.5t-10 13t-5.5 15t4 10.5z" />
    <glyph glyph-name="circumflex" unicode="&#x2c6;" horiz-adv-x="267" 
d="M193 400q2 -5 -1.5 -10.5t-8.5 -10t-11 -6t-8 1.5q-5 8 -13 18.5t-12 17.5q-7 -2 -20.5 -8t-21.5 -9q-4 -2 -8 2.5t-7 11t-4 13t2 9.5q2 2 12 7t22 10t23 8.5t14 3.5q3 -2 8.5 -8.5t11.5 -15.5l12 -18.5t10 -16.5z" />
    <glyph glyph-name="dieresis" unicode="&#xa8;" horiz-adv-x="273" 
d="M106 440q11 2 18.5 -5t9.5 -18q1 -11 -5.5 -19.5t-17.5 -9.5t-18.5 6t-9.5 18q-1 11 5.5 19t17.5 9zM198 400q1 -11 -5.5 -19.5t-17.5 -9.5t-18.5 6t-8.5 18q-2 11 4.5 19t17.5 10q11 1 19 -6t9 -18z" />
    <glyph glyph-name="tilde" unicode="&#x2dc;" horiz-adv-x="262" 
d="M182 415q3 -5 2 -13.5t-5 -16.5t-8 -12.5t-7 -0.5q-6 8 -17 13t-22 9t-20.5 8t-13.5 10q-5 8 -4.5 19t3.5 19.5t7 12.5t7 -2t13.5 -11t23.5 -10.5t24.5 -11.5t16.5 -13z" />
    <glyph glyph-name="Agrave" unicode="&#xc0;" horiz-adv-x="482" 
d="M533 716q7 0 17 -5t20.5 -13t19 -19t12.5 -23q-111 -168 -172.5 -362t-70.5 -397q-4 -8 -10 -11.5t-12.5 -3.5t-11.5 2.5t-7 4.5q-40 66 -92.5 97.5t-110.5 38.5q-64 -68 -120 -115t-105.5 -76.5t-91.5 -43t-78 -14.5q-46 0 -55.5 22t10 55.5t61.5 72.5t98.5 73t122 57
t131.5 24q55 69 111.5 148l113 161.5l111.5 165.5zM-270 -195q36 0 73.5 16.5t77 45.5t80.5 69.5t83 89.5q-53 -5 -104.5 -23t-95.5 -42.5t-77.5 -52t-51 -50.5t-15 -38t29.5 -15zM309 -19q2 69 17.5 163.5t44.5 197.5q-57 -81 -110 -147.5t-102 -121.5q42 -9 80 -31t70 -61
zM661 769q5 -3 4 -10.5t-5.5 -15t-10 -13t-9.5 -3.5q-16 8 -34.5 19.5t-23.5 19.5q-7 10 -6.5 21.5t4 20.5t8 13.5t5.5 0.5q1 -6 8.5 -13t17.5 -14l21 -14t21 -12z" />
    <glyph glyph-name="Aacute" unicode="&#xc1;" horiz-adv-x="482" 
d="M533 716q7 0 17 -5t20.5 -13t19 -19t12.5 -23q-111 -168 -172.5 -362t-70.5 -397q-4 -8 -10 -11.5t-12.5 -3.5t-11.5 2.5t-7 4.5q-40 66 -92.5 97.5t-110.5 38.5q-64 -68 -120 -115t-105.5 -76.5t-91.5 -43t-78 -14.5q-46 0 -55.5 22t10 55.5t61.5 72.5t98.5 73t122 57
t131.5 24q55 69 111.5 148l113 161.5l111.5 165.5zM-270 -195q36 0 73.5 16.5t77 45.5t80.5 69.5t83 89.5q-53 -5 -104.5 -23t-95.5 -42.5t-77.5 -52t-51 -50.5t-15 -38t29.5 -15zM309 -19q2 69 17.5 163.5t44.5 197.5q-57 -81 -110 -147.5t-102 -121.5q42 -9 80 -31t70 -61
zM591 769q10 5 21 12l21 14t17 14t9 13q1 4 5.5 -0.5t8 -13.5t4 -20.5t-6.5 -21.5q-5 -8 -23.5 -19.5t-34.5 -19.5q-4 -2 -9.5 3.5t-10 13t-5.5 15t4 10.5z" />
    <glyph glyph-name="Acircumflex" unicode="&#xc2;" horiz-adv-x="482" 
d="M533 716q7 0 17 -5t20.5 -13t19 -19t12.5 -23q-111 -168 -172.5 -362t-70.5 -397q-4 -8 -10 -11.5t-12.5 -3.5t-11.5 2.5t-7 4.5q-40 66 -92.5 97.5t-110.5 38.5q-64 -68 -120 -115t-105.5 -76.5t-91.5 -43t-78 -14.5q-46 0 -55.5 22t10 55.5t61.5 72.5t98.5 73t122 57
t131.5 24q55 69 111.5 148l113 161.5l111.5 165.5zM-270 -195q36 0 73.5 16.5t77 45.5t80.5 69.5t83 89.5q-53 -5 -104.5 -23t-95.5 -42.5t-77.5 -52t-51 -50.5t-15 -38t29.5 -15zM309 -19q2 69 17.5 163.5t44.5 197.5q-57 -81 -110 -147.5t-102 -121.5q42 -9 80 -31t70 -61
zM661 756q2 -5 -1.5 -10.5t-8.5 -10t-11 -6t-8 1.5q-5 8 -13 18.5t-12 17.5q-7 -2 -20.5 -8t-21.5 -9q-4 -2 -8 2.5t-7 11t-4 13t2 9.5q2 2 12 7t22 10t23 8.5t14 3.5q3 -2 8.5 -8.5t11.5 -15.5l12 -18.5t10 -16.5z" />
    <glyph glyph-name="Atilde" unicode="&#xc3;" horiz-adv-x="482" 
d="M533 716q7 0 17 -5t20.5 -13t19 -19t12.5 -23q-111 -168 -172.5 -362t-70.5 -397q-4 -8 -10 -11.5t-12.5 -3.5t-11.5 2.5t-7 4.5q-40 66 -92.5 97.5t-110.5 38.5q-64 -68 -120 -115t-105.5 -76.5t-91.5 -43t-78 -14.5q-46 0 -55.5 22t10 55.5t61.5 72.5t98.5 73t122 57
t131.5 24q55 69 111.5 148l113 161.5l111.5 165.5zM-270 -195q36 0 73.5 16.5t77 45.5t80.5 69.5t83 89.5q-53 -5 -104.5 -23t-95.5 -42.5t-77.5 -52t-51 -50.5t-15 -38t29.5 -15zM309 -19q2 69 17.5 163.5t44.5 197.5q-57 -81 -110 -147.5t-102 -121.5q42 -9 80 -31t70 -61
zM659 771q3 -5 2 -13.5t-5 -16.5t-8 -12.5t-7 -0.5q-6 8 -17 13t-22 9t-20.5 8t-13.5 10q-5 8 -4.5 19t3.5 19.5t7 12.5t7 -2t13.5 -11t23.5 -10.5t24.5 -11.5t16.5 -13z" />
    <glyph glyph-name="Adieresis" unicode="&#xc4;" horiz-adv-x="482" 
d="M533 716q7 0 17 -5t20.5 -13t19 -19t12.5 -23q-111 -168 -172.5 -362t-70.5 -397q-4 -8 -10 -11.5t-12.5 -3.5t-11.5 2.5t-7 4.5q-40 66 -92.5 97.5t-110.5 38.5q-64 -68 -120 -115t-105.5 -76.5t-91.5 -43t-78 -14.5q-46 0 -55.5 22t10 55.5t61.5 72.5t98.5 73t122 57
t131.5 24q55 69 111.5 148l113 161.5l111.5 165.5zM-270 -195q36 0 73.5 16.5t77 45.5t80.5 69.5t83 89.5q-53 -5 -104.5 -23t-95.5 -42.5t-77.5 -52t-51 -50.5t-15 -38t29.5 -15zM309 -19q2 69 17.5 163.5t44.5 197.5q-57 -81 -110 -147.5t-102 -121.5q42 -9 80 -31t70 -61
zM569 796q11 2 18.5 -5t9.5 -18q1 -11 -5.5 -19.5t-17.5 -9.5t-18.5 6t-9.5 18q-1 11 5.5 19t17.5 9zM661 756q1 -11 -5.5 -19.5t-17.5 -9.5t-18.5 6t-8.5 18q-2 11 4.5 19t17.5 10q11 1 19 -6t9 -18z" />
    <glyph glyph-name="Aring" unicode="&#xc5;" horiz-adv-x="482" 
d="M533 716q7 0 17 -5t20.5 -13t19 -19t12.5 -23q-111 -168 -172.5 -362t-70.5 -397q-4 -8 -10 -11.5t-12.5 -3.5t-11.5 2.5t-7 4.5q-40 66 -92.5 97.5t-110.5 38.5q-64 -68 -120 -115t-105.5 -76.5t-91.5 -43t-78 -14.5q-46 0 -55.5 22t10 55.5t61.5 72.5t98.5 73t122 57
t131.5 24q55 69 111.5 148l113 161.5l111.5 165.5zM-270 -195q36 0 73.5 16.5t77 45.5t80.5 69.5t83 89.5q-53 -5 -104.5 -23t-95.5 -42.5t-77.5 -52t-51 -50.5t-15 -38t29.5 -15zM309 -19q2 69 17.5 163.5t44.5 197.5q-57 -81 -110 -147.5t-102 -121.5q42 -9 80 -31t70 -61
zM640 825q23 0 38.5 -14t15.5 -34t-15.5 -34.5t-38.5 -14.5t-39 14.5t-16 34.5t16 34t39 14zM640 759q8 0 13.5 5t5.5 13q0 7 -5.5 12t-13.5 5t-14 -5t-6 -12q0 -8 6 -13t14 -5z" />
    <glyph glyph-name="Egrave" unicode="&#xc8;" horiz-adv-x="560" 
d="M569 257q7 12 15.5 15.5t15 1t9 -10t-2.5 -18.5q-17 -37 -43 -80.5t-59 -87t-72.5 -82.5t-84.5 -66.5t-94 -41t-100 -4.5q-71 12 -107 51t-43 90.5t11.5 109.5t55.5 106.5t89.5 81.5t113.5 36q-39 25 -57 65.5t-16.5 85t21 87.5t55.5 73t87 41.5t116 -6.5
q42 -12 64.5 -40.5t28.5 -63.5t-4 -70.5t-33.5 -62t-59.5 -38t-83 2.5q0 6 3 18t7.5 25.5t10.5 26.5t13 19q33 -12 55 0.5t28 34.5t-7.5 46.5t-50.5 37.5q-36 12 -67 2t-53 -34t-34 -57t-10.5 -66t17 -61.5t48.5 -43.5q6 -7 9 -20.5t4 -28.5t-0.5 -29t-5.5 -21
q-58 11 -108.5 -6.5t-87.5 -51t-59.5 -77.5t-24.5 -85.5t17.5 -74.5t66.5 -46q46 -13 89.5 -1.5t84 37.5t76 63.5t65.5 77t53 76.5t38 64zM468 769q5 -3 4 -10.5t-5.5 -15t-10 -13t-9.5 -3.5q-16 8 -34.5 19.5t-23.5 19.5q-7 10 -6.5 21.5t4 20.5t8 13.5t5.5 0.5
q1 -6 8.5 -13t17.5 -14l21 -14t21 -12z" />
    <glyph glyph-name="Eacute" unicode="&#xc9;" horiz-adv-x="560" 
d="M569 257q7 12 15.5 15.5t15 1t9 -10t-2.5 -18.5q-17 -37 -43 -80.5t-59 -87t-72.5 -82.5t-84.5 -66.5t-94 -41t-100 -4.5q-71 12 -107 51t-43 90.5t11.5 109.5t55.5 106.5t89.5 81.5t113.5 36q-39 25 -57 65.5t-16.5 85t21 87.5t55.5 73t87 41.5t116 -6.5
q42 -12 64.5 -40.5t28.5 -63.5t-4 -70.5t-33.5 -62t-59.5 -38t-83 2.5q0 6 3 18t7.5 25.5t10.5 26.5t13 19q33 -12 55 0.5t28 34.5t-7.5 46.5t-50.5 37.5q-36 12 -67 2t-53 -34t-34 -57t-10.5 -66t17 -61.5t48.5 -43.5q6 -7 9 -20.5t4 -28.5t-0.5 -29t-5.5 -21
q-58 11 -108.5 -6.5t-87.5 -51t-59.5 -77.5t-24.5 -85.5t17.5 -74.5t66.5 -46q46 -13 89.5 -1.5t84 37.5t76 63.5t65.5 77t53 76.5t38 64zM382 769q10 5 21 12l21 14t17 14t9 13q1 4 5.5 -0.5t8 -13.5t4 -20.5t-6.5 -21.5q-5 -8 -23.5 -19.5t-34.5 -19.5q-4 -2 -9.5 3.5
t-10 13t-5.5 15t4 10.5z" />
    <glyph glyph-name="Ecircumflex" unicode="&#xca;" horiz-adv-x="560" 
d="M569 257q7 12 15.5 15.5t15 1t9 -10t-2.5 -18.5q-17 -37 -43 -80.5t-59 -87t-72.5 -82.5t-84.5 -66.5t-94 -41t-100 -4.5q-71 12 -107 51t-43 90.5t11.5 109.5t55.5 106.5t89.5 81.5t113.5 36q-39 25 -57 65.5t-16.5 85t21 87.5t55.5 73t87 41.5t116 -6.5
q42 -12 64.5 -40.5t28.5 -63.5t-4 -70.5t-33.5 -62t-59.5 -38t-83 2.5q0 6 3 18t7.5 25.5t10.5 26.5t13 19q33 -12 55 0.5t28 34.5t-7.5 46.5t-50.5 37.5q-36 12 -67 2t-53 -34t-34 -57t-10.5 -66t17 -61.5t48.5 -43.5q6 -7 9 -20.5t4 -28.5t-0.5 -29t-5.5 -21
q-58 11 -108.5 -6.5t-87.5 -51t-59.5 -77.5t-24.5 -85.5t17.5 -74.5t66.5 -46q46 -13 89.5 -1.5t84 37.5t76 63.5t65.5 77t53 76.5t38 64zM496 756q2 -5 -1.5 -10.5t-8.5 -10t-11 -6t-8 1.5q-5 8 -13 18.5t-12 17.5q-7 -2 -20.5 -8t-21.5 -9q-4 -2 -8 2.5t-7 11t-4 13t2 9.5
q2 2 12 7t22 10t23 8.5t14 3.5q3 -2 8.5 -8.5t11.5 -15.5l12 -18.5t10 -16.5z" />
    <glyph glyph-name="Edieresis" unicode="&#xcb;" horiz-adv-x="560" 
d="M569 257q7 12 15.5 15.5t15 1t9 -10t-2.5 -18.5q-17 -37 -43 -80.5t-59 -87t-72.5 -82.5t-84.5 -66.5t-94 -41t-100 -4.5q-71 12 -107 51t-43 90.5t11.5 109.5t55.5 106.5t89.5 81.5t113.5 36q-39 25 -57 65.5t-16.5 85t21 87.5t55.5 73t87 41.5t116 -6.5
q42 -12 64.5 -40.5t28.5 -63.5t-4 -70.5t-33.5 -62t-59.5 -38t-83 2.5q0 6 3 18t7.5 25.5t10.5 26.5t13 19q33 -12 55 0.5t28 34.5t-7.5 46.5t-50.5 37.5q-36 12 -67 2t-53 -34t-34 -57t-10.5 -66t17 -61.5t48.5 -43.5q6 -7 9 -20.5t4 -28.5t-0.5 -29t-5.5 -21
q-58 11 -108.5 -6.5t-87.5 -51t-59.5 -77.5t-24.5 -85.5t17.5 -74.5t66.5 -46q46 -13 89.5 -1.5t84 37.5t76 63.5t65.5 77t53 76.5t38 64zM407 796q11 2 18.5 -5t9.5 -18q1 -11 -5.5 -19.5t-17.5 -9.5t-18.5 6t-9.5 18q-1 11 5.5 19t17.5 9zM499 756q1 -11 -5.5 -19.5
t-17.5 -9.5t-18.5 6t-8.5 18q-2 11 4.5 19t17.5 10q11 1 19 -6t9 -18z" />
    <glyph glyph-name="Igrave" unicode="&#xcc;" horiz-adv-x="193" 
d="M230 715q7 -1 16 -7.5t18.5 -16.5t17.5 -22.5t12 -24.5q-54 -101 -97 -202.5t-74 -198t-49.5 -185t-24.5 -164.5q-3 -8 -9 -11t-12.5 -3t-12 2t-7.5 4q-9 29 -8 81.5t11.5 120t29.5 146.5t47 161t63.5 164t78.5 156zM351 769q5 -3 4 -10.5t-5.5 -15t-10 -13t-9.5 -3.5
q-16 8 -34.5 19.5t-23.5 19.5q-7 10 -6.5 21.5t4 20.5t8 13.5t5.5 0.5q1 -6 8.5 -13t17.5 -14l21 -14t21 -12z" />
    <glyph glyph-name="Iacute" unicode="&#xcd;" horiz-adv-x="193" 
d="M230 715q7 -1 16 -7.5t18.5 -16.5t17.5 -22.5t12 -24.5q-54 -101 -97 -202.5t-74 -198t-49.5 -185t-24.5 -164.5q-3 -8 -9 -11t-12.5 -3t-12 2t-7.5 4q-9 29 -8 81.5t11.5 120t29.5 146.5t47 161t63.5 164t78.5 156zM284 769q10 5 21 12l21 14t17 14t9 13q1 4 5.5 -0.5
t8 -13.5t4 -20.5t-6.5 -21.5q-5 -8 -23.5 -19.5t-34.5 -19.5q-4 -2 -9.5 3.5t-10 13t-5.5 15t4 10.5z" />
    <glyph glyph-name="Icircumflex" unicode="&#xce;" horiz-adv-x="193" 
d="M230 715q7 -1 16 -7.5t18.5 -16.5t17.5 -22.5t12 -24.5q-54 -101 -97 -202.5t-74 -198t-49.5 -185t-24.5 -164.5q-3 -8 -9 -11t-12.5 -3t-12 2t-7.5 4q-9 29 -8 81.5t11.5 120t29.5 146.5t47 161t63.5 164t78.5 156zM367 756q2 -5 -1.5 -10.5t-8.5 -10t-11 -6t-8 1.5
q-5 8 -13 18.5t-12 17.5q-7 -2 -20.5 -8t-21.5 -9q-4 -2 -8 2.5t-7 11t-4 13t2 9.5q2 2 12 7t22 10t23 8.5t14 3.5q3 -2 8.5 -8.5t11.5 -15.5l12 -18.5t10 -16.5z" />
    <glyph glyph-name="Idieresis" unicode="&#xcf;" horiz-adv-x="193" 
d="M230 715q7 -1 16 -7.5t18.5 -16.5t17.5 -22.5t12 -24.5q-54 -101 -97 -202.5t-74 -198t-49.5 -185t-24.5 -164.5q-3 -8 -9 -11t-12.5 -3t-12 2t-7.5 4q-9 29 -8 81.5t11.5 120t29.5 146.5t47 161t63.5 164t78.5 156zM264 796q11 2 18.5 -5t9.5 -18q1 -11 -5.5 -19.5
t-17.5 -9.5t-18.5 6t-9.5 18q-1 11 5.5 19t17.5 9zM356 756q1 -11 -5.5 -19.5t-17.5 -9.5t-18.5 6t-8.5 18q-2 11 4.5 19t17.5 10q11 1 19 -6t9 -18z" />
    <glyph glyph-name="Eth" unicode="&#xd0;" horiz-adv-x="616" 
d="M265 696q33 12 76.5 16.5t87 -6t81.5 -40.5t58 -86.5t17 -143.5t-40 -213q-26 -88 -67.5 -152.5t-90.5 -107t-102.5 -63t-103.5 -21.5t-94 17.5t-74.5 55t-43.5 90t-2 123.5q5 6 15.5 13.5t22.5 14.5t23 12t17 6q-11 -45 -12.5 -82t4.5 -67q6 42 16.5 90.5t24.5 100.5
h-27.5t-18.5 1q-1 7 1.5 17t6 20.5t8 19.5t7.5 13h44q31 96 72.5 191.5t93.5 180.5zM238 324q1 -5 -0.5 -14.5t-4.5 -20t-7 -20.5t-8 -15q-8 0 -24 -0.5t-36 -0.5q-26 -74 -45 -145.5t-30 -137.5q37 -35 92 -36t111 32t106.5 100t78.5 168q33 118 33.5 200.5t-21.5 132
t-62.5 66.5t-89.5 3q-42 -72 -78.5 -151.5t-68.5 -160.5h54z" />
    <glyph glyph-name="Ntilde" unicode="&#xd1;" horiz-adv-x="506" 
d="M569 716q7 0 17 -5t20.5 -13t19 -19t12.5 -23q-111 -168 -172 -362t-71 -397q-4 -8 -10 -11.5t-12.5 -3.5t-11.5 2.5t-7 4.5q-30 29 -56.5 73t-49.5 99.5t-42 120t-32 135.5q-19 -78 -42.5 -149t-48.5 -128.5t-50.5 -99t-47.5 -60.5q-1 -1 -6 0.5t-11 5t-10.5 9
t-3.5 14.5q41 67 72 154t53 185t35.5 202.5t19.5 206.5q10 9 23.5 13.5t26.5 6t24 0t17 -4.5q0 -32 2.5 -81.5t8 -108.5t15 -125t23 -131.5t31.5 -127.5t40 -113q1 45 8.5 101.5t20.5 120t31.5 130.5t43 133.5t54.5 129t66 116.5zM419 771q3 -5 2 -13.5t-5 -16.5t-8 -12.5
t-7 -0.5q-6 8 -17 13t-22 9t-20.5 8t-13.5 10q-5 8 -4.5 19t3.5 19.5t7 12.5t7 -2t13.5 -11t23.5 -10.5t24.5 -11.5t16.5 -13z" />
    <glyph glyph-name="Ograve" unicode="&#xd2;" horiz-adv-x="552" 
d="M382 710q52 -12 83 -56.5t43.5 -109t8 -142t-24 -155t-52 -149t-76 -124t-96.5 -78.5t-113 -14q-62 13 -97.5 58.5t-49 110t-6.5 142t29.5 155t59 148.5t82.5 123t99.5 78t109.5 13zM166 -62q41 -11 79 10.5t70.5 65.5t58.5 104.5t43.5 127t24.5 132.5t2 120.5t-24 93
t-53 48.5q-37 11 -74.5 -11t-71.5 -65.5t-63.5 -103.5t-49.5 -125.5t-29.5 -131.5t-4.5 -121t27 -93.5t65 -50.5zM441 769q5 -3 4 -10.5t-5.5 -15t-10 -13t-9.5 -3.5q-16 8 -34.5 19.5t-23.5 19.5q-7 10 -6.5 21.5t4 20.5t8 13.5t5.5 0.5q1 -6 8.5 -13t17.5 -14l21 -14
t21 -12z" />
    <glyph glyph-name="Oacute" unicode="&#xd3;" horiz-adv-x="552" 
d="M382 710q52 -12 83 -56.5t43.5 -109t8 -142t-24 -155t-52 -149t-76 -124t-96.5 -78.5t-113 -14q-62 13 -97.5 58.5t-49 110t-6.5 142t29.5 155t59 148.5t82.5 123t99.5 78t109.5 13zM166 -62q41 -11 79 10.5t70.5 65.5t58.5 104.5t43.5 127t24.5 132.5t2 120.5t-24 93
t-53 48.5q-37 11 -74.5 -11t-71.5 -65.5t-63.5 -103.5t-49.5 -125.5t-29.5 -131.5t-4.5 -121t27 -93.5t65 -50.5zM365 769q10 5 21 12l21 14t17 14t9 13q1 4 5.5 -0.5t8 -13.5t4 -20.5t-6.5 -21.5q-5 -8 -23.5 -19.5t-34.5 -19.5q-4 -2 -9.5 3.5t-10 13t-5.5 15t4 10.5z" />
    <glyph glyph-name="Ocircumflex" unicode="&#xd4;" horiz-adv-x="552" 
d="M382 710q52 -12 83 -56.5t43.5 -109t8 -142t-24 -155t-52 -149t-76 -124t-96.5 -78.5t-113 -14q-62 13 -97.5 58.5t-49 110t-6.5 142t29.5 155t59 148.5t82.5 123t99.5 78t109.5 13zM166 -62q41 -11 79 10.5t70.5 65.5t58.5 104.5t43.5 127t24.5 132.5t2 120.5t-24 93
t-53 48.5q-37 11 -74.5 -11t-71.5 -65.5t-63.5 -103.5t-49.5 -125.5t-29.5 -131.5t-4.5 -121t27 -93.5t65 -50.5zM474 756q2 -5 -1.5 -10.5t-8.5 -10t-11 -6t-8 1.5q-5 8 -13 18.5t-12 17.5q-7 -2 -20.5 -8t-21.5 -9q-4 -2 -8 2.5t-7 11t-4 13t2 9.5q2 2 12 7t22 10t23 8.5
t14 3.5q3 -2 8.5 -8.5t11.5 -15.5l12 -18.5t10 -16.5z" />
    <glyph glyph-name="Otilde" unicode="&#xd5;" horiz-adv-x="552" 
d="M382 710q52 -12 83 -56.5t43.5 -109t8 -142t-24 -155t-52 -149t-76 -124t-96.5 -78.5t-113 -14q-62 13 -97.5 58.5t-49 110t-6.5 142t29.5 155t59 148.5t82.5 123t99.5 78t109.5 13zM166 -62q41 -11 79 10.5t70.5 65.5t58.5 104.5t43.5 127t24.5 132.5t2 120.5t-24 93
t-53 48.5q-37 11 -74.5 -11t-71.5 -65.5t-63.5 -103.5t-49.5 -125.5t-29.5 -131.5t-4.5 -121t27 -93.5t65 -50.5zM467 771q3 -5 2 -13.5t-5 -16.5t-8 -12.5t-7 -0.5q-6 8 -17 13t-22 9t-20.5 8t-13.5 10q-5 8 -4.5 19t3.5 19.5t7 12.5t7 -2t13.5 -11t23.5 -10.5t24.5 -11.5
t16.5 -13z" />
    <glyph glyph-name="Odieresis" unicode="&#xd6;" horiz-adv-x="552" 
d="M382 710q52 -12 83 -56.5t43.5 -109t8 -142t-24 -155t-52 -149t-76 -124t-96.5 -78.5t-113 -14q-62 13 -97.5 58.5t-49 110t-6.5 142t29.5 155t59 148.5t82.5 123t99.5 78t109.5 13zM166 -62q41 -11 79 10.5t70.5 65.5t58.5 104.5t43.5 127t24.5 132.5t2 120.5t-24 93
t-53 48.5q-37 11 -74.5 -11t-71.5 -65.5t-63.5 -103.5t-49.5 -125.5t-29.5 -131.5t-4.5 -121t27 -93.5t65 -50.5zM376 796q11 2 18.5 -5t9.5 -18q1 -11 -5.5 -19.5t-17.5 -9.5t-18.5 6t-9.5 18q-1 11 5.5 19t17.5 9zM468 756q1 -11 -5.5 -19.5t-17.5 -9.5t-18.5 6t-8.5 18
q-2 11 4.5 19t17.5 10q11 1 19 -6t9 -18z" />
    <glyph glyph-name="Oslash" unicode="&#xd8;" horiz-adv-x="552" 
d="M382 710q52 -12 83 -56.5t43.5 -109t8 -142t-24 -155t-52 -149t-76 -124t-96.5 -78.5t-113 -14q-62 13 -97.5 58.5t-49 110t-6.5 142t29.5 155t59 148.5t82.5 123t99.5 78t109.5 13zM166 -62q46 -13 88 15.5t77 83t61 126.5t39.5 146.5t14 143t-16.5 116.5
q-6 -15 -27 -62l-49.5 -109.5l-61 -133l-61.5 -134l-51 -112l-30 -65.5q-2 -2 -2.5 -3t-2.5 -3q5 -2 10.5 -4.5t11.5 -4.5zM358 641q-41 8 -83 -24t-79 -88.5t-65.5 -129t-44 -146.5t-14.5 -141.5t24 -112.5q12 37 33 92l46 117.5l52.5 128l52.5 124l45.5 106z" />
    <glyph glyph-name="Ugrave" unicode="&#xd9;" horiz-adv-x="523" 
d="M643 646q-55 -83 -101.5 -175.5t-80 -189t-51.5 -194t-16 -191.5q-4 -8 -10 -11.5t-12 -3.5t-11.5 2.5t-7.5 4.5q-17 53 -12 144q-46 -75 -97.5 -114t-101.5 -40q-53 1 -86.5 38.5t-47 101t-6 147.5t36.5 176.5t80.5 188.5t126.5 184q7 -4 18 -12.5t22 -19.5t20 -23.5
t12 -25.5q-66 -78 -113 -158.5t-77 -155.5t-43.5 -141.5t-11.5 -117.5t18 -83t46 -38q26 -6 57 8.5t61.5 48t58 85t48.5 118.5q12 64 31.5 131.5t45.5 134.5t58.5 130.5t70.5 119.5q7 0 18 -6t22 -16t21 -22t14 -25zM464 769q5 -3 4 -10.5t-5.5 -15t-10 -13t-9.5 -3.5
q-16 8 -34.5 19.5t-23.5 19.5q-7 10 -6.5 21.5t4 20.5t8 13.5t5.5 0.5q1 -6 8.5 -13t17.5 -14l21 -14t21 -12z" />
    <glyph glyph-name="Uacute" unicode="&#xda;" horiz-adv-x="523" 
d="M643 646q-55 -83 -101.5 -175.5t-80 -189t-51.5 -194t-16 -191.5q-4 -8 -10 -11.5t-12 -3.5t-11.5 2.5t-7.5 4.5q-17 53 -12 144q-46 -75 -97.5 -114t-101.5 -40q-53 1 -86.5 38.5t-47 101t-6 147.5t36.5 176.5t80.5 188.5t126.5 184q7 -4 18 -12.5t22 -19.5t20 -23.5
t12 -25.5q-66 -78 -113 -158.5t-77 -155.5t-43.5 -141.5t-11.5 -117.5t18 -83t46 -38q26 -6 57 8.5t61.5 48t58 85t48.5 118.5q12 64 31.5 131.5t45.5 134.5t58.5 130.5t70.5 119.5q7 0 18 -6t22 -16t21 -22t14 -25zM395 769q10 5 21 12l21 14t17 14t9 13q1 4 5.5 -0.5
t8 -13.5t4 -20.5t-6.5 -21.5q-5 -8 -23.5 -19.5t-34.5 -19.5q-4 -2 -9.5 3.5t-10 13t-5.5 15t4 10.5z" />
    <glyph glyph-name="Ucircumflex" unicode="&#xdb;" horiz-adv-x="523" 
d="M643 646q-55 -83 -101.5 -175.5t-80 -189t-51.5 -194t-16 -191.5q-4 -8 -10 -11.5t-12 -3.5t-11.5 2.5t-7.5 4.5q-17 53 -12 144q-46 -75 -97.5 -114t-101.5 -40q-53 1 -86.5 38.5t-47 101t-6 147.5t36.5 176.5t80.5 188.5t126.5 184q7 -4 18 -12.5t22 -19.5t20 -23.5
t12 -25.5q-66 -78 -113 -158.5t-77 -155.5t-43.5 -141.5t-11.5 -117.5t18 -83t46 -38q26 -6 57 8.5t61.5 48t58 85t48.5 118.5q12 64 31.5 131.5t45.5 134.5t58.5 130.5t70.5 119.5q7 0 18 -6t22 -16t21 -22t14 -25zM497 756q2 -5 -1.5 -10.5t-8.5 -10t-11 -6t-8 1.5
q-5 8 -13 18.5t-12 17.5q-7 -2 -20.5 -8t-21.5 -9q-4 -2 -8 2.5t-7 11t-4 13t2 9.5q2 2 12 7t22 10t23 8.5t14 3.5q3 -2 8.5 -8.5t11.5 -15.5l12 -18.5t10 -16.5z" />
    <glyph glyph-name="Udieresis" unicode="&#xdc;" horiz-adv-x="523" 
d="M643 646q-55 -83 -101.5 -175.5t-80 -189t-51.5 -194t-16 -191.5q-4 -8 -10 -11.5t-12 -3.5t-11.5 2.5t-7.5 4.5q-17 53 -12 144q-46 -75 -97.5 -114t-101.5 -40q-53 1 -86.5 38.5t-47 101t-6 147.5t36.5 176.5t80.5 188.5t126.5 184q7 -4 18 -12.5t22 -19.5t20 -23.5
t12 -25.5q-66 -78 -113 -158.5t-77 -155.5t-43.5 -141.5t-11.5 -117.5t18 -83t46 -38q26 -6 57 8.5t61.5 48t58 85t48.5 118.5q12 64 31.5 131.5t45.5 134.5t58.5 130.5t70.5 119.5q7 0 18 -6t22 -16t21 -22t14 -25zM386 796q11 2 18.5 -5t9.5 -18q1 -11 -5.5 -19.5
t-17.5 -9.5t-18.5 6t-9.5 18q-1 11 5.5 19t17.5 9zM478 756q1 -11 -5.5 -19.5t-17.5 -9.5t-18.5 6t-8.5 18q-2 11 4.5 19t17.5 10q11 1 19 -6t9 -18z" />
    <glyph glyph-name="Yacute" unicode="&#xdd;" horiz-adv-x="564" 
d="M571 246q7 16 15 22t14 3.5t8 -12t-4 -24.5q-43 -105 -95.5 -163.5t-104.5 -83.5q-4 -11 -6 -17.5t-3 -8.5q-27 -76 -57 -123t-59.5 -70t-56 -26.5t-46.5 6.5t-31.5 29t-9.5 42q2 30 23 57t51 49t63.5 40t60.5 30q1 2 1 2.5t1 2.5q0 2 2 8t4 15q-45 -45 -95.5 -69
t-102.5 -18q-55 5 -89.5 39t-47.5 89.5t-3.5 129t41.5 158.5t86.5 177t132.5 185l18 -13.5t22 -19.5t20 -23.5t11 -24.5q-104 -119 -164.5 -227.5t-82 -193.5t-4.5 -141t69 -70q32 -7 66 3t66.5 37t62 71t53.5 104l43 136.5l44 135.5l38.5 113.5t28.5 72.5q7 0 17 -5
t20.5 -13t19 -19t12.5 -23q-11 -25 -27 -67l-34.5 -93l-38 -108l-38 -113l-35.5 -106l-29 -88q50 35 85.5 88t64.5 118zM201 -159q0 -12 9.5 -22t25.5 -4t37.5 35.5t44.5 97.5q-22 -11 -43 -24t-37.5 -26.5t-26.5 -28t-10 -28.5zM407 769q10 5 21 12l21 14t17 14t9 13
q1 4 5.5 -0.5t8 -13.5t4 -20.5t-6.5 -21.5q-5 -8 -23.5 -19.5t-34.5 -19.5q-4 -2 -9.5 3.5t-10 13t-5.5 15t4 10.5z" />
    <glyph glyph-name="Ydieresis" unicode="&#x178;" horiz-adv-x="564" 
d="M571 246q7 16 15 22t14 3.5t8 -12t-4 -24.5q-43 -105 -95.5 -163.5t-104.5 -83.5q-4 -11 -6 -17.5t-3 -8.5q-27 -76 -57 -123t-59.5 -70t-56 -26.5t-46.5 6.5t-31.5 29t-9.5 42q2 30 23 57t51 49t63.5 40t60.5 30q1 2 1 2.5t1 2.5q0 2 2 8t4 15q-45 -45 -95.5 -69
t-102.5 -18q-55 5 -89.5 39t-47.5 89.5t-3.5 129t41.5 158.5t86.5 177t132.5 185l18 -13.5t22 -19.5t20 -23.5t11 -24.5q-104 -119 -164.5 -227.5t-82 -193.5t-4.5 -141t69 -70q32 -7 66 3t66.5 37t62 71t53.5 104l43 136.5l44 135.5l38.5 113.5t28.5 72.5q7 0 17 -5
t20.5 -13t19 -19t12.5 -23q-11 -25 -27 -67l-34.5 -93l-38 -108l-38 -113l-35.5 -106l-29 -88q50 35 85.5 88t64.5 118zM201 -159q0 -12 9.5 -22t25.5 -4t37.5 35.5t44.5 97.5q-22 -11 -43 -24t-37.5 -26.5t-26.5 -28t-10 -28.5zM408 796q11 2 18.5 -5t9.5 -18
q1 -11 -5.5 -19.5t-17.5 -9.5t-18.5 6t-9.5 18q-1 11 5.5 19t17.5 9zM500 756q1 -11 -5.5 -19.5t-17.5 -9.5t-18.5 6t-8.5 18q-2 11 4.5 19t17.5 10q11 1 19 -6t9 -18z" />
    <glyph glyph-name="agrave" unicode="&#xe0;" horiz-adv-x="315" 
d="M324 247q9 16 17 20.5t13.5 1t6 -13.5t-5.5 -23l-40.5 -77t-46.5 -77.5t-48 -58t-44 -18.5q-23 5 -34 20t-15 38q-26 -43 -60.5 -55.5t-61.5 6t-37.5 67.5t12.5 129q21 75 54 110.5t64.5 40.5t55 -14.5t26.5 -54.5q7 16 12.5 27t7.5 16q14 -2 33.5 -15t26.5 -39
q-3 -11 -11 -31.5t-18.5 -45t-20.5 -50.5t-17 -48t-8.5 -36.5t6.5 -15.5q7 -2 18.5 9.5t24.5 30.5t26.5 42l26 45.5l22.5 41.5zM50 190q-19 -60 -14.5 -92.5t20.5 -37.5t38.5 17t39.5 72q2 11 5 22l6 22q9 37 0.5 59.5t-24.5 25t-36 -18t-35 -69.5zM199 413q5 -3 4 -10.5
t-5.5 -15t-10 -13t-9.5 -3.5q-16 8 -34.5 19.5t-23.5 19.5q-7 10 -6.5 21.5t4 20.5t8 13.5t5.5 0.5q1 -6 8.5 -13t17.5 -14l21 -14t21 -12z" />
    <glyph glyph-name="aacute" unicode="&#xe1;" horiz-adv-x="315" 
d="M324 247q9 16 17 20.5t13.5 1t6 -13.5t-5.5 -23l-40.5 -77t-46.5 -77.5t-48 -58t-44 -18.5q-23 5 -34 20t-15 38q-26 -43 -60.5 -55.5t-61.5 6t-37.5 67.5t12.5 129q21 75 54 110.5t64.5 40.5t55 -14.5t26.5 -54.5q7 16 12.5 27t7.5 16q14 -2 33.5 -15t26.5 -39
q-3 -11 -11 -31.5t-18.5 -45t-20.5 -50.5t-17 -48t-8.5 -36.5t6.5 -15.5q7 -2 18.5 9.5t24.5 30.5t26.5 42l26 45.5l22.5 41.5zM50 190q-19 -60 -14.5 -92.5t20.5 -37.5t38.5 17t39.5 72q2 11 5 22l6 22q9 37 0.5 59.5t-24.5 25t-36 -18t-35 -69.5zM116 413q10 5 21 12
l21 14t17 14t9 13q1 4 5.5 -0.5t8 -13.5t4 -20.5t-6.5 -21.5q-5 -8 -23.5 -19.5t-34.5 -19.5q-4 -2 -9.5 3.5t-10 13t-5.5 15t4 10.5z" />
    <glyph glyph-name="acircumflex" unicode="&#xe2;" horiz-adv-x="315" 
d="M324 247q9 16 17 20.5t13.5 1t6 -13.5t-5.5 -23l-40.5 -77t-46.5 -77.5t-48 -58t-44 -18.5q-23 5 -34 20t-15 38q-26 -43 -60.5 -55.5t-61.5 6t-37.5 67.5t12.5 129q21 75 54 110.5t64.5 40.5t55 -14.5t26.5 -54.5q7 16 12.5 27t7.5 16q14 -2 33.5 -15t26.5 -39
q-3 -11 -11 -31.5t-18.5 -45t-20.5 -50.5t-17 -48t-8.5 -36.5t6.5 -15.5q7 -2 18.5 9.5t24.5 30.5t26.5 42l26 45.5l22.5 41.5zM50 190q-19 -60 -14.5 -92.5t20.5 -37.5t38.5 17t39.5 72q2 11 5 22l6 22q9 37 0.5 59.5t-24.5 25t-36 -18t-35 -69.5zM216 400q2 -5 -1.5 -10.5
t-8.5 -10t-11 -6t-8 1.5q-5 8 -13 18.5t-12 17.5q-7 -2 -20.5 -8t-21.5 -9q-4 -2 -8 2.5t-7 11t-4 13t2 9.5q2 2 12 7t22 10t23 8.5t14 3.5q3 -2 8.5 -8.5t11.5 -15.5l12 -18.5t10 -16.5z" />
    <glyph glyph-name="atilde" unicode="&#xe3;" horiz-adv-x="315" 
d="M324 247q9 16 17 20.5t13.5 1t6 -13.5t-5.5 -23l-40.5 -77t-46.5 -77.5t-48 -58t-44 -18.5q-23 5 -34 20t-15 38q-26 -43 -60.5 -55.5t-61.5 6t-37.5 67.5t12.5 129q21 75 54 110.5t64.5 40.5t55 -14.5t26.5 -54.5q7 16 12.5 27t7.5 16q14 -2 33.5 -15t26.5 -39
q-3 -11 -11 -31.5t-18.5 -45t-20.5 -50.5t-17 -48t-8.5 -36.5t6.5 -15.5q7 -2 18.5 9.5t24.5 30.5t26.5 42l26 45.5l22.5 41.5zM50 190q-19 -60 -14.5 -92.5t20.5 -37.5t38.5 17t39.5 72q2 11 5 22l6 22q9 37 0.5 59.5t-24.5 25t-36 -18t-35 -69.5zM205 415q3 -5 2 -13.5
t-5 -16.5t-8 -12.5t-7 -0.5q-6 8 -17 13t-22 9t-20.5 8t-13.5 10q-5 8 -4.5 19t3.5 19.5t7 12.5t7 -2t13.5 -11t23.5 -10.5t24.5 -11.5t16.5 -13z" />
    <glyph glyph-name="adieresis" unicode="&#xe4;" horiz-adv-x="315" 
d="M324 247q9 16 17 20.5t13.5 1t6 -13.5t-5.5 -23l-40.5 -77t-46.5 -77.5t-48 -58t-44 -18.5q-23 5 -34 20t-15 38q-26 -43 -60.5 -55.5t-61.5 6t-37.5 67.5t12.5 129q21 75 54 110.5t64.5 40.5t55 -14.5t26.5 -54.5q7 16 12.5 27t7.5 16q14 -2 33.5 -15t26.5 -39
q-3 -11 -11 -31.5t-18.5 -45t-20.5 -50.5t-17 -48t-8.5 -36.5t6.5 -15.5q7 -2 18.5 9.5t24.5 30.5t26.5 42l26 45.5l22.5 41.5zM50 190q-19 -60 -14.5 -92.5t20.5 -37.5t38.5 17t39.5 72q2 11 5 22l6 22q9 37 0.5 59.5t-24.5 25t-36 -18t-35 -69.5zM123 440q11 2 18.5 -5
t9.5 -18q1 -11 -5.5 -19.5t-17.5 -9.5t-18.5 6t-9.5 18q-1 11 5.5 19t17.5 9zM215 400q1 -11 -5.5 -19.5t-17.5 -9.5t-18.5 6t-8.5 18q-2 11 4.5 19t17.5 10q11 1 19 -6t9 -18z" />
    <glyph glyph-name="aring" unicode="&#xe5;" horiz-adv-x="315" 
d="M324 247q9 16 17 20.5t13.5 1t6 -13.5t-5.5 -23l-40.5 -77t-46.5 -77.5t-48 -58t-44 -18.5q-23 5 -34 20t-15 38q-26 -43 -60.5 -55.5t-61.5 6t-37.5 67.5t12.5 129q21 75 54 110.5t64.5 40.5t55 -14.5t26.5 -54.5q7 16 12.5 27t7.5 16q14 -2 33.5 -15t26.5 -39
q-3 -11 -11 -31.5t-18.5 -45t-20.5 -50.5t-17 -48t-8.5 -36.5t6.5 -15.5q7 -2 18.5 9.5t24.5 30.5t26.5 42l26 45.5l22.5 41.5zM50 190q-19 -60 -14.5 -92.5t20.5 -37.5t38.5 17t39.5 72q2 11 5 22l6 22q9 37 0.5 59.5t-24.5 25t-36 -18t-35 -69.5zM169 469q23 0 38.5 -14
t15.5 -34t-15.5 -34.5t-38.5 -14.5t-39 14.5t-16 34.5t16 34t39 14zM169 403q8 0 13.5 5t5.5 13q0 7 -5.5 12t-13.5 5t-14 -5t-6 -12q0 -8 6 -13t14 -5z" />
    <glyph glyph-name="egrave" unicode="&#xe8;" horiz-adv-x="257" 
d="M264 244q7 14 15.5 20t14.5 5t8 -9.5t-4 -24.5q-32 -78 -74 -129.5t-84 -78t-80 -27.5t-63 22t-31.5 69.5t13.5 116.5q12 42 30 71.5t37.5 47t40 25t38.5 6.5q30 -2 46.5 -23t21 -51t-3.5 -65.5t-27.5 -66t-49 -52t-69.5 -24.5q11 -21 36 -20.5t56.5 21.5t65.5 63t63 104
zM127 280q-13 5 -28.5 -10.5t-29 -40.5t-23 -53.5t-10.5 -49.5q18 -1 34 9.5t29 26t22.5 35t13.5 37t2.5 30t-10.5 16.5zM184 413q5 -3 4 -10.5t-5.5 -15t-10 -13t-9.5 -3.5q-16 8 -34.5 19.5t-23.5 19.5q-7 10 -6.5 21.5t4 20.5t8 13.5t5.5 0.5q1 -6 8.5 -13t17.5 -14
l21 -14t21 -12z" />
    <glyph glyph-name="eacute" unicode="&#xe9;" horiz-adv-x="257" 
d="M264 244q7 14 15.5 20t14.5 5t8 -9.5t-4 -24.5q-32 -78 -74 -129.5t-84 -78t-80 -27.5t-63 22t-31.5 69.5t13.5 116.5q12 42 30 71.5t37.5 47t40 25t38.5 6.5q30 -2 46.5 -23t21 -51t-3.5 -65.5t-27.5 -66t-49 -52t-69.5 -24.5q11 -21 36 -20.5t56.5 21.5t65.5 63t63 104
zM127 280q-13 5 -28.5 -10.5t-29 -40.5t-23 -53.5t-10.5 -49.5q18 -1 34 9.5t29 26t22.5 35t13.5 37t2.5 30t-10.5 16.5zM104 413q10 5 21 12l21 14t17 14t9 13q1 4 5.5 -0.5t8 -13.5t4 -20.5t-6.5 -21.5q-5 -8 -23.5 -19.5t-34.5 -19.5q-4 -2 -9.5 3.5t-10 13t-5.5 15
t4 10.5z" />
    <glyph glyph-name="ecircumflex" unicode="&#xea;" horiz-adv-x="257" 
d="M264 244q7 14 15.5 20t14.5 5t8 -9.5t-4 -24.5q-32 -78 -74 -129.5t-84 -78t-80 -27.5t-63 22t-31.5 69.5t13.5 116.5q12 42 30 71.5t37.5 47t40 25t38.5 6.5q30 -2 46.5 -23t21 -51t-3.5 -65.5t-27.5 -66t-49 -52t-69.5 -24.5q11 -21 36 -20.5t56.5 21.5t65.5 63t63 104
zM127 280q-13 5 -28.5 -10.5t-29 -40.5t-23 -53.5t-10.5 -49.5q18 -1 34 9.5t29 26t22.5 35t13.5 37t2.5 30t-10.5 16.5zM213 400q2 -5 -1.5 -10.5t-8.5 -10t-11 -6t-8 1.5q-5 8 -13 18.5t-12 17.5q-7 -2 -20.5 -8t-21.5 -9q-4 -2 -8 2.5t-7 11t-4 13t2 9.5q2 2 12 7t22 10
t23 8.5t14 3.5q3 -2 8.5 -8.5t11.5 -15.5l12 -18.5t10 -16.5z" />
    <glyph glyph-name="edieresis" unicode="&#xeb;" horiz-adv-x="257" 
d="M264 244q7 14 15.5 20t14.5 5t8 -9.5t-4 -24.5q-32 -78 -74 -129.5t-84 -78t-80 -27.5t-63 22t-31.5 69.5t13.5 116.5q12 42 30 71.5t37.5 47t40 25t38.5 6.5q30 -2 46.5 -23t21 -51t-3.5 -65.5t-27.5 -66t-49 -52t-69.5 -24.5q11 -21 36 -20.5t56.5 21.5t65.5 63t63 104
zM127 280q-13 5 -28.5 -10.5t-29 -40.5t-23 -53.5t-10.5 -49.5q18 -1 34 9.5t29 26t22.5 35t13.5 37t2.5 30t-10.5 16.5zM125 440q11 2 18.5 -5t9.5 -18q1 -11 -5.5 -19.5t-17.5 -9.5t-18.5 6t-9.5 18q-1 11 5.5 19t17.5 9zM217 400q1 -11 -5.5 -19.5t-17.5 -9.5t-18.5 6
t-8.5 18q-2 11 4.5 19t17.5 10q11 1 19 -6t9 -18z" />
    <glyph glyph-name="iacute" unicode="&#xed;" horiz-adv-x="152" 
d="M158 246q-5 -9 -14.5 -27.5l-21.5 -41l-25.5 -46t-26.5 -42t-24.5 -30t-18.5 -9.5t-6 17t8 38.5t17.5 51.5l21.5 55.5l21 51.5l16 38q-7 26 -27.5 39.5t-34.5 15.5l-22 -48t-27.5 -68.5t-24 -77t-11.5 -73.5t10 -58.5t41 -30.5q20 -5 44 17.5t48 58t47 77.5t40 78
q6 12 5.5 22t-5.5 14t-13 -1t-17 -21zM66 413q10 5 21 12l21 14t17 14t9 13q1 4 5.5 -0.5t8 -13.5t4 -20.5t-6.5 -21.5q-5 -8 -23.5 -19.5t-34.5 -19.5q-4 -2 -9.5 3.5t-10 13t-5.5 15t4 10.5z" />
    <glyph glyph-name="icircumflex" unicode="&#xee;" horiz-adv-x="152" 
d="M158 246q9 16 17 21t13 1t5.5 -14t-5.5 -22q-17 -36 -40 -78t-47 -77.5t-48 -58t-44 -17.5q-30 6 -41 30.5t-10 58.5t11.5 73.5t24 77t27.5 68.5l22 48q14 -2 34.5 -15.5t27.5 -39.5l-16 -38l-21 -51.5l-21.5 -55.5t-17.5 -51.5t-8 -38.5t6 -17t18.5 9.5t24.5 30t26.5 42
l25.5 46l21.5 41t14.5 27.5zM156 380q1 -5 -3 -10t-10 -8t-12 -3.5t-8 2.5l-10 20t-8 20q-8 -2 -22.5 -5t-22.5 -5q-4 -1 -7 4t-4.5 12t-1.5 13.5t3 8.5l13.5 4.5t23 6.5t24 5t14.5 1q2 -2 6.5 -9.5t9 -17.5t8.5 -21t7 -18z" />
    <glyph glyph-name="idieresis" unicode="&#xef;" horiz-adv-x="152" 
d="M158 246q9 16 17 21t13 1t5.5 -14t-5.5 -22q-17 -36 -40 -78t-47 -77.5t-48 -58t-44 -17.5q-30 6 -41 30.5t-10 58.5t11.5 73.5t24 77t27.5 68.5l22 48q14 -2 34.5 -15.5t27.5 -39.5l-16 -38l-21 -51.5l-21.5 -55.5t-17.5 -51.5t-8 -38.5t6 -17t18.5 9.5t24.5 30t26.5 42
l25.5 46l21.5 41t14.5 27.5zM89 440q11 -2 16.5 -11t3.5 -20q-3 -11 -12 -16.5t-19 -3.5q-11 2 -16 11t-3 20t11 16.5t19 3.5zM164 373q-2 -11 -11 -17t-20 -3q-10 2 -15.5 11t-2.5 20q2 11 10.5 17t19.5 4q11 -3 16.5 -12t2.5 -20z" />
    <glyph glyph-name="ntilde" unicode="&#xf1;" horiz-adv-x="313" 
d="M313 246q9 16 17 21t13 1.5t5.5 -13.5t-5.5 -23q-17 -36 -39.5 -78t-46.5 -77.5t-48 -57.5t-44 -18q-29 6 -40 29.5t-10.5 56.5t10 70.5t21.5 71.5q-15 -7 -34 -19.5t-39 -33t-38.5 -48.5t-31.5 -67l-6 -25t-5 -23q-5 -8 -11 -11t-12.5 -2t-11.5 3.5t-7 4.5
q-5 27 -1 65.5t15.5 83.5t28 95.5t36.5 101.5q6 4 16 2t20 -8.5t18 -16.5t10 -21l-30 -72q19 25 39 42.5t37.5 28.5t30.5 16.5t18 5.5h1q14 -2 33.5 -15t26.5 -39q-3 -11 -11 -31.5l-18 -45t-19.5 -50.5t-16 -48t-8 -36.5t5.5 -15.5q7 -2 18.5 9.5t24 30t26 42l26 46l22 41
t14.5 27.5zM204 401q3 -5 2 -13.5t-5 -16.5t-8 -12.5t-7 -0.5q-6 8 -17 13t-22 9t-20.5 8t-13.5 10q-5 8 -4.5 19t3.5 19.5t7 12.5t7 -2t13.5 -11t23.5 -10.5t24.5 -11.5t16.5 -13z" />
    <glyph glyph-name="ograve" unicode="&#xf2;" horiz-adv-x="303" 
d="M310 248q6 13 14 18t14 2.5t7.5 -12.5t-5.5 -26q-21 -48 -54 -71.5t-67 -27.5q-11 -30 -27.5 -57t-38 -45t-47 -25.5t-53.5 0.5q-40 11 -60.5 44.5t-23.5 76.5t10 88.5t39 80.5t63 52.5t82 5.5q25 -7 40.5 -24t23.5 -41t9 -52.5t-5 -58.5q22 5 43 22t36 50zM172 194
q2 20 1 37t-9 29q-8 -22 -5 -38.5t13 -27.5zM64 60q14 -5 28 -0.5t26 16t22 28.5t18 37q-32 15 -48 49.5t-2 85.5q-25 -11 -44.5 -42.5t-27.5 -67t-2.5 -66.5t30.5 -40zM206 413q5 -3 4 -10.5t-5.5 -15t-10 -13t-9.5 -3.5q-16 8 -34.5 19.5t-23.5 19.5q-7 10 -6.5 21.5
t4 20.5t8 13.5t5.5 0.5q1 -6 8.5 -13t17.5 -14l21 -14t21 -12z" />
    <glyph glyph-name="oacute" unicode="&#xf3;" horiz-adv-x="303" 
d="M310 248q6 13 14 18t14 2.5t7.5 -12.5t-5.5 -26q-21 -48 -54 -71.5t-67 -27.5q-11 -30 -27.5 -57t-38 -45t-47 -25.5t-53.5 0.5q-40 11 -60.5 44.5t-23.5 76.5t10 88.5t39 80.5t63 52.5t82 5.5q25 -7 40.5 -24t23.5 -41t9 -52.5t-5 -58.5q22 5 43 22t36 50zM172 194
q2 20 1 37t-9 29q-8 -22 -5 -38.5t13 -27.5zM64 60q14 -5 28 -0.5t26 16t22 28.5t18 37q-32 15 -48 49.5t-2 85.5q-25 -11 -44.5 -42.5t-27.5 -67t-2.5 -66.5t30.5 -40zM121 413q10 5 21 12l21 14t17 14t9 13q1 4 5.5 -0.5t8 -13.5t4 -20.5t-6.5 -21.5q-5 -8 -23.5 -19.5
t-34.5 -19.5q-4 -2 -9.5 3.5t-10 13t-5.5 15t4 10.5z" />
    <glyph glyph-name="ocircumflex" unicode="&#xf4;" horiz-adv-x="303" 
d="M310 248q6 13 14 18t14 2.5t7.5 -12.5t-5.5 -26q-21 -48 -54 -71.5t-67 -27.5q-11 -30 -27.5 -57t-38 -45t-47 -25.5t-53.5 0.5q-40 11 -60.5 44.5t-23.5 76.5t10 88.5t39 80.5t63 52.5t82 5.5q25 -7 40.5 -24t23.5 -41t9 -52.5t-5 -58.5q22 5 43 22t36 50zM172 194
q2 20 1 37t-9 29q-8 -22 -5 -38.5t13 -27.5zM64 60q14 -5 28 -0.5t26 16t22 28.5t18 37q-32 15 -48 49.5t-2 85.5q-25 -11 -44.5 -42.5t-27.5 -67t-2.5 -66.5t30.5 -40zM227 400q2 -5 -1.5 -10.5t-8.5 -10t-11 -6t-8 1.5q-5 8 -13 18.5t-12 17.5q-7 -2 -20.5 -8t-21.5 -9
q-4 -2 -8 2.5t-7 11t-4 13t2 9.5q2 2 12 7t22 10t23 8.5t14 3.5q3 -2 8.5 -8.5t11.5 -15.5l12 -18.5t10 -16.5z" />
    <glyph glyph-name="otilde" unicode="&#xf5;" horiz-adv-x="303" 
d="M310 248q6 13 14 18t14 2.5t7.5 -12.5t-5.5 -26q-21 -48 -54 -71.5t-67 -27.5q-11 -30 -27.5 -57t-38 -45t-47 -25.5t-53.5 0.5q-40 11 -60.5 44.5t-23.5 76.5t10 88.5t39 80.5t63 52.5t82 5.5q25 -7 40.5 -24t23.5 -41t9 -52.5t-5 -58.5q22 5 43 22t36 50zM172 194
q2 20 1 37t-9 29q-8 -22 -5 -38.5t13 -27.5zM64 60q14 -5 28 -0.5t26 16t22 28.5t18 37q-32 15 -48 49.5t-2 85.5q-25 -11 -44.5 -42.5t-27.5 -67t-2.5 -66.5t30.5 -40zM228 415q3 -5 2 -13.5t-5 -16.5t-8 -12.5t-7 -0.5q-6 8 -17 13t-22 9t-20.5 8t-13.5 10q-5 8 -4.5 19
t3.5 19.5t7 12.5t7 -2t13.5 -11t23.5 -10.5t24.5 -11.5t16.5 -13z" />
    <glyph glyph-name="odieresis" unicode="&#xf6;" horiz-adv-x="303" 
d="M310 248q6 13 14 18t14 2.5t7.5 -12.5t-5.5 -26q-21 -48 -54 -71.5t-67 -27.5q-11 -30 -27.5 -57t-38 -45t-47 -25.5t-53.5 0.5q-40 11 -60.5 44.5t-23.5 76.5t10 88.5t39 80.5t63 52.5t82 5.5q25 -7 40.5 -24t23.5 -41t9 -52.5t-5 -58.5q22 5 43 22t36 50zM172 194
q2 20 1 37t-9 29q-8 -22 -5 -38.5t13 -27.5zM64 60q14 -5 28 -0.5t26 16t22 28.5t18 37q-32 15 -48 49.5t-2 85.5q-25 -11 -44.5 -42.5t-27.5 -67t-2.5 -66.5t30.5 -40zM144 440q11 2 18.5 -5t9.5 -18q1 -11 -5.5 -19.5t-17.5 -9.5t-18.5 6t-9.5 18q-1 11 5.5 19t17.5 9z
M236 400q1 -11 -5.5 -19.5t-17.5 -9.5t-18.5 6t-8.5 18q-2 11 4.5 19t17.5 10q11 1 19 -6t9 -18z" />
    <glyph glyph-name="oslash" unicode="&#xf8;" horiz-adv-x="303" 
d="M153 402q8 -3 19 -16.5t13 -36.5q-1 -1 -1 -2t-1 -3q18 -11 30 -28.5t17.5 -40t5.5 -48t-5 -51.5q22 5 43 22t36 50q6 13 14 18t14 2.5t7.5 -12.5t-5.5 -26q-21 -48 -54 -71.5t-67 -27.5q-11 -30 -27.5 -57t-38 -45t-47 -25.5t-53.5 0.5q-4 1 -7 2l-6 2q-2 -2 -2.5 -4.5
t-1.5 -4.5q-4 -6 -9 -6t-9.5 4.5t-7 11.5t-2.5 14q0 1 0.5 2t0.5 3q-23 21 -32.5 54t-7.5 70t14.5 74.5t34 66.5t51 47t65.5 16l12 31t7 15zM64 60q14 -5 28 -0.5t26 16t22 28.5t18 37q-29 13 -44 40l-27.5 -63l-24.5 -57q0 -1 2 -1zM100 272q-18 -11 -32 -31.5t-23.5 -45.5
t-12.5 -51t2 -46l31.5 86zM172 194q2 20 1 37t-9 29q-8 -22 -5 -38.5t13 -27.5z" />
    <glyph glyph-name="ugrave" unicode="&#xf9;" horiz-adv-x="323" 
d="M332 246q9 16 17.5 21t13.5 2t5.5 -13.5t-5.5 -23.5q-17 -35 -39.5 -77t-47 -77.5t-48.5 -58t-44 -18.5q-23 5 -34.5 19.5t-15.5 35.5q-26 -32 -54.5 -46.5t-57.5 -9.5q-31 7 -43 39.5t-8.5 81t20.5 109t46 124.5q8 6 19 3.5t21 -10t18 -18.5t10 -22q-49 -120 -63.5 -179
t11.5 -68q18 -5 44.5 22.5t46.5 84.5q7 27 16.5 53.5t19 50t18 42.5t14.5 31q14 -2 35 -15.5t28 -39.5l-16 -37l-20.5 -49t-20 -52t-15.5 -47.5t-7 -36t6 -15.5q8 -2 19 9t23.5 29.5t26 42l25.5 45.5l21.5 40.5t14.5 27.5zM203 413q5 -3 4 -10.5t-5.5 -15t-10 -13t-9.5 -3.5
q-16 8 -34.5 19.5t-23.5 19.5q-7 10 -6.5 21.5t4 20.5t8 13.5t5.5 0.5q1 -6 8.5 -13t17.5 -14l21 -14t21 -12z" />
    <glyph glyph-name="uacute" unicode="&#xfa;" horiz-adv-x="323" 
d="M332 246q9 16 17.5 21t13.5 2t5.5 -13.5t-5.5 -23.5q-17 -35 -39.5 -77t-47 -77.5t-48.5 -58t-44 -18.5q-23 5 -34.5 19.5t-15.5 35.5q-26 -32 -54.5 -46.5t-57.5 -9.5q-31 7 -43 39.5t-8.5 81t20.5 109t46 124.5q8 6 19 3.5t21 -10t18 -18.5t10 -22q-49 -120 -63.5 -179
t11.5 -68q18 -5 44.5 22.5t46.5 84.5q7 27 16.5 53.5t19 50t18 42.5t14.5 31q14 -2 35 -15.5t28 -39.5l-16 -37l-20.5 -49t-20 -52t-15.5 -47.5t-7 -36t6 -15.5q8 -2 19 9t23.5 29.5t26 42l25.5 45.5l21.5 40.5t14.5 27.5zM120 413q10 5 21 12l21 14t17 14t9 13
q1 4 5.5 -0.5t8 -13.5t4 -20.5t-6.5 -21.5q-5 -8 -23.5 -19.5t-34.5 -19.5q-4 -2 -9.5 3.5t-10 13t-5.5 15t4 10.5z" />
    <glyph glyph-name="ucircumflex" unicode="&#xfb;" horiz-adv-x="323" 
d="M332 246q9 16 17.5 21t13.5 2t5.5 -13.5t-5.5 -23.5q-17 -35 -39.5 -77t-47 -77.5t-48.5 -58t-44 -18.5q-23 5 -34.5 19.5t-15.5 35.5q-26 -32 -54.5 -46.5t-57.5 -9.5q-31 7 -43 39.5t-8.5 81t20.5 109t46 124.5q8 6 19 3.5t21 -10t18 -18.5t10 -22q-49 -120 -63.5 -179
t11.5 -68q18 -5 44.5 22.5t46.5 84.5q7 27 16.5 53.5t19 50t18 42.5t14.5 31q14 -2 35 -15.5t28 -39.5l-16 -37l-20.5 -49t-20 -52t-15.5 -47.5t-7 -36t6 -15.5q8 -2 19 9t23.5 29.5t26 42l25.5 45.5l21.5 40.5t14.5 27.5zM218 400q2 -5 -1.5 -10.5t-8.5 -10t-11 -6t-8 1.5
q-5 8 -13 18.5t-12 17.5q-7 -2 -20.5 -8t-21.5 -9q-4 -2 -8 2.5t-7 11t-4 13t2 9.5q2 2 12 7t22 10t23 8.5t14 3.5q3 -2 8.5 -8.5t11.5 -15.5l12 -18.5t10 -16.5z" />
    <glyph glyph-name="udieresis" unicode="&#xfc;" horiz-adv-x="323" 
d="M332 246q9 16 17.5 21t13.5 2t5.5 -13.5t-5.5 -23.5q-17 -35 -39.5 -77t-47 -77.5t-48.5 -58t-44 -18.5q-23 5 -34.5 19.5t-15.5 35.5q-26 -32 -54.5 -46.5t-57.5 -9.5q-31 7 -43 39.5t-8.5 81t20.5 109t46 124.5q8 6 19 3.5t21 -10t18 -18.5t10 -22q-49 -120 -63.5 -179
t11.5 -68q18 -5 44.5 22.5t46.5 84.5q7 27 16.5 53.5t19 50t18 42.5t14.5 31q14 -2 35 -15.5t28 -39.5l-16 -37l-20.5 -49t-20 -52t-15.5 -47.5t-7 -36t6 -15.5q8 -2 19 9t23.5 29.5t26 42l25.5 45.5l21.5 40.5t14.5 27.5zM120 440q11 2 18.5 -5t9.5 -18q1 -11 -5.5 -19.5
t-17.5 -9.5t-18.5 6t-9.5 18q-1 11 5.5 19t17.5 9zM212 400q1 -11 -5.5 -19.5t-17.5 -9.5t-18.5 6t-8.5 18q-2 11 4.5 19t17.5 10q11 1 19 -6t9 -18z" />
    <glyph glyph-name="yacute" unicode="&#xfd;" horiz-adv-x="319" 
d="M326 246q7 16 16 21.5t15 3t7 -12.5t-6 -25q-48 -105 -101 -164t-105 -85q-39 -78 -79 -110.5t-72.5 -34t-52.5 20t-18 51.5q2 32 19 49t41.5 25.5t51.5 11.5t50 6q2 5 4.5 10.5t4.5 11.5q-39 -30 -78 -22q-31 7 -43 39t-9 80t20 108.5t46 124.5q8 6 19 3.5t21 -10
t18 -18.5t10 -22q-49 -120 -63.5 -179t10.5 -68q9 -3 21 4t25 22t25.5 37t22.5 51l17 55.5l16.5 52.5t13 40t6.5 18q14 -2 35 -17t26 -39l-6 -18.5l-12 -37.5l-15.5 -47l-16 -48t-14 -40.5t-8.5 -24.5t-5 -14t-5 -14q47 34 82.5 85t65.5 120zM-25 -88q0 -10 8 -17.5t21.5 -5
t31 18.5t37.5 54q-19 -3 -37 -5.5t-31.5 -7.5t-21.5 -13.5t-8 -23.5zM118 413q10 5 21 12l21 14t17 14t9 13q1 4 5.5 -0.5t8 -13.5t4 -20.5t-6.5 -21.5q-5 -8 -23.5 -19.5t-34.5 -19.5q-4 -2 -9.5 3.5t-10 13t-5.5 15t4 10.5z" />
    <glyph glyph-name="ydieresis" unicode="&#xff;" horiz-adv-x="319" 
d="M326 246q7 16 16 21.5t15 3t7 -12.5t-6 -25q-48 -105 -101 -164t-105 -85q-39 -78 -79 -110.5t-72.5 -34t-52.5 20t-18 51.5q2 32 19 49t41.5 25.5t51.5 11.5t50 6q2 5 4.5 10.5t4.5 11.5q-39 -30 -78 -22q-31 7 -43 39t-9 80t20 108.5t46 124.5q8 6 19 3.5t21 -10
t18 -18.5t10 -22q-49 -120 -63.5 -179t10.5 -68q9 -3 21 4t25 22t25.5 37t22.5 51l17 55.5l16.5 52.5t13 40t6.5 18q14 -2 35 -17t26 -39l-6 -18.5l-12 -37.5l-15.5 -47l-16 -48t-14 -40.5t-8.5 -24.5t-5 -14t-5 -14q47 34 82.5 85t65.5 120zM-25 -88q0 -10 8 -17.5t21.5 -5
t31 18.5t37.5 54q-19 -3 -37 -5.5t-31.5 -7.5t-21.5 -13.5t-8 -23.5zM118 440q11 2 18.5 -5t9.5 -18q1 -11 -5.5 -19.5t-17.5 -9.5t-18.5 6t-9.5 18q-1 11 5.5 19t17.5 9zM210 400q1 -11 -5.5 -19.5t-17.5 -9.5t-18.5 6t-8.5 18q-2 11 4.5 19t17.5 10q11 1 19 -6t9 -18z" />
    <glyph glyph-name="igrave" unicode="&#xec;" horiz-adv-x="152" 
d="M158 246q9 16 17 21t13 1t5.5 -14t-5.5 -22q-17 -36 -40 -78t-47 -77.5t-48 -58t-44 -17.5q-30 6 -41 30.5t-10 58.5t11.5 73.5t24 77t27.5 68.5l22 48q14 -2 34.5 -15.5t27.5 -39.5l-16 -38l-21 -51.5l-21.5 -55.5t-17.5 -51.5t-8 -38.5t6 -17t18.5 9.5t24.5 30t26.5 42
l25.5 46l21.5 41t14.5 27.5zM149 398q5 -3 4 -10.5t-5.5 -15t-10 -13t-9.5 -3.5q-16 8 -34.5 19.5t-23.5 19.5q-7 10 -6.5 21.5t4 20.5t8 13.5t5.5 0.5q1 -6 8.5 -13t17.5 -14l21 -14t21 -12z" />
    <glyph glyph-name="C" unicode="C" horiz-adv-x="555" 
d="M564 254q7 12 15.5 15.5t15 1t9 -10t-2.5 -18.5q-17 -37 -43.5 -80.5t-60 -87t-73 -83t-83.5 -67t-92 -39.5t-98 -1q-67 15 -102 62t-44 113.5t5.5 145.5t46.5 157t79 148.5t103.5 120.5t119.5 72t127 3q48 -14 70.5 -51.5t23.5 -84.5t-17.5 -97t-51 -88.5t-77.5 -59
t-98 -9.5q0 6 2.5 21t7 32t10 32t12.5 21q30 -5 54.5 8t43 35.5t28.5 51.5t9.5 55t-12.5 46t-38 26q-36 8 -77.5 -15t-82.5 -66.5t-79 -102.5t-67 -122.5t-47 -127.5t-18.5 -118t18.5 -93t63 -52t86.5 -3t82.5 35.5t75.5 61.5t65.5 74.5t53 75.5z" />
    <glyph glyph-name="B" unicode="B" horiz-adv-x="629" 
d="M490 378q41 -44 55.5 -113t-13.5 -163q-26 -86 -81 -138t-121.5 -72t-135 -10t-122.5 47t-83.5 99t-17.5 146q5 6 14 14.5t19 16.5t19 14t15 7q-13 -59 -4 -109q13 65 34 139t49.5 150.5t63.5 151.5t76 141q32 12 70 15t74 -4.5t67.5 -25t51 -47.5t25 -72.5t-10.5 -98.5
q-14 -51 -44 -88zM325 641q-54 -94 -100 -194q54 14 110.5 7.5t104.5 -35.5q15 27 25 63q11 39 2.5 70t-29.5 52t-51 31t-62 6zM404 375q-23 17 -50.5 26t-54.5 10.5t-52.5 -4.5t-44.5 -18q11 -17 34 -30t51.5 -17.5t59 2.5t57.5 31zM454 114q23 75 17 129t-29 90
q-32 -22 -68.5 -31.5t-72 -8t-67.5 13.5t-54 33q-35 -85 -60.5 -167.5t-40.5 -157.5q37 -45 91.5 -64.5t110 -9.5t103 52.5t70.5 120.5z" />
    <glyph glyph-name="a" unicode="a" horiz-adv-x="315" 
d="M324 247q9 16 17 20.5t13.5 1t6 -13.5t-5.5 -23l-40.5 -77t-46.5 -77.5t-48 -58t-44 -18.5q-23 5 -34 20t-15 38q-26 -43 -60.5 -55.5t-61.5 6t-37.5 67.5t12.5 129q21 75 54 110.5t64.5 40.5t55 -14.5t26.5 -54.5q7 16 12.5 27t7.5 16q14 -2 33.5 -15t26.5 -39
q-3 -11 -11 -31.5t-18.5 -45t-20.5 -50.5t-17 -48t-8.5 -36.5t6.5 -15.5q7 -2 18.5 9.5t24.5 30.5t26.5 42l26 45.5l22.5 41.5zM50 190q-19 -60 -14.5 -92.5t20.5 -37.5t38.5 17t39.5 72q2 11 5 22l6 22q9 37 0.5 59.5t-24.5 25t-36 -18t-35 -69.5z" />
    <glyph glyph-name="zero" unicode="0" 
d="M1425 571q-21 -39 -41.5 -85t-28.5 -112q-1 -7 -1.5 -20.5t-1 -28.5t-0.5 -30v-24q0 -30 7.5 -66t33.5 -78q2 -2 3 -5t3 -5q4 -8 4 -17q0 -13 -8.5 -22.5t-21.5 -16.5q-26 -14 -64 -19q-7 -1 -13 -1.5t-12 -0.5h-2q-29 0 -50 12t-28 38q-3 8 -3.5 16t-0.5 17v15.5t1 14.5
q-25 2 -50 2.5t-45 0.5q-32 0 -42 -2h-4l-3 4q-2 5 -3.5 7.5t-3.5 5.5q-2 -7 -4 -10.5t-2 -4.5l-2 -3h-4q-10 0 -19 1.5t-17 1.5h-5l-1 5q-2 7 -8.5 20.5l-12.5 26.5q-2 -4 -2.5 -7.5t-2.5 -7.5q-2 -8 -4.5 -15.5t-7.5 -12.5l-2 -3l-4 1q-6 1 -18.5 1.5t-23.5 0.5h-16l-5 -1
l-2 5q-3 6 -5.5 12.5t-4.5 12.5q-2 -7 -5.5 -14t-9.5 -12l-3 -2l-3 1q-5 2 -29.5 3.5l-56.5 3.5t-65.5 3t-57.5 1t-56.5 -1.5t-64.5 -4t-59 -6.5t-39 -8l-5 -1l-3 3q-5 7 -9.5 14.5t-9.5 14.5q-2 -6 -3 -11.5t-3 -12.5l-1 -5h-5q-10 -1 -24.5 -3t-31.5 -4q2 -8 3.5 -23
t1.5 -17q0 -32 -43 -50q-21 -10 -45 -10q-25 0 -47 8t-39 18q-2 1 -2.5 1.5t-2.5 1.5l-2 2q-5 6 -6 14.5t-2 18.5q0 18 4 41t9.5 47.5l11.5 49.5l11 47q1 3 1 9q2 12 2 23.5v23.5q1 25 -1.5 49.5t-7.5 48.5q-8 30 -17.5 57t-18.5 49l-1 2l1 3q12 32 33 45t43 13
q20 0 37 -7.5t27 -15.5l1 -1h1v-1q6 -7 8.5 -15.5t3.5 -17.5v-5q0 -6 -2 -14q27 0 62 3q59 5 113 9t96 4q28 -1 48.5 -3t32.5 -10h1l1 -2q6 -8 11 -18.5l9 -18.5q2 8 2 11t0.5 5.5t0.5 4.5v4v8l8 -1q7 -1 22.5 -2l32.5 -2l33 -2t25 -1h4l2 -3q4 -8 7 -12.5t5 -8.5q2 4 4.5 8
t4.5 8l4 8l2 4h4q10 0 50 0.5t91 1.5t103 3t86 5q14 2 30.5 2.5t33.5 2.5q-2 8 -2 10v1v1q0 9 6 15.5t15 11.5q8 5 19 8.5l24 7.5q25 6 52 9t47 3h13.5t10.5 -2q11 -2 17.5 -9.5t5.5 -15.5q0 -11 -7 -25zM1249 583q-2 -2 -4 -3q5 -1 10 -1.5t11 -0.5q13 0 28 2.5t28 6
t23.5 7.5t14.5 7l9 6l2 -11q1 -6 1 -11.5v-11.5v-3q2 1 3.5 1t3.5 1q27 5 37 11q3 7 3 13q-1 5 -3 7.5t-10 4.5t-21 2q-15 0 -33.5 -2t-37.5 -5.5t-36.5 -8.5t-28.5 -11zM1239 568q-1 -3 -1 -11q32 2 63.5 4.5t57.5 6.5v5q0 7 -1 11q-16 -8 -42 -13.5t-50 -5.5q-15 0 -27 3z
M283 562q0 11 -4 19q-14 -7 -28 -9.5t-27 -2.5h-12t-11 1q2 -5 4 -9t4 -9q14 -2 30.5 -3.5t36.5 -1.5h5q2 5 2 8v7zM219 611q-13 0 -25 -4.5t-23 -17.5l18 -3q8 -2 16.5 -3t18.5 -1q12 0 24.5 2.5t23.5 8.5q-8 7 -22 12.5t-31 5.5zM171 589q-6 -8 -13 -21q6 -4 14.5 -7.5
t20.5 -6.5q-4 12 -11 21zM289 75q25 11 32 26q-9 3 -26 3q-20 0 -43 -4t-33 -8l-8 -3l-1 8q-3 13 -3 27q-5 -2 -6 -3q-12 -7 -19.5 -13.5t-13.5 -14.5q0 -2 2 -2q16 -10 37 -17t43 -7t39 8zM323 119q0 16 -4 31l-14 -2t-15 -3q-20 -4 -38 -8t-32 -8q0 -6 0.5 -11.5
t1.5 -10.5q14 5 34 8t39 3q16 0 28 -3v4zM1217 95q10 4 21.5 5t22.5 1q12 0 22.5 -1t18.5 -2v6q0 8 -0.5 17.5t-1.5 19.5q-21 5 -43 7.5t-42 4.5q-1 -8 -1.5 -15t-0.5 -15q0 -19 4 -28zM1387 111q-1 1 -1.5 2t-2.5 2q-11 7 -28.5 12.5t-40.5 10.5q1 -9 1.5 -17.5t0.5 -16.5
q0 -4 -0.5 -7.5t-0.5 -7.5v-8l-8 2q-6 2 -19 3t-27 1q-11 0 -21 -1t-18 -3q14 -29 62 -29q5 0 11 0.5t12 1.5q17 2 32.5 6t26.5 11q23 11 23 27q0 7 -2 11zM1373 135q-21 39 -27.5 73t-6.5 63q0 10 0.5 23t0.5 26.5t0.5 25t0.5 18.5q0 32 7 60.5t17.5 53.5t21.5 46.5
l20 40.5q-5 -2 -11.5 -3.5t-13.5 -3.5l-31 -4.5t-36 -4.5l-78.5 -6t-75.5 -6q-33 -3 -83 -5t-99 -3t-89.5 -1.5t-55.5 -0.5q-3 -5 -8 -15t-8 -15l-6 -11l-6 10l-6.5 11t-10.5 17q-10 0 -24 0.5t-28.5 1.5l-28.5 2t-23 2q0 -7 -1.5 -18t-6.5 -22l-7 -14l-6 14l-8 18
l-8.5 16.5t-9.5 16.5q-8 5 -27 7t-45 2q-41 0 -94.5 -4t-113.5 -9q-47 -3 -82 -3q-41 0 -67 4t-43 11q18 -44 27 -93t9 -98q0 -12 -0.5 -24t-1.5 -24q-2 -23 -8 -49.5l-12.5 -53.5t-11 -51t-4.5 -41v-5q6 6 13 12t17 11q13 7 38.5 13.5t54.5 11.5q28 5 53.5 9t42.5 6
q2 10 4.5 16t4.5 17l5 17l9 -14q7 -11 11.5 -20t10.5 -17q16 4 43 8t58.5 6.5t62.5 4t55 1.5t57.5 -1t65.5 -3l52 -3.5t34 -3.5q4 5 6.5 14.5t7.5 18.5l6 11l6 -11q5 -8 8.5 -17t7.5 -18h12q11 0 21.5 -0.5t18.5 -1.5q4 8 7 20q2 8 4.5 16t5.5 15l6 14l6 -13l15 -29.5
t13 -29.5q8 -1 14.5 -2l12.5 -2q2 4 4 9.5l4 11.5l3 12l8 -10q5 -5 8 -9.5t6 -11.5q6 1 16 1h23q23 0 51 -0.5t56 -2.5q41 -2 85 -10.5t75 -20.5zM304 430q2 -3 3 -6t3 -8q1 -7 0 -19q-2 -10 -7 -17q-2 -4 -4.5 -6.5l-5.5 -5.5q-7 -4 -14 -7q-10 -2 -14 -2q-1 -4 -1 -11
q-1 -3 -1 -6t-3 -1q-1 0 -2 0.5t-3 0.5q-4 2 -5 4q-2 1 -2 3v8q1 3 1 13q0 4 0.5 8t0.5 9q1 5 1 9t1 9v9t1 8q0 4 0.5 7.5t0.5 6.5q0 1 3 3q4 2 7 3t10 1q3 1 5.5 0.5t5.5 -1.5q3 0 5.5 -1t5.5 -3q5 -3 8 -8zM293 404q0 6 -1 9q0 4 -3 7q-4 4 -7 4q-3 1 -9 0q0 -2 -0.5 -5
t-0.5 -5q-1 -3 -1 -6t-1 -6q0 -4 -0.5 -7t-0.5 -6q-1 -4 -1 -7t-1 -6q5 0 10 3q3 1 4.5 2.5l3.5 3.5q4 6 5 9q2 2 2 5t1 5zM369 443q2 0 2 -3v-6q-1 -2 -1 -3t-1 -3q-1 -1 -1 -2t-1 -1q-2 0 -4 -1q-1 0 -2.5 -0.5t-3.5 -0.5q-2 -1 -3.5 -1t-3.5 -1q-2 0 -4.5 -0.5t-4.5 -0.5
q0 -2 -0.5 -5t-0.5 -5q0 -3 -0.5 -6t-0.5 -6q10 2 14 3q3 0 5 0.5t4 0.5q1 0 1 -2q1 -3 0 -6q0 -4 -1 -6q-1 -1 -1 -2t-1 -1q-2 -1 -4 -1t-5 -1q-4 -1 -7 -1t-8 -1q0 -3 -0.5 -6t-0.5 -6q-1 -4 -1 -10q2 1 4.5 1t5.5 1q2 0 4 0.5t4 0.5q3 1 7 1q2 1 5 1q1 0 2 -2q0 -3 -1 -6
q0 -4 -1 -5l-2 -3q-1 -1 -2 -1t-3 -1q-3 0 -9 -2q-3 0 -5.5 -0.5t-5.5 -1.5q-3 0 -5.5 -0.5t-5.5 -1.5q-1 0 -3 2q-1 1 -1.5 2t-1.5 2q-1 2 -1 2.5t-1 2.5t-1 5q0 2 0.5 5t0.5 6q0 8 1 13q0 9 1 14q0 10 1 15q0 9 1 14q0 8 1 11v1q8 2 14 2q4 1 7 1.5t7 1.5q3 0 6 0.5t5 0.5
zM433 429q2 -3 3 -6t3 -7q1 -8 0 -18q-2 -8 -4 -11q-2 -6 -6 -9q-2 -3 -7 -8q-6 -4 -9 -5q5 -3 8 -5.5t7 -4.5q3 -2 5 -3.5t4 -3.5q2 0 0 -2t-4 -3q-1 -1 -5 -3q-3 -3 -3 0q-1 0 -5 2q-2 1 -3.5 2t-3.5 2q-2 2 -4.5 2.5t-4.5 2.5t-5 3t-5 3q-1 -4 -1 -10q-1 -3 -1 -6t-3 -1
q-1 0 -2 0.5t-3 0.5q-4 2 -5 4q-2 1 -2 3v8q1 3 1 13q1 4 1 8v9q1 5 1 9t1 9v9t1 8q0 4 0.5 7.5t0.5 6.5q0 1 3 3q4 2 7 3q2 0 4.5 0.5t5.5 0.5q7 0 11 -1q6 -2 11 -4q5 -3 8 -8zM423 404q0 8 -2 11q-2 5 -7 7q-4 3 -12 1q0 -2 -0.5 -5t-0.5 -5q-1 -3 -1 -6t-1 -6
q0 -3 -0.5 -6.5t-0.5 -6.5q-1 -3 -1 -6.5t-1 -6.5q9 1 15 6q5 5 8 11q4 8 4 12zM504 357q-3 -7 -8 -12q-7 -5 -13 -5q-6 -2 -14 0q-3 2 -6 3.5t-6 4.5q-6 4 -9 14q-3 8 -1 21q0 2 3 2q2 -1 3 -1t3 -1l6 -3q3 -2 3 -3q-1 -6 0 -10q2 -6 3 -8l5 -5q2 -1 6 -1q3 0 5 1q3 3 3 5
q1 5 -1 9l-3.5 3.5t-4.5 3.5q-6 4 -10 7q-4 2 -10 8q-4 4 -6 11t1 15q1 4 5 10q2 5 7 8q3 3 9 5q3 2 9 2q7 0 12 -3q6 -6 7 -9q3 -6 3 -14v-7.5t-2 -8.5q0 -2 -1 -2q-2 0 -4 1q-1 0 -1.5 0.5t-2.5 0.5q-1 1 -2 1.5t-2 1.5q-2 2 -2 3q-1 1 -1 2q1 3 1 8q0 3 -2 5q0 2 -3 2
t-5 -1q-3 -3 -4 -5l-2 -4t-1 -5q-1 -4 1 -8q4 -4 7 -6q2 -2 5 -3t5 -3t4.5 -3.5t4.5 -3.5q5 -5 6 -10q1 -6 0 -13zM562 353q-4 -7 -11 -11q-6 -4 -13 -3q-6 0 -13 5q-5 5 -8 12q-2 6 -4 16v19q2 12 4 19q3 10 7 16q5 6 11 11q8 4 14 4q10 -2 13 -5q6 -5 9 -12q2 -4 2.5 -8
t1.5 -9v-9.5t-1 -9.5t-1.5 -9.5t-2.5 -9.5t-4 -8.5t-4 -7.5zM548 361q2 2 3.5 4.5t2.5 5.5q2 5 4 15q1 5 1 15q-2 9 -4 12q-1 4 -7 6q-5 0 -9 -3q-2 -3 -6 -11q-2 -5 -4 -15v-15q1 -8 3 -12q3 -5 7 -6q5 0 9 4zM616 345q-2 2 -2 6q-1 2 -1.5 4.5t-2.5 4.5q-2 8 -3 13
q-2 3 -2.5 6.5t-2.5 6.5q0 -5 -2 -15q0 -4 -0.5 -7.5t-0.5 -6.5q-1 -3 -1 -6t-1 -5v-7q-1 -1 -3 -1q-1 0 -5 2t-5 3q-3 2 -2 3v9q0 4 0.5 7.5t0.5 8.5q1 5 1 9.5v9.5q1 5 1 10t1 10q0 5 0.5 9t0.5 8t0.5 7t0.5 5t3 2q2 -1 3.5 -1t3.5 -1t3.5 -2t3.5 -2q3 -2 3 -4l2 -6
q1 -2 1 -4.5t1 -4.5q2 -8 3 -11q2 -8 3 -13q0 4 0.5 7.5t0.5 7.5q0 3 0.5 6.5t0.5 6.5t0.5 5.5t0.5 5.5q0 5 1 7q0 2 1 2h4q1 0 5 -2q1 0 5 -2q1 -1 2 -1.5t2 -1.5q0 -1 0.5 -1t0.5 -1q-1 -2 -1 -4t-1 -5q0 -4 -0.5 -8t-1.5 -9t-1 -9.5t-1 -9.5t-1.5 -10t-1.5 -10
q0 -7 -2 -17q0 -4 -0.5 -6t-0.5 -4q0 -1 -2 -1q-3 0 -4 1q-4 2 -5 3q-3 1 -3 3zM691 339q-2 0 -2 2l-2 6q0 2 -0.5 4t-0.5 4q-2 0 -10 -2q-5 0 -13 -2q-1 -3 -3 -7q0 -2 -0.5 -3t-0.5 -2q0 -4 -3 -1q-2 0 -6 2q-1 1 -2 1.5t-2 1.5q-2 1 -2 3q0 1 2 9q1 4 2 7.5t2 8.5t2 9.5
t2 9.5q2 5 2.5 9.5t2.5 9.5q1 5 2 9l2 8q1 7 3 12q0 1 2 2h4q2 0 3 -0.5t3 -0.5t3 -0.5t3 -0.5t3 -0.5t2 -0.5l2 -2q0 -2 0.5 -4l1.5 -6q0 -3 0.5 -7t1.5 -9t1.5 -10t1.5 -10t1.5 -10t1.5 -10t1.5 -9t0.5 -8q2 -10 2 -12t-2 -2q-3 -2 -6 0q-4 0 -6 1zM676 371q5 0 7 1
q-1 4 -3 14q-1 4 -1 7t-1 6q-2 -4 -2.5 -7.5t-2.5 -7.5t-2.5 -7.5t-2.5 -6.5q6 0 8 1zM715 341q0 2 -0.5 3t-0.5 2q-1 2 -1 5v1v12q1 5 1 16q1 4 1 8t1 9v9t1 8q0 5 0.5 8t0.5 7q0 3 0.5 5t0.5 4q0 3 3 2q3 0 7 -2t7 -4t3 -3t-0.5 -2.5t-0.5 -4.5q-1 -2 -1 -4.5t-1 -6.5
q0 -3 -0.5 -6.5t-0.5 -7.5q-2 -10 -2 -15q-2 -10 -2 -16q-1 -4 -1 -7t-1 -6q5 1 9 1.5t7 1.5q4 1 6 1t4 1q2 0 2 -2v-6q0 -2 -2 -6q0 -1 -2 -3q-4 0 -11 -3l-10 -2t-10 -3l-4 2q-1 2 -3 4zM857 372q-1 -4 -1.5 -6.5t-0.5 -4.5q-2 -8 -6 -14q-3 -4 -9 -8q-6 -3 -11 -3
q-6 2 -10 4q-5 3 -8 9t-3 14t1 12q0 9 1 14q0 10 1 15q0 3 0.5 6.5t0.5 6.5q1 5 1 12q1 3 1 8l2 2h4q2 -1 2.5 -1t2.5 -1t2.5 -1t2.5 -1l3 -3l2 -2q-1 -2 -1 -4t-1 -6t-1 -8t-1 -9t-1.5 -9.5t-1.5 -9.5q0 -5 -0.5 -10t-1.5 -10q0 -7 1 -9q1 -4 3 -4t4 3l3 9q0 3 2 11
q0 4 0.5 7t1.5 7q0 4 0.5 7t1.5 7t1 7.5t1 6.5q0 4 0.5 7t0.5 5q1 3 1 5t1 4q0 2 3 2t7 -2q2 -1 3.5 -2t3.5 -2l2 -2q0 -1 1 -1q0 -2 -0.5 -3.5t-0.5 -3.5q-1 -3 -1 -5.5t-1 -5.5q-1 -4 -1.5 -7t-1.5 -7t-3 -14q-1 -3 -1 -6t-1 -6zM929 354q-1 -7 -8 -12q-5 -5 -12 -6
q-4 -1 -14 1q-7 2 -12 8q-6 4 -9 14q-3 8 -1 21q0 1 3 1q4 0 6 -1l6 -3q3 -2 3 -3q-1 -6 0 -10q0 -2 1 -4l2 -4q2 -3 5 -5q2 -1 6 -1q3 0 5 1q3 3 3 5q2 5 -1 9q-2 2 -4 3.5t-4 3.5q-6 4 -10 6q-3 2 -5.5 4t-4.5 5q-5 5 -6 11q-2 7 1 15q1 4 5 10t7 8q2 2 4 3t5 2q6 2 9 2
q8 0 12 -4q6 -4 7 -9q3 -5 3 -13v-8t-2 -9q0 -1 -1 -1h-4q-1 1 -2 1t-2 1t-2 1.5t-2 1.5l-3 3v2q1 3 1 8q0 1 -2 5q-2 2 -3 2q-3 0 -5 -1q-3 -3 -4 -5q-3 -5 -3 -9q-2 -5 1 -8q4 -4 7 -6q6 -4 10 -6q3 -2 9 -8q4 -3 6 -9t-1 -13zM992 430q0 -4 -2 -6l-2 -4h-4l-6 -2
q-2 0 -3.5 -0.5t-3.5 -0.5q-2 -1 -4 -1t-4 -1q-1 -2 -1 -4.5t-1 -5.5q0 -3 -0.5 -5.5t-0.5 -5.5q4 1 7.5 1t6.5 1q4 1 9 1q1 1 2 -2v-6q-1 -2 -1 -3t-1 -3l-2 -3q-1 0 -9 -2q-3 0 -6.5 -0.5t-8.5 -1.5q0 -8 -1 -12q0 -2 -0.5 -5t-0.5 -5q2 1 5 1t5 1q2 0 4.5 0.5t4.5 0.5
q2 1 3.5 1t3.5 1h4q2 2 2 -2v-5q-1 -2 -1 -3t-1 -3l-2 -3q-1 0 -2 -0.5t-3 -0.5q-6 -2 -9 -2q-3 -1 -5.5 -1.5t-5.5 -0.5q-3 -1 -5.5 -1.5t-5.5 -1.5q-1 1 -1.5 1t-1.5 2q-2 2 -3 4q-1 1 -1 2t-1 2q0 2 -0.5 3t-0.5 3q1 3 1 10v6.5t1 6.5q0 4 0.5 7.5t0.5 7.5t0.5 7.5
t0.5 6.5q0 4 0.5 7.5t0.5 6.5t0.5 6t0.5 5v2q4 0 14 2q4 1 7.5 1t6.5 1t6 1t6 1q2 0 3.5 0.5t2.5 0.5q2 0 2 -2v-6zM1100 420q4 -10 4 -17q2 -10 0 -19q-1 -8 -5 -19q-3 -10 -7 -16q-2 -4 -5 -6.5t-6 -4.5q-6 -5 -14 -3q-7 0 -12 5q-5 3 -8 12q-2 4 -3 7.5t-1 8.5
q-1 10 0 19q0 10 3 19q2 5 4 8.5t4 7.5q2 3 4.5 6t6.5 5q8 4 13 4q9 -2 14 -5q5 -5 8 -12zM1087 382q2 10 1 15q0 7 -3 12t-8 6q-5 0 -8 -3t-7 -11q-2 -6 -3 -15q-1 -5 -1 -15q2 -9 4 -12q1 -4 7 -6q5 0 8 4q4 4 7 10q1 4 2 7.5t1 7.5zM1166 432q2 -1 4 -3q1 -1 1 -2
q0 -2 -0.5 -4t-0.5 -5q-1 -4 -1.5 -8t-0.5 -9q-1 -5 -1.5 -9.5t-1.5 -9.5t-1 -10t-1 -10t-1.5 -9t-0.5 -8q-1 -5 -1 -10q-1 -1 -2 -1q-3 0 -5 1t-2.5 1.5t-2.5 1.5l-3 3l-2 6q-1 2 -1.5 4.5t-1.5 4.5l-2 6t-2 7q-1 3 -2 6.5t-2 6.5q-2 -10 -2 -15q-1 -4 -1 -7.5t-1 -6.5
q0 -3 -0.5 -6t-0.5 -5q-1 -3 -1 -7q0 -1 -3 -1q-1 0 -5 2q-2 1 -2.5 1.5t-2.5 1.5q-2 2 -2 3q0 5 1 9v7.5t1 8.5v9.5t1 9.5q0 5 0.5 10t0.5 10q1 5 1 9v8q1 4 1 7t1 5q0 2 3 2q2 -1 3.5 -1t3.5 -1t3 -2t3 -2q3 -2 3 -4q2 -2 2 -6l3 -9q0 -5 2 -11l2 -6t2 -7q0 10 1 15v6.5
t1 6.5v11q1 3 1 7q0 2 2 2h4q2 0 4 -2q3 0 5 -2zM1220 356q2 0 2 -2q2 -2 0 -5q0 -2 -0.5 -3t-0.5 -3q-1 -1 -1 -2t-1 -1q-3 -2 -12 -3q-4 -2 -9 -2.5t-11 -2.5q-1 0 -3 2t-3 4q-2 2 -2 5q-1 2 -1 5q0 2 0.5 5t0.5 7v8t1 8q0 5 0.5 9t0.5 9t0.5 8.5t0.5 8.5q1 4 1 7.5v6.5
q1 3 1 5.5v4.5t4 2q1 0 7 -2q2 -1 3 -2t3 -2q3 -3 3 -4q0 -3 -1 -6q0 -2 -0.5 -5t-0.5 -6q-1 -3 -1 -6.5t-1 -7.5t-1 -7.5t-1 -8.5q0 -5 -2 -15q0 -4 -0.5 -7.5t-0.5 -6.5q5 1 8.5 1.5t7.5 1.5q8 2 9 2zM1285 430q2 -2 2 -3q-1 -2 -1 -4t-1 -5t-1 -6t-1 -7q-2 -8 -3 -13
q-2 -8 -2 -12q-4 -11 -7 -14q-3 -4 -11 -8q0 -5 -2 -15q0 -7 -1 -9q0 -1 -2 -1q-3 0 -5 2l-6 3q-2 2 -2 3t0.5 3t0.5 4v11q-4 1 -9 8q-4 8 -4 15q0 4 0.5 7.5t0.5 7.5t0.5 7t1.5 7q0 3 0.5 6.5t0.5 6.5q1 3 1 5.5t1 4.5q0 1 2 2q2 0 3 -1q2 0 3 -0.5t2 -0.5q4 -2 5 -3
q2 0 4 -2q1 -1 1 -2q-2 -5 -3 -15q-1 -5 -2 -11.5t-2 -15.5q-1 -5 1 -9q1 -3 4 -3q2 0 4 3q2 2 4 8q1 7 1.5 13.5t2.5 12.5q2 16 4 24q0 2 3 2l6 -2q4 -2 6 -4zM546 312q2 0 2 -2l-2 -6q0 -1 -2 -9q-1 -2 -1.5 -5t-1.5 -5l-3 -12l-3 -9q-1 -2 -1 -4t-1 -4h-1q0 -1 -2 -1
q-1 0 -1.5 0.5t-1.5 0.5h-3q-1 1 -2 1l-1 1q0 1 -0.5 1.5t-0.5 2.5q0 1 -0.5 2.5t-0.5 3.5q0 -2 -0.5 -3.5t-0.5 -2.5q-1 -2 -1 -6h-2q0 -1 -2 -1q-1 0 -1.5 0.5t-1.5 0.5h-3q-1 1 -2 1l-1 1q0 1 -0.5 2.5t-0.5 3.5q-1 2 -1 4.5t-1 5.5q-1 2 -1 5t-1 6q-1 4 -1 7t-1 5
q-1 3 -1 6t-1 5q0 5 -1 6q0 1 1 2h2h3q1 -1 3 -1q1 -1 1.5 -1t1.5 -1l1 -2v-7q1 -3 1 -11q1 -3 1 -6t1 -6q0 -8 1 -11q0 2 0.5 4.5t0.5 4.5t0.5 4t0.5 4t0.5 4t0.5 4t0.5 3t0.5 3q0 1 2 1t3 -1l4 -2q1 -1 1 -2q1 -2 1 -7v-8v-8q1 -2 1 -5q0 2 0.5 3.5t0.5 3.5q2 6 2 9
q2 6 2 9q2 6 2 9q1 2 1 4t1 4q0 3 1 4q0 1 2 1q1 0 1.5 -0.5t2.5 -0.5zM605 312q1 0 1 -2q0 -1 -0.5 -2.5t-0.5 -3.5q-2 -3 -3 -9q-1 -2 -1.5 -5t-1.5 -5l-3 -12l-3 -9q-1 -2 -1 -4t-1 -4h-1q0 -1 -2 -1q-1 0 -1.5 0.5t-1.5 0.5h-3q-1 1 -2 1l-1 1q0 1 -0.5 1.5t-0.5 2.5
q0 3 -1 6q0 -2 -0.5 -3.5t-0.5 -2.5q-1 -2 -1 -6h-1q-1 -1 -3 -1q-1 0 -1 0.5t-2 0.5h-2q-1 1 -3 1q0 1 -1 1q0 3 -1 6q0 2 -2 10q0 3 -2 11q0 6 -2 12q0 3 -0.5 6t-0.5 5q-1 3 -1 6v2h3h3q1 -1 2 -1q1 -1 1.5 -1t1.5 -1l1 -2v-7q1 -2 1 -5t1 -6q0 -8 1 -12q0 -3 0.5 -6
t0.5 -5q0 2 0.5 4.5t0.5 4.5q1 2 1 8q1 3 1 8q0 2 0.5 3t0.5 3q0 1 2 1t3 -1l4 -2l2 -2v-7v-8q0 -2 0.5 -4t0.5 -4v-5q1 2 1 3.5t1 3.5q0 2 0.5 4.5t0.5 4.5q2 6 2 9q2 6 2 9q1 2 1 4t1 4q0 2 0.5 2.5t0.5 1.5t2 1q1 0 1.5 -0.5t2.5 -0.5q2 -2 4 -3zM663 312q1 0 1 -2
q0 -1 -0.5 -2.5t-0.5 -3.5q-2 -3 -3 -9q-1 -2 -1.5 -5t-1.5 -5l-3 -12l-3 -9q0 -2 -0.5 -4t-0.5 -4h-1q-1 -1 -3 -1q-1 0 -1.5 0.5t-1.5 0.5h-3q-1 1 -2 1l-1 1q0 2 -1 4q0 3 -1 6q0 -5 -1 -6q0 -2 -0.5 -3t-0.5 -3h-1q-1 -1 -2 -1t-1.5 0.5t-1.5 0.5h-3q-1 1 -3 1q0 1 -1 1
q0 3 -1 6q0 2 -2 10q0 3 -2 11q0 6 -2 12q0 3 -0.5 6t-0.5 5q-1 3 -1 6q0 2 1 2h2h3q1 -1 3 -1l2 -2q1 0 1 -2q0 -4 1 -7q0 -7 1 -11q0 -3 0.5 -6t0.5 -6t0.5 -6t0.5 -5q1 3 1 9q1 2 1 8q1 3 1 8q1 2 1 6q1 1 2 1q2 0 4 -1q1 -1 1.5 -1t1.5 -1l2 -2v-7q0 -5 1 -8v-8v-5
q1 2 1 3.5t1 3.5q0 3 2 9q0 3 2 9q0 2 0.5 4.5t0.5 4.5q2 6 2 8t0.5 2.5t0.5 1.5t2 1q1 0 2 -0.5t2 -0.5q1 -1 2 -1.5t2 -1.5zM681 264q-1 -2 -1 -5v-3l-2 -1q-1 1 -3 1q-2 2 -3 2q0 1 -1 2v1v3q0 1 0.5 1t0.5 1v3h1q1 0 1.5 -0.5t1.5 -0.5q2 -2 3 -2zM717 312q3 -3 6 -9
q2 -7 1 -14q0 -5 -2 -13q-2 -7 -4 -9q-4 -5 -5 -6q-2 -2 -3.5 -2.5t-3.5 -1.5t-6 -1q-2 -1 -6 -1v1q-2 0 -2 1l-2 2q0 1 -0.5 1.5t-0.5 1.5t-0.5 1.5t-0.5 1.5q0 2 0.5 3.5t0.5 3.5v10q1 3 1 10t1 10v7v3q0 1 3 3q2 0 3 0.5t3 0.5q2 1 4.5 0.5t4.5 -0.5q4 -1 8 -4zM715 294
q0 3 -2 5q0 2 -2 4q-1 1 -2 1t-2 1h-2h-2q-1 -3 -1 -9q-1 -2 -1 -4.5t-1 -5.5q0 -2 -0.5 -5t-0.5 -5t-0.5 -4.5t-0.5 -4.5v-2q2 1 4 1t4 1t2.5 2t2.5 2l3 6q0 2 0.5 4t0.5 4v9zM761 309q2 -4 2 -8v-9q0 -1 -2 -1t-3 1q-2 0 -4 2q-1 0 -1 2q0 3 -1 5q0 2 -3 2q-2 1 -5 -2
q-2 -2 -3 -6q-2 -6 -2 -9q-1 -3 -1 -9q1 -2 1 -3.5t1 -3.5q1 -3 5 -3h2q1 0 1 0.5t1 0.5q1 1 1 3q1 1 1 1.5t1 1.5l1 1q2 1 4 1q2 1 2.5 0.5t1.5 -0.5q2 0 2 -2q-1 -2 -1.5 -4t-1.5 -4q-2 -2 -2.5 -3t-2.5 -3q-2 -1 -2.5 -2t-2.5 -1q-4 -2 -6 -2q-6 2 -8 4q-1 0 -5 7
q-2 6 -2 10v11q0 3 2 11q1 2 2 4.5t2 4.5q3 4 7 7q4 2 8 2q3 0 7 -2q2 -1 4 -5zM802 306q2 -2 2 -4.5t1 -5.5v-11q-2 -8 -3 -11t-2 -5.5t-2 -4.5q-3 -5 -7 -6q-3 -3 -8 -3q-5 1 -7 4q-3 2 -5 7l-3 9v12q1 2 1 5t1 6t5 9q2 3 6 7q4 2 8 2q5 0 8 -3q4 -4 5 -7zM795 284
q0 2 0.5 4.5t-0.5 4.5q0 3 -2 7q-2 3 -4 3q-3 2 -5 -2q-1 -1 -4 -6q-2 -6 -2 -9q0 -2 -0.5 -4.5t0.5 -4.5q0 -3 2 -7q1 -3 4 -3q3 -2 5 2q3 3 4 6q1 2 1 4.5t1 4.5zM846 311l2 -2v-2q-1 -1 -1 -1.5t-1 -1.5t-3 -5q-2 -2 -4 -6q-2 -2 -2.5 -3.5t-2.5 -3.5q1 -2 2 -5t2 -5
t1.5 -4t1.5 -4q1 -3 3 -7l2 -4q0 -1 -1 -1q-1 -1 -4 -1q-1 0 -1.5 0.5t-1.5 0.5h-2v1q-2 2 -3 7q-2 3 -6 11q-2 -4 -4 -6l-3 -6q-1 -2 -3 -4q-1 -2 -2 -3q0 -1 -0.5 -1t-0.5 1q-1 0 -3 2q0 1 -0.5 1.5t-0.5 1.5q-1 1 -1 2l2 4q1 1 3 5t4 7q1 2 2 3.5t2 3.5q-1 2 -2 4.5
t-2 4.5q-2 6 -3 8t-1.5 3.5t-1.5 2.5q-2 4 -2 5v2h2q1 1 3 1q3 0 4 -1h2q1 0 1 -0.5t1 -0.5l2 -6t4 -10q2 4 6 10q2 2 2.5 4t1.5 3q0 1 1 1t2 -1q2 -2 3 -2q0 -1 0.5 -1.5t0.5 -1.5zM884 313q2 0 2 -2q-1 -1 -1 -5q-1 -2 -1 -3.5t-1 -3.5q0 -2 -0.5 -4t-0.5 -4q-1 -2 -1 -4
t-1 -4q0 -2 -1 -4l-2 -4q-4 -4 -7 -5q0 -2 -0.5 -4t-0.5 -4v-6l-2 -1q-1 1 -3 1q-2 2 -3 2q-1 1 -1 2v4v7q-4 2 -5 4q-3 4 -3 9q0 6 1 9v8q1 2 1 4t1 4v6q0 1 1 1h3q2 0 3 -1q1 0 1.5 -0.5t1.5 -0.5l2 -2v-1q0 -2 -0.5 -4t-0.5 -5q-2 -7 -3 -16q0 -4 1 -5q0 -2 2 -2q1 0 3 2
q1 1 1 2t1 3q1 4 1 7.5t1 7.5q2 10 2 14q0 1 2 1t4 -1q1 0 3 -2zM902 264q0 -2 -0.5 -2.5t-0.5 -2.5v-3l-1 -1q-1 1 -3 1q-1 0 -2 1q-1 0 -1 1l-2 2v1q0 1 0.5 1.5t0.5 1.5v2v3h1q1 0 1.5 -0.5t1.5 -0.5q2 -2 3 -2zM942 309q2 -4 2 -8v-9q0 -1 -2 -1t-3 1q-2 0 -4 2
q-1 0 -1 2q0 3 -1 5q0 2 -3 2q-2 1 -5 -2t-4 -6q0 -3 -2 -9v-9q1 -2 1 -3.5t1 -3.5q1 -3 5 -3h2q1 0 1 0.5t1 0.5q0 1 0.5 1.5t0.5 1.5q1 1 1 3l2 1q1 1 4 1q2 1 2.5 0.5t1.5 -0.5q3 0 1 -2q0 -2 -2 -8q-2 -2 -2.5 -3t-2.5 -3q-2 -1 -3 -2t-2 -1q-4 -2 -6 -2q-6 2 -8 4
q-1 0 -5 7q-2 6 -2 10q-2 5 0 11q0 3 2 11q2 6 4 9q3 4 7 7q4 2 8 2q3 0 7 -2q3 -3 4 -5zM983 306q2 -6 3 -10q0 -7 -1 -11q0 -5 -2 -11q-1 -4 -5 -10q-1 -4 -6 -6q-3 -3 -8 -3q-4 1 -8 4q-2 1 -4 7q-2 2 -2 4.5t-1 4.5v12q0 3 2 11q1 3 5 9q1 4 6 7q4 2 8 2q5 0 8 -3
q4 -4 5 -7zM976 293q0 3 -2 7q-2 3 -4 3q-3 1 -6 -2q-1 -1 -1.5 -2.5t-1.5 -3.5q-2 -6 -2 -9q-2 -5 0 -9q0 -3 2 -7q1 -3 4 -3q2 -1 5 2t4 6q1 2 1 4.5t1 4.5v9zM1034 313q1 -1 1 -2v-6q-1 -2 -1 -4.5t-1 -4.5q0 -8 -1 -12q0 -3 -0.5 -6t-0.5 -6q-1 -4 -1 -10q-1 -3 -1 -6
l-1 -1q-1 0 -1.5 0.5t-1.5 0.5q-1 1 -1.5 1t-1.5 1q-1 0 -1 0.5t-1 0.5v1v3v5q0 1 0.5 2t0.5 3v7q-2 -6 -3 -8q-1 -3 -3 -7h-2h-3q-1 1 -3 1q0 1 -1 1q-1 2 -1 3t-1 3t-1 4t-1 4q-1 -2 -1 -8q-1 -3 -1 -7q0 -2 -0.5 -3.5t-0.5 -2.5v-4l-2 -1q-1 1 -3 1q-2 2 -3 2q-1 1 -1 2
v6q0 2 0.5 4t0.5 5v11q1 4 1 12q0 3 0.5 5.5t0.5 4.5v7q0 1 2 1q3 0 4 -1q2 0 4 -2q1 -1 2 -1v-1q1 -1 1 -2t1 -3q0 -5 1 -7q0 -2 0.5 -4t0.5 -4q2 -6 2 -8l3 9l3 9q2 2 2.5 4t1.5 4q1 3 3 7h2q2 0 2.5 -0.5t1.5 -0.5z" />
    <glyph glyph-name="one" unicode="1" 
d="M1425 571q-21 -39 -41.5 -85t-28.5 -112q-1 -7 -1.5 -20.5t-1 -28.5t-0.5 -30v-24q0 -30 7.5 -66t33.5 -78q2 -2 3 -5t3 -5q4 -8 4 -17q0 -13 -8.5 -22.5t-21.5 -16.5q-26 -14 -64 -19q-7 -1 -13 -1.5t-12 -0.5h-2q-29 0 -50 12t-28 38q-3 8 -3.5 16t-0.5 17v15.5t1 14.5
q-25 2 -50 2.5t-45 0.5q-32 0 -42 -2h-4l-3 4q-2 5 -3.5 7.5t-3.5 5.5q-2 -7 -4 -10.5t-2 -4.5l-2 -3h-4q-10 0 -19 1.5t-17 1.5h-5l-1 5q-2 7 -8.5 20.5l-12.5 26.5q-2 -4 -2.5 -7.5t-2.5 -7.5q-2 -8 -4.5 -15.5t-7.5 -12.5l-2 -3l-4 1q-6 1 -18.5 1.5t-23.5 0.5h-16l-5 -1
l-2 5q-3 6 -5.5 12.5t-4.5 12.5q-2 -7 -5.5 -14t-9.5 -12l-3 -2l-3 1q-5 2 -29.5 3.5l-56.5 3.5t-65.5 3t-57.5 1t-56.5 -1.5t-64.5 -4t-59 -6.5t-39 -8l-5 -1l-3 3q-5 7 -9.5 14.5t-9.5 14.5q-2 -6 -3 -11.5t-3 -12.5l-1 -5h-5q-10 -1 -24.5 -3t-31.5 -4q2 -8 3.5 -23
t1.5 -17q0 -32 -43 -50q-21 -10 -45 -10q-25 0 -47 8t-39 18q-2 1 -2.5 1.5t-2.5 1.5l-2 2q-5 6 -6 14.5t-2 18.5q0 18 4 41t9.5 47.5l11.5 49.5l11 47q1 3 1 9q2 12 2 23.5v23.5q1 25 -1.5 49.5t-7.5 48.5q-8 30 -17.5 57t-18.5 49l-1 2l1 3q12 32 33 45t43 13
q20 0 37 -7.5t27 -15.5l1 -1h1v-1q6 -7 8.5 -15.5t3.5 -17.5v-5q0 -6 -2 -14q27 0 62 3q59 5 113 9t96 4q28 -1 48.5 -3t32.5 -10h1l1 -2q6 -8 11 -18.5l9 -18.5q2 8 2 11t0.5 5.5t0.5 4.5v4v8l8 -1q7 -1 22.5 -2l32.5 -2l33 -2t25 -1h4l2 -3q4 -8 7 -12.5t5 -8.5q2 4 4.5 8
t4.5 8l4 8l2 4h4q10 0 50 0.5t91 1.5t103 3t86 5q14 2 30.5 2.5t33.5 2.5q-2 8 -2 10v1v1q0 9 6 15.5t15 11.5q8 5 19 8.5l24 7.5q25 6 52 9t47 3h13.5t10.5 -2q11 -2 17.5 -9.5t5.5 -15.5q0 -11 -7 -25zM1249 583q-2 -2 -4 -3q5 -1 10 -1.5t11 -0.5q13 0 28 2.5t28 6
t23.5 7.5t14.5 7l9 6l2 -11q1 -6 1 -11.5v-11.5v-3q2 1 3.5 1t3.5 1q27 5 37 11q3 7 3 13q-1 5 -3 7.5t-10 4.5t-21 2q-15 0 -33.5 -2t-37.5 -5.5t-36.5 -8.5t-28.5 -11zM1239 568q-1 -3 -1 -11q32 2 63.5 4.5t57.5 6.5v5q0 7 -1 11q-16 -8 -42 -13.5t-50 -5.5q-15 0 -27 3z
M283 562q0 11 -4 19q-14 -7 -28 -9.5t-27 -2.5h-12t-11 1q2 -5 4 -9t4 -9q14 -2 30.5 -3.5t36.5 -1.5h5q2 5 2 8v7zM219 611q-13 0 -25 -4.5t-23 -17.5l18 -3q8 -2 16.5 -3t18.5 -1q12 0 24.5 2.5t23.5 8.5q-8 7 -22 12.5t-31 5.5zM171 589q-6 -8 -13 -21q6 -4 14.5 -7.5
t20.5 -6.5q-4 12 -11 21zM289 75q25 11 32 26q-9 3 -26 3q-20 0 -43 -4t-33 -8l-8 -3l-1 8q-3 13 -3 27q-5 -2 -6 -3q-12 -7 -19.5 -13.5t-13.5 -14.5q0 -2 2 -2q16 -10 37 -17t43 -7t39 8zM323 119q0 16 -4 31l-14 -2t-15 -3q-20 -4 -38 -8t-32 -8q0 -6 0.5 -11.5
t1.5 -10.5q14 5 34 8t39 3q16 0 28 -3v4zM1217 95q10 4 21.5 5t22.5 1q12 0 22.5 -1t18.5 -2v6q0 8 -0.5 17.5t-1.5 19.5q-21 5 -43 7.5t-42 4.5q-1 -8 -1.5 -15t-0.5 -15q0 -19 4 -28zM1387 111q-1 1 -1.5 2t-2.5 2q-11 7 -28.5 12.5t-40.5 10.5q1 -9 1.5 -17.5t0.5 -16.5
q0 -4 -0.5 -7.5t-0.5 -7.5v-8l-8 2q-6 2 -19 3t-27 1q-11 0 -21 -1t-18 -3q14 -29 62 -29q5 0 11 0.5t12 1.5q17 2 32.5 6t26.5 11q23 11 23 27q0 7 -2 11zM1373 135q-21 39 -27.5 73t-6.5 63q0 10 0.5 23t0.5 26.5t0.5 25t0.5 18.5q0 32 7 60.5t17.5 53.5t21.5 46.5
l20 40.5q-5 -2 -11.5 -3.5t-13.5 -3.5l-31 -4.5t-36 -4.5l-78.5 -6t-75.5 -6q-33 -3 -83 -5t-99 -3t-89.5 -1.5t-55.5 -0.5q-3 -5 -8 -15t-8 -15l-6 -11l-6 10l-6.5 11t-10.5 17q-10 0 -24 0.5t-28.5 1.5l-28.5 2t-23 2q0 -7 -1.5 -18t-6.5 -22l-7 -14l-6 14l-8 18
l-8.5 16.5t-9.5 16.5q-8 5 -27 7t-45 2q-41 0 -94.5 -4t-113.5 -9q-47 -3 -82 -3q-41 0 -67 4t-43 11q18 -44 27 -93t9 -98q0 -12 -0.5 -24t-1.5 -24q-2 -23 -8 -49.5l-12.5 -53.5t-11 -51t-4.5 -41v-5q6 6 13 12t17 11q13 7 38.5 13.5t54.5 11.5q28 5 53.5 9t42.5 6
q2 10 4.5 16t4.5 17l5 17l9 -14q7 -11 11.5 -20t10.5 -17q16 4 43 8t58.5 6.5t62.5 4t55 1.5t57.5 -1t65.5 -3l52 -3.5t34 -3.5q4 5 6.5 14.5t7.5 18.5l6 11l6 -11q5 -8 8.5 -17t7.5 -18h12q11 0 21.5 -0.5t18.5 -1.5q4 8 7 20q2 8 4.5 16t5.5 15l6 14l6 -13l15 -29.5
t13 -29.5q8 -1 14.5 -2l12.5 -2q2 4 4 9.5l4 11.5l3 12l8 -10q5 -5 8 -9.5t6 -11.5q6 1 16 1h23q23 0 51 -0.5t56 -2.5q41 -2 85 -10.5t75 -20.5zM304 430q2 -3 3 -6t3 -8q1 -7 0 -19q-2 -10 -7 -17q-2 -4 -4.5 -6.5l-5.5 -5.5q-7 -4 -14 -7q-10 -2 -14 -2q-1 -4 -1 -11
q-1 -3 -1 -6t-3 -1q-1 0 -2 0.5t-3 0.5q-4 2 -5 4q-2 1 -2 3v8q1 3 1 13q0 4 0.5 8t0.5 9q1 5 1 9t1 9v9t1 8q0 4 0.5 7.5t0.5 6.5q0 1 3 3q4 2 7 3t10 1q3 1 5.5 0.5t5.5 -1.5q3 0 5.5 -1t5.5 -3q5 -3 8 -8zM293 404q0 6 -1 9q0 4 -3 7q-4 4 -7 4q-3 1 -9 0q0 -2 -0.5 -5
t-0.5 -5q-1 -3 -1 -6t-1 -6q0 -4 -0.5 -7t-0.5 -6q-1 -4 -1 -7t-1 -6q5 0 10 3q3 1 4.5 2.5l3.5 3.5q4 6 5 9q2 2 2 5t1 5zM369 443q2 0 2 -3v-6q-1 -2 -1 -3t-1 -3q-1 -1 -1 -2t-1 -1q-2 0 -4 -1q-1 0 -2.5 -0.5t-3.5 -0.5q-2 -1 -3.5 -1t-3.5 -1q-2 0 -4.5 -0.5t-4.5 -0.5
q0 -2 -0.5 -5t-0.5 -5q0 -3 -0.5 -6t-0.5 -6q10 2 14 3q3 0 5 0.5t4 0.5q1 0 1 -2q1 -3 0 -6q0 -4 -1 -6q-1 -1 -1 -2t-1 -1q-2 -1 -4 -1t-5 -1q-4 -1 -7 -1t-8 -1q0 -3 -0.5 -6t-0.5 -6q-1 -4 -1 -10q2 1 4.5 1t5.5 1q2 0 4 0.5t4 0.5q3 1 7 1q2 1 5 1q1 0 2 -2q0 -3 -1 -6
q0 -4 -1 -5l-2 -3q-1 -1 -2 -1t-3 -1q-3 0 -9 -2q-3 0 -5.5 -0.5t-5.5 -1.5q-3 0 -5.5 -0.5t-5.5 -1.5q-1 0 -3 2q-1 1 -1.5 2t-1.5 2q-1 2 -1 2.5t-1 2.5t-1 5q0 2 0.5 5t0.5 6q0 8 1 13q0 9 1 14q0 10 1 15q0 9 1 14q0 8 1 11v1q8 2 14 2q4 1 7 1.5t7 1.5q3 0 6 0.5t5 0.5
zM433 429q2 -3 3 -6t3 -7q1 -8 0 -18q-2 -8 -4 -11q-2 -6 -6 -9q-2 -3 -7 -8q-6 -4 -9 -5q5 -3 8 -5.5t7 -4.5q3 -2 5 -3.5t4 -3.5q2 0 0 -2t-4 -3q-1 -1 -5 -3q-3 -3 -3 0q-1 0 -5 2q-2 1 -3.5 2t-3.5 2q-2 2 -4.5 2.5t-4.5 2.5t-5 3t-5 3q-1 -4 -1 -10q-1 -3 -1 -6t-3 -1
q-1 0 -2 0.5t-3 0.5q-4 2 -5 4q-2 1 -2 3v8q1 3 1 13q1 4 1 8v9q1 5 1 9t1 9v9t1 8q0 4 0.5 7.5t0.5 6.5q0 1 3 3q4 2 7 3q2 0 4.5 0.5t5.5 0.5q7 0 11 -1q6 -2 11 -4q5 -3 8 -8zM423 404q0 8 -2 11q-2 5 -7 7q-4 3 -12 1q0 -2 -0.5 -5t-0.5 -5q-1 -3 -1 -6t-1 -6
q0 -3 -0.5 -6.5t-0.5 -6.5q-1 -3 -1 -6.5t-1 -6.5q9 1 15 6q5 5 8 11q4 8 4 12zM504 357q-3 -7 -8 -12q-7 -5 -13 -5q-6 -2 -14 0q-3 2 -6 3.5t-6 4.5q-6 4 -9 14q-3 8 -1 21q0 2 3 2q2 -1 3 -1t3 -1l6 -3q3 -2 3 -3q-1 -6 0 -10q2 -6 3 -8l5 -5q2 -1 6 -1q3 0 5 1q3 3 3 5
q1 5 -1 9l-3.5 3.5t-4.5 3.5q-6 4 -10 7q-4 2 -10 8q-4 4 -6 11t1 15q1 4 5 10q2 5 7 8q3 3 9 5q3 2 9 2q7 0 12 -3q6 -6 7 -9q3 -6 3 -14v-7.5t-2 -8.5q0 -2 -1 -2q-2 0 -4 1q-1 0 -1.5 0.5t-2.5 0.5q-1 1 -2 1.5t-2 1.5q-2 2 -2 3q-1 1 -1 2q1 3 1 8q0 3 -2 5q0 2 -3 2
t-5 -1q-3 -3 -4 -5l-2 -4t-1 -5q-1 -4 1 -8q4 -4 7 -6q2 -2 5 -3t5 -3t4.5 -3.5t4.5 -3.5q5 -5 6 -10q1 -6 0 -13zM562 353q-4 -7 -11 -11q-6 -4 -13 -3q-6 0 -13 5q-5 5 -8 12q-2 6 -4 16v19q2 12 4 19q3 10 7 16q5 6 11 11q8 4 14 4q10 -2 13 -5q6 -5 9 -12q2 -4 2.5 -8
t1.5 -9v-9.5t-1 -9.5t-1.5 -9.5t-2.5 -9.5t-4 -8.5t-4 -7.5zM548 361q2 2 3.5 4.5t2.5 5.5q2 5 4 15q1 5 1 15q-2 9 -4 12q-1 4 -7 6q-5 0 -9 -3q-2 -3 -6 -11q-2 -5 -4 -15v-15q1 -8 3 -12q3 -5 7 -6q5 0 9 4zM616 345q-2 2 -2 6q-1 2 -1.5 4.5t-2.5 4.5q-2 8 -3 13
q-2 3 -2.5 6.5t-2.5 6.5q0 -5 -2 -15q0 -4 -0.5 -7.5t-0.5 -6.5q-1 -3 -1 -6t-1 -5v-7q-1 -1 -3 -1q-1 0 -5 2t-5 3q-3 2 -2 3v9q0 4 0.5 7.5t0.5 8.5q1 5 1 9.5v9.5q1 5 1 10t1 10q0 5 0.5 9t0.5 8t0.5 7t0.5 5t3 2q2 -1 3.5 -1t3.5 -1t3.5 -2t3.5 -2q3 -2 3 -4l2 -6
q1 -2 1 -4.5t1 -4.5q2 -8 3 -11q2 -8 3 -13q0 4 0.5 7.5t0.5 7.5q0 3 0.5 6.5t0.5 6.5t0.5 5.5t0.5 5.5q0 5 1 7q0 2 1 2h4q1 0 5 -2q1 0 5 -2q1 -1 2 -1.5t2 -1.5q0 -1 0.5 -1t0.5 -1q-1 -2 -1 -4t-1 -5q0 -4 -0.5 -8t-1.5 -9t-1 -9.5t-1 -9.5t-1.5 -10t-1.5 -10
q0 -7 -2 -17q0 -4 -0.5 -6t-0.5 -4q0 -1 -2 -1q-3 0 -4 1q-4 2 -5 3q-3 1 -3 3zM691 339q-2 0 -2 2l-2 6q0 2 -0.5 4t-0.5 4q-2 0 -10 -2q-5 0 -13 -2q-1 -3 -3 -7q0 -2 -0.5 -3t-0.5 -2q0 -4 -3 -1q-2 0 -6 2q-1 1 -2 1.5t-2 1.5q-2 1 -2 3q0 1 2 9q1 4 2 7.5t2 8.5t2 9.5
t2 9.5q2 5 2.5 9.5t2.5 9.5q1 5 2 9l2 8q1 7 3 12q0 1 2 2h4q2 0 3 -0.5t3 -0.5t3 -0.5t3 -0.5t3 -0.5t2 -0.5l2 -2q0 -2 0.5 -4l1.5 -6q0 -3 0.5 -7t1.5 -9t1.5 -10t1.5 -10t1.5 -10t1.5 -10t1.5 -9t0.5 -8q2 -10 2 -12t-2 -2q-3 -2 -6 0q-4 0 -6 1zM676 371q5 0 7 1
q-1 4 -3 14q-1 4 -1 7t-1 6q-2 -4 -2.5 -7.5t-2.5 -7.5t-2.5 -7.5t-2.5 -6.5q6 0 8 1zM715 341q0 2 -0.5 3t-0.5 2q-1 2 -1 5v1v12q1 5 1 16q1 4 1 8t1 9v9t1 8q0 5 0.5 8t0.5 7q0 3 0.5 5t0.5 4q0 3 3 2q3 0 7 -2t7 -4t3 -3t-0.5 -2.5t-0.5 -4.5q-1 -2 -1 -4.5t-1 -6.5
q0 -3 -0.5 -6.5t-0.5 -7.5q-2 -10 -2 -15q-2 -10 -2 -16q-1 -4 -1 -7t-1 -6q5 1 9 1.5t7 1.5q4 1 6 1t4 1q2 0 2 -2v-6q0 -2 -2 -6q0 -1 -2 -3q-4 0 -11 -3l-10 -2t-10 -3l-4 2q-1 2 -3 4zM857 372q-1 -4 -1.5 -6.5t-0.5 -4.5q-2 -8 -6 -14q-3 -4 -9 -8q-6 -3 -11 -3
q-6 2 -10 4q-5 3 -8 9t-3 14t1 12q0 9 1 14q0 10 1 15q0 3 0.5 6.5t0.5 6.5q1 5 1 12q1 3 1 8l2 2h4q2 -1 2.5 -1t2.5 -1t2.5 -1t2.5 -1l3 -3l2 -2q-1 -2 -1 -4t-1 -6t-1 -8t-1 -9t-1.5 -9.5t-1.5 -9.5q0 -5 -0.5 -10t-1.5 -10q0 -7 1 -9q1 -4 3 -4t4 3l3 9q0 3 2 11
q0 4 0.5 7t1.5 7q0 4 0.5 7t1.5 7t1 7.5t1 6.5q0 4 0.5 7t0.5 5q1 3 1 5t1 4q0 2 3 2t7 -2q2 -1 3.5 -2t3.5 -2l2 -2q0 -1 1 -1q0 -2 -0.5 -3.5t-0.5 -3.5q-1 -3 -1 -5.5t-1 -5.5q-1 -4 -1.5 -7t-1.5 -7t-3 -14q-1 -3 -1 -6t-1 -6zM929 354q-1 -7 -8 -12q-5 -5 -12 -6
q-4 -1 -14 1q-7 2 -12 8q-6 4 -9 14q-3 8 -1 21q0 1 3 1q4 0 6 -1l6 -3q3 -2 3 -3q-1 -6 0 -10q0 -2 1 -4l2 -4q2 -3 5 -5q2 -1 6 -1q3 0 5 1q3 3 3 5q2 5 -1 9q-2 2 -4 3.5t-4 3.5q-6 4 -10 6q-3 2 -5.5 4t-4.5 5q-5 5 -6 11q-2 7 1 15q1 4 5 10t7 8q2 2 4 3t5 2q6 2 9 2
q8 0 12 -4q6 -4 7 -9q3 -5 3 -13v-8t-2 -9q0 -1 -1 -1h-4q-1 1 -2 1t-2 1t-2 1.5t-2 1.5l-3 3v2q1 3 1 8q0 1 -2 5q-2 2 -3 2q-3 0 -5 -1q-3 -3 -4 -5q-3 -5 -3 -9q-2 -5 1 -8q4 -4 7 -6q6 -4 10 -6q3 -2 9 -8q4 -3 6 -9t-1 -13zM992 430q0 -4 -2 -6l-2 -4h-4l-6 -2
q-2 0 -3.5 -0.5t-3.5 -0.5q-2 -1 -4 -1t-4 -1q-1 -2 -1 -4.5t-1 -5.5q0 -3 -0.5 -5.5t-0.5 -5.5q4 1 7.5 1t6.5 1q4 1 9 1q1 1 2 -2v-6q-1 -2 -1 -3t-1 -3l-2 -3q-1 0 -9 -2q-3 0 -6.5 -0.5t-8.5 -1.5q0 -8 -1 -12q0 -2 -0.5 -5t-0.5 -5q2 1 5 1t5 1q2 0 4.5 0.5t4.5 0.5
q2 1 3.5 1t3.5 1h4q2 2 2 -2v-5q-1 -2 -1 -3t-1 -3l-2 -3q-1 0 -2 -0.5t-3 -0.5q-6 -2 -9 -2q-3 -1 -5.5 -1.5t-5.5 -0.5q-3 -1 -5.5 -1.5t-5.5 -1.5q-1 1 -1.5 1t-1.5 2q-2 2 -3 4q-1 1 -1 2t-1 2q0 2 -0.5 3t-0.5 3q1 3 1 10v6.5t1 6.5q0 4 0.5 7.5t0.5 7.5t0.5 7.5
t0.5 6.5q0 4 0.5 7.5t0.5 6.5t0.5 6t0.5 5v2q4 0 14 2q4 1 7.5 1t6.5 1t6 1t6 1q2 0 3.5 0.5t2.5 0.5q2 0 2 -2v-6zM1100 420q4 -10 4 -17q2 -10 0 -19q-1 -8 -5 -19q-3 -10 -7 -16q-2 -4 -5 -6.5t-6 -4.5q-6 -5 -14 -3q-7 0 -12 5q-5 3 -8 12q-2 4 -3 7.5t-1 8.5
q-1 10 0 19q0 10 3 19q2 5 4 8.5t4 7.5q2 3 4.5 6t6.5 5q8 4 13 4q9 -2 14 -5q5 -5 8 -12zM1087 382q2 10 1 15q0 7 -3 12t-8 6q-5 0 -8 -3t-7 -11q-2 -6 -3 -15q-1 -5 -1 -15q2 -9 4 -12q1 -4 7 -6q5 0 8 4q4 4 7 10q1 4 2 7.5t1 7.5zM1166 432q2 -1 4 -3q1 -1 1 -2
q0 -2 -0.5 -4t-0.5 -5q-1 -4 -1.5 -8t-0.5 -9q-1 -5 -1.5 -9.5t-1.5 -9.5t-1 -10t-1 -10t-1.5 -9t-0.5 -8q-1 -5 -1 -10q-1 -1 -2 -1q-3 0 -5 1t-2.5 1.5t-2.5 1.5l-3 3l-2 6q-1 2 -1.5 4.5t-1.5 4.5l-2 6t-2 7q-1 3 -2 6.5t-2 6.5q-2 -10 -2 -15q-1 -4 -1 -7.5t-1 -6.5
q0 -3 -0.5 -6t-0.5 -5q-1 -3 -1 -7q0 -1 -3 -1q-1 0 -5 2q-2 1 -2.5 1.5t-2.5 1.5q-2 2 -2 3q0 5 1 9v7.5t1 8.5v9.5t1 9.5q0 5 0.5 10t0.5 10q1 5 1 9v8q1 4 1 7t1 5q0 2 3 2q2 -1 3.5 -1t3.5 -1t3 -2t3 -2q3 -2 3 -4q2 -2 2 -6l3 -9q0 -5 2 -11l2 -6t2 -7q0 10 1 15v6.5
t1 6.5v11q1 3 1 7q0 2 2 2h4q2 0 4 -2q3 0 5 -2zM1220 356q2 0 2 -2q2 -2 0 -5q0 -2 -0.5 -3t-0.5 -3q-1 -1 -1 -2t-1 -1q-3 -2 -12 -3q-4 -2 -9 -2.5t-11 -2.5q-1 0 -3 2t-3 4q-2 2 -2 5q-1 2 -1 5q0 2 0.5 5t0.5 7v8t1 8q0 5 0.5 9t0.5 9t0.5 8.5t0.5 8.5q1 4 1 7.5v6.5
q1 3 1 5.5v4.5t4 2q1 0 7 -2q2 -1 3 -2t3 -2q3 -3 3 -4q0 -3 -1 -6q0 -2 -0.5 -5t-0.5 -6q-1 -3 -1 -6.5t-1 -7.5t-1 -7.5t-1 -8.5q0 -5 -2 -15q0 -4 -0.5 -7.5t-0.5 -6.5q5 1 8.5 1.5t7.5 1.5q8 2 9 2zM1285 430q2 -2 2 -3q-1 -2 -1 -4t-1 -5t-1 -6t-1 -7q-2 -8 -3 -13
q-2 -8 -2 -12q-4 -11 -7 -14q-3 -4 -11 -8q0 -5 -2 -15q0 -7 -1 -9q0 -1 -2 -1q-3 0 -5 2l-6 3q-2 2 -2 3t0.5 3t0.5 4v11q-4 1 -9 8q-4 8 -4 15q0 4 0.5 7.5t0.5 7.5t0.5 7t1.5 7q0 3 0.5 6.5t0.5 6.5q1 3 1 5.5t1 4.5q0 1 2 2q2 0 3 -1q2 0 3 -0.5t2 -0.5q4 -2 5 -3
q2 0 4 -2q1 -1 1 -2q-2 -5 -3 -15q-1 -5 -2 -11.5t-2 -15.5q-1 -5 1 -9q1 -3 4 -3q2 0 4 3q2 2 4 8q1 7 1.5 13.5t2.5 12.5q2 16 4 24q0 2 3 2l6 -2q4 -2 6 -4zM546 312q2 0 2 -2l-2 -6q0 -1 -2 -9q-1 -2 -1.5 -5t-1.5 -5l-3 -12l-3 -9q-1 -2 -1 -4t-1 -4h-1q0 -1 -2 -1
q-1 0 -1.5 0.5t-1.5 0.5h-3q-1 1 -2 1l-1 1q0 1 -0.5 1.5t-0.5 2.5q0 1 -0.5 2.5t-0.5 3.5q0 -2 -0.5 -3.5t-0.5 -2.5q-1 -2 -1 -6h-2q0 -1 -2 -1q-1 0 -1.5 0.5t-1.5 0.5h-3q-1 1 -2 1l-1 1q0 1 -0.5 2.5t-0.5 3.5q-1 2 -1 4.5t-1 5.5q-1 2 -1 5t-1 6q-1 4 -1 7t-1 5
q-1 3 -1 6t-1 5q0 5 -1 6q0 1 1 2h2h3q1 -1 3 -1q1 -1 1.5 -1t1.5 -1l1 -2v-7q1 -3 1 -11q1 -3 1 -6t1 -6q0 -8 1 -11q0 2 0.5 4.5t0.5 4.5t0.5 4t0.5 4t0.5 4t0.5 4t0.5 3t0.5 3q0 1 2 1t3 -1l4 -2q1 -1 1 -2q1 -2 1 -7v-8v-8q1 -2 1 -5q0 2 0.5 3.5t0.5 3.5q2 6 2 9
q2 6 2 9q2 6 2 9q1 2 1 4t1 4q0 3 1 4q0 1 2 1q1 0 1.5 -0.5t2.5 -0.5zM605 312q1 0 1 -2q0 -1 -0.5 -2.5t-0.5 -3.5q-2 -3 -3 -9q-1 -2 -1.5 -5t-1.5 -5l-3 -12l-3 -9q-1 -2 -1 -4t-1 -4h-1q0 -1 -2 -1q-1 0 -1.5 0.5t-1.5 0.5h-3q-1 1 -2 1l-1 1q0 1 -0.5 1.5t-0.5 2.5
q0 3 -1 6q0 -2 -0.5 -3.5t-0.5 -2.5q-1 -2 -1 -6h-1q-1 -1 -3 -1q-1 0 -1 0.5t-2 0.5h-2q-1 1 -3 1q0 1 -1 1q0 3 -1 6q0 2 -2 10q0 3 -2 11q0 6 -2 12q0 3 -0.5 6t-0.5 5q-1 3 -1 6v2h3h3q1 -1 2 -1q1 -1 1.5 -1t1.5 -1l1 -2v-7q1 -2 1 -5t1 -6q0 -8 1 -12q0 -3 0.5 -6
t0.5 -5q0 2 0.5 4.5t0.5 4.5q1 2 1 8q1 3 1 8q0 2 0.5 3t0.5 3q0 1 2 1t3 -1l4 -2l2 -2v-7v-8q0 -2 0.5 -4t0.5 -4v-5q1 2 1 3.5t1 3.5q0 2 0.5 4.5t0.5 4.5q2 6 2 9q2 6 2 9q1 2 1 4t1 4q0 2 0.5 2.5t0.5 1.5t2 1q1 0 1.5 -0.5t2.5 -0.5q2 -2 4 -3zM663 312q1 0 1 -2
q0 -1 -0.5 -2.5t-0.5 -3.5q-2 -3 -3 -9q-1 -2 -1.5 -5t-1.5 -5l-3 -12l-3 -9q0 -2 -0.5 -4t-0.5 -4h-1q-1 -1 -3 -1q-1 0 -1.5 0.5t-1.5 0.5h-3q-1 1 -2 1l-1 1q0 2 -1 4q0 3 -1 6q0 -5 -1 -6q0 -2 -0.5 -3t-0.5 -3h-1q-1 -1 -2 -1t-1.5 0.5t-1.5 0.5h-3q-1 1 -3 1q0 1 -1 1
q0 3 -1 6q0 2 -2 10q0 3 -2 11q0 6 -2 12q0 3 -0.5 6t-0.5 5q-1 3 -1 6q0 2 1 2h2h3q1 -1 3 -1l2 -2q1 0 1 -2q0 -4 1 -7q0 -7 1 -11q0 -3 0.5 -6t0.5 -6t0.5 -6t0.5 -5q1 3 1 9q1 2 1 8q1 3 1 8q1 2 1 6q1 1 2 1q2 0 4 -1q1 -1 1.5 -1t1.5 -1l2 -2v-7q0 -5 1 -8v-8v-5
q1 2 1 3.5t1 3.5q0 3 2 9q0 3 2 9q0 2 0.5 4.5t0.5 4.5q2 6 2 8t0.5 2.5t0.5 1.5t2 1q1 0 2 -0.5t2 -0.5q1 -1 2 -1.5t2 -1.5zM681 264q-1 -2 -1 -5v-3l-2 -1q-1 1 -3 1q-2 2 -3 2q0 1 -1 2v1v3q0 1 0.5 1t0.5 1v3h1q1 0 1.5 -0.5t1.5 -0.5q2 -2 3 -2zM717 312q3 -3 6 -9
q2 -7 1 -14q0 -5 -2 -13q-2 -7 -4 -9q-4 -5 -5 -6q-2 -2 -3.5 -2.5t-3.5 -1.5t-6 -1q-2 -1 -6 -1v1q-2 0 -2 1l-2 2q0 1 -0.5 1.5t-0.5 1.5t-0.5 1.5t-0.5 1.5q0 2 0.5 3.5t0.5 3.5v10q1 3 1 10t1 10v7v3q0 1 3 3q2 0 3 0.5t3 0.5q2 1 4.5 0.5t4.5 -0.5q4 -1 8 -4zM715 294
q0 3 -2 5q0 2 -2 4q-1 1 -2 1t-2 1h-2h-2q-1 -3 -1 -9q-1 -2 -1 -4.5t-1 -5.5q0 -2 -0.5 -5t-0.5 -5t-0.5 -4.5t-0.5 -4.5v-2q2 1 4 1t4 1t2.5 2t2.5 2l3 6q0 2 0.5 4t0.5 4v9zM761 309q2 -4 2 -8v-9q0 -1 -2 -1t-3 1q-2 0 -4 2q-1 0 -1 2q0 3 -1 5q0 2 -3 2q-2 1 -5 -2
q-2 -2 -3 -6q-2 -6 -2 -9q-1 -3 -1 -9q1 -2 1 -3.5t1 -3.5q1 -3 5 -3h2q1 0 1 0.5t1 0.5q1 1 1 3q1 1 1 1.5t1 1.5l1 1q2 1 4 1q2 1 2.5 0.5t1.5 -0.5q2 0 2 -2q-1 -2 -1.5 -4t-1.5 -4q-2 -2 -2.5 -3t-2.5 -3q-2 -1 -2.5 -2t-2.5 -1q-4 -2 -6 -2q-6 2 -8 4q-1 0 -5 7
q-2 6 -2 10v11q0 3 2 11q1 2 2 4.5t2 4.5q3 4 7 7q4 2 8 2q3 0 7 -2q2 -1 4 -5zM802 306q2 -2 2 -4.5t1 -5.5v-11q-2 -8 -3 -11t-2 -5.5t-2 -4.5q-3 -5 -7 -6q-3 -3 -8 -3q-5 1 -7 4q-3 2 -5 7l-3 9v12q1 2 1 5t1 6t5 9q2 3 6 7q4 2 8 2q5 0 8 -3q4 -4 5 -7zM795 284
q0 2 0.5 4.5t-0.5 4.5q0 3 -2 7q-2 3 -4 3q-3 2 -5 -2q-1 -1 -4 -6q-2 -6 -2 -9q0 -2 -0.5 -4.5t0.5 -4.5q0 -3 2 -7q1 -3 4 -3q3 -2 5 2q3 3 4 6q1 2 1 4.5t1 4.5zM846 311l2 -2v-2q-1 -1 -1 -1.5t-1 -1.5t-3 -5q-2 -2 -4 -6q-2 -2 -2.5 -3.5t-2.5 -3.5q1 -2 2 -5t2 -5
t1.5 -4t1.5 -4q1 -3 3 -7l2 -4q0 -1 -1 -1q-1 -1 -4 -1q-1 0 -1.5 0.5t-1.5 0.5h-2v1q-2 2 -3 7q-2 3 -6 11q-2 -4 -4 -6l-3 -6q-1 -2 -3 -4q-1 -2 -2 -3q0 -1 -0.5 -1t-0.5 1q-1 0 -3 2q0 1 -0.5 1.5t-0.5 1.5q-1 1 -1 2l2 4q1 1 3 5t4 7q1 2 2 3.5t2 3.5q-1 2 -2 4.5
t-2 4.5q-2 6 -3 8t-1.5 3.5t-1.5 2.5q-2 4 -2 5v2h2q1 1 3 1q3 0 4 -1h2q1 0 1 -0.5t1 -0.5l2 -6t4 -10q2 4 6 10q2 2 2.5 4t1.5 3q0 1 1 1t2 -1q2 -2 3 -2q0 -1 0.5 -1.5t0.5 -1.5zM884 313q2 0 2 -2q-1 -1 -1 -5q-1 -2 -1 -3.5t-1 -3.5q0 -2 -0.5 -4t-0.5 -4q-1 -2 -1 -4
t-1 -4q0 -2 -1 -4l-2 -4q-4 -4 -7 -5q0 -2 -0.5 -4t-0.5 -4v-6l-2 -1q-1 1 -3 1q-2 2 -3 2q-1 1 -1 2v4v7q-4 2 -5 4q-3 4 -3 9q0 6 1 9v8q1 2 1 4t1 4v6q0 1 1 1h3q2 0 3 -1q1 0 1.5 -0.5t1.5 -0.5l2 -2v-1q0 -2 -0.5 -4t-0.5 -5q-2 -7 -3 -16q0 -4 1 -5q0 -2 2 -2q1 0 3 2
q1 1 1 2t1 3q1 4 1 7.5t1 7.5q2 10 2 14q0 1 2 1t4 -1q1 0 3 -2zM902 264q0 -2 -0.5 -2.5t-0.5 -2.5v-3l-1 -1q-1 1 -3 1q-1 0 -2 1q-1 0 -1 1l-2 2v1q0 1 0.5 1.5t0.5 1.5v2v3h1q1 0 1.5 -0.5t1.5 -0.5q2 -2 3 -2zM942 309q2 -4 2 -8v-9q0 -1 -2 -1t-3 1q-2 0 -4 2
q-1 0 -1 2q0 3 -1 5q0 2 -3 2q-2 1 -5 -2t-4 -6q0 -3 -2 -9v-9q1 -2 1 -3.5t1 -3.5q1 -3 5 -3h2q1 0 1 0.5t1 0.5q0 1 0.5 1.5t0.5 1.5q1 1 1 3l2 1q1 1 4 1q2 1 2.5 0.5t1.5 -0.5q3 0 1 -2q0 -2 -2 -8q-2 -2 -2.5 -3t-2.5 -3q-2 -1 -3 -2t-2 -1q-4 -2 -6 -2q-6 2 -8 4
q-1 0 -5 7q-2 6 -2 10q-2 5 0 11q0 3 2 11q2 6 4 9q3 4 7 7q4 2 8 2q3 0 7 -2q3 -3 4 -5zM983 306q2 -6 3 -10q0 -7 -1 -11q0 -5 -2 -11q-1 -4 -5 -10q-1 -4 -6 -6q-3 -3 -8 -3q-4 1 -8 4q-2 1 -4 7q-2 2 -2 4.5t-1 4.5v12q0 3 2 11q1 3 5 9q1 4 6 7q4 2 8 2q5 0 8 -3
q4 -4 5 -7zM976 293q0 3 -2 7q-2 3 -4 3q-3 1 -6 -2q-1 -1 -1.5 -2.5t-1.5 -3.5q-2 -6 -2 -9q-2 -5 0 -9q0 -3 2 -7q1 -3 4 -3q2 -1 5 2t4 6q1 2 1 4.5t1 4.5v9zM1034 313q1 -1 1 -2v-6q-1 -2 -1 -4.5t-1 -4.5q0 -8 -1 -12q0 -3 -0.5 -6t-0.5 -6q-1 -4 -1 -10q-1 -3 -1 -6
l-1 -1q-1 0 -1.5 0.5t-1.5 0.5q-1 1 -1.5 1t-1.5 1q-1 0 -1 0.5t-1 0.5v1v3v5q0 1 0.5 2t0.5 3v7q-2 -6 -3 -8q-1 -3 -3 -7h-2h-3q-1 1 -3 1q0 1 -1 1q-1 2 -1 3t-1 3t-1 4t-1 4q-1 -2 -1 -8q-1 -3 -1 -7q0 -2 -0.5 -3.5t-0.5 -2.5v-4l-2 -1q-1 1 -3 1q-2 2 -3 2q-1 1 -1 2
v6q0 2 0.5 4t0.5 5v11q1 4 1 12q0 3 0.5 5.5t0.5 4.5v7q0 1 2 1q3 0 4 -1q2 0 4 -2q1 -1 2 -1v-1q1 -1 1 -2t1 -3q0 -5 1 -7q0 -2 0.5 -4t0.5 -4q2 -6 2 -8l3 9l3 9q2 2 2.5 4t1.5 4q1 3 3 7h2q2 0 2.5 -0.5t1.5 -0.5z" />
    <glyph glyph-name="two" unicode="2" 
d="M1425 571q-21 -39 -41.5 -85t-28.5 -112q-1 -7 -1.5 -20.5t-1 -28.5t-0.5 -30v-24q0 -30 7.5 -66t33.5 -78q2 -2 3 -5t3 -5q4 -8 4 -17q0 -13 -8.5 -22.5t-21.5 -16.5q-26 -14 -64 -19q-7 -1 -13 -1.5t-12 -0.5h-2q-29 0 -50 12t-28 38q-3 8 -3.5 16t-0.5 17v15.5t1 14.5
q-25 2 -50 2.5t-45 0.5q-32 0 -42 -2h-4l-3 4q-2 5 -3.5 7.5t-3.5 5.5q-2 -7 -4 -10.5t-2 -4.5l-2 -3h-4q-10 0 -19 1.5t-17 1.5h-5l-1 5q-2 7 -8.5 20.5l-12.5 26.5q-2 -4 -2.5 -7.5t-2.5 -7.5q-2 -8 -4.5 -15.5t-7.5 -12.5l-2 -3l-4 1q-6 1 -18.5 1.5t-23.5 0.5h-16l-5 -1
l-2 5q-3 6 -5.5 12.5t-4.5 12.5q-2 -7 -5.5 -14t-9.5 -12l-3 -2l-3 1q-5 2 -29.5 3.5l-56.5 3.5t-65.5 3t-57.5 1t-56.5 -1.5t-64.5 -4t-59 -6.5t-39 -8l-5 -1l-3 3q-5 7 -9.5 14.5t-9.5 14.5q-2 -6 -3 -11.5t-3 -12.5l-1 -5h-5q-10 -1 -24.5 -3t-31.5 -4q2 -8 3.5 -23
t1.5 -17q0 -32 -43 -50q-21 -10 -45 -10q-25 0 -47 8t-39 18q-2 1 -2.5 1.5t-2.5 1.5l-2 2q-5 6 -6 14.5t-2 18.5q0 18 4 41t9.5 47.5l11.5 49.5l11 47q1 3 1 9q2 12 2 23.5v23.5q1 25 -1.5 49.5t-7.5 48.5q-8 30 -17.5 57t-18.5 49l-1 2l1 3q12 32 33 45t43 13
q20 0 37 -7.5t27 -15.5l1 -1h1v-1q6 -7 8.5 -15.5t3.5 -17.5v-5q0 -6 -2 -14q27 0 62 3q59 5 113 9t96 4q28 -1 48.5 -3t32.5 -10h1l1 -2q6 -8 11 -18.5l9 -18.5q2 8 2 11t0.5 5.5t0.5 4.5v4v8l8 -1q7 -1 22.5 -2l32.5 -2l33 -2t25 -1h4l2 -3q4 -8 7 -12.5t5 -8.5q2 4 4.5 8
t4.5 8l4 8l2 4h4q10 0 50 0.5t91 1.5t103 3t86 5q14 2 30.5 2.5t33.5 2.5q-2 8 -2 10v1v1q0 9 6 15.5t15 11.5q8 5 19 8.5l24 7.5q25 6 52 9t47 3h13.5t10.5 -2q11 -2 17.5 -9.5t5.5 -15.5q0 -11 -7 -25zM1249 583q-2 -2 -4 -3q5 -1 10 -1.5t11 -0.5q13 0 28 2.5t28 6
t23.5 7.5t14.5 7l9 6l2 -11q1 -6 1 -11.5v-11.5v-3q2 1 3.5 1t3.5 1q27 5 37 11q3 7 3 13q-1 5 -3 7.5t-10 4.5t-21 2q-15 0 -33.5 -2t-37.5 -5.5t-36.5 -8.5t-28.5 -11zM1239 568q-1 -3 -1 -11q32 2 63.5 4.5t57.5 6.5v5q0 7 -1 11q-16 -8 -42 -13.5t-50 -5.5q-15 0 -27 3z
M283 562q0 11 -4 19q-14 -7 -28 -9.5t-27 -2.5h-12t-11 1q2 -5 4 -9t4 -9q14 -2 30.5 -3.5t36.5 -1.5h5q2 5 2 8v7zM219 611q-13 0 -25 -4.5t-23 -17.5l18 -3q8 -2 16.5 -3t18.5 -1q12 0 24.5 2.5t23.5 8.5q-8 7 -22 12.5t-31 5.5zM171 589q-6 -8 -13 -21q6 -4 14.5 -7.5
t20.5 -6.5q-4 12 -11 21zM289 75q25 11 32 26q-9 3 -26 3q-20 0 -43 -4t-33 -8l-8 -3l-1 8q-3 13 -3 27q-5 -2 -6 -3q-12 -7 -19.5 -13.5t-13.5 -14.5q0 -2 2 -2q16 -10 37 -17t43 -7t39 8zM323 119q0 16 -4 31l-14 -2t-15 -3q-20 -4 -38 -8t-32 -8q0 -6 0.5 -11.5
t1.5 -10.5q14 5 34 8t39 3q16 0 28 -3v4zM1217 95q10 4 21.5 5t22.5 1q12 0 22.5 -1t18.5 -2v6q0 8 -0.5 17.5t-1.5 19.5q-21 5 -43 7.5t-42 4.5q-1 -8 -1.5 -15t-0.5 -15q0 -19 4 -28zM1387 111q-1 1 -1.5 2t-2.5 2q-11 7 -28.5 12.5t-40.5 10.5q1 -9 1.5 -17.5t0.5 -16.5
q0 -4 -0.5 -7.5t-0.5 -7.5v-8l-8 2q-6 2 -19 3t-27 1q-11 0 -21 -1t-18 -3q14 -29 62 -29q5 0 11 0.5t12 1.5q17 2 32.5 6t26.5 11q23 11 23 27q0 7 -2 11zM1373 135q-21 39 -27.5 73t-6.5 63q0 10 0.5 23t0.5 26.5t0.5 25t0.5 18.5q0 32 7 60.5t17.5 53.5t21.5 46.5
l20 40.5q-5 -2 -11.5 -3.5t-13.5 -3.5l-31 -4.5t-36 -4.5l-78.5 -6t-75.5 -6q-33 -3 -83 -5t-99 -3t-89.5 -1.5t-55.5 -0.5q-3 -5 -8 -15t-8 -15l-6 -11l-6 10l-6.5 11t-10.5 17q-10 0 -24 0.5t-28.5 1.5l-28.5 2t-23 2q0 -7 -1.5 -18t-6.5 -22l-7 -14l-6 14l-8 18
l-8.5 16.5t-9.5 16.5q-8 5 -27 7t-45 2q-41 0 -94.5 -4t-113.5 -9q-47 -3 -82 -3q-41 0 -67 4t-43 11q18 -44 27 -93t9 -98q0 -12 -0.5 -24t-1.5 -24q-2 -23 -8 -49.5l-12.5 -53.5t-11 -51t-4.5 -41v-5q6 6 13 12t17 11q13 7 38.5 13.5t54.5 11.5q28 5 53.5 9t42.5 6
q2 10 4.5 16t4.5 17l5 17l9 -14q7 -11 11.5 -20t10.5 -17q16 4 43 8t58.5 6.5t62.5 4t55 1.5t57.5 -1t65.5 -3l52 -3.5t34 -3.5q4 5 6.5 14.5t7.5 18.5l6 11l6 -11q5 -8 8.5 -17t7.5 -18h12q11 0 21.5 -0.5t18.5 -1.5q4 8 7 20q2 8 4.5 16t5.5 15l6 14l6 -13l15 -29.5
t13 -29.5q8 -1 14.5 -2l12.5 -2q2 4 4 9.5l4 11.5l3 12l8 -10q5 -5 8 -9.5t6 -11.5q6 1 16 1h23q23 0 51 -0.5t56 -2.5q41 -2 85 -10.5t75 -20.5zM304 430q2 -3 3 -6t3 -8q1 -7 0 -19q-2 -10 -7 -17q-2 -4 -4.5 -6.5l-5.5 -5.5q-7 -4 -14 -7q-10 -2 -14 -2q-1 -4 -1 -11
q-1 -3 -1 -6t-3 -1q-1 0 -2 0.5t-3 0.5q-4 2 -5 4q-2 1 -2 3v8q1 3 1 13q0 4 0.5 8t0.5 9q1 5 1 9t1 9v9t1 8q0 4 0.5 7.5t0.5 6.5q0 1 3 3q4 2 7 3t10 1q3 1 5.5 0.5t5.5 -1.5q3 0 5.5 -1t5.5 -3q5 -3 8 -8zM293 404q0 6 -1 9q0 4 -3 7q-4 4 -7 4q-3 1 -9 0q0 -2 -0.5 -5
t-0.5 -5q-1 -3 -1 -6t-1 -6q0 -4 -0.5 -7t-0.5 -6q-1 -4 -1 -7t-1 -6q5 0 10 3q3 1 4.5 2.5l3.5 3.5q4 6 5 9q2 2 2 5t1 5zM369 443q2 0 2 -3v-6q-1 -2 -1 -3t-1 -3q-1 -1 -1 -2t-1 -1q-2 0 -4 -1q-1 0 -2.5 -0.5t-3.5 -0.5q-2 -1 -3.5 -1t-3.5 -1q-2 0 -4.5 -0.5t-4.5 -0.5
q0 -2 -0.5 -5t-0.5 -5q0 -3 -0.5 -6t-0.5 -6q10 2 14 3q3 0 5 0.5t4 0.5q1 0 1 -2q1 -3 0 -6q0 -4 -1 -6q-1 -1 -1 -2t-1 -1q-2 -1 -4 -1t-5 -1q-4 -1 -7 -1t-8 -1q0 -3 -0.5 -6t-0.5 -6q-1 -4 -1 -10q2 1 4.5 1t5.5 1q2 0 4 0.5t4 0.5q3 1 7 1q2 1 5 1q1 0 2 -2q0 -3 -1 -6
q0 -4 -1 -5l-2 -3q-1 -1 -2 -1t-3 -1q-3 0 -9 -2q-3 0 -5.5 -0.5t-5.5 -1.5q-3 0 -5.5 -0.5t-5.5 -1.5q-1 0 -3 2q-1 1 -1.5 2t-1.5 2q-1 2 -1 2.5t-1 2.5t-1 5q0 2 0.5 5t0.5 6q0 8 1 13q0 9 1 14q0 10 1 15q0 9 1 14q0 8 1 11v1q8 2 14 2q4 1 7 1.5t7 1.5q3 0 6 0.5t5 0.5
zM433 429q2 -3 3 -6t3 -7q1 -8 0 -18q-2 -8 -4 -11q-2 -6 -6 -9q-2 -3 -7 -8q-6 -4 -9 -5q5 -3 8 -5.5t7 -4.5q3 -2 5 -3.5t4 -3.5q2 0 0 -2t-4 -3q-1 -1 -5 -3q-3 -3 -3 0q-1 0 -5 2q-2 1 -3.5 2t-3.5 2q-2 2 -4.5 2.5t-4.5 2.5t-5 3t-5 3q-1 -4 -1 -10q-1 -3 -1 -6t-3 -1
q-1 0 -2 0.5t-3 0.5q-4 2 -5 4q-2 1 -2 3v8q1 3 1 13q1 4 1 8v9q1 5 1 9t1 9v9t1 8q0 4 0.5 7.5t0.5 6.5q0 1 3 3q4 2 7 3q2 0 4.5 0.5t5.5 0.5q7 0 11 -1q6 -2 11 -4q5 -3 8 -8zM423 404q0 8 -2 11q-2 5 -7 7q-4 3 -12 1q0 -2 -0.5 -5t-0.5 -5q-1 -3 -1 -6t-1 -6
q0 -3 -0.5 -6.5t-0.5 -6.5q-1 -3 -1 -6.5t-1 -6.5q9 1 15 6q5 5 8 11q4 8 4 12zM504 357q-3 -7 -8 -12q-7 -5 -13 -5q-6 -2 -14 0q-3 2 -6 3.5t-6 4.5q-6 4 -9 14q-3 8 -1 21q0 2 3 2q2 -1 3 -1t3 -1l6 -3q3 -2 3 -3q-1 -6 0 -10q2 -6 3 -8l5 -5q2 -1 6 -1q3 0 5 1q3 3 3 5
q1 5 -1 9l-3.5 3.5t-4.5 3.5q-6 4 -10 7q-4 2 -10 8q-4 4 -6 11t1 15q1 4 5 10q2 5 7 8q3 3 9 5q3 2 9 2q7 0 12 -3q6 -6 7 -9q3 -6 3 -14v-7.5t-2 -8.5q0 -2 -1 -2q-2 0 -4 1q-1 0 -1.5 0.5t-2.5 0.5q-1 1 -2 1.5t-2 1.5q-2 2 -2 3q-1 1 -1 2q1 3 1 8q0 3 -2 5q0 2 -3 2
t-5 -1q-3 -3 -4 -5l-2 -4t-1 -5q-1 -4 1 -8q4 -4 7 -6q2 -2 5 -3t5 -3t4.5 -3.5t4.5 -3.5q5 -5 6 -10q1 -6 0 -13zM562 353q-4 -7 -11 -11q-6 -4 -13 -3q-6 0 -13 5q-5 5 -8 12q-2 6 -4 16v19q2 12 4 19q3 10 7 16q5 6 11 11q8 4 14 4q10 -2 13 -5q6 -5 9 -12q2 -4 2.5 -8
t1.5 -9v-9.5t-1 -9.5t-1.5 -9.5t-2.5 -9.5t-4 -8.5t-4 -7.5zM548 361q2 2 3.5 4.5t2.5 5.5q2 5 4 15q1 5 1 15q-2 9 -4 12q-1 4 -7 6q-5 0 -9 -3q-2 -3 -6 -11q-2 -5 -4 -15v-15q1 -8 3 -12q3 -5 7 -6q5 0 9 4zM616 345q-2 2 -2 6q-1 2 -1.5 4.5t-2.5 4.5q-2 8 -3 13
q-2 3 -2.5 6.5t-2.5 6.5q0 -5 -2 -15q0 -4 -0.5 -7.5t-0.5 -6.5q-1 -3 -1 -6t-1 -5v-7q-1 -1 -3 -1q-1 0 -5 2t-5 3q-3 2 -2 3v9q0 4 0.5 7.5t0.5 8.5q1 5 1 9.5v9.5q1 5 1 10t1 10q0 5 0.5 9t0.5 8t0.5 7t0.5 5t3 2q2 -1 3.5 -1t3.5 -1t3.5 -2t3.5 -2q3 -2 3 -4l2 -6
q1 -2 1 -4.5t1 -4.5q2 -8 3 -11q2 -8 3 -13q0 4 0.5 7.5t0.5 7.5q0 3 0.5 6.5t0.5 6.5t0.5 5.5t0.5 5.5q0 5 1 7q0 2 1 2h4q1 0 5 -2q1 0 5 -2q1 -1 2 -1.5t2 -1.5q0 -1 0.5 -1t0.5 -1q-1 -2 -1 -4t-1 -5q0 -4 -0.5 -8t-1.5 -9t-1 -9.5t-1 -9.5t-1.5 -10t-1.5 -10
q0 -7 -2 -17q0 -4 -0.5 -6t-0.5 -4q0 -1 -2 -1q-3 0 -4 1q-4 2 -5 3q-3 1 -3 3zM691 339q-2 0 -2 2l-2 6q0 2 -0.5 4t-0.5 4q-2 0 -10 -2q-5 0 -13 -2q-1 -3 -3 -7q0 -2 -0.5 -3t-0.5 -2q0 -4 -3 -1q-2 0 -6 2q-1 1 -2 1.5t-2 1.5q-2 1 -2 3q0 1 2 9q1 4 2 7.5t2 8.5t2 9.5
t2 9.5q2 5 2.5 9.5t2.5 9.5q1 5 2 9l2 8q1 7 3 12q0 1 2 2h4q2 0 3 -0.5t3 -0.5t3 -0.5t3 -0.5t3 -0.5t2 -0.5l2 -2q0 -2 0.5 -4l1.5 -6q0 -3 0.5 -7t1.5 -9t1.5 -10t1.5 -10t1.5 -10t1.5 -10t1.5 -9t0.5 -8q2 -10 2 -12t-2 -2q-3 -2 -6 0q-4 0 -6 1zM676 371q5 0 7 1
q-1 4 -3 14q-1 4 -1 7t-1 6q-2 -4 -2.5 -7.5t-2.5 -7.5t-2.5 -7.5t-2.5 -6.5q6 0 8 1zM715 341q0 2 -0.5 3t-0.5 2q-1 2 -1 5v1v12q1 5 1 16q1 4 1 8t1 9v9t1 8q0 5 0.5 8t0.5 7q0 3 0.5 5t0.5 4q0 3 3 2q3 0 7 -2t7 -4t3 -3t-0.5 -2.5t-0.5 -4.5q-1 -2 -1 -4.5t-1 -6.5
q0 -3 -0.5 -6.5t-0.5 -7.5q-2 -10 -2 -15q-2 -10 -2 -16q-1 -4 -1 -7t-1 -6q5 1 9 1.5t7 1.5q4 1 6 1t4 1q2 0 2 -2v-6q0 -2 -2 -6q0 -1 -2 -3q-4 0 -11 -3l-10 -2t-10 -3l-4 2q-1 2 -3 4zM857 372q-1 -4 -1.5 -6.5t-0.5 -4.5q-2 -8 -6 -14q-3 -4 -9 -8q-6 -3 -11 -3
q-6 2 -10 4q-5 3 -8 9t-3 14t1 12q0 9 1 14q0 10 1 15q0 3 0.5 6.5t0.5 6.5q1 5 1 12q1 3 1 8l2 2h4q2 -1 2.5 -1t2.5 -1t2.5 -1t2.5 -1l3 -3l2 -2q-1 -2 -1 -4t-1 -6t-1 -8t-1 -9t-1.5 -9.5t-1.5 -9.5q0 -5 -0.5 -10t-1.5 -10q0 -7 1 -9q1 -4 3 -4t4 3l3 9q0 3 2 11
q0 4 0.5 7t1.5 7q0 4 0.5 7t1.5 7t1 7.5t1 6.5q0 4 0.5 7t0.5 5q1 3 1 5t1 4q0 2 3 2t7 -2q2 -1 3.5 -2t3.5 -2l2 -2q0 -1 1 -1q0 -2 -0.5 -3.5t-0.5 -3.5q-1 -3 -1 -5.5t-1 -5.5q-1 -4 -1.5 -7t-1.5 -7t-3 -14q-1 -3 -1 -6t-1 -6zM929 354q-1 -7 -8 -12q-5 -5 -12 -6
q-4 -1 -14 1q-7 2 -12 8q-6 4 -9 14q-3 8 -1 21q0 1 3 1q4 0 6 -1l6 -3q3 -2 3 -3q-1 -6 0 -10q0 -2 1 -4l2 -4q2 -3 5 -5q2 -1 6 -1q3 0 5 1q3 3 3 5q2 5 -1 9q-2 2 -4 3.5t-4 3.5q-6 4 -10 6q-3 2 -5.5 4t-4.5 5q-5 5 -6 11q-2 7 1 15q1 4 5 10t7 8q2 2 4 3t5 2q6 2 9 2
q8 0 12 -4q6 -4 7 -9q3 -5 3 -13v-8t-2 -9q0 -1 -1 -1h-4q-1 1 -2 1t-2 1t-2 1.5t-2 1.5l-3 3v2q1 3 1 8q0 1 -2 5q-2 2 -3 2q-3 0 -5 -1q-3 -3 -4 -5q-3 -5 -3 -9q-2 -5 1 -8q4 -4 7 -6q6 -4 10 -6q3 -2 9 -8q4 -3 6 -9t-1 -13zM992 430q0 -4 -2 -6l-2 -4h-4l-6 -2
q-2 0 -3.5 -0.5t-3.5 -0.5q-2 -1 -4 -1t-4 -1q-1 -2 -1 -4.5t-1 -5.5q0 -3 -0.5 -5.5t-0.5 -5.5q4 1 7.5 1t6.5 1q4 1 9 1q1 1 2 -2v-6q-1 -2 -1 -3t-1 -3l-2 -3q-1 0 -9 -2q-3 0 -6.5 -0.5t-8.5 -1.5q0 -8 -1 -12q0 -2 -0.5 -5t-0.5 -5q2 1 5 1t5 1q2 0 4.5 0.5t4.5 0.5
q2 1 3.5 1t3.5 1h4q2 2 2 -2v-5q-1 -2 -1 -3t-1 -3l-2 -3q-1 0 -2 -0.5t-3 -0.5q-6 -2 -9 -2q-3 -1 -5.5 -1.5t-5.5 -0.5q-3 -1 -5.5 -1.5t-5.5 -1.5q-1 1 -1.5 1t-1.5 2q-2 2 -3 4q-1 1 -1 2t-1 2q0 2 -0.5 3t-0.5 3q1 3 1 10v6.5t1 6.5q0 4 0.5 7.5t0.5 7.5t0.5 7.5
t0.5 6.5q0 4 0.5 7.5t0.5 6.5t0.5 6t0.5 5v2q4 0 14 2q4 1 7.5 1t6.5 1t6 1t6 1q2 0 3.5 0.5t2.5 0.5q2 0 2 -2v-6zM1100 420q4 -10 4 -17q2 -10 0 -19q-1 -8 -5 -19q-3 -10 -7 -16q-2 -4 -5 -6.5t-6 -4.5q-6 -5 -14 -3q-7 0 -12 5q-5 3 -8 12q-2 4 -3 7.5t-1 8.5
q-1 10 0 19q0 10 3 19q2 5 4 8.5t4 7.5q2 3 4.5 6t6.5 5q8 4 13 4q9 -2 14 -5q5 -5 8 -12zM1087 382q2 10 1 15q0 7 -3 12t-8 6q-5 0 -8 -3t-7 -11q-2 -6 -3 -15q-1 -5 -1 -15q2 -9 4 -12q1 -4 7 -6q5 0 8 4q4 4 7 10q1 4 2 7.5t1 7.5zM1166 432q2 -1 4 -3q1 -1 1 -2
q0 -2 -0.5 -4t-0.5 -5q-1 -4 -1.5 -8t-0.5 -9q-1 -5 -1.5 -9.5t-1.5 -9.5t-1 -10t-1 -10t-1.5 -9t-0.5 -8q-1 -5 -1 -10q-1 -1 -2 -1q-3 0 -5 1t-2.5 1.5t-2.5 1.5l-3 3l-2 6q-1 2 -1.5 4.5t-1.5 4.5l-2 6t-2 7q-1 3 -2 6.5t-2 6.5q-2 -10 -2 -15q-1 -4 -1 -7.5t-1 -6.5
q0 -3 -0.5 -6t-0.5 -5q-1 -3 -1 -7q0 -1 -3 -1q-1 0 -5 2q-2 1 -2.5 1.5t-2.5 1.5q-2 2 -2 3q0 5 1 9v7.5t1 8.5v9.5t1 9.5q0 5 0.5 10t0.5 10q1 5 1 9v8q1 4 1 7t1 5q0 2 3 2q2 -1 3.5 -1t3.5 -1t3 -2t3 -2q3 -2 3 -4q2 -2 2 -6l3 -9q0 -5 2 -11l2 -6t2 -7q0 10 1 15v6.5
t1 6.5v11q1 3 1 7q0 2 2 2h4q2 0 4 -2q3 0 5 -2zM1220 356q2 0 2 -2q2 -2 0 -5q0 -2 -0.5 -3t-0.5 -3q-1 -1 -1 -2t-1 -1q-3 -2 -12 -3q-4 -2 -9 -2.5t-11 -2.5q-1 0 -3 2t-3 4q-2 2 -2 5q-1 2 -1 5q0 2 0.5 5t0.5 7v8t1 8q0 5 0.5 9t0.5 9t0.5 8.5t0.5 8.5q1 4 1 7.5v6.5
q1 3 1 5.5v4.5t4 2q1 0 7 -2q2 -1 3 -2t3 -2q3 -3 3 -4q0 -3 -1 -6q0 -2 -0.5 -5t-0.5 -6q-1 -3 -1 -6.5t-1 -7.5t-1 -7.5t-1 -8.5q0 -5 -2 -15q0 -4 -0.5 -7.5t-0.5 -6.5q5 1 8.5 1.5t7.5 1.5q8 2 9 2zM1285 430q2 -2 2 -3q-1 -2 -1 -4t-1 -5t-1 -6t-1 -7q-2 -8 -3 -13
q-2 -8 -2 -12q-4 -11 -7 -14q-3 -4 -11 -8q0 -5 -2 -15q0 -7 -1 -9q0 -1 -2 -1q-3 0 -5 2l-6 3q-2 2 -2 3t0.5 3t0.5 4v11q-4 1 -9 8q-4 8 -4 15q0 4 0.5 7.5t0.5 7.5t0.5 7t1.5 7q0 3 0.5 6.5t0.5 6.5q1 3 1 5.5t1 4.5q0 1 2 2q2 0 3 -1q2 0 3 -0.5t2 -0.5q4 -2 5 -3
q2 0 4 -2q1 -1 1 -2q-2 -5 -3 -15q-1 -5 -2 -11.5t-2 -15.5q-1 -5 1 -9q1 -3 4 -3q2 0 4 3q2 2 4 8q1 7 1.5 13.5t2.5 12.5q2 16 4 24q0 2 3 2l6 -2q4 -2 6 -4zM546 312q2 0 2 -2l-2 -6q0 -1 -2 -9q-1 -2 -1.5 -5t-1.5 -5l-3 -12l-3 -9q-1 -2 -1 -4t-1 -4h-1q0 -1 -2 -1
q-1 0 -1.5 0.5t-1.5 0.5h-3q-1 1 -2 1l-1 1q0 1 -0.5 1.5t-0.5 2.5q0 1 -0.5 2.5t-0.5 3.5q0 -2 -0.5 -3.5t-0.5 -2.5q-1 -2 -1 -6h-2q0 -1 -2 -1q-1 0 -1.5 0.5t-1.5 0.5h-3q-1 1 -2 1l-1 1q0 1 -0.5 2.5t-0.5 3.5q-1 2 -1 4.5t-1 5.5q-1 2 -1 5t-1 6q-1 4 -1 7t-1 5
q-1 3 -1 6t-1 5q0 5 -1 6q0 1 1 2h2h3q1 -1 3 -1q1 -1 1.5 -1t1.5 -1l1 -2v-7q1 -3 1 -11q1 -3 1 -6t1 -6q0 -8 1 -11q0 2 0.5 4.5t0.5 4.5t0.5 4t0.5 4t0.5 4t0.5 4t0.5 3t0.5 3q0 1 2 1t3 -1l4 -2q1 -1 1 -2q1 -2 1 -7v-8v-8q1 -2 1 -5q0 2 0.5 3.5t0.5 3.5q2 6 2 9
q2 6 2 9q2 6 2 9q1 2 1 4t1 4q0 3 1 4q0 1 2 1q1 0 1.5 -0.5t2.5 -0.5zM605 312q1 0 1 -2q0 -1 -0.5 -2.5t-0.5 -3.5q-2 -3 -3 -9q-1 -2 -1.5 -5t-1.5 -5l-3 -12l-3 -9q-1 -2 -1 -4t-1 -4h-1q0 -1 -2 -1q-1 0 -1.5 0.5t-1.5 0.5h-3q-1 1 -2 1l-1 1q0 1 -0.5 1.5t-0.5 2.5
q0 3 -1 6q0 -2 -0.5 -3.5t-0.5 -2.5q-1 -2 -1 -6h-1q-1 -1 -3 -1q-1 0 -1 0.5t-2 0.5h-2q-1 1 -3 1q0 1 -1 1q0 3 -1 6q0 2 -2 10q0 3 -2 11q0 6 -2 12q0 3 -0.5 6t-0.5 5q-1 3 -1 6v2h3h3q1 -1 2 -1q1 -1 1.5 -1t1.5 -1l1 -2v-7q1 -2 1 -5t1 -6q0 -8 1 -12q0 -3 0.5 -6
t0.5 -5q0 2 0.5 4.5t0.5 4.5q1 2 1 8q1 3 1 8q0 2 0.5 3t0.5 3q0 1 2 1t3 -1l4 -2l2 -2v-7v-8q0 -2 0.5 -4t0.5 -4v-5q1 2 1 3.5t1 3.5q0 2 0.5 4.5t0.5 4.5q2 6 2 9q2 6 2 9q1 2 1 4t1 4q0 2 0.5 2.5t0.5 1.5t2 1q1 0 1.5 -0.5t2.5 -0.5q2 -2 4 -3zM663 312q1 0 1 -2
q0 -1 -0.5 -2.5t-0.5 -3.5q-2 -3 -3 -9q-1 -2 -1.5 -5t-1.5 -5l-3 -12l-3 -9q0 -2 -0.5 -4t-0.5 -4h-1q-1 -1 -3 -1q-1 0 -1.5 0.5t-1.5 0.5h-3q-1 1 -2 1l-1 1q0 2 -1 4q0 3 -1 6q0 -5 -1 -6q0 -2 -0.5 -3t-0.5 -3h-1q-1 -1 -2 -1t-1.5 0.5t-1.5 0.5h-3q-1 1 -3 1q0 1 -1 1
q0 3 -1 6q0 2 -2 10q0 3 -2 11q0 6 -2 12q0 3 -0.5 6t-0.5 5q-1 3 -1 6q0 2 1 2h2h3q1 -1 3 -1l2 -2q1 0 1 -2q0 -4 1 -7q0 -7 1 -11q0 -3 0.5 -6t0.5 -6t0.5 -6t0.5 -5q1 3 1 9q1 2 1 8q1 3 1 8q1 2 1 6q1 1 2 1q2 0 4 -1q1 -1 1.5 -1t1.5 -1l2 -2v-7q0 -5 1 -8v-8v-5
q1 2 1 3.5t1 3.5q0 3 2 9q0 3 2 9q0 2 0.5 4.5t0.5 4.5q2 6 2 8t0.5 2.5t0.5 1.5t2 1q1 0 2 -0.5t2 -0.5q1 -1 2 -1.5t2 -1.5zM681 264q-1 -2 -1 -5v-3l-2 -1q-1 1 -3 1q-2 2 -3 2q0 1 -1 2v1v3q0 1 0.5 1t0.5 1v3h1q1 0 1.5 -0.5t1.5 -0.5q2 -2 3 -2zM717 312q3 -3 6 -9
q2 -7 1 -14q0 -5 -2 -13q-2 -7 -4 -9q-4 -5 -5 -6q-2 -2 -3.5 -2.5t-3.5 -1.5t-6 -1q-2 -1 -6 -1v1q-2 0 -2 1l-2 2q0 1 -0.5 1.5t-0.5 1.5t-0.5 1.5t-0.5 1.5q0 2 0.5 3.5t0.5 3.5v10q1 3 1 10t1 10v7v3q0 1 3 3q2 0 3 0.5t3 0.5q2 1 4.5 0.5t4.5 -0.5q4 -1 8 -4zM715 294
q0 3 -2 5q0 2 -2 4q-1 1 -2 1t-2 1h-2h-2q-1 -3 -1 -9q-1 -2 -1 -4.5t-1 -5.5q0 -2 -0.5 -5t-0.5 -5t-0.5 -4.5t-0.5 -4.5v-2q2 1 4 1t4 1t2.5 2t2.5 2l3 6q0 2 0.5 4t0.5 4v9zM761 309q2 -4 2 -8v-9q0 -1 -2 -1t-3 1q-2 0 -4 2q-1 0 -1 2q0 3 -1 5q0 2 -3 2q-2 1 -5 -2
q-2 -2 -3 -6q-2 -6 -2 -9q-1 -3 -1 -9q1 -2 1 -3.5t1 -3.5q1 -3 5 -3h2q1 0 1 0.5t1 0.5q1 1 1 3q1 1 1 1.5t1 1.5l1 1q2 1 4 1q2 1 2.5 0.5t1.5 -0.5q2 0 2 -2q-1 -2 -1.5 -4t-1.5 -4q-2 -2 -2.5 -3t-2.5 -3q-2 -1 -2.5 -2t-2.5 -1q-4 -2 -6 -2q-6 2 -8 4q-1 0 -5 7
q-2 6 -2 10v11q0 3 2 11q1 2 2 4.5t2 4.5q3 4 7 7q4 2 8 2q3 0 7 -2q2 -1 4 -5zM802 306q2 -2 2 -4.5t1 -5.5v-11q-2 -8 -3 -11t-2 -5.5t-2 -4.5q-3 -5 -7 -6q-3 -3 -8 -3q-5 1 -7 4q-3 2 -5 7l-3 9v12q1 2 1 5t1 6t5 9q2 3 6 7q4 2 8 2q5 0 8 -3q4 -4 5 -7zM795 284
q0 2 0.5 4.5t-0.5 4.5q0 3 -2 7q-2 3 -4 3q-3 2 -5 -2q-1 -1 -4 -6q-2 -6 -2 -9q0 -2 -0.5 -4.5t0.5 -4.5q0 -3 2 -7q1 -3 4 -3q3 -2 5 2q3 3 4 6q1 2 1 4.5t1 4.5zM846 311l2 -2v-2q-1 -1 -1 -1.5t-1 -1.5t-3 -5q-2 -2 -4 -6q-2 -2 -2.5 -3.5t-2.5 -3.5q1 -2 2 -5t2 -5
t1.5 -4t1.5 -4q1 -3 3 -7l2 -4q0 -1 -1 -1q-1 -1 -4 -1q-1 0 -1.5 0.5t-1.5 0.5h-2v1q-2 2 -3 7q-2 3 -6 11q-2 -4 -4 -6l-3 -6q-1 -2 -3 -4q-1 -2 -2 -3q0 -1 -0.5 -1t-0.5 1q-1 0 -3 2q0 1 -0.5 1.5t-0.5 1.5q-1 1 -1 2l2 4q1 1 3 5t4 7q1 2 2 3.5t2 3.5q-1 2 -2 4.5
t-2 4.5q-2 6 -3 8t-1.5 3.5t-1.5 2.5q-2 4 -2 5v2h2q1 1 3 1q3 0 4 -1h2q1 0 1 -0.5t1 -0.5l2 -6t4 -10q2 4 6 10q2 2 2.5 4t1.5 3q0 1 1 1t2 -1q2 -2 3 -2q0 -1 0.5 -1.5t0.5 -1.5zM884 313q2 0 2 -2q-1 -1 -1 -5q-1 -2 -1 -3.5t-1 -3.5q0 -2 -0.5 -4t-0.5 -4q-1 -2 -1 -4
t-1 -4q0 -2 -1 -4l-2 -4q-4 -4 -7 -5q0 -2 -0.5 -4t-0.5 -4v-6l-2 -1q-1 1 -3 1q-2 2 -3 2q-1 1 -1 2v4v7q-4 2 -5 4q-3 4 -3 9q0 6 1 9v8q1 2 1 4t1 4v6q0 1 1 1h3q2 0 3 -1q1 0 1.5 -0.5t1.5 -0.5l2 -2v-1q0 -2 -0.5 -4t-0.5 -5q-2 -7 -3 -16q0 -4 1 -5q0 -2 2 -2q1 0 3 2
q1 1 1 2t1 3q1 4 1 7.5t1 7.5q2 10 2 14q0 1 2 1t4 -1q1 0 3 -2zM902 264q0 -2 -0.5 -2.5t-0.5 -2.5v-3l-1 -1q-1 1 -3 1q-1 0 -2 1q-1 0 -1 1l-2 2v1q0 1 0.5 1.5t0.5 1.5v2v3h1q1 0 1.5 -0.5t1.5 -0.5q2 -2 3 -2zM942 309q2 -4 2 -8v-9q0 -1 -2 -1t-3 1q-2 0 -4 2
q-1 0 -1 2q0 3 -1 5q0 2 -3 2q-2 1 -5 -2t-4 -6q0 -3 -2 -9v-9q1 -2 1 -3.5t1 -3.5q1 -3 5 -3h2q1 0 1 0.5t1 0.5q0 1 0.5 1.5t0.5 1.5q1 1 1 3l2 1q1 1 4 1q2 1 2.5 0.5t1.5 -0.5q3 0 1 -2q0 -2 -2 -8q-2 -2 -2.5 -3t-2.5 -3q-2 -1 -3 -2t-2 -1q-4 -2 -6 -2q-6 2 -8 4
q-1 0 -5 7q-2 6 -2 10q-2 5 0 11q0 3 2 11q2 6 4 9q3 4 7 7q4 2 8 2q3 0 7 -2q3 -3 4 -5zM983 306q2 -6 3 -10q0 -7 -1 -11q0 -5 -2 -11q-1 -4 -5 -10q-1 -4 -6 -6q-3 -3 -8 -3q-4 1 -8 4q-2 1 -4 7q-2 2 -2 4.5t-1 4.5v12q0 3 2 11q1 3 5 9q1 4 6 7q4 2 8 2q5 0 8 -3
q4 -4 5 -7zM976 293q0 3 -2 7q-2 3 -4 3q-3 1 -6 -2q-1 -1 -1.5 -2.5t-1.5 -3.5q-2 -6 -2 -9q-2 -5 0 -9q0 -3 2 -7q1 -3 4 -3q2 -1 5 2t4 6q1 2 1 4.5t1 4.5v9zM1034 313q1 -1 1 -2v-6q-1 -2 -1 -4.5t-1 -4.5q0 -8 -1 -12q0 -3 -0.5 -6t-0.5 -6q-1 -4 -1 -10q-1 -3 -1 -6
l-1 -1q-1 0 -1.5 0.5t-1.5 0.5q-1 1 -1.5 1t-1.5 1q-1 0 -1 0.5t-1 0.5v1v3v5q0 1 0.5 2t0.5 3v7q-2 -6 -3 -8q-1 -3 -3 -7h-2h-3q-1 1 -3 1q0 1 -1 1q-1 2 -1 3t-1 3t-1 4t-1 4q-1 -2 -1 -8q-1 -3 -1 -7q0 -2 -0.5 -3.5t-0.5 -2.5v-4l-2 -1q-1 1 -3 1q-2 2 -3 2q-1 1 -1 2
v6q0 2 0.5 4t0.5 5v11q1 4 1 12q0 3 0.5 5.5t0.5 4.5v7q0 1 2 1q3 0 4 -1q2 0 4 -2q1 -1 2 -1v-1q1 -1 1 -2t1 -3q0 -5 1 -7q0 -2 0.5 -4t0.5 -4q2 -6 2 -8l3 9l3 9q2 2 2.5 4t1.5 4q1 3 3 7h2q2 0 2.5 -0.5t1.5 -0.5z" />
    <glyph glyph-name="three" unicode="3" 
d="M1425 571q-21 -39 -41.5 -85t-28.5 -112q-1 -7 -1.5 -20.5t-1 -28.5t-0.5 -30v-24q0 -30 7.5 -66t33.5 -78q2 -2 3 -5t3 -5q4 -8 4 -17q0 -13 -8.5 -22.5t-21.5 -16.5q-26 -14 -64 -19q-7 -1 -13 -1.5t-12 -0.5h-2q-29 0 -50 12t-28 38q-3 8 -3.5 16t-0.5 17v15.5t1 14.5
q-25 2 -50 2.5t-45 0.5q-32 0 -42 -2h-4l-3 4q-2 5 -3.5 7.5t-3.5 5.5q-2 -7 -4 -10.5t-2 -4.5l-2 -3h-4q-10 0 -19 1.5t-17 1.5h-5l-1 5q-2 7 -8.5 20.5l-12.5 26.5q-2 -4 -2.5 -7.5t-2.5 -7.5q-2 -8 -4.5 -15.5t-7.5 -12.5l-2 -3l-4 1q-6 1 -18.5 1.5t-23.5 0.5h-16l-5 -1
l-2 5q-3 6 -5.5 12.5t-4.5 12.5q-2 -7 -5.5 -14t-9.5 -12l-3 -2l-3 1q-5 2 -29.5 3.5l-56.5 3.5t-65.5 3t-57.5 1t-56.5 -1.5t-64.5 -4t-59 -6.5t-39 -8l-5 -1l-3 3q-5 7 -9.5 14.5t-9.5 14.5q-2 -6 -3 -11.5t-3 -12.5l-1 -5h-5q-10 -1 -24.5 -3t-31.5 -4q2 -8 3.5 -23
t1.5 -17q0 -32 -43 -50q-21 -10 -45 -10q-25 0 -47 8t-39 18q-2 1 -2.5 1.5t-2.5 1.5l-2 2q-5 6 -6 14.5t-2 18.5q0 18 4 41t9.5 47.5l11.5 49.5l11 47q1 3 1 9q2 12 2 23.5v23.5q1 25 -1.5 49.5t-7.5 48.5q-8 30 -17.5 57t-18.5 49l-1 2l1 3q12 32 33 45t43 13
q20 0 37 -7.5t27 -15.5l1 -1h1v-1q6 -7 8.5 -15.5t3.5 -17.5v-5q0 -6 -2 -14q27 0 62 3q59 5 113 9t96 4q28 -1 48.5 -3t32.5 -10h1l1 -2q6 -8 11 -18.5l9 -18.5q2 8 2 11t0.5 5.5t0.5 4.5v4v8l8 -1q7 -1 22.5 -2l32.5 -2l33 -2t25 -1h4l2 -3q4 -8 7 -12.5t5 -8.5q2 4 4.5 8
t4.5 8l4 8l2 4h4q10 0 50 0.5t91 1.5t103 3t86 5q14 2 30.5 2.5t33.5 2.5q-2 8 -2 10v1v1q0 9 6 15.5t15 11.5q8 5 19 8.5l24 7.5q25 6 52 9t47 3h13.5t10.5 -2q11 -2 17.5 -9.5t5.5 -15.5q0 -11 -7 -25zM1249 583q-2 -2 -4 -3q5 -1 10 -1.5t11 -0.5q13 0 28 2.5t28 6
t23.5 7.5t14.5 7l9 6l2 -11q1 -6 1 -11.5v-11.5v-3q2 1 3.5 1t3.5 1q27 5 37 11q3 7 3 13q-1 5 -3 7.5t-10 4.5t-21 2q-15 0 -33.5 -2t-37.5 -5.5t-36.5 -8.5t-28.5 -11zM1239 568q-1 -3 -1 -11q32 2 63.5 4.5t57.5 6.5v5q0 7 -1 11q-16 -8 -42 -13.5t-50 -5.5q-15 0 -27 3z
M283 562q0 11 -4 19q-14 -7 -28 -9.5t-27 -2.5h-12t-11 1q2 -5 4 -9t4 -9q14 -2 30.5 -3.5t36.5 -1.5h5q2 5 2 8v7zM219 611q-13 0 -25 -4.5t-23 -17.5l18 -3q8 -2 16.5 -3t18.5 -1q12 0 24.5 2.5t23.5 8.5q-8 7 -22 12.5t-31 5.5zM171 589q-6 -8 -13 -21q6 -4 14.5 -7.5
t20.5 -6.5q-4 12 -11 21zM289 75q25 11 32 26q-9 3 -26 3q-20 0 -43 -4t-33 -8l-8 -3l-1 8q-3 13 -3 27q-5 -2 -6 -3q-12 -7 -19.5 -13.5t-13.5 -14.5q0 -2 2 -2q16 -10 37 -17t43 -7t39 8zM323 119q0 16 -4 31l-14 -2t-15 -3q-20 -4 -38 -8t-32 -8q0 -6 0.5 -11.5
t1.5 -10.5q14 5 34 8t39 3q16 0 28 -3v4zM1217 95q10 4 21.5 5t22.5 1q12 0 22.5 -1t18.5 -2v6q0 8 -0.5 17.5t-1.5 19.5q-21 5 -43 7.5t-42 4.5q-1 -8 -1.5 -15t-0.5 -15q0 -19 4 -28zM1387 111q-1 1 -1.5 2t-2.5 2q-11 7 -28.5 12.5t-40.5 10.5q1 -9 1.5 -17.5t0.5 -16.5
q0 -4 -0.5 -7.5t-0.5 -7.5v-8l-8 2q-6 2 -19 3t-27 1q-11 0 -21 -1t-18 -3q14 -29 62 -29q5 0 11 0.5t12 1.5q17 2 32.5 6t26.5 11q23 11 23 27q0 7 -2 11zM1373 135q-21 39 -27.5 73t-6.5 63q0 10 0.5 23t0.5 26.5t0.5 25t0.5 18.5q0 32 7 60.5t17.5 53.5t21.5 46.5
l20 40.5q-5 -2 -11.5 -3.5t-13.5 -3.5l-31 -4.5t-36 -4.5l-78.5 -6t-75.5 -6q-33 -3 -83 -5t-99 -3t-89.5 -1.5t-55.5 -0.5q-3 -5 -8 -15t-8 -15l-6 -11l-6 10l-6.5 11t-10.5 17q-10 0 -24 0.5t-28.5 1.5l-28.5 2t-23 2q0 -7 -1.5 -18t-6.5 -22l-7 -14l-6 14l-8 18
l-8.5 16.5t-9.5 16.5q-8 5 -27 7t-45 2q-41 0 -94.5 -4t-113.5 -9q-47 -3 -82 -3q-41 0 -67 4t-43 11q18 -44 27 -93t9 -98q0 -12 -0.5 -24t-1.5 -24q-2 -23 -8 -49.5l-12.5 -53.5t-11 -51t-4.5 -41v-5q6 6 13 12t17 11q13 7 38.5 13.5t54.5 11.5q28 5 53.5 9t42.5 6
q2 10 4.5 16t4.5 17l5 17l9 -14q7 -11 11.5 -20t10.5 -17q16 4 43 8t58.5 6.5t62.5 4t55 1.5t57.5 -1t65.5 -3l52 -3.5t34 -3.5q4 5 6.5 14.5t7.5 18.5l6 11l6 -11q5 -8 8.5 -17t7.5 -18h12q11 0 21.5 -0.5t18.5 -1.5q4 8 7 20q2 8 4.5 16t5.5 15l6 14l6 -13l15 -29.5
t13 -29.5q8 -1 14.5 -2l12.5 -2q2 4 4 9.5l4 11.5l3 12l8 -10q5 -5 8 -9.5t6 -11.5q6 1 16 1h23q23 0 51 -0.5t56 -2.5q41 -2 85 -10.5t75 -20.5zM304 430q2 -3 3 -6t3 -8q1 -7 0 -19q-2 -10 -7 -17q-2 -4 -4.5 -6.5l-5.5 -5.5q-7 -4 -14 -7q-10 -2 -14 -2q-1 -4 -1 -11
q-1 -3 -1 -6t-3 -1q-1 0 -2 0.5t-3 0.5q-4 2 -5 4q-2 1 -2 3v8q1 3 1 13q0 4 0.5 8t0.5 9q1 5 1 9t1 9v9t1 8q0 4 0.5 7.5t0.5 6.5q0 1 3 3q4 2 7 3t10 1q3 1 5.5 0.5t5.5 -1.5q3 0 5.5 -1t5.5 -3q5 -3 8 -8zM293 404q0 6 -1 9q0 4 -3 7q-4 4 -7 4q-3 1 -9 0q0 -2 -0.5 -5
t-0.5 -5q-1 -3 -1 -6t-1 -6q0 -4 -0.5 -7t-0.5 -6q-1 -4 -1 -7t-1 -6q5 0 10 3q3 1 4.5 2.5l3.5 3.5q4 6 5 9q2 2 2 5t1 5zM369 443q2 0 2 -3v-6q-1 -2 -1 -3t-1 -3q-1 -1 -1 -2t-1 -1q-2 0 -4 -1q-1 0 -2.5 -0.5t-3.5 -0.5q-2 -1 -3.5 -1t-3.5 -1q-2 0 -4.5 -0.5t-4.5 -0.5
q0 -2 -0.5 -5t-0.5 -5q0 -3 -0.5 -6t-0.5 -6q10 2 14 3q3 0 5 0.5t4 0.5q1 0 1 -2q1 -3 0 -6q0 -4 -1 -6q-1 -1 -1 -2t-1 -1q-2 -1 -4 -1t-5 -1q-4 -1 -7 -1t-8 -1q0 -3 -0.5 -6t-0.5 -6q-1 -4 -1 -10q2 1 4.5 1t5.5 1q2 0 4 0.5t4 0.5q3 1 7 1q2 1 5 1q1 0 2 -2q0 -3 -1 -6
q0 -4 -1 -5l-2 -3q-1 -1 -2 -1t-3 -1q-3 0 -9 -2q-3 0 -5.5 -0.5t-5.5 -1.5q-3 0 -5.5 -0.5t-5.5 -1.5q-1 0 -3 2q-1 1 -1.5 2t-1.5 2q-1 2 -1 2.5t-1 2.5t-1 5q0 2 0.5 5t0.5 6q0 8 1 13q0 9 1 14q0 10 1 15q0 9 1 14q0 8 1 11v1q8 2 14 2q4 1 7 1.5t7 1.5q3 0 6 0.5t5 0.5
zM433 429q2 -3 3 -6t3 -7q1 -8 0 -18q-2 -8 -4 -11q-2 -6 -6 -9q-2 -3 -7 -8q-6 -4 -9 -5q5 -3 8 -5.5t7 -4.5q3 -2 5 -3.5t4 -3.5q2 0 0 -2t-4 -3q-1 -1 -5 -3q-3 -3 -3 0q-1 0 -5 2q-2 1 -3.5 2t-3.5 2q-2 2 -4.5 2.5t-4.5 2.5t-5 3t-5 3q-1 -4 -1 -10q-1 -3 -1 -6t-3 -1
q-1 0 -2 0.5t-3 0.5q-4 2 -5 4q-2 1 -2 3v8q1 3 1 13q1 4 1 8v9q1 5 1 9t1 9v9t1 8q0 4 0.5 7.5t0.5 6.5q0 1 3 3q4 2 7 3q2 0 4.5 0.5t5.5 0.5q7 0 11 -1q6 -2 11 -4q5 -3 8 -8zM423 404q0 8 -2 11q-2 5 -7 7q-4 3 -12 1q0 -2 -0.5 -5t-0.5 -5q-1 -3 -1 -6t-1 -6
q0 -3 -0.5 -6.5t-0.5 -6.5q-1 -3 -1 -6.5t-1 -6.5q9 1 15 6q5 5 8 11q4 8 4 12zM504 357q-3 -7 -8 -12q-7 -5 -13 -5q-6 -2 -14 0q-3 2 -6 3.5t-6 4.5q-6 4 -9 14q-3 8 -1 21q0 2 3 2q2 -1 3 -1t3 -1l6 -3q3 -2 3 -3q-1 -6 0 -10q2 -6 3 -8l5 -5q2 -1 6 -1q3 0 5 1q3 3 3 5
q1 5 -1 9l-3.5 3.5t-4.5 3.5q-6 4 -10 7q-4 2 -10 8q-4 4 -6 11t1 15q1 4 5 10q2 5 7 8q3 3 9 5q3 2 9 2q7 0 12 -3q6 -6 7 -9q3 -6 3 -14v-7.5t-2 -8.5q0 -2 -1 -2q-2 0 -4 1q-1 0 -1.5 0.5t-2.5 0.5q-1 1 -2 1.5t-2 1.5q-2 2 -2 3q-1 1 -1 2q1 3 1 8q0 3 -2 5q0 2 -3 2
t-5 -1q-3 -3 -4 -5l-2 -4t-1 -5q-1 -4 1 -8q4 -4 7 -6q2 -2 5 -3t5 -3t4.5 -3.5t4.5 -3.5q5 -5 6 -10q1 -6 0 -13zM562 353q-4 -7 -11 -11q-6 -4 -13 -3q-6 0 -13 5q-5 5 -8 12q-2 6 -4 16v19q2 12 4 19q3 10 7 16q5 6 11 11q8 4 14 4q10 -2 13 -5q6 -5 9 -12q2 -4 2.5 -8
t1.5 -9v-9.5t-1 -9.5t-1.5 -9.5t-2.5 -9.5t-4 -8.5t-4 -7.5zM548 361q2 2 3.5 4.5t2.5 5.5q2 5 4 15q1 5 1 15q-2 9 -4 12q-1 4 -7 6q-5 0 -9 -3q-2 -3 -6 -11q-2 -5 -4 -15v-15q1 -8 3 -12q3 -5 7 -6q5 0 9 4zM616 345q-2 2 -2 6q-1 2 -1.5 4.5t-2.5 4.5q-2 8 -3 13
q-2 3 -2.5 6.5t-2.5 6.5q0 -5 -2 -15q0 -4 -0.5 -7.5t-0.5 -6.5q-1 -3 -1 -6t-1 -5v-7q-1 -1 -3 -1q-1 0 -5 2t-5 3q-3 2 -2 3v9q0 4 0.5 7.5t0.5 8.5q1 5 1 9.5v9.5q1 5 1 10t1 10q0 5 0.5 9t0.5 8t0.5 7t0.5 5t3 2q2 -1 3.5 -1t3.5 -1t3.5 -2t3.5 -2q3 -2 3 -4l2 -6
q1 -2 1 -4.5t1 -4.5q2 -8 3 -11q2 -8 3 -13q0 4 0.5 7.5t0.5 7.5q0 3 0.5 6.5t0.5 6.5t0.5 5.5t0.5 5.5q0 5 1 7q0 2 1 2h4q1 0 5 -2q1 0 5 -2q1 -1 2 -1.5t2 -1.5q0 -1 0.5 -1t0.5 -1q-1 -2 -1 -4t-1 -5q0 -4 -0.5 -8t-1.5 -9t-1 -9.5t-1 -9.5t-1.5 -10t-1.5 -10
q0 -7 -2 -17q0 -4 -0.5 -6t-0.5 -4q0 -1 -2 -1q-3 0 -4 1q-4 2 -5 3q-3 1 -3 3zM691 339q-2 0 -2 2l-2 6q0 2 -0.5 4t-0.5 4q-2 0 -10 -2q-5 0 -13 -2q-1 -3 -3 -7q0 -2 -0.5 -3t-0.5 -2q0 -4 -3 -1q-2 0 -6 2q-1 1 -2 1.5t-2 1.5q-2 1 -2 3q0 1 2 9q1 4 2 7.5t2 8.5t2 9.5
t2 9.5q2 5 2.5 9.5t2.5 9.5q1 5 2 9l2 8q1 7 3 12q0 1 2 2h4q2 0 3 -0.5t3 -0.5t3 -0.5t3 -0.5t3 -0.5t2 -0.5l2 -2q0 -2 0.5 -4l1.5 -6q0 -3 0.5 -7t1.5 -9t1.5 -10t1.5 -10t1.5 -10t1.5 -10t1.5 -9t0.5 -8q2 -10 2 -12t-2 -2q-3 -2 -6 0q-4 0 -6 1zM676 371q5 0 7 1
q-1 4 -3 14q-1 4 -1 7t-1 6q-2 -4 -2.5 -7.5t-2.5 -7.5t-2.5 -7.5t-2.5 -6.5q6 0 8 1zM715 341q0 2 -0.5 3t-0.5 2q-1 2 -1 5v1v12q1 5 1 16q1 4 1 8t1 9v9t1 8q0 5 0.5 8t0.5 7q0 3 0.5 5t0.5 4q0 3 3 2q3 0 7 -2t7 -4t3 -3t-0.5 -2.5t-0.5 -4.5q-1 -2 -1 -4.5t-1 -6.5
q0 -3 -0.5 -6.5t-0.5 -7.5q-2 -10 -2 -15q-2 -10 -2 -16q-1 -4 -1 -7t-1 -6q5 1 9 1.5t7 1.5q4 1 6 1t4 1q2 0 2 -2v-6q0 -2 -2 -6q0 -1 -2 -3q-4 0 -11 -3l-10 -2t-10 -3l-4 2q-1 2 -3 4zM857 372q-1 -4 -1.5 -6.5t-0.5 -4.5q-2 -8 -6 -14q-3 -4 -9 -8q-6 -3 -11 -3
q-6 2 -10 4q-5 3 -8 9t-3 14t1 12q0 9 1 14q0 10 1 15q0 3 0.5 6.5t0.5 6.5q1 5 1 12q1 3 1 8l2 2h4q2 -1 2.5 -1t2.5 -1t2.5 -1t2.5 -1l3 -3l2 -2q-1 -2 -1 -4t-1 -6t-1 -8t-1 -9t-1.5 -9.5t-1.5 -9.5q0 -5 -0.5 -10t-1.5 -10q0 -7 1 -9q1 -4 3 -4t4 3l3 9q0 3 2 11
q0 4 0.5 7t1.5 7q0 4 0.5 7t1.5 7t1 7.5t1 6.5q0 4 0.5 7t0.5 5q1 3 1 5t1 4q0 2 3 2t7 -2q2 -1 3.5 -2t3.5 -2l2 -2q0 -1 1 -1q0 -2 -0.5 -3.5t-0.5 -3.5q-1 -3 -1 -5.5t-1 -5.5q-1 -4 -1.5 -7t-1.5 -7t-3 -14q-1 -3 -1 -6t-1 -6zM929 354q-1 -7 -8 -12q-5 -5 -12 -6
q-4 -1 -14 1q-7 2 -12 8q-6 4 -9 14q-3 8 -1 21q0 1 3 1q4 0 6 -1l6 -3q3 -2 3 -3q-1 -6 0 -10q0 -2 1 -4l2 -4q2 -3 5 -5q2 -1 6 -1q3 0 5 1q3 3 3 5q2 5 -1 9q-2 2 -4 3.5t-4 3.5q-6 4 -10 6q-3 2 -5.5 4t-4.5 5q-5 5 -6 11q-2 7 1 15q1 4 5 10t7 8q2 2 4 3t5 2q6 2 9 2
q8 0 12 -4q6 -4 7 -9q3 -5 3 -13v-8t-2 -9q0 -1 -1 -1h-4q-1 1 -2 1t-2 1t-2 1.5t-2 1.5l-3 3v2q1 3 1 8q0 1 -2 5q-2 2 -3 2q-3 0 -5 -1q-3 -3 -4 -5q-3 -5 -3 -9q-2 -5 1 -8q4 -4 7 -6q6 -4 10 -6q3 -2 9 -8q4 -3 6 -9t-1 -13zM992 430q0 -4 -2 -6l-2 -4h-4l-6 -2
q-2 0 -3.5 -0.5t-3.5 -0.5q-2 -1 -4 -1t-4 -1q-1 -2 -1 -4.5t-1 -5.5q0 -3 -0.5 -5.5t-0.5 -5.5q4 1 7.5 1t6.5 1q4 1 9 1q1 1 2 -2v-6q-1 -2 -1 -3t-1 -3l-2 -3q-1 0 -9 -2q-3 0 -6.5 -0.5t-8.5 -1.5q0 -8 -1 -12q0 -2 -0.5 -5t-0.5 -5q2 1 5 1t5 1q2 0 4.5 0.5t4.5 0.5
q2 1 3.5 1t3.5 1h4q2 2 2 -2v-5q-1 -2 -1 -3t-1 -3l-2 -3q-1 0 -2 -0.5t-3 -0.5q-6 -2 -9 -2q-3 -1 -5.5 -1.5t-5.5 -0.5q-3 -1 -5.5 -1.5t-5.5 -1.5q-1 1 -1.5 1t-1.5 2q-2 2 -3 4q-1 1 -1 2t-1 2q0 2 -0.5 3t-0.5 3q1 3 1 10v6.5t1 6.5q0 4 0.5 7.5t0.5 7.5t0.5 7.5
t0.5 6.5q0 4 0.5 7.5t0.5 6.5t0.5 6t0.5 5v2q4 0 14 2q4 1 7.5 1t6.5 1t6 1t6 1q2 0 3.5 0.5t2.5 0.5q2 0 2 -2v-6zM1100 420q4 -10 4 -17q2 -10 0 -19q-1 -8 -5 -19q-3 -10 -7 -16q-2 -4 -5 -6.5t-6 -4.5q-6 -5 -14 -3q-7 0 -12 5q-5 3 -8 12q-2 4 -3 7.5t-1 8.5
q-1 10 0 19q0 10 3 19q2 5 4 8.5t4 7.5q2 3 4.5 6t6.5 5q8 4 13 4q9 -2 14 -5q5 -5 8 -12zM1087 382q2 10 1 15q0 7 -3 12t-8 6q-5 0 -8 -3t-7 -11q-2 -6 -3 -15q-1 -5 -1 -15q2 -9 4 -12q1 -4 7 -6q5 0 8 4q4 4 7 10q1 4 2 7.5t1 7.5zM1166 432q2 -1 4 -3q1 -1 1 -2
q0 -2 -0.5 -4t-0.5 -5q-1 -4 -1.5 -8t-0.5 -9q-1 -5 -1.5 -9.5t-1.5 -9.5t-1 -10t-1 -10t-1.5 -9t-0.5 -8q-1 -5 -1 -10q-1 -1 -2 -1q-3 0 -5 1t-2.5 1.5t-2.5 1.5l-3 3l-2 6q-1 2 -1.5 4.5t-1.5 4.5l-2 6t-2 7q-1 3 -2 6.5t-2 6.5q-2 -10 -2 -15q-1 -4 -1 -7.5t-1 -6.5
q0 -3 -0.5 -6t-0.5 -5q-1 -3 -1 -7q0 -1 -3 -1q-1 0 -5 2q-2 1 -2.5 1.5t-2.5 1.5q-2 2 -2 3q0 5 1 9v7.5t1 8.5v9.5t1 9.5q0 5 0.5 10t0.5 10q1 5 1 9v8q1 4 1 7t1 5q0 2 3 2q2 -1 3.5 -1t3.5 -1t3 -2t3 -2q3 -2 3 -4q2 -2 2 -6l3 -9q0 -5 2 -11l2 -6t2 -7q0 10 1 15v6.5
t1 6.5v11q1 3 1 7q0 2 2 2h4q2 0 4 -2q3 0 5 -2zM1220 356q2 0 2 -2q2 -2 0 -5q0 -2 -0.5 -3t-0.5 -3q-1 -1 -1 -2t-1 -1q-3 -2 -12 -3q-4 -2 -9 -2.5t-11 -2.5q-1 0 -3 2t-3 4q-2 2 -2 5q-1 2 -1 5q0 2 0.5 5t0.5 7v8t1 8q0 5 0.5 9t0.5 9t0.5 8.5t0.5 8.5q1 4 1 7.5v6.5
q1 3 1 5.5v4.5t4 2q1 0 7 -2q2 -1 3 -2t3 -2q3 -3 3 -4q0 -3 -1 -6q0 -2 -0.5 -5t-0.5 -6q-1 -3 -1 -6.5t-1 -7.5t-1 -7.5t-1 -8.5q0 -5 -2 -15q0 -4 -0.5 -7.5t-0.5 -6.5q5 1 8.5 1.5t7.5 1.5q8 2 9 2zM1285 430q2 -2 2 -3q-1 -2 -1 -4t-1 -5t-1 -6t-1 -7q-2 -8 -3 -13
q-2 -8 -2 -12q-4 -11 -7 -14q-3 -4 -11 -8q0 -5 -2 -15q0 -7 -1 -9q0 -1 -2 -1q-3 0 -5 2l-6 3q-2 2 -2 3t0.5 3t0.5 4v11q-4 1 -9 8q-4 8 -4 15q0 4 0.5 7.5t0.5 7.5t0.5 7t1.5 7q0 3 0.5 6.5t0.5 6.5q1 3 1 5.5t1 4.5q0 1 2 2q2 0 3 -1q2 0 3 -0.5t2 -0.5q4 -2 5 -3
q2 0 4 -2q1 -1 1 -2q-2 -5 -3 -15q-1 -5 -2 -11.5t-2 -15.5q-1 -5 1 -9q1 -3 4 -3q2 0 4 3q2 2 4 8q1 7 1.5 13.5t2.5 12.5q2 16 4 24q0 2 3 2l6 -2q4 -2 6 -4zM546 312q2 0 2 -2l-2 -6q0 -1 -2 -9q-1 -2 -1.5 -5t-1.5 -5l-3 -12l-3 -9q-1 -2 -1 -4t-1 -4h-1q0 -1 -2 -1
q-1 0 -1.5 0.5t-1.5 0.5h-3q-1 1 -2 1l-1 1q0 1 -0.5 1.5t-0.5 2.5q0 1 -0.5 2.5t-0.5 3.5q0 -2 -0.5 -3.5t-0.5 -2.5q-1 -2 -1 -6h-2q0 -1 -2 -1q-1 0 -1.5 0.5t-1.5 0.5h-3q-1 1 -2 1l-1 1q0 1 -0.5 2.5t-0.5 3.5q-1 2 -1 4.5t-1 5.5q-1 2 -1 5t-1 6q-1 4 -1 7t-1 5
q-1 3 -1 6t-1 5q0 5 -1 6q0 1 1 2h2h3q1 -1 3 -1q1 -1 1.5 -1t1.5 -1l1 -2v-7q1 -3 1 -11q1 -3 1 -6t1 -6q0 -8 1 -11q0 2 0.5 4.5t0.5 4.5t0.5 4t0.5 4t0.5 4t0.5 4t0.5 3t0.5 3q0 1 2 1t3 -1l4 -2q1 -1 1 -2q1 -2 1 -7v-8v-8q1 -2 1 -5q0 2 0.5 3.5t0.5 3.5q2 6 2 9
q2 6 2 9q2 6 2 9q1 2 1 4t1 4q0 3 1 4q0 1 2 1q1 0 1.5 -0.5t2.5 -0.5zM605 312q1 0 1 -2q0 -1 -0.5 -2.5t-0.5 -3.5q-2 -3 -3 -9q-1 -2 -1.5 -5t-1.5 -5l-3 -12l-3 -9q-1 -2 -1 -4t-1 -4h-1q0 -1 -2 -1q-1 0 -1.5 0.5t-1.5 0.5h-3q-1 1 -2 1l-1 1q0 1 -0.5 1.5t-0.5 2.5
q0 3 -1 6q0 -2 -0.5 -3.5t-0.5 -2.5q-1 -2 -1 -6h-1q-1 -1 -3 -1q-1 0 -1 0.5t-2 0.5h-2q-1 1 -3 1q0 1 -1 1q0 3 -1 6q0 2 -2 10q0 3 -2 11q0 6 -2 12q0 3 -0.5 6t-0.5 5q-1 3 -1 6v2h3h3q1 -1 2 -1q1 -1 1.5 -1t1.5 -1l1 -2v-7q1 -2 1 -5t1 -6q0 -8 1 -12q0 -3 0.5 -6
t0.5 -5q0 2 0.5 4.5t0.5 4.5q1 2 1 8q1 3 1 8q0 2 0.5 3t0.5 3q0 1 2 1t3 -1l4 -2l2 -2v-7v-8q0 -2 0.5 -4t0.5 -4v-5q1 2 1 3.5t1 3.5q0 2 0.5 4.5t0.5 4.5q2 6 2 9q2 6 2 9q1 2 1 4t1 4q0 2 0.5 2.5t0.5 1.5t2 1q1 0 1.5 -0.5t2.5 -0.5q2 -2 4 -3zM663 312q1 0 1 -2
q0 -1 -0.5 -2.5t-0.5 -3.5q-2 -3 -3 -9q-1 -2 -1.5 -5t-1.5 -5l-3 -12l-3 -9q0 -2 -0.5 -4t-0.5 -4h-1q-1 -1 -3 -1q-1 0 -1.5 0.5t-1.5 0.5h-3q-1 1 -2 1l-1 1q0 2 -1 4q0 3 -1 6q0 -5 -1 -6q0 -2 -0.5 -3t-0.5 -3h-1q-1 -1 -2 -1t-1.5 0.5t-1.5 0.5h-3q-1 1 -3 1q0 1 -1 1
q0 3 -1 6q0 2 -2 10q0 3 -2 11q0 6 -2 12q0 3 -0.5 6t-0.5 5q-1 3 -1 6q0 2 1 2h2h3q1 -1 3 -1l2 -2q1 0 1 -2q0 -4 1 -7q0 -7 1 -11q0 -3 0.5 -6t0.5 -6t0.5 -6t0.5 -5q1 3 1 9q1 2 1 8q1 3 1 8q1 2 1 6q1 1 2 1q2 0 4 -1q1 -1 1.5 -1t1.5 -1l2 -2v-7q0 -5 1 -8v-8v-5
q1 2 1 3.5t1 3.5q0 3 2 9q0 3 2 9q0 2 0.5 4.5t0.5 4.5q2 6 2 8t0.5 2.5t0.5 1.5t2 1q1 0 2 -0.5t2 -0.5q1 -1 2 -1.5t2 -1.5zM681 264q-1 -2 -1 -5v-3l-2 -1q-1 1 -3 1q-2 2 -3 2q0 1 -1 2v1v3q0 1 0.5 1t0.5 1v3h1q1 0 1.5 -0.5t1.5 -0.5q2 -2 3 -2zM717 312q3 -3 6 -9
q2 -7 1 -14q0 -5 -2 -13q-2 -7 -4 -9q-4 -5 -5 -6q-2 -2 -3.5 -2.5t-3.5 -1.5t-6 -1q-2 -1 -6 -1v1q-2 0 -2 1l-2 2q0 1 -0.5 1.5t-0.5 1.5t-0.5 1.5t-0.5 1.5q0 2 0.5 3.5t0.5 3.5v10q1 3 1 10t1 10v7v3q0 1 3 3q2 0 3 0.5t3 0.5q2 1 4.5 0.5t4.5 -0.5q4 -1 8 -4zM715 294
q0 3 -2 5q0 2 -2 4q-1 1 -2 1t-2 1h-2h-2q-1 -3 -1 -9q-1 -2 -1 -4.5t-1 -5.5q0 -2 -0.5 -5t-0.5 -5t-0.5 -4.5t-0.5 -4.5v-2q2 1 4 1t4 1t2.5 2t2.5 2l3 6q0 2 0.5 4t0.5 4v9zM761 309q2 -4 2 -8v-9q0 -1 -2 -1t-3 1q-2 0 -4 2q-1 0 -1 2q0 3 -1 5q0 2 -3 2q-2 1 -5 -2
q-2 -2 -3 -6q-2 -6 -2 -9q-1 -3 -1 -9q1 -2 1 -3.5t1 -3.5q1 -3 5 -3h2q1 0 1 0.5t1 0.5q1 1 1 3q1 1 1 1.5t1 1.5l1 1q2 1 4 1q2 1 2.5 0.5t1.5 -0.5q2 0 2 -2q-1 -2 -1.5 -4t-1.5 -4q-2 -2 -2.5 -3t-2.5 -3q-2 -1 -2.5 -2t-2.5 -1q-4 -2 -6 -2q-6 2 -8 4q-1 0 -5 7
q-2 6 -2 10v11q0 3 2 11q1 2 2 4.5t2 4.5q3 4 7 7q4 2 8 2q3 0 7 -2q2 -1 4 -5zM802 306q2 -2 2 -4.5t1 -5.5v-11q-2 -8 -3 -11t-2 -5.5t-2 -4.5q-3 -5 -7 -6q-3 -3 -8 -3q-5 1 -7 4q-3 2 -5 7l-3 9v12q1 2 1 5t1 6t5 9q2 3 6 7q4 2 8 2q5 0 8 -3q4 -4 5 -7zM795 284
q0 2 0.5 4.5t-0.5 4.5q0 3 -2 7q-2 3 -4 3q-3 2 -5 -2q-1 -1 -4 -6q-2 -6 -2 -9q0 -2 -0.5 -4.5t0.5 -4.5q0 -3 2 -7q1 -3 4 -3q3 -2 5 2q3 3 4 6q1 2 1 4.5t1 4.5zM846 311l2 -2v-2q-1 -1 -1 -1.5t-1 -1.5t-3 -5q-2 -2 -4 -6q-2 -2 -2.5 -3.5t-2.5 -3.5q1 -2 2 -5t2 -5
t1.5 -4t1.5 -4q1 -3 3 -7l2 -4q0 -1 -1 -1q-1 -1 -4 -1q-1 0 -1.5 0.5t-1.5 0.5h-2v1q-2 2 -3 7q-2 3 -6 11q-2 -4 -4 -6l-3 -6q-1 -2 -3 -4q-1 -2 -2 -3q0 -1 -0.5 -1t-0.5 1q-1 0 -3 2q0 1 -0.5 1.5t-0.5 1.5q-1 1 -1 2l2 4q1 1 3 5t4 7q1 2 2 3.5t2 3.5q-1 2 -2 4.5
t-2 4.5q-2 6 -3 8t-1.5 3.5t-1.5 2.5q-2 4 -2 5v2h2q1 1 3 1q3 0 4 -1h2q1 0 1 -0.5t1 -0.5l2 -6t4 -10q2 4 6 10q2 2 2.5 4t1.5 3q0 1 1 1t2 -1q2 -2 3 -2q0 -1 0.5 -1.5t0.5 -1.5zM884 313q2 0 2 -2q-1 -1 -1 -5q-1 -2 -1 -3.5t-1 -3.5q0 -2 -0.5 -4t-0.5 -4q-1 -2 -1 -4
t-1 -4q0 -2 -1 -4l-2 -4q-4 -4 -7 -5q0 -2 -0.5 -4t-0.5 -4v-6l-2 -1q-1 1 -3 1q-2 2 -3 2q-1 1 -1 2v4v7q-4 2 -5 4q-3 4 -3 9q0 6 1 9v8q1 2 1 4t1 4v6q0 1 1 1h3q2 0 3 -1q1 0 1.5 -0.5t1.5 -0.5l2 -2v-1q0 -2 -0.5 -4t-0.5 -5q-2 -7 -3 -16q0 -4 1 -5q0 -2 2 -2q1 0 3 2
q1 1 1 2t1 3q1 4 1 7.5t1 7.5q2 10 2 14q0 1 2 1t4 -1q1 0 3 -2zM902 264q0 -2 -0.5 -2.5t-0.5 -2.5v-3l-1 -1q-1 1 -3 1q-1 0 -2 1q-1 0 -1 1l-2 2v1q0 1 0.5 1.5t0.5 1.5v2v3h1q1 0 1.5 -0.5t1.5 -0.5q2 -2 3 -2zM942 309q2 -4 2 -8v-9q0 -1 -2 -1t-3 1q-2 0 -4 2
q-1 0 -1 2q0 3 -1 5q0 2 -3 2q-2 1 -5 -2t-4 -6q0 -3 -2 -9v-9q1 -2 1 -3.5t1 -3.5q1 -3 5 -3h2q1 0 1 0.5t1 0.5q0 1 0.5 1.5t0.5 1.5q1 1 1 3l2 1q1 1 4 1q2 1 2.5 0.5t1.5 -0.5q3 0 1 -2q0 -2 -2 -8q-2 -2 -2.5 -3t-2.5 -3q-2 -1 -3 -2t-2 -1q-4 -2 -6 -2q-6 2 -8 4
q-1 0 -5 7q-2 6 -2 10q-2 5 0 11q0 3 2 11q2 6 4 9q3 4 7 7q4 2 8 2q3 0 7 -2q3 -3 4 -5zM983 306q2 -6 3 -10q0 -7 -1 -11q0 -5 -2 -11q-1 -4 -5 -10q-1 -4 -6 -6q-3 -3 -8 -3q-4 1 -8 4q-2 1 -4 7q-2 2 -2 4.5t-1 4.5v12q0 3 2 11q1 3 5 9q1 4 6 7q4 2 8 2q5 0 8 -3
q4 -4 5 -7zM976 293q0 3 -2 7q-2 3 -4 3q-3 1 -6 -2q-1 -1 -1.5 -2.5t-1.5 -3.5q-2 -6 -2 -9q-2 -5 0 -9q0 -3 2 -7q1 -3 4 -3q2 -1 5 2t4 6q1 2 1 4.5t1 4.5v9zM1034 313q1 -1 1 -2v-6q-1 -2 -1 -4.5t-1 -4.5q0 -8 -1 -12q0 -3 -0.5 -6t-0.5 -6q-1 -4 -1 -10q-1 -3 -1 -6
l-1 -1q-1 0 -1.5 0.5t-1.5 0.5q-1 1 -1.5 1t-1.5 1q-1 0 -1 0.5t-1 0.5v1v3v5q0 1 0.5 2t0.5 3v7q-2 -6 -3 -8q-1 -3 -3 -7h-2h-3q-1 1 -3 1q0 1 -1 1q-1 2 -1 3t-1 3t-1 4t-1 4q-1 -2 -1 -8q-1 -3 -1 -7q0 -2 -0.5 -3.5t-0.5 -2.5v-4l-2 -1q-1 1 -3 1q-2 2 -3 2q-1 1 -1 2
v6q0 2 0.5 4t0.5 5v11q1 4 1 12q0 3 0.5 5.5t0.5 4.5v7q0 1 2 1q3 0 4 -1q2 0 4 -2q1 -1 2 -1v-1q1 -1 1 -2t1 -3q0 -5 1 -7q0 -2 0.5 -4t0.5 -4q2 -6 2 -8l3 9l3 9q2 2 2.5 4t1.5 4q1 3 3 7h2q2 0 2.5 -0.5t1.5 -0.5z" />
    </font>
</defs>
</svg>
