<?xml version="1.0" standalone="no"?>
<!DOCTYPE svg PUBLIC "-//W3C//DTD SVG 1.1//EN" "http://www.w3.org/Graphics/SVG/1.1/DTD/svg11.dtd" >
<svg>
<metadata>
Created by FontForge 20090622 at Wed Jun 15 20:59:15 2016
 By deploy user
copyright missing
</metadata>
<defs>
<font id="TweetyLite-Regular" horiz-adv-x="516" >
  <font-face 
    font-family="Tweety Lite"
    font-weight="400"
    font-stretch="normal"
    units-per-em="2048"
    panose-1="0 0 5 0 0 0 0 0 0 0"
    ascent="1638"
    descent="-410"
    x-height="352"
    cap-height="789"
    bbox="-95 -495 924 1434"
    underline-thickness="150"
    underline-position="-142"
    unicode-range="U+0020-U+007A"
  />
<missing-glyph horiz-adv-x="1024" 
d="M924 0v1434h-824v-1434h824zM150 1384h724v-1334h-724v1334zM300 1060q76 65 100 79q23 12 50 12q44 0 71 -29.5t27 -87.5q0 -76 -81 -219q-82 -142 -82 -215q0 -48 38 -154h82q-26 102 -26 138q0 32 20 72t39.5 66l75.5 97q63 78 86.5 127t23.5 98q0 79 -62 130t-167 51
q-70 0 -132 -35q-31 -18 -63 -47v-83zM380 331q-11 -11 -11 -21q0 -9 7 -17l62 -71q12 -13 29 -13q11 0 28 17l56 62q10 10 10 21q0 8 -8 19l-56 60q-17 14 -30 14q-15 0 -29 -12z" />
    <glyph glyph-name=".notdef" horiz-adv-x="1024" 
d="M924 0v1434h-824v-1434h824zM150 1384h724v-1334h-724v1334zM300 1060q76 65 100 79q23 12 50 12q44 0 71 -29.5t27 -87.5q0 -76 -81 -219q-82 -142 -82 -215q0 -48 38 -154h82q-26 102 -26 138q0 32 20 72t39.5 66l75.5 97q63 78 86.5 127t23.5 98q0 79 -62 130t-167 51
q-70 0 -132 -35q-31 -18 -63 -47v-83zM380 331q-11 -11 -11 -21q0 -9 7 -17l62 -71q12 -13 29 -13q11 0 28 17l56 62q10 10 10 21q0 8 -8 19l-56 60q-17 14 -30 14q-15 0 -29 -12z" />
    <glyph glyph-name=".null" horiz-adv-x="0" 
 />
    <glyph glyph-name="nonmarkingreturn" horiz-adv-x="682" 
 />
    <glyph glyph-name="space" unicode=" " horiz-adv-x="508" 
 />
    <glyph glyph-name="A" unicode="A" horiz-adv-x="674" 
d="M386 684q-68 6 -107 -31q-40 -75 -129 -355l-40 4q-113 0 -114 -19l-1 -16l6 -25l68 -1l32 -3l27 -6l-65 -204l-8 1q-7 2 -24 38q-9 65 -15 66h-4q-5 1 -8.5 -5t-5.5 -18l-4 -48q29 -156 55 -157h8l33 9q38 69 111 320q46 -4 175 30q46 -254 147 -261l16 -2q35 -2 91 37
q115 173 116 203q-3 21 -10 21l-8 1q-60 -104 -106 -152.5t-78 -41.5q-20 2 -11 246q95 30 105 60l-18 25h-4q-26 3 -91 -24q-17 172 -30 219q6 69 -105 89h-4zM223 304q66 260 93 258l4 -1l4 -4l48 -237q-70 -22 -150 -24z" />
    <glyph glyph-name="B" unicode="B" horiz-adv-x="564" 
d="M312 748q-90 0 -196 -208h-4q-5 32 -12 32q0 52 -96 100l-4 -4q20 -100 20 -144l-16 -400l4 -40q0 -92 56 -92h8q24 0 40 16q12 0 36 260q95 76 188 76h16q32 -20 32 -60l-60 -36q-176 -122 -176 -232q0 -75 44 -116l24 8l4 -4h44q70 0 156 104q76 110 76 276v4
q101 56 104 64l-16 16h-4q-22 0 -88 -32q-24 96 -80 96q-65 0 -104 -12h-4q78 75 104 192v40q0 54 -64 96h-32zM152 492q88 190 140 192h8q20 -20 20 -40v-4q0 -35 -16 -60q-48 -106 -144 -180zM224 32q0 90 144 200h8q-38 -236 -116 -236h-12q-24 10 -24 36z" />
    <glyph glyph-name="C" unicode="C" horiz-adv-x="477" 
d="M289 755q-77 4 -175 -106q-99 -162 -106 -286l-3 -56q6 -120 13 -121l-5 -4q24 -60 43 -82q45 -91 187 -100l12 -1q50 -3 148 63q86 78 135 190l-11 13l-12 1q-27 -20 -91 -113q-43 -46 -147 -59l-71 25q-32 16 -40 81.5t3.5 142t34.5 136.5q63 149 141 144h4
q21 -2 46 -39l12 11l3 44q-29 110 -109 115z" />
    <glyph glyph-name="D" unicode="D" 
d="M112 788q-67 -6 -68 -28q-36 0 -36 -268l4 -96l-12 -340q0 -42 56 -56q53 0 76 104q22 137 52 456q40 75 100 92l16 -4q64 0 92 -156q0 -266 -156 -372q-93 -48 -100 -64v-12l20 -20h52q69 19 104 44q192 134 192 364l-4 72q-36 264 -168 264q-56 0 -136 -96
q-14 116 -84 116z" />
    <glyph glyph-name="E" unicode="E" horiz-adv-x="447" 
d="M276 804q-38 0 -64 -12q-124 -76 -124 -188v-4l4 -20l-4 -4q0 -39 44 -92v-4q-33 -16 -88 -92q-44 -80 -44 -128v-44q0 -46 56 -132q94 -84 184 -84q99 21 180 96q67 73 92 172q-8 24 -16 24h-4l-48 -76q-105 -84 -176 -84q-80 0 -80 96v36q0 102 88 148q80 8 80 28
q0 32 -48 32q-80 0 -80 112q16 160 88 160q28 0 52 -40l8 8v12q0 63 -92 80h-8z" />
    <glyph glyph-name="F" unicode="F" horiz-adv-x="444" 
d="M388 748q-143 0 -288 -32q-100 -19 -100 -124v-436l4 -104q0 -52 28 -52h64q38 0 56 36l24 208q9 164 28 164q152 11 152 32v24q0 40 -48 44q-67 0 -144 -16v20l-4 36l4 12q0 63 172 76q86 0 148 -24q32 14 32 48l-8 32q-24 56 -116 56h-4z" />
    <glyph glyph-name="G" unicode="G" horiz-adv-x="549" 
d="M259 679q-63 0 -160 -112q-96 -167 -96 -292v-60q0 -42 24 -108q59 -104 164 -104h8q46 0 104 32l8 -108v-12q-112 -140 -116 -208v-20q42 -124 132 -124l40 12q88 0 88 344v92q162 225 162 234q-8 16 -24 20q-112 -171 -142 -198v8q0 141 -40 208l-16 -4h-4l-4 4
l-44 -16l-36 -96q-55 -84 -100 -84h-12q-52 0 -52 116l20 140q58 244 148 244q20 0 48 -28q13 3 20 28l-4 16q-31 76 -92 76h-24zM259 -277q8 50 52 108q0 -130 -32 -156h-8q-9 0 -12 24v24z" />
    <glyph glyph-name="H" unicode="H" 
d="M84 732q-33 0 -56 -44l8 -204l-36 -452q0 -32 36 -32h20q81 0 124 376v4l152 12l-4 -100v-104q0 -184 24 -184h4q86 -40 72 120q4 231 12 264l-4 4v4q36 8 48 20q0 25 -40 40l8 152q0 117 -40 124h-32q-44 0 -44 -276q0 -11 -152 -28h-4l4 4v88q0 212 -84 212h-16z" />
    <glyph glyph-name="I" unicode="I" horiz-adv-x="237" 
d="M44 789q-15 0 -32 -20q20 -65 20 -100v-5l-4 -5v-5l4 -5l-4 -55v-15q0 -207 -28 -544l4 -5l-4 -5v-5q8 -20 28 -20h8l44 5h4l4 -5l44 10q30 0 44 375l-4 49q0 320 28 320v10q0 14 -96 25h-60z" />
    <glyph glyph-name="J" unicode="J" horiz-adv-x="324" 
d="M80 687q-21 0 -28 -16v-12q36 -17 36 -144v-136l-4 -88l4 -84v-144l4 -4q-148 -106 -148 -188v-20q21 -76 64 -76q82 0 160 92q29 0 56 220l-4 12l12 20q81 53 168 140v12l-8 8h-4l-16 -4q-74 -74 -140 -116h-4l8 132l-4 52v8l16 280q0 16 16 32v4q-9 20 -40 20h-144z
M20 -85q0 33 72 100v-4q-14 -128 -44 -128q-28 4 -28 28v4z" />
    <glyph glyph-name="K" unicode="K" horiz-adv-x="513" 
d="M72 812q-50 0 -72 -48v-4q32 -172 32 -244l-12 -408q0 -32 -16 -68q0 -35 56 -40h16q28 0 52 24q56 183 56 304h4q22 -14 48 -72q46 -252 156 -252q112 31 199 270v4l-8 8h-8q-110 -218 -139 -218h-32q-31 0 -64 68q-11 73 -32 148q-72 136 -112 136q63 71 128 172
q92 168 120 168q32 -5 32 -24h8l20 20v8q0 32 -40 36q-70 0 -132 -92q-72 -119 -152 -204l-4 28v24q0 101 -16 152q-17 104 -80 104h-8z" />
    <glyph glyph-name="L" unicode="L" horiz-adv-x="462" 
d="M204 788q-92 0 -172 -132q-32 -35 -32 -340v-4q0 -155 20 -220q0 -66 80 -92l16 4l36 -4h48q232 40 232 128v4l-4 4q-33 -24 -88 -24l-48 8q-160 15 -160 36l4 28v4l-4 4l4 12l-8 224q12 148 24 196q132 50 132 100v12q0 40 -68 52h-12zM168 680q20 68 60 68l16 -12v-12
q-7 -22 -76 -44z" />
    <glyph glyph-name="M" unicode="M" horiz-adv-x="674" 
d="M0 736v-236q0 -100 28 -408q0 -84 48 -84q19 5 32 24q44 156 44 188q61 316 84 316h12q12 0 32 -260q0 -48 44 -48h36l4 4l68 192q27 117 48 152h4l-12 -132q0 -108 56 -352q38 -92 92 -92h16q10 0 16 36q-8 58 -8 140l-4 12h4l4 128v32l-4 168q-22 192 -132 192
q-74 0 -124 -140h-8q-52 120 -112 120q-80 0 -108 -144h-8q0 37 -20 80q-51 128 -104 128h-12z" />
    <glyph glyph-name="N" unicode="N" horiz-adv-x="529" 
d="M440 796q-60 0 -60 -96v-28l-4 -20l4 -4l-4 -4l4 -20l-4 -24v-136l4 -20l-4 -4l4 -36v-64l4 -20l-4 -4l16 -168l-4 -16h-8l-36 80l-140 364q-93 208 -156 208h-12q-40 0 -40 -376v-200l4 -160l-4 -12q0 -28 56 -36q29 0 60 40q36 160 36 244l-4 108l8 140h4q10 0 16 -36
q147 -448 228 -448h4l32 8q22 0 36 572l-4 120v8q0 22 -28 40h-4z" />
    <glyph glyph-name="O" unicode="O" horiz-adv-x="529" 
d="M228 740q-69 0 -172 -132q-52 -103 -56 -208v-68q0 -62 24 -148q76 -184 188 -184h8q146 0 204 160q64 150 64 288v52q-45 160 -72 160l-24 -8l4 -100v-16q0 -100 -44 -256q-46 -121 -116 -156h-16q-68 41 -68 144q0 122 24 248q58 148 116 148l32 -8q8 2 16 20v4
q-16 60 -104 60h-8z" />
    <glyph glyph-name="P" unicode="P" horiz-adv-x="449" 
d="M288 800q-85 0 -160 -136q-22 65 -76 116h-16q-36 0 -36 -140v-68l24 -308v-24l4 -40l-4 -4q12 -88 12 -156q0 -22 28 -40h40q34 0 48 68l-4 28l16 244l4 24l-4 24v180q49 148 124 148q24 -4 24 -12q34 0 52 -96l-12 -100q-53 -152 -112 -152h-4l-28 4l-8 -16l4 -4
q0 -80 84 -80q148 52 148 280v60q0 200 -148 200z" />
    <glyph glyph-name="Q" unicode="Q" horiz-adv-x="564" 
d="M206 812q-34 0 -80 -40q-116 -108 -116 -336v-68l4 -56q31 -184 68 -236q38 -84 124 -84h20q60 0 128 28q16 -60 52 -60h40q64 0 76 28v20q-8 38 -76 132v4q48 123 48 180q0 105 -44 304q-94 184 -212 184h-32zM162 320q6 250 92 312h12l52 -16q88 -69 88 -200
q0 -82 -20 -176q-31 31 -52 36q-39 0 -72 -60l52 -112l-20 -20h-20q-100 27 -112 236z" />
    <glyph glyph-name="R" unicode="R" horiz-adv-x="559" 
d="M534 940q-44 0 -92 -15q-194 -146 -237 -232h-5l-15 57q-83 159 -175 159h-5l-5 -5q36 -174 36 -324l-5 -20v-5l5 -5l5 -355v-92l5 -52l-5 -5q0 -31 36 -46q34 0 67 36l36 231h5q0 -15 31 -46q171 -211 318 -211h41v16q-100 0 -339 323q142 96 267 231q88 99 108 242v15
q-15 103 -77 103zM216 591q142 199 215 210q26 -14 26 -41v-10q0 -96 -241 -303v144z" />
    <glyph glyph-name="S" unicode="S" horiz-adv-x="393" 
d="M239 773q-24 0 -72 -16q-160 -73 -160 -212l28 -104q144 -215 144 -324q-192 -73 -192 -232q0 -65 104 -104h32l32 4q208 70 208 244v4q0 65 -12 104q96 74 96 140h-12q-55 -67 -96 -88h-4q-7 25 -84 132q-124 127 -124 208v24q37 148 116 148q32 0 32 -32v-24
q0 -27 -24 -64v-4l4 -4q76 31 76 112v20q-26 68 -92 68zM51 -83q0 82 132 140h4v-40q0 -122 -96 -140q-40 7 -40 40z" />
    <glyph glyph-name="T" unicode="T" horiz-adv-x="488" 
d="M240 828q-46 0 -76 -12q-143 -62 -164 -124v-4l4 -4l104 24l116 -4l12 4l4 -16l-4 -240l8 -260q0 -192 24 -192h8q28 0 80 40q29 0 40 320l-4 12l4 68l-4 268q0 16 60 16l108 -8h12q140 11 140 80l-4 12l-72 -20q-206 40 -300 40h-96z" />
    <glyph glyph-name="U" unicode="U" horiz-adv-x="600" 
d="M123 789q-30 0 -60 -32q-56 -135 -56 -312v-64l4 -72q39 -312 140 -312q32 0 48 16q131 122 160 184q10 0 52 88h4l4 -4l-4 -12v-4l4 -4h-4q0 -256 156 -320l12 4q-48 66 -48 140q0 258 24 540v20q0 80 -80 80h-16q-56 -3 -56 -20v-172q0 -106 -80 -252
q-63 -125 -124 -172h-12q-48 0 -48 148l4 124q22 279 40 316v44q0 42 -52 48h-12z" />
    <glyph glyph-name="V" unicode="V" horiz-adv-x="518" 
d="M488 896q-66 0 -216 -468h-4l-84 304q-16 52 -112 52h-28q-25 0 -44 -28v-20q0 -29 56 -188q133 -501 196 -548h12l52 12q24 82 36 168q0 73 164 684q0 21 -20 32h-8z" />
    <glyph glyph-name="W" unicode="W" horiz-adv-x="700" 
d="M784 658q-27 2 -46 -16q-144 -118 -190 -271h-4q-74 119 -135 190h-4q-24 -16 -29 -49l-115 -243q-10 7 -52 174q-46 250 -104 255l-4 1q-56 5 -100 -35l-1 -12q101 -455 151 -605q-4 -43 40 -48l20 -2q72 3 76 37l100 256q6 -2 27 -99q19 -175 83 -181l17 2q63 -6 66 18
q-11 30 -3 101l10 99q18 189 142 352q14 17 77 53v4l-14 18z" />
    <glyph glyph-name="X" unicode="X" horiz-adv-x="569" 
d="M556 780q-25 0 -72 -44q-111 -129 -176 -236h-8l-92 224q-16 40 -60 40q-100 -22 -100 -52q0 -60 156 -340q-146 -229 -204 -352v-4q11 -20 32 -20h8l20 4q41 54 176 292q14 -8 72 -124q100 -213 144 -240h20q44 0 72 60q0 26 -20 60q-108 187 -184 368q0 20 80 144
q156 171 156 184t-20 36z" />
    <glyph glyph-name="Y" unicode="Y" horiz-adv-x="539" 
d="M53 665q-24 0 -40 -16v-4l4 -4l4 4q18 -8 20 -16v-40q-28 -317 -28 -404v-48q0 -148 100 -148q104 14 104 28q37 0 104 168h4v-4l-24 -192q0 -25 -64 -76q-166 -171 -180 -260l16 -68q47 -80 116 -80q120 0 196 228q43 119 60 276q167 224 167 235q0 13 -12 28l-12 -4
q-87 -111 -131 -151l16 188l-4 36l4 4l-4 16v32l-4 40q0 212 -64 212l-12 -8q-24 -159 -76 -276q-79 -138 -132 -188h-4l-4 52l4 176q-4 86 -24 184q-23 80 -100 80zM129 -351q0 67 156 224q-46 -292 -108 -292h-4q-37 0 -44 60v8z" />
    <glyph glyph-name="Z" unicode="Z" horiz-adv-x="457" 
d="M372 679q-74 0 -276 -28q-72 0 -72 -32v-4q0 -31 44 -36l196 12q0 -20 -8 -20q-256 -412 -256 -548q0 -32 20 -64q93 -60 200 -60h4l4 4l16 -4l44 4h4l4 -4q156 23 227 3l4 4l-4 24q-62 104 -227 101l-104 -4l-20 4h-4q0 42 88 188q184 302 184 412q0 48 -68 48z" />
    <glyph glyph-name="a" unicode="a" horiz-adv-x="424" 
d="M288 418q-36 -28 -36 -52q-52 40 -88 40l-32 -8q-132 -72 -132 -260v-8q32 -128 120 -128q61 0 108 92h4q32 -104 84 -104q48 8 48 16q93 61 149 268v4l-12 12h-12q-66 -164 -141 -228h-20l-8 8v16q52 153 52 192v32q0 72 -56 108h-28zM116 154q22 172 80 172
q34 0 44 -48q-50 -204 -84 -204h-16q-18 3 -24 80z" />
    <glyph glyph-name="b" unicode="b" horiz-adv-x="416" 
d="M60 648q-40 0 -52 -36l-8 -396v-36l4 -128q23 -20 36 -20l28 8q19 0 56 120q31 98 80 124q28 -10 28 -40q-5 -56 -20 -56q-97 -48 -108 -104q0 -56 64 -84q25 0 72 32q100 104 100 168q141 34 141 67l-12 12h-8q-28 -32 -109 -31v40q0 70 -76 76q-104 0 -152 -64l-4 12
l8 164q0 172 -60 172h-8zM152 88q0 35 68 68v-4q-24 -84 -56 -84l-12 12v8z" />
    <glyph glyph-name="c" unicode="c" horiz-adv-x="329" 
d="M180 424q-180 -80 -180 -276q0 -48 28 -88q24 -60 88 -60q168 0 310 253q0 12 -20 20q-186 -201 -234 -201h-4q-52 0 -52 72v28q32 192 108 192l20 -12l12 12v12q0 38 -48 48h-28z" />
    <glyph glyph-name="d" unicode="d" horiz-adv-x="409" 
d="M244 712q-48 0 -48 -108v-52l-4 -160q-10 0 -73 -24q-112 -89 -119 -192v-20q0 -76 72 -76q50 0 108 60q8 0 8 -12q27 -128 100 -128l44 16q140 218 140 246v8l-8 8h-12l-72 -138q-56 -92 -84 -92h-8l-8 40l28 344l-8 100l4 80q1 88 -64 118zM96 196q2 37 92 136v-12
q0 -76 -72 -156h-12l-8 8v24z" />
    <glyph glyph-name="e" unicode="e" horiz-adv-x="352" 
d="M205 397q-25 3 -75 -18q-116 -74 -131 -170l-3 -24q-4 -24 5 -74q24 -133 169 -89q113 59 268 247l-6 9l-8 1l-28 -20q-196 -185 -252 -193l-16 2q-29 4 -31 61l59 16q97 45 139 149l-2 17q10 63 -76 84zM101 185q19 56 42 91q23 32 44 42.5t33 0t13 -35.5l-2 -12
q-8 -45 -127 -90h-4z" />
    <glyph glyph-name="f" unicode="f" horiz-adv-x="209" 
d="M136 634q-13 1 -29 -10q-75 -67 -92 -331l-6 -108q-5 -80 12 -325q-5 -74 79 -89q73 25 78 95q10 172 -85 246q176 92 219 166q-20 -6 -27 -5h-8q-138 -92 -169 -106h-4l4 68l28 67q60 131 64.5 209t-48.5 122zM145 526l5 -61l-1 -8q-3 -47 -27 -114h-8l1 4l4 4l3 52
l19 123h4zM101 51q35 -85 32 -142q-2 -28 -7 -42t-13 -13l-8 1q-9 0 -9 189l1 8z" />
    <glyph glyph-name="g" unicode="g" horiz-adv-x="386" 
d="M119 365q-116 -86 -116 -200v-40q27 -132 116 -132h8q19 0 60 44l-4 -88q-84 -105 -84 -136q0 -75 68 -104q30 0 56 16q45 40 88 268q160 233 160 260v8l-8 8h-4l-152 -232l4 20l-4 20l4 132v36q0 35 -16 60q-19 52 -64 52l-12 -12q-9 -112 -28 -184q0 -104 -68 -104
q-19 0 -24 60q0 73 60 188q36 6 36 16v12q-18 32 -44 32h-32zM147 -187q16 64 32 64v-28q0 -45 -16 -60q-9 0 -16 24z" />
    <glyph glyph-name="h" unicode="h" horiz-adv-x="383" 
d="M64 608q-64 -188 -64 -376v-152q0 -80 32 -80q100 0 100 124v32l-4 20h4v8l-4 52l4 40q0 28 60 56q16 -17 16 -44q-20 -94 -20 -132v-28l4 -24q0 -63 88 -84q23 0 52 20q128 148 128 208l-12 12h-4q-12 0 -40 -64q-47 -87 -100 -120q12 54 12 140q0 153 -100 192
q-28 0 -84 -48l16 216v4q0 36 -28 52h-24z" />
    <glyph glyph-name="i" unicode="i" horiz-adv-x="212" 
d="M72 484q-44 0 -44 -48q15 -44 36 -44q48 10 48 44v8q0 33 -40 40zM56 352q-56 0 -56 -168v-40q0 -144 76 -144h24q70 0 175 274v4l-12 12l-12 -8q-99 -218 -139 -218h-4l8 152v40q0 96 -60 96z" />
    <glyph glyph-name="j" unicode="j" horiz-adv-x="222" 
d="M43 492q-23 3 -44 -23l-1 -8q19 -38 49 -41t35 31l1 11q-14 26 -36 29zM65 380q-70 -3 -71 -19l-2 -16l7 -9q39 -295 29 -371q-111 -82 -119 -146l-4 -27q3 -72 54 -80l41 -1q117 29 136 188l15 111l8 21l23 40q106 191 108 207l-11 13l-126 -193l-13 147q3 125 -75 135z
M-47 -215q7 67 71 120l1 -28l-3 -20q-12 -95 -48 -90z" />
    <glyph glyph-name="k" unicode="k" horiz-adv-x="386" 
d="M68 692q-16 -4 -36 -56l-32 -592q0 -26 36 -40q44 0 64 92q0 75 20 80q43 0 88 -84q20 -92 68 -92l20 4q108 96 167 246q-3 28 -12 28h-4q-16 -7 -16 -24q-71 -123 -131 -182h-20l-4 4q-22 91 -56 136v4h8q120 76 120 180q-24 52 -52 52q-90 0 -172 -72l4 120
q0 196 -40 196h-20zM120 292q0 58 76 76h16l12 -12v-8q0 -56 -112 -128z" />
    <glyph glyph-name="l" unicode="l" horiz-adv-x="237" 
d="M44 604q-40 0 -44 -436q0 -168 76 -168q18 0 64 20q133 149 173 254v4l-32 4q-91 -168 -157 -206h-4l8 372q0 116 -64 156h-20z" />
    <glyph glyph-name="m" unicode="m" horiz-adv-x="521" 
d="M44 406q-44 -3 -44 -36q7 -197 16 -244q0 -136 24 -136l24 4q68 29 68 140q31 94 60 154h24l28 -58l16 4l64 56l-4 -60v-60q0 -168 84 -168q26 0 64 36q107 130 136 232v8l-12 12h-4l-20 -16q-86 -156 -120 -188h-8v56l4 40l-4 44q0 119 -80 136q-42 0 -100 -64
q0 43 -52 68q-25 -1 -84 -80q-40 120 -80 120z" />
    <glyph glyph-name="n" unicode="n" horiz-adv-x="375" 
d="M32 404q-32 -12 -32 -60v-92l4 -104l-4 -12l4 -84q0 -38 96 -52q36 14 36 72v12q0 196 48 216l12 -16q-36 -114 -36 -156v-36q0 -63 80 -92h24q95 0 189 268v12l-8 8h-8l-16 -12q-79 -208 -125 -208h-8l-8 8v24q44 150 44 188q0 34 -12 40q0 33 -80 60h-16q-46 0 -84 -60
h-4q0 44 -72 76h-24z" />
    <glyph glyph-name="o" unicode="o" horiz-adv-x="347" 
d="M120 352q-120 -87 -120 -192q0 -38 16 -76q56 -84 112 -84h24q65 0 112 56q14 34 36 60q96 71 122 137q-5 20 -12 20h-4l-4 -4q-57 -84 -114 -121h-4v40q-14 108 -80 108h-8q0 36 -36 56h-40zM144 216q36 43 68 48q32 -8 32 -52v-32l-4 -40q-72 0 -96 76zM132 160
q46 -52 88 -52q-14 -24 -36 -24h-8q-44 0 -44 72v4z" />
    <glyph glyph-name="p" unicode="p" horiz-adv-x="457" 
d="M35 375q-25 0 -28 -100q-3 -443 -28 -492v-20q25 -36 68 -36h12q70 0 80 340h4q0 -67 108 -92l48 12q92 62 92 172l-4 12q149 57 149 107h-4l-4 4l-145 -75l-8 44q-53 96 -108 96q-61 0 -148 -116q0 91 -68 144h-16zM139 183q61 88 104 88h8q14 0 20 -44l-4 -40
q-43 -5 -68 -16q-56 -32 -56 -60h-4v28l4 40zM175 87q0 49 84 68q-25 -112 -56 -112q-28 4 -28 36v8z" />
    <glyph glyph-name="q" unicode="q" horiz-adv-x="345" 
d="M108 349q-108 -85 -108 -184v-48q0 -91 84 -124q51 0 92 44l-8 -244q7 -64 48 -64h4q86 -35 216 537l-29 22l-135 -431l8 24l4 316q0 38 -60 44q-28 -7 -28 -28q-10 -96 -64 -96h-8q-28 19 -28 44v16q18 116 72 116q16 0 36 -16h4l20 20q0 60 -76 60z" />
    <glyph glyph-name="r" unicode="r" horiz-adv-x="345" 
d="M76 412q-76 -25 -76 -84v-16q27 -80 100 -80l52 8q-20 -38 -24 -84q0 -136 108 -156q84 0 184 270v8l-8 8h-8l-12 -8q-92 -194 -136 -194q-20 0 -24 12v16q0 26 8 44q52 117 52 156q-10 32 -24 36h-4l-24 -4q-109 -64 -132 -64h-8q32 53 32 76v8q0 48 -52 48h-4zM36 316
q1 16 12 16h12l8 -8v-4q0 -8 -28 -24z" />
    <glyph glyph-name="s" unicode="s" horiz-adv-x="276" 
d="M77 442q-66 0 -80 -92v-20l4 -16l92 -152q-76 -64 -76 -116q15 -72 88 -72h8q92 62 92 148v8l-4 28q140 56 140 104v8l-8 8q-78 -69 -148 -80q-3 34 -68 116q40 28 40 64v12q0 43 -64 52h-16zM85 382h12l8 -8v-20l-12 -12h-12l-8 16v12zM73 70q0 27 32 44h4l4 -28
q0 -31 -24 -40q-16 0 -16 12v12z" />
    <glyph glyph-name="t" unicode="t" horiz-adv-x="240" 
d="M38 623q-12 0 -12 -44v-80l4 -40l-68 4l-44 -8v-12q0 -13 64 -28h20l28 4l-20 -340q0 -78 96 -92h28l24 8q111 111 157 275l-8 8h-12l-20 -28q-101 -207 -141 -207q-16 39 -16 68v12l4 16v4l-4 4l4 144v124h8q96 18 96 44l-4 12l-20 -4h-36q-52 0 -52 16l4 28
q-24 112 -68 112h-12z" />
    <glyph glyph-name="u" unicode="u" horiz-adv-x="368" 
d="M44 388q-28 0 -40 -28l-4 -244q0 -91 68 -108h20q82 0 112 76h4q0 -12 8 -12q4 -34 76 -72q21 0 40 16q86 121 106 234v12l-8 8h-4l-8 -8q-56 -150 -102 -190h-4q-9 0 -24 44q0 232 -36 232h-20l-12 -12v-16q0 -112 -60 -168l-20 4l-8 124q-17 108 -64 108h-20z" />
    <glyph glyph-name="v" unicode="v" horiz-adv-x="411" 
d="M292 428q-61 0 -84 -128q23 -96 52 -96l-28 -64h-8v8q-121 196 -200 196q-20 0 -24 -12v-4l120 -292q0 -36 108 -36q21 0 84 164l12 -8h4l4 4q0 -8 28 -8q50 0 127 122v4l-8 8h-4l-91 -98h-20q-15 0 -28 16v4q40 74 40 104v8q-22 108 -68 108h-16zM252 320q0 41 52 68
q23 -20 24 -28q0 -36 -52 -124q-24 26 -24 44v40z" />
    <glyph glyph-name="w" unicode="w" horiz-adv-x="495" 
d="M44 360q-30 0 -44 -24v-20l8 -36q53 -165 68 -184q27 -96 72 -96q34 0 68 64q11 56 20 56v-12q51 -96 96 -96h24q59 0 92 184q119 27 119 67l-8 12q-67 -47 -107 -47l-4 12h4q0 96 -68 96h-16q-36 -22 -36 -60q20 -80 68 -80q-26 -98 -48 -104q-12 13 -12 28
q-25 172 -96 172h-8l-4 -4q-26 0 -56 -132l-12 12q-40 122 -116 192h-4zM384 292h8q13 -3 20 -28l-4 -36q-32 11 -32 36v20z" />
    <glyph glyph-name="x" unicode="x" horiz-adv-x="421" 
d="M375 378q-14 -5 -95 -116q-52 100 -91 105h-4l-4 -4v4q-16 2 -42 -16q-108 -97 -113 -141l-1 -8l15 -18l101 90l16 -1q15 -8 47 -97q-76 -79 -107 -127q4 -35 16 -37l20 -2q47 34 94 108q50 -112 90 -116q88 36 218 250q1 16 -13 26h-4q-121 -171 -157 -188l-50 109l1 16
l77 138q2 20 -10 25h-4z" />
    <glyph glyph-name="y" unicode="y" horiz-adv-x="391" 
d="M21 378q-8 -2 -16 -20l8 -48l-8 -188v-16q16 -108 80 -108h12l44 12q68 79 68 104h4v-8l-12 -120q-95 -116 -96 -188q17 -92 72 -92q36 0 68 36q41 46 68 292q151 207 153 240v4l-12 12h-4l-129 -196v16q-9 188 -76 188h-16q-11 0 -20 -52q-20 -79 -68 -124h-8v40l-12 92
q-34 124 -88 124h-12zM157 -178q0 36 48 92q0 -124 -28 -124h-4q-16 7 -16 28v4z" />
    <glyph glyph-name="z" unicode="z" horiz-adv-x="360" 
d="M155 433q-128 -89 -128 -180q1 -40 26 -48h4q109 132 134 132q8 0 12 -28q0 -17 -40 -72q-60 -67 -60 -116v-4q0 -30 40 -36h32l28 4l4 -20v-4l-24 -24q-144 -91 -144 -220v-12q10 -76 68 -76q49 0 92 48q96 127 96 268l-4 28l153 181v16l-8 8h-12l-145 -157
q-24 28 -44 28h-8l-28 -4v4l4 4q108 125 108 204q0 69 -92 84h-28zM103 -139q0 47 96 140q-22 -151 -76 -160h-12l-8 8v12z" />
  </font>
</defs>
</svg>
